<?xml version="1.0" encoding="utf-8"?>
<!-- Generator: Adobe Illustrator 22.0.1, SVG Export Plug-In . SVG Version: 6.00 Build 0)  -->
<svg version="1.1" baseProfile="tiny" id="Logo" xmlns="http://www.w3.org/2000/svg" xmlns:xlink="http://www.w3.org/1999/xlink"
  xml:space="preserve">
<symbol id="symbol" viewBox="0 0 616.4 389.6" x="0px" y="0px">
	<g id="A" fill="#ffac00">
		<path d="M356.4,24.4c-0.7-2.4-2.6-3.9-4.6-3.9s-3.9,1.7-4.7,4.1L238,380.8c-1,3.3,0.3,7,2.8,8.3c2.6,1.3,5.5-0.4,6.5-3.6
			l37.6-123.2h133.7l37.7,123.2c0.8,2.5,2.7,4.1,4.7,4.1c0.6,0,1.2-0.1,1.8-0.4c2.6-1.3,3.8-5,2.8-8.3L356.4,24.4z M288.9,249.5
			l63-205.4l63,205.4H288.9z"/>
		<path fill="#CCCCCC" d="M349.6,90.4l-42.4,138.2c-0.5,1.7,0.1,3.4,1.4,4.1c0.3,0.1,0.6,0.3,0.9,0.3c1,0,1.9-0.8,2.3-2l42.4-138.2
			c0.5-1.7-0.1-3.4-1.4-4.1C351.5,87.9,350.1,88.8,349.6,90.4z"/>
		<path fill="#CCCCCC" d="M294.5,278.8c-1.3-0.6-2.7,0.1-3.2,1.8l-31.1,101.3c-0.5,1.7,0.1,3.4,1.4,4.1c0.3,0.1,0.6,0.3,0.9,0.3
			c1,0,1.9-0.8,2.3-2L295.9,283C296.4,281.3,295.7,279.4,294.5,278.8z"/>
	</g>
	<path id="N_1_" d="M336.9,24.4c-0.7-2.4-2.6-3.9-4.6-3.9s-3.9,1.7-4.7,4.1L223.2,365.2L118.8,24.4c-0.7-2.4-2.6-3.9-4.6-3.9
		s-3.9,1.7-4.7,4.1L0.3,380.8c-1,3.3,0.3,7,2.8,8.3c2.6,1.3,5.5-0.4,6.5-3.6l36.7-119.7c0-0.3,0.1-0.7,0.2-1.1
		c1.6-5.1,2.7-11,5-15.7l62.8-204.8l62.3,203.2c0.4,0.4,0.7,0.9,0.9,1.7c1,5,2.9,9.6,4.3,14.5c0.2,0.6,0.2,1.1,0.1,1.6l36.2,118.3
		c0.1,2.4,1.3,4.7,3.1,5.6c0.5,0.2,0.9,0.4,1.4,0.4c0.3,0.1,0.5,0.1,0.8,0.1c0.6,0,1.2-0.1,1.8-0.4c1.9-1,3-3.2,3.1-5.6l37.1-121.3
		h0.3c0.2-1.1,0.5-2.1,0.9-3.1c0.3-1.4,0.8-2.7,1.4-3.9c0.4-1.3,0.8-2.7,0.9-4.2c0.1-0.7,0.3-1.3,0.6-1.8l62.4-203.6
		c1-6.1,3-11.9,5.1-17.6v-1.8c0-0.4,0.1-0.8,0.2-1.1L336.9,24.4z"/>
	<text transform="matrix(1.0938 0 0 1 394.3512 223.9375)" font-family="'ArialMT'" font-size="260.9527px">O</text>
	<g id="Oiseaux">
		<g id="oiseauG">
			<g>
				<g>
					<g>
						<path fill="#FFFFFF" d="M498.6,163.2c0,0-1.7,3.2-6.2,8.2c-4.9,5.5-6.9,9.9-8.3,10.3s1-5,0.5-4.8c-0.6,0.2-5.5,5.8-7.1,4.6
							s9.8-8.5,8.7-10.8c-0.8-1.6-14.3-7.3-22.9-20L498.6,163.2z"/>
						<path d="M498.8,163.1c0,0.1,0,0.1,0,0.2l0,0v0.1l-0.1,0.2l-0.1,0.3l-0.3,0.6c-0.2,0.4-0.4,0.8-0.6,1.2
							c-0.4,0.8-0.8,1.5-1.3,2.3c-0.9,1.5-1.9,2.9-3,4.3c-1,1.3-2,2.7-3,4.1l-2.8,4.3c-0.3,0.4-0.5,0.7-0.8,1.1
							c-0.3,0.4-0.6,0.8-1.3,1.3c-0.2,0.1-0.4,0.3-0.7,0.4c0,0-0.2,0.1-0.3,0.1c-0.1,0-0.2,0-0.4,0.1c-0.2,0-0.4,0-0.6,0
							c-0.2-0.1-0.5-0.2-0.7-0.3s-0.3-0.3-0.5-0.5c-0.1-0.2-0.2-0.3-0.2-0.4c-0.1-0.2-0.1-0.3-0.1-0.3c0-0.1,0-0.2-0.1-0.3
							c0-0.3,0-0.5,0-0.7c0.1-0.7,0.2-1.1,0.3-1.6c0.1-0.5,0.3-0.9,0.4-1.3c0.1-0.4,0.3-0.8,0.3-1.1c0,0,0-0.1,0,0l0,0
							c0,0.1,0,0.1,0,0.2c0,0.1,0,0.3,0.1,0.4c0,0.1,0,0.1,0.1,0.3s0.3,0.4,0.5,0.5c0.5,0.3,0.7,0.3,1.1,0.3c0.2,0,0.3-0.1,0.5-0.1
							h0.1c0.2-0.1,0.2-0.1,0.2-0.1c-0.1,0-0.2,0.2-0.4,0.3l-1,0.8c-1.4,1.1-2.7,2.2-4.7,3.1c-0.3,0.1-0.5,0.2-0.9,0.2
							c-0.3,0-0.8,0.1-1.3-0.2c-0.1-0.1-0.2-0.1-0.3-0.2c-0.1-0.1-0.3-0.3-0.4-0.5s-0.2-0.4-0.2-0.6c0-0.2,0-0.3,0-0.5
							c0.1-0.5,0.3-0.7,0.5-0.9c0.7-0.8,1.3-1.3,2-1.9c1.3-1.1,2.7-2.2,3.9-3.3c0.6-0.6,1.2-1.2,1.8-1.8c0.3-0.3,0.5-0.6,0.7-1
							c0.2-0.3,0.4-0.7,0.3-0.9c0-0.1,0-0.1-0.1-0.2c0-0.1-0.2-0.2-0.4-0.3c-0.3-0.2-0.7-0.4-1-0.7l-2.2-1.3c-1.5-0.8-3-1.7-4.5-2.6
							c-6.1-3.5-11.5-8.3-15.8-14.2l-3.7-5.2l6.1,2c3.1,1,6.2,2.1,9.2,3.3s6,2.4,9,3.6c2.9,1.2,5.8,2.5,8.6,3.7
							C493.5,160.7,496.2,161.9,498.8,163.1z M498.4,163.2l-9.6-2.5c-3.1-0.8-6.1-1.6-9.1-2.5c-2.9-0.8-5.8-1.7-8.7-2.6
							c-2.8-0.9-5.6-1.9-8.4-2.9l2.4-3.2c3.6,5.5,8.5,10.2,13.7,14.5c1.3,1.1,2.7,2.1,4.1,3.1l2.1,1.5c0.4,0.3,0.7,0.5,1.1,0.8
							c0.2,0.2,0.4,0.3,0.6,0.6c0.1,0.1,0.2,0.2,0.3,0.4c0.1,0.2,0.1,0.4,0.1,0.6c0,0.7-0.3,1.1-0.6,1.5c-0.3,0.4-0.6,0.8-0.8,1.1
							c-0.6,0.7-1.2,1.3-1.8,1.9c-1.2,1.2-2.5,2.4-3.7,3.6c-0.6,0.6-1.2,1.3-1.5,1.9c-0.1,0.1-0.1,0.3-0.1,0.2s0,0,0-0.1
							s0-0.2-0.1-0.3c0-0.1-0.2-0.2-0.2-0.2s0,0-0.1,0c-0.2-0.1,0.1-0.1,0.3-0.3c0.5-0.3,1.2-0.9,1.7-1.4c0.6-0.6,1.2-1.2,1.7-1.8
							c0.3-0.3,0.6-0.6,0.9-0.9c0.2-0.2,0.3-0.3,0.6-0.5c0.1-0.1,0.1-0.1,0.5-0.3h0.1c0.1-0.1,0.3-0.1,0.5-0.1c0.4,0,0.7,0,1.1,0.3
							c0.2,0.1,0.4,0.3,0.5,0.5s0.1,0.2,0.2,0.3c0.1,0.2,0.1,0.3,0.1,0.5c0,0.1,0,0.2,0,0.4v0.2v0.3c-0.1,0.6-0.2,1-0.3,1.4
							l-0.3,1.1c-0.1,0.4-0.2,0.8-0.2,0.9l0,0v-0.1c0,0,0-0.1-0.1-0.2c0-0.1-0.1-0.1-0.2-0.3c-0.1-0.1-0.2-0.2-0.4-0.4
							c-0.2-0.1-0.4-0.2-0.5-0.2s-0.3,0-0.4,0s-0.1,0-0.2,0s-0.1,0-0.1,0l-0.1,0.1c0,0,0.3-0.3,0.5-0.5l0.7-0.9c2-2.7,4.2-5.6,6.7-8
							c1.2-1.2,2.4-2.4,3.6-3.6c0.6-0.6,1.2-1.3,1.7-1.9l0.8-1l0.4-0.5l0.2-0.2L498.4,163.2v-0.1l0,0
							C498.4,163.1,498.4,163.2,498.4,163.2z"/>
					</g>
				</g>
				<g>
					<line stroke="currentColor" stroke-miterlimit="10" x1="475.7" y1="163.4" x2="497.8" y2="163.4"/>
					<line stroke="currentColor" stroke-miterlimit="10" x1="476.3" y1="163.9" x2="497.8" y2="163.9"/>
					<line stroke="currentColor" stroke-miterlimit="10" x1="497.8" y1="164.3" x2="476.8" y2="164.3"/>
					<line stroke="currentColor" stroke-miterlimit="10" x1="497.6" y1="164.7" x2="477.5" y2="164.7"/>
					<line stroke="currentColor" stroke-miterlimit="10" x1="478.1" y1="165.2" x2="497.3" y2="165.2"/>
					<line stroke="currentColor" stroke-miterlimit="10" x1="497" y1="165.6" x2="478.7" y2="165.6"/>
					<line stroke="currentColor" stroke-miterlimit="10" x1="496.7" y1="166" x2="479.4" y2="166"/>
					<line stroke="currentColor" stroke-miterlimit="10" x1="496.4" y1="166.5" x2="480" y2="166.5"/>
					<line stroke="currentColor" stroke-miterlimit="10" x1="496.1" y1="166.9" x2="480.7" y2="166.9"/>
					<line stroke="currentColor" stroke-miterlimit="10" x1="495.8" y1="167.3" x2="481.3" y2="167.3"/>
					<line stroke="currentColor" stroke-miterlimit="10" x1="495.4" y1="167.8" x2="482" y2="167.8"/>
					<line stroke="currentColor" stroke-miterlimit="10" x1="495.1" y1="168.2" x2="482.7" y2="168.2"/>
					<line stroke="currentColor" stroke-miterlimit="10" x1="494.8" y1="168.7" x2="483.4" y2="168.7"/>
					<line stroke="currentColor" stroke-miterlimit="10" x1="494.4" y1="169.1" x2="484.1" y2="169.1"/>
					<line stroke="currentColor" stroke-miterlimit="10" x1="494" y1="169.5" x2="484.8" y2="169.5"/>
					<line stroke="currentColor" stroke-miterlimit="10" x1="493.7" y1="170" x2="485.4" y2="170"/>
					<line stroke="currentColor" stroke-miterlimit="10" x1="493.3" y1="170.4" x2="485.9" y2="170.4"/>
					<line stroke="currentColor" stroke-miterlimit="10" x1="492.9" y1="170.8" x2="486.2" y2="170.8"/>
					<line stroke="currentColor" stroke-miterlimit="10" x1="492.5" y1="171.3" x2="486.3" y2="171.3"/>
					<line stroke="currentColor" stroke-miterlimit="10" x1="492.1" y1="171.7" x2="486.1" y2="171.7"/>
					<line stroke="currentColor" stroke-miterlimit="10" x1="491.8" y1="172.1" x2="485.9" y2="172.1"/>
					<line stroke="currentColor" stroke-miterlimit="10" x1="491.4" y1="172.6" x2="485.6" y2="172.6"/>
					<line stroke="currentColor" stroke-miterlimit="10" x1="491" y1="173" x2="485.3" y2="173"/>
					<line stroke="currentColor" stroke-miterlimit="10" x1="490.7" y1="173.4" x2="484.9" y2="173.4"/>
					<line stroke="currentColor" stroke-miterlimit="10" x1="490.3" y1="173.9" x2="484.5" y2="173.9"/>
					<line stroke="currentColor" stroke-miterlimit="10" x1="490" y1="174.3" x2="484.1" y2="174.3"/>
					<line stroke="currentColor" stroke-miterlimit="10" x1="489.6" y1="174.8" x2="483.7" y2="174.8"/>
					<line stroke="currentColor" stroke-miterlimit="10" x1="489.3" y1="175.2" x2="483.2" y2="175.2"/>
					<line stroke="currentColor" stroke-miterlimit="10" x1="489" y1="175.6" x2="482.8" y2="175.6"/>
					<line stroke="currentColor" stroke-miterlimit="10" x1="488.7" y1="176.1" x2="482.3" y2="176.1"/>
					<line stroke="currentColor" stroke-miterlimit="10" x1="488.3" y1="176.5" x2="481.8" y2="176.5"/>
					<line stroke="currentColor" stroke-miterlimit="10" x1="488" y1="176.9" x2="481.3" y2="176.9"/>
					<line stroke="currentColor" stroke-miterlimit="10" x1="487.7" y1="177.4" x2="484.7" y2="177.4"/>
					<line stroke="currentColor" stroke-miterlimit="10" x1="480.8" y1="177.4" x2="484.1" y2="177.4"/>
					<line stroke="currentColor" stroke-miterlimit="10" x1="487.4" y1="177.8" x2="484.5" y2="177.8"/>
					<line stroke="currentColor" stroke-miterlimit="10" x1="480.4" y1="177.8" x2="483.6" y2="177.8"/>
					<line stroke="currentColor" stroke-miterlimit="10" x1="479.9" y1="178.2" x2="483.1" y2="178.2"/>
					<line stroke="currentColor" stroke-miterlimit="10" x1="487.1" y1="178.2" x2="484.4" y2="178.2"/>
					<line stroke="currentColor" stroke-miterlimit="10" x1="479.4" y1="178.7" x2="482.7" y2="178.7"/>
					<line stroke="currentColor" stroke-miterlimit="10" x1="486.8" y1="178.7" x2="484.3" y2="178.7"/>
					<line stroke="currentColor" stroke-miterlimit="10" x1="479" y1="179.1" x2="482.2" y2="179.1"/>
					<line stroke="currentColor" stroke-miterlimit="10" x1="486.5" y1="179.1" x2="484.2" y2="179.1"/>
					<line stroke="currentColor" stroke-miterlimit="10" x1="478.5" y1="179.5" x2="481.7" y2="179.5"/>
					<line stroke="currentColor" stroke-miterlimit="10" x1="486.2" y1="179.5" x2="484" y2="179.5"/>
					<line stroke="currentColor" stroke-miterlimit="10" x1="485.9" y1="180" x2="483.9" y2="180"/>
					<line stroke="currentColor" stroke-miterlimit="10" x1="478.1" y1="180" x2="481.2" y2="180"/>
					<line stroke="currentColor" stroke-miterlimit="10" x1="477.8" y1="180.4" x2="480.6" y2="180.4"/>
					<line stroke="currentColor" stroke-miterlimit="10" x1="485.5" y1="180.4" x2="483.8" y2="180.4"/>
					<line stroke="currentColor" stroke-miterlimit="10" x1="477.5" y1="180.9" x2="480" y2="180.9"/>
					<line stroke="currentColor" stroke-miterlimit="10" x1="485.2" y1="180.9" x2="483.7" y2="180.9"/>
					<line stroke="currentColor" stroke-miterlimit="10" x1="477.4" y1="181.3" x2="479.3" y2="181.3"/>
					<line stroke="currentColor" stroke-miterlimit="10" x1="484.8" y1="181.3" x2="483.7" y2="181.3"/>
				</g>
			</g>
			<g>
				<g>
					<path fill="#ffac00" d="M458,118.3L458,118.3c3.2-7.8,10.7-13.4,19.5-13.4c11.6,0,21.1,9.7,21.1,21.6c0,0.7,0,1.3-0.1,1.9l0,0
						l0,0c-0.1,0.7-0.2,1.4-0.3,2c-1.4,12.6,3.9,16.1,2.8,24.4c-1.4,10.7-7.7,15.6-12.5,14.7c-3.3-0.6-20.3-11.8-28.7-23.8
						C451.3,133.8,458,118.3,458,118.3z"/>
					<path d="M457.9,118.1C457.8,118.3,457.9,118.2,457.9,118.1L457.9,118.1L457.9,118.1L457.9,118.1L457.9,118.1l0.1-0.3l0.2-0.4
						c0.1-0.3,0.2-0.6,0.4-0.9c0.3-0.6,0.6-1.1,0.9-1.7c0.6-1.1,1.4-2.1,2.2-3.1c1.6-2,3.6-3.7,5.8-5.1c4.4-2.8,10.1-3.9,15.5-2.6
						c5.3,1.2,10.1,4.7,13,9.3c2.9,4.6,3.9,10.2,3.2,15.3l-0.6-0.8l0,0l0.7,0.2l-0.1,0.7c-0.4,2.4-0.7,4.6-0.7,7
						c0,2.3,0.4,4.7,1,6.9c0.6,2.3,1.5,4.5,2.1,6.9c0.3,1.2,0.4,2.5,0.4,3.7c0,0.6,0,1.3-0.1,1.9l-0.2,1.8c-0.4,2.5-1,4.9-2.2,7.2
						s-2.9,4.5-5.3,5.9c-1.2,0.7-2.6,1.2-4.1,1.4c-0.8,0.1-1.5,0-2.3-0.1l-0.6-0.2l-0.3-0.1l-0.2-0.1l-0.9-0.4
						c-2.3-1.1-4.4-2.4-6.5-3.7c-4.1-2.7-7.9-5.7-11.5-9c-3.5-3.4-6.9-7-9.6-11.2c-1.3-2.2-2.4-4.6-2.9-7.1s-0.8-4.9-0.6-7.4
						c0.1-2.5,0.5-4.9,1-7.2c0.3-1.2,0.6-2.3,0.9-3.5c0.2-0.6,0.4-1.1,0.5-1.7l0.3-0.8l0.2-0.4l0.1-0.2
						C457.8,118.3,457.9,118.2,457.9,118.1z M458.1,118.5C458.1,118.6,458.1,118.5,458.1,118.5l-0.1,0.3l-0.1,0.4l-0.3,0.8
						c-0.2,0.6-0.3,1.1-0.5,1.7c-0.3,1.1-0.5,2.3-0.7,3.5c-0.3,2.3-0.4,4.7-0.2,7c0.2,2.3,0.8,4.6,1.6,6.7l0.7,1.6
						c0.2,0.5,0.5,1,0.8,1.5l0.4,0.7c0.1,0.2,0.3,0.5,0.5,0.7l0.9,1.4c5.7,7.2,13,13.3,20.5,18.8c1.9,1.3,3.9,2.6,5.8,3.7l0.7,0.3
						l0.2,0.1h0.1l0.2,0.1c0.4,0.1,0.8,0.1,1.3,0.1c0.9,0,1.8-0.3,2.6-0.8c1.7-0.9,3.2-2.5,4.4-4.4c1.2-1.9,2-4,2.5-6.2
						c0.6-2.3,0.8-4.5,0.5-6.7c-0.3-2.3-1.1-4.5-1.6-6.9c-0.6-2.3-0.9-4.8-1-7.2s0-4.9,0.3-7.3l0.6,0.9l0,0l-0.6-0.1v-0.7
						c0.2-4.9-1.5-9.7-4.3-13.4c-2.8-3.8-6.8-6.5-11.2-7.8c-4.4-1.3-9.4-1.2-13.9,0.7c-1.1,0.5-2.2,1.1-3.2,1.8
						c-0.5,0.3-1,0.7-1.5,1.1s-0.9,0.8-1.4,1.3c-0.4,0.5-0.9,0.9-1.2,1.4l-0.6,0.7l-0.5,0.8c-0.4,0.5-0.6,1.1-0.9,1.6
						c-0.2,0.3-0.3,0.6-0.4,0.8l-0.2,0.4l-0.1,0.2v0.1v0.1l0,0l0,0C458.2,118.4,458.3,118.3,458.1,118.5z"/>
				</g>
				<g>
					<path d="M488,169.5c-2.5-0.9-4.8-2.3-7-3.6c-2.2-1.4-4.4-2.9-6.5-4.5s-4.1-3.3-6.1-5.1s-3.8-3.7-5.5-5.7
						c-0.9-1-1.7-2.1-2.5-3.1c-0.7-1.2-1.5-2.3-2-3.6c-1.1-2.5-1.8-5.2-1.9-7.8c-0.4-5.4,0.7-10.7,2.7-15.6l0.1-0.2l0.3,0.1l0,0
						l-0.4,0.2c1-2.3,2.3-4.4,3.9-6.2c1.6-1.9,3.6-3.4,5.8-4.5c4.3-2.4,9.6-3.1,14.5-2s9.4,4.1,12.3,8.3c2.9,4.1,4.4,9.3,3.9,14.4
						l-0.8-1.1l0,0l0.9,0.2l-0.1,1c-0.3,2-0.5,3.8-0.5,5.7s0.1,3.8,0.5,5.6c0.4,1.9,0.9,3.7,1.4,5.6c0.5,1.9,0.9,4,0.9,6
						c0,0.5,0,1-0.1,1.5c0,0.5-0.1,1-0.2,1.5c-0.2,1-0.4,2-0.7,2.9c-0.6,1.9-1.4,3.8-2.6,5.5c-1.1,1.7-2.6,3.1-4.4,4.1
						C492.1,169.9,489.9,170.3,488,169.5l0.1-0.2c1.9,0.6,3.9,0.1,5.4-0.9c1.6-1,2.9-2.4,3.9-4.1c1.9-3.2,2.8-7.2,2.9-10.9
						c0-3.7-1.8-7.3-2.6-11.3c-0.4-2-0.6-4-0.6-6c0-1,0-2,0.1-3c0.1-1.1,0.2-1.9,0.4-3l0.8,1.2l0,0l-0.9-0.2l0.1-0.9
						c0.4-4.6-0.8-9.3-3.4-13.2c-2.6-3.8-6.6-6.7-11.1-7.9c-4.5-1.3-9.5-0.9-13.8,1.2s-7.7,5.9-9.5,10.3l-0.1,0.3l-0.3-0.1l0,0
						l0.4-0.2c-0.9,2.4-1.5,5-1.9,7.5c-0.3,2.6-0.4,5.2,0,7.7c0.3,2.5,1.1,5,2.1,7.3c0.5,1.2,1.2,2.2,1.9,3.3c0.8,1,1.5,2.1,2.4,3
						c3.3,4,7.1,7.5,11.1,10.9c2,1.7,4.1,3.3,6.2,4.8s4.3,3,6.6,4.2L488,169.5z"/>
				</g>
				<g>
					<path d="M487.6,169.4c-2.5-1-4.8-2.3-7.1-3.8c-2.3-1.4-4.5-3-6.6-4.6c-4.3-3.2-8.4-6.8-12-10.9c-0.9-1-1.7-2.1-2.6-3.2
						c-0.8-1.2-1.6-2.3-2.1-3.5c-1.2-2.5-2-5.2-2.3-7.9c-0.3-2.8-0.2-5.5,0.2-8.2c0.4-2.7,1.1-5.4,2.1-8l0.3-0.7l0.8,0.2l0,0l-1,0.5
						c1-2.4,2.4-4.6,4.2-6.5c1.8-1.9,3.9-3.5,6.2-4.7c2.3-1.2,4.9-2,7.5-2.3s5.2-0.1,7.8,0.5c2.5,0.6,4.9,1.7,7.1,3.2
						c2.1,1.5,4,3.3,5.5,5.5c3,4.2,4.4,9.6,3.9,14.7l-0.6-0.9l0,0l0.7,0.2l-0.1,0.7c-0.3,2-0.5,3.9-0.6,5.9c0,2,0.1,3.9,0.5,5.8
						c0.4,1.9,1,3.8,1.5,5.8c0.6,1.9,1,4,0.9,6.1s-0.5,4.1-1.1,6s-1.5,3.8-2.6,5.5c-1.2,1.7-2.7,3.1-4.5,4.1
						C491.7,169.8,489.5,170.1,487.6,169.4c1.9,0.6,4,0.1,5.7-0.8c1.7-1,3.1-2.5,4.2-4.1c2.1-3.3,3-7.4,3.1-11.2
						c0-3.9-1.8-7.5-2.7-11.6c-0.4-2-0.7-4.1-0.7-6.1s0.2-4.1,0.4-6.1l0.6,0.9l0,0l-0.7-0.2l0.1-0.7c0.4-4.8-1-9.7-3.8-13.5
						c-1.4-1.9-3.1-3.6-5.1-5c-2-1.3-4.2-2.3-6.5-2.8c-4.6-1.1-9.6-0.6-13.9,1.6c-2.1,1.1-4.1,2.5-5.7,4.3c-1.6,1.7-2.9,3.8-3.9,6
						l-0.3,0.7l-0.7-0.2l0,0l1-0.5c-1,2.4-1.7,4.9-2.1,7.5s-0.5,5.2-0.3,7.8c0.2,2.6,0.9,5.1,2,7.5c0.5,1.2,1.2,2.3,1.9,3.4
						c0.8,1.1,1.6,2.1,2.4,3.1c1.7,2,3.5,4,5.5,5.8c1.9,1.8,3.9,3.6,6,5.3s4.2,3.3,6.4,4.8C483,166.8,485.2,168.3,487.6,169.4z"/>
				</g>
				<g>
					<line stroke="currentColor" stroke-miterlimit="10" x1="498.4" y1="163.4" x2="477.9" y2="163.4"/>
					<line stroke="currentColor" stroke-miterlimit="10" x1="478.5" y1="163.9" x2="498.1" y2="163.9"/>
					<line stroke="currentColor" stroke-miterlimit="10" x1="479.1" y1="164.3" x2="497.9" y2="164.3"/>
					<line stroke="currentColor" stroke-miterlimit="10" x1="479.7" y1="164.7" x2="497.6" y2="164.7"/>
					<line stroke="currentColor" stroke-miterlimit="10" x1="480.4" y1="165.2" x2="497.3" y2="165.2"/>
					<line stroke="currentColor" stroke-miterlimit="10" x1="481" y1="165.6" x2="496.9" y2="165.6"/>
					<line stroke="currentColor" stroke-miterlimit="10" x1="481.7" y1="166" x2="496.6" y2="166"/>
					<line stroke="currentColor" stroke-miterlimit="10" x1="482.4" y1="166.5" x2="496.2" y2="166.5"/>
					<line stroke="currentColor" stroke-miterlimit="10" x1="483" y1="166.9" x2="495.8" y2="166.9"/>
					<line stroke="currentColor" stroke-miterlimit="10" x1="483.7" y1="167.3" x2="495.3" y2="167.3"/>
					<line stroke="currentColor" stroke-miterlimit="10" x1="484.5" y1="167.8" x2="494.8" y2="167.8"/>
					<line stroke="currentColor" stroke-miterlimit="10" x1="485.2" y1="168.2" x2="494.2" y2="168.2"/>
					<line stroke="currentColor" stroke-miterlimit="10" x1="486.1" y1="168.7" x2="493.5" y2="168.7"/>
					<line stroke="currentColor" stroke-miterlimit="10" x1="486.9" y1="169.1" x2="492.6" y2="169.1"/>
				</g>
			</g>
			<g>
				<path d="M486.5,133c-1.6,0.3-3.1,0.9-4.4,1.6c-1.4,0.7-2.6,1.7-3.4,2.8c-0.4,0.6-0.6,1.2-0.7,1.9s0.1,1.3,0.3,1.9
					c0.2,0.5,0.6,1,1.2,1.4c0.5,0.4,1.1,0.8,1.7,1.2c1.3,0.8,2.7,1.6,4.1,2.6s2.7,2.3,3.7,3.8s1.7,3.3,2.1,5
					c0.2,0.9,0.3,1.8,0.4,2.6s0.1,1.7,0.1,2.5c0,3.4-0.6,6.8-1.7,10c-1.2,3.2-3,6-5,8.6c-4.1,5.2-9,9.3-14.3,13
					c4.4-4.6,8.8-9.3,12.1-14.5c3.4-5.2,5.4-11,5.1-17c-0.1-3.1-0.7-5.8-2.1-8.1c-0.7-1.1-1.7-2.2-2.7-3.1c-1.1-1-2.4-1.9-3.6-3
					c-0.6-0.5-1.3-1.1-1.9-1.9c-0.6-0.7-1.1-1.7-1.3-2.6c-0.2-1,0-2,0.2-2.8c0.2-0.9,0.7-1.7,1.2-2.4c1.1-1.4,2.7-2.2,4.2-2.7
					C483.3,133.3,484.9,133.1,486.5,133z"/>
			</g>
			<g>
				<path d="M473.4,190.7c4-3.6,7.5-7.7,10.6-12.1c1.6-2.2,3-4.4,4.1-6.9s1.8-5.1,2.1-7.7c0.1-1.3,0.1-2.7,0-4s-0.3-2.7-0.5-3.9
					c-0.5-2.6-1.6-5-3.4-6.9s-4.1-3.3-6.4-4.7c-1.1-0.7-2.3-1.7-2.8-3.1c-0.4-1.4,0-2.9,0.7-4h0.1c-0.5,1.2-0.8,2.6-0.3,3.8
					s1.6,2,2.7,2.6l1.8,1c0.6,0.3,1.2,0.7,1.8,1c1.2,0.7,2.3,1.6,3.3,2.6s1.8,2.2,2.4,3.5s0.9,2.6,1.2,4c0.2,1.4,0.4,2.7,0.4,4.1
					c0,1.4-0.1,2.7-0.3,4.1c-0.4,2.7-1.3,5.3-2.3,7.8s-2.3,4.9-3.7,7.2c-1.5,2.3-3.2,4.4-5.1,6.4
					C477.7,187.4,475.7,189.2,473.4,190.7L473.4,190.7z"/>
			</g>
			<g>
				<path d="M459.6,116.7c0.4-1.4,1.3-2.6,2.1-3.7c0.9-1.1,1.9-2.1,3.1-3c2.2-1.8,4.7-3.3,7.3-4.5c1.3-0.6,2.6-1.1,4-1.6
					c1.4-0.4,2.7-0.9,4.1-1.2c1.4-0.3,2.8-0.6,4.2-0.9c1.4-0.2,2.8-0.4,4.2-0.5c-1.3,0.5-2.7,1-4,1.4c-1.3,0.5-2.6,1-3.9,1.4
					c-2.6,1-5.2,2-7.7,3.2c-2.5,1.1-4.9,2.4-7.2,3.9c-1.1,0.8-2.2,1.6-3.3,2.5C461.4,114.5,460.4,115.5,459.6,116.7z"/>
			</g>
			<g>
				<path d="M459.6,115.2c1.2-2.8,3.5-5.1,6-6.9c2.6-1.8,5.5-2.9,8.5-3.6s6.1-0.8,9.2-0.7c1.5,0.1,3.1,0.3,4.6,0.5
					c1.5,0.3,3,0.6,4.5,0.9c-1.5-0.1-3-0.3-4.5-0.5c-1.5-0.1-3-0.1-4.5-0.2c-3,0.1-6,0.2-9,0.9c-2.9,0.6-5.8,1.7-8.3,3.2
					c-1.3,0.8-2.5,1.7-3.6,2.7C461.3,112.8,460.3,113.9,459.6,115.2z"/>
			</g>
			<g>
				<g>
					<circle stroke="currentColor" stroke-miterlimit="10" cx="481.2" cy="128.2" r="2"/>
					<circle fill="#FFFFFF" stroke="currentColor" stroke-miterlimit="10" cx="480.9" cy="127.6" r="0.9"/>
				</g>
				<g>
					<path fill="#FFFFFF" d="M496.1,130.9c-0.9-1.3-3.2-4.5-4.4-4.2c-1.5,0.3-2,2-2,2.7c0,1.7,0.7,2.6,1.3,2.6
						c0.5,0,3.4-0.3,4.8-0.4C496.1,131.5,496.2,131.2,496.1,130.9"/>
					<path d="M495.9,131c-0.5-0.6-1.1-1.1-1.8-1.6c-0.7-0.4-1.2-1-1.6-1.5c-0.2-0.2-0.5-0.5-0.6-0.6l-0.1-0.1c0,0,0,0-0.1,0
						c-0.2,0-0.3,0-0.4,0.1c-0.3,0-0.5,0.4-0.5,0.7c-0.1,0.3-0.1,0.6,0,0.9c0,0.2,0.1,0.3,0.1,0.4l0.2,0.5c0.1,0.3,0.2,0.5,0.4,0.7
						c0.1,0.1,0.1,0.1,0.1,0.1s0-0.1-0.2-0.2c-0.1,0-0.1,0-0.2,0h0.1h0.3c0.2,0,0.4,0,0.6,0c0.8,0,1.5,0.1,2.3,0.2
						c0.4,0.1,0.8,0.2,1.2,0.3C495.8,130.9,495.9,131,495.9,131c0.1,0,0,0.1,0.1,0.2C495.7,131.2,495.9,131.2,495.9,131l0.2-0.2
						c0.3,0.1,0.4,0.6,0.2,1c-0.1,0.2-0.4,0.3-0.5,0.4c-0.1,0.1-0.2,0.1-0.3,0.2c-0.4,0.2-0.8,0.4-1.2,0.5c-0.8,0.3-1.6,0.5-2.4,0.6
						c-0.2,0-0.4,0-0.6,0.1H491c-0.1,0-0.1,0-0.2,0c-0.2,0-0.3,0-0.5-0.1c-0.6-0.2-1-0.5-1.2-0.8s-0.4-0.6-0.5-0.9
						c-0.2-0.6-0.3-1.1-0.2-1.6c0-0.2,0-0.5,0.1-0.7c0-0.3,0.1-0.6,0.2-0.8c0.2-0.5,0.5-0.9,0.8-1.2c0.3-0.4,0.8-0.6,1.1-0.9
						c0.2-0.1,0.4-0.3,0.6-0.3c0.1-0.1,0.3-0.1,0.4-0.1c0.2,0,0.3,0,0.5,0c0.6,0.1,1,0.4,1.3,0.6c0.7,0.5,1.2,1.2,1.6,1.9
						c0.3,0.8,0.6,1.5,1,2.2L495.9,131z"/>
				</g>
				<g>
					<path d="M495.8,131.2c-2.1-0.1-4.1-0.3-6.1-0.6l0.3-0.3l0.1,0.5l-0.2-0.2c1.9,0.2,3.8,0.5,5.7,0.9c-1.9,0-3.8-0.2-5.8-0.4h-0.2
						v-0.2l-0.1-0.5l-0.1-0.4l0.4,0.1C491.8,130.4,493.8,130.8,495.8,131.2z"/>
				</g>
				<g>
					<path d="M495.6,131.5c0.2,0,0.3-0.1,0.3-0.3c0-0.2-0.1-0.3-0.2-0.4c-0.2-0.3-0.5-0.6-0.7-0.8c-0.5-0.5-1-1.1-1.5-1.5
						c-0.3-0.2-0.5-0.5-0.8-0.7s-0.6-0.3-0.8-0.3c-0.6,0.1-1.1,0.5-1.4,1.1c-0.3,0.6-0.3,1.2-0.1,1.9c0.1,0.3,0.2,0.6,0.4,0.8
						c0.1,0.1,0.2,0.2,0.2,0.2h0.1h0.2C492.6,131.3,494.1,131.5,495.6,131.5z M495.6,131.6c-1.5,0.1-2.9,0.6-4.4,0.8
						c-0.1,0-0.1,0-0.3,0c-0.2,0-0.3-0.1-0.4-0.1c-0.3-0.1-0.4-0.3-0.6-0.5c-0.3-0.4-0.4-0.8-0.5-1.2c-0.1-0.4-0.1-0.8,0-1.2
						s0.2-0.8,0.4-1.2c0.4-0.7,1.1-1.3,2-1.4c0.5,0,0.9,0.3,1.2,0.5c0.3,0.2,0.6,0.5,0.8,0.8c0.5,0.6,0.9,1.2,1.4,1.8l0.6,0.9
						c0.1,0.2,0.3,0.3,0.2,0.5C496,131.4,495.8,131.5,495.6,131.6z"/>
				</g>
				<g>
					<path d="M489.7,129.6c0.1,0.7,0.2,1.4,0.7,1.9c0.1,0.1,0.3,0.2,0.4,0.2s0.3,0,0.5,0l1.1-0.1c0.7-0.1,1.4-0.1,2.1-0.2h0.5h0.3
						c0.1,0,0.2,0,0.2,0c0.1,0,0.1-0.1,0.1-0.1s-0.1-0.1-0.1-0.2l-0.2-0.2c-0.8-1.1-1.7-2.2-2.8-3.1c-0.3-0.2-0.6-0.3-0.9-0.3
						s-0.6,0.2-0.9,0.4C490.2,128.2,489.8,128.9,489.7,129.6c0-0.7,0.3-1.4,0.8-2c0.3-0.3,0.6-0.4,1-0.5s0.8,0.1,1.1,0.3
						c1.2,0.8,2.1,2,3,3.1l0.2,0.2c0,0.1,0.1,0.1,0.2,0.3c0.1,0.3-0.1,0.6-0.4,0.7c-0.2,0.1-0.3,0-0.3,0.1H495h-0.5
						c-0.7,0-1.4,0.1-2.1,0.1h-1.1c-0.2,0-0.3,0-0.6,0c-0.2-0.1-0.4-0.2-0.5-0.3C489.8,131,489.7,130.3,489.7,129.6z"/>
				</g>
			</g>
		</g>
		<g id="oiseauD">
			<g>
				<g>
					<path  d="M501,155.3L501,155.3c-2.1,10.2-6.9,11.2-3.4,13s25.8-2.6,33.8-18.9c5.3-11,5-20.2,4.9-24.3
						c0-0.5-0.1-1.1-0.1-1.6c-0.1-0.5-0.1-0.8-0.1-0.8l0,0c-1.6-10.7-10.8-18.9-21.9-18.9c-12.2,0-22.1,9.9-22.1,22.1
						c0,3.1,0.6,6,1.7,8.6l0,0c0,0,0.2,2.4,5.8,11.8C501.2,149.2,501.4,152.5,501,155.3z"/>
					<g>
						<path d="M501.2,155.4L501.2,155.4L501.2,155.4c-0.7,3.3-1.8,6.7-3.5,9.8c-0.2,0.4-0.4,0.8-0.5,1.1c-0.1,0.4-0.2,0.7-0.1,0.8
							s0.4,0.4,0.7,0.5c0.2,0.1,0.3,0.1,0.5,0.2c0.2,0,0.3,0.1,0.5,0.1c1.5,0.1,3.2-0.2,4.8-0.6c1.6-0.4,3.2-0.9,4.8-1.5
							c1.6-0.6,3.1-1.2,4.6-2c3-1.4,5.9-3.1,8.5-5.1c2.7-2,5-4.3,7-6.9c1.9-2.6,3.5-5.7,4.7-8.9c2.4-6.3,3.1-13.4,2.1-20.1l1.3,0.5
							l0,0l-1,1l-0.3-1.4c-0.6-3-1.8-5.8-3.5-8.2c-1.7-2.4-4-4.4-6.5-5.9c-5-3-11.1-3.8-16.6-2.1c-2.7,0.8-5.3,2.2-7.4,4
							c-1.1,0.9-2.1,1.9-2.9,3.1c-0.4,0.6-0.9,1.1-1.2,1.7l-0.6,0.9c-0.2,0.3-0.3,0.6-0.5,0.9c-2.5,5.1-3,11.2-1.1,16.8l1,2.9
							l-2.6-1.2l0,0l1.8-1.3c0-0.1,0,0.1,0,0.1c0,0.1,0,0.2,0.1,0.3c0,0.2,0.1,0.4,0.2,0.6c0.1,0.4,0.3,0.8,0.4,1.3
							c0.3,0.9,0.6,1.7,1,2.6c0.7,1.7,1.5,3.4,2.3,5.1c0.4,0.8,0.9,1.6,1.3,2.5s0.7,1.8,0.8,2.8c0.2,0.9,0.3,1.9,0.3,2.8
							c0,0.5,0,0.9,0,1.4C501.3,154.4,501.3,154.8,501.2,155.4z M500.8,155.2c0-0.4,0.1-0.9,0.1-1.3c0-0.5,0-0.9,0-1.4
							c0-0.9-0.1-1.8-0.4-2.7c-0.2-0.9-0.6-1.7-1-2.5s-1-1.6-1.5-2.3c-1-1.6-2-3.2-3-4.8c-0.5-0.8-1-1.6-1.4-2.5
							c-0.2-0.4-0.4-0.9-0.6-1.3c-0.1-0.2-0.2-0.5-0.3-0.7c0-0.1-0.1-0.3-0.1-0.4c0-0.2-0.1-0.2-0.1-0.6l-0.3-1.9l2,0.6l0,0
							l-1.7,1.7c-3.1-5.9-3.2-13.4-0.2-19.6c2.8-6.3,8.6-11.1,15.3-12.8c6.6-1.7,13.9-0.6,19.4,3.3c5.6,3.8,9.1,10.1,9.8,16.6
							l-1.3-0.5l0,0l1.2-1l0.1,1.4c0.5,7.1-0.2,14.1-2.1,20.9c-0.5,1.7-1,3.4-1.7,5c-0.6,1.6-1.4,3.3-2.3,4.9
							c-1.8,3.1-4.3,5.9-7.1,8.2c-5.7,4.6-12.6,7.3-19.7,8c-1.8,0.2-3.6,0.3-5.5-0.1c-0.2-0.1-0.5-0.1-0.7-0.2
							c-0.3-0.1-0.5-0.2-0.7-0.4c-0.2-0.1-0.4-0.3-0.6-0.5s-0.4-0.5-0.5-0.7c-0.2-0.7,0.1-1.3,0.2-1.7c0.2-0.4,0.5-0.8,0.7-1.1
							c1-1.4,1.8-2.9,2.5-4.5C500,158.6,500.4,157,500.8,155.2L500.8,155.2C500.9,155.2,500.8,155.2,500.8,155.2z"/>
					</g>
				</g>
				<g>
					<path  d="M501,155.7L501,155.7c-2.1,10-6.9,10.9-3.4,12.7s25.8-2.5,33.8-18.4c5.3-10.7,5-19.7,4.9-23.7
						c0-0.5-0.1-1-0.1-1.5c-0.1-0.5-0.1-0.8-0.1-0.8l0,0c-1.6-10.4-10.8-18.4-21.9-18.4c-12.2,0-22.1,9.7-22.1,21.6
						c0,3,0.6,5.8,1.7,8.4l0,0c0,0,0.2,2.3,5.8,11.5C501.2,149.7,501.4,152.9,501,155.7z"/>
					<g>
						<path d="M501.1,155.7L501.1,155.7L501.1,155.7c-0.4,1.6-0.8,3.3-1.5,4.9c-0.6,1.6-1.5,3.1-2.3,4.5c-0.2,0.4-0.4,0.7-0.6,1.1
							c-0.2,0.4-0.3,0.8-0.1,1.1l0.2,0.2l0.2,0.2c0.1,0.1,0.3,0.2,0.5,0.3c0.4,0.2,0.8,0.3,1.2,0.4c1.7,0.2,3.4,0,5-0.3
							c3.3-0.6,6.6-1.6,9.7-3c3.1-1.4,6-3,8.7-5.1s5-4.5,6.9-7.2c0.9-1.4,1.7-2.8,2.4-4.4c0.7-1.5,1.3-3.1,1.9-4.7
							c1.1-3.2,1.8-6.5,2.1-9.8c0.2-1.7,0.2-3.3,0.2-5s-0.1-3.4-0.3-5l1.2,0.4l0,0l-1,0.9l-0.2-1.3c-0.5-2.9-1.6-5.8-3.3-8.2
							c-1.6-2.5-3.9-4.5-6.4-6.1c-5-3.2-11.4-3.9-17.1-2.4c-2.8,0.8-5.5,2.1-7.8,3.9s-4.2,4.2-5.6,6.8c-1.4,2.6-2.2,5.5-2.3,8.5
							c-0.2,3,0.3,6,1.4,8.8l0.5,1.1l-1.1-0.4l0,0l0.7-0.5c0,0.3,0.2,0.8,0.3,1.2c0.1,0.4,0.3,0.8,0.5,1.3c0.3,0.8,0.7,1.7,1.1,2.5
							c0.8,1.6,1.6,3.3,2.5,4.8c0.5,0.8,0.9,1.6,1.4,2.4c0.4,0.8,0.7,1.7,0.9,2.6C501.4,152,501.4,153.8,501.1,155.7z M500.9,155.6
							c0.2-1.7,0.2-3.6-0.3-5.4c-0.2-0.9-0.5-1.7-0.9-2.5s-0.9-1.6-1.4-2.3c-0.9-1.6-1.9-3.1-2.8-4.7c-0.4-0.8-0.9-1.6-1.3-2.5
							c-0.2-0.4-0.4-0.8-0.6-1.3s-0.3-0.8-0.4-1.4l-0.1-0.8l0.8,0.3l0,0l-0.7,0.7c-2.7-5.7-2.7-12.8,0.2-18.6
							c2.8-5.8,8.3-10.2,14.6-11.8c6.2-1.6,13.1-0.6,18.5,2.9c2.7,1.7,5.1,4,6.8,6.7s2.9,5.7,3.4,8.9l-1.2-0.5l0,0l1.1-0.9l0.2,1.3
							c0.2,1.8,0.3,3.5,0.3,5.2s-0.1,3.5-0.3,5.2c-0.4,3.4-1.2,6.8-2.3,10.1c-0.6,1.6-1.2,3.2-2,4.8c-0.7,1.6-1.6,3.1-2.6,4.5
							c-2,2.8-4.5,5.3-7.3,7.3s-5.8,3.7-9,5c-3.2,1.3-6.5,2.3-9.9,2.8c-1.7,0.2-3.4,0.4-5.1,0.2c-0.4-0.1-0.9-0.2-1.2-0.4
							c-0.2-0.1-0.4-0.2-0.5-0.4l-0.3-0.2l-0.2-0.3c-0.2-0.4-0.1-0.9,0.1-1.3c0.2-0.4,0.4-0.8,0.6-1.1c0.9-1.5,1.7-2.9,2.3-4.5
							C500.1,158.9,500.5,157.3,500.9,155.6L500.9,155.6L500.9,155.6z"/>
					</g>
				</g>
				<g>
					<path fill="#ffac00" d="M501.6,155.9L501.6,155.9c-2,9.8-6.6,10.7-3.2,12.4s24.8-2.5,32.4-18.1c5.1-10.5,4.8-19.4,4.7-23.3
						c0-0.5-0.1-1-0.1-1.5c-0.1-0.5-0.1-0.8-0.1-0.8l0,0c-1.5-10.2-10.4-18.1-21-18.1c-11.7,0-21.3,9.5-21.3,21.2
						c0,2.9,0.6,5.7,1.7,8.3l0,0c0,0,0.2,2.3,5.5,11.3C501.8,150.1,501.9,153.2,501.6,155.9z"/>
					<g>
						<path d="M501.6,155.9L501.6,155.9L501.6,155.9c-0.3,1.6-0.8,3.2-1.4,4.8s-1.4,3-2.2,4.5c-0.2,0.4-0.4,0.7-0.6,1.1
							c-0.1,0.4-0.3,0.8-0.1,1.1c0.2,0.3,0.5,0.6,0.9,0.8c0.3,0.2,0.7,0.3,1.1,0.4c1.6,0.2,3.3,0,4.9-0.3c6.5-1.2,12.7-4,17.9-7.9
							c2.6-2,4.9-4.4,6.8-7.1c0.9-1.4,1.7-2.8,2.4-4.3s1.3-3,1.8-4.6c1-3.1,1.8-6.4,2.1-9.7s0.3-6.6-0.1-9.9l0.2,0.1l0,0l-0.2,0.1
							v-0.2c-0.5-2.9-1.6-5.8-3.2-8.3c-1.6-2.5-3.8-4.6-6.3-6.2c-5-3.3-11.4-4.1-17.1-2.5c-2.9,0.8-5.6,2.2-7.8,4.1
							c-2.3,1.9-4.1,4.3-5.4,7c-2.6,5.3-2.9,11.8-0.5,17.3l0.1,0.3l-0.3-0.1l0,0l0.2-0.2c0.1,0.8,0.5,1.7,0.8,2.5s0.7,1.6,1.1,2.4
							c0.8,1.6,1.7,3.2,2.5,4.7c0.4,0.8,0.9,1.5,1.3,2.3s0.7,1.7,0.9,2.5C501.8,152.3,501.8,154.1,501.6,155.9z M501.6,155.9
							c0.2-1.8,0.2-3.6-0.2-5.3c-0.2-0.9-0.5-1.7-0.9-2.5s-0.9-1.5-1.3-2.3c-0.9-1.5-1.8-3.1-2.6-4.7c-0.4-0.8-0.8-1.6-1.2-2.4
							c-0.4-0.8-0.7-1.6-0.9-2.6v-0.2l0.3,0.1l0,0l-0.2,0.2c-2.4-5.5-2.3-12.2,0.4-17.6c1.3-2.7,3.2-5.2,5.6-7.1
							c2.3-2,5.1-3.4,8-4.2c5.8-1.6,12.4-0.7,17.4,2.7c5.1,3.3,8.6,8.8,9.5,14.8l-0.2-0.1l0,0l0.2-0.1v0.2c0.7,6.6,0,13.3-2,19.7
							c-0.5,1.6-1.1,3.1-1.8,4.6s-1.4,3-2.4,4.4c-1.8,2.8-4.2,5.2-6.8,7.3c-1.3,1-2.7,2-4.1,2.8c-1.4,0.8-2.9,1.6-4.5,2.2
							c-3.1,1.3-6.3,2.3-9.5,2.8c-1.6,0.3-3.3,0.4-5,0.2c-0.4-0.1-0.8-0.2-1.2-0.4c-0.4-0.2-0.7-0.5-0.9-0.9c-0.2-0.4,0-0.9,0.2-1.3
							c0.2-0.4,0.4-0.7,0.6-1.1c0.9-1.4,1.6-2.9,2.2-4.4C500.8,159.1,501.2,157.5,501.6,155.9L501.6,155.9L501.6,155.9L501.6,155.9z
							"/>
					</g>
				</g>
				<g>
					<line stroke="currentColor" stroke-miterlimit="10" x1="498.2" y1="163.4" x2="518.3" y2="163.4"/>
					<line stroke="currentColor" stroke-miterlimit="10" x1="497.9" y1="163.9" x2="517.4" y2="163.9"/>
					<line stroke="currentColor" stroke-miterlimit="10" x1="516.6" y1="164.3" x2="497.7" y2="164.3"/>
					<line stroke="currentColor" stroke-miterlimit="10" x1="515.6" y1="164.7" x2="497.4" y2="164.7"/>
					<line stroke="currentColor" stroke-miterlimit="10" x1="514.7" y1="165.2" x2="497.1" y2="165.2"/>
					<line stroke="currentColor" stroke-miterlimit="10" x1="513.6" y1="165.6" x2="496.9" y2="165.6"/>
					<line stroke="currentColor" stroke-miterlimit="10" x1="512.5" y1="166" x2="496.7" y2="166"/>
					<line stroke="currentColor" stroke-miterlimit="10" x1="511.3" y1="166.5" x2="496.5" y2="166.5"/>
					<line stroke="currentColor" stroke-miterlimit="10" x1="510.3" y1="166.9" x2="496.4" y2="166.9"/>
					<line stroke="currentColor" stroke-miterlimit="10" x1="508.8" y1="167.3" x2="496.5" y2="167.3"/>
					<line stroke="currentColor" stroke-miterlimit="10" x1="507.1" y1="167.8" x2="496.8" y2="167.8"/>
					<line stroke="currentColor" stroke-miterlimit="10" x1="505.3" y1="168.2" x2="497.5" y2="168.2"/>
				</g>
			</g>
			<g>
				<g>
					<path d="M532.1,114.4c3.5,3.9,5.2,9.3,5.2,14.7c0,5.4-1.9,10.7-4.6,15.4c-2.7,4.7-6.3,8.7-10.2,12.4c-3.9,3.6-8.2,6.8-12.8,9.5
						c-4.6,2.6-9.5,4.8-14.6,6.4c-5.1,1.6-10.2,2.8-15.5,3.4c-2.6,0.3-5.2,0.6-7.9,0.7c-2.6,0.1-5.3,0.1-7.9,0
						c-5.2-0.2-10.5-0.8-15.5-2.1c5.2,0.4,10.4,0.4,15.5,0.1c5.1-0.3,10.2-0.9,15.3-1.8c5-1,10-2.2,14.8-3.9s9.4-3.7,13.8-6.3
						c4.4-2.5,8.5-5.5,12.3-8.8s7.3-7.1,10.1-11.2c2.7-4.2,4.8-8.8,5.3-13.8C535.9,124,534.8,118.8,532.1,114.4z"/>
				</g>
				<g>
					<path d="M532.1,114.4c2.5,3.6,3.9,7.9,4.3,12.2c0.4,4.4-0.3,8.8-1.9,12.9c-1.5,4.1-3.9,7.9-6.7,11.3c-2.8,3.4-5.9,6.5-9.3,9.2
						c-6.9,5.5-14.8,9.6-23.1,12.2c-8.3,2.7-17,4-25.7,4.2c4.3-0.3,8.7-0.8,12.9-1.7c4.3-0.8,8.5-1.9,12.6-3.3
						c8.2-2.8,16-6.8,22.7-12.3c6.7-5.4,12.7-12,15.9-20c1.6-4,2.4-8.3,2.1-12.6C535.6,122.4,534.4,118.1,532.1,114.4z"/>
				</g>
			</g>
			<g>
				<path d="M516.6,131.8c2.9-1.8,6.2-2.9,9.8-3c1.8-0.1,3.7,0.2,5.4,1c0.4,0.2,0.9,0.4,1.3,0.7c0.4,0.3,0.8,0.6,1.2,0.9
					c0.8,0.8,1.4,1.9,1.6,2.9c0.4,2.2-0.2,4.1-0.9,5.7c-0.7,1.6-1.7,3.1-2.7,4.5c-2.1,2.7-4.5,5.1-7.3,7.1c1.9-2.8,3.7-5.6,5.3-8.4
					c0.8-1.4,1.5-2.8,2-4.3c0.5-1.4,0.9-2.9,0.6-4c-0.1-0.6-0.3-1-0.7-1.4l-0.8-0.7c-0.3-0.2-0.6-0.4-0.9-0.6
					c-1.2-0.7-2.7-1-4.2-1.2C523.2,130.9,519.9,131.3,516.6,131.8z"/>
			</g>
			<g>
				<g>
					<path fill="#FFFFFF" d="M536.1,121.1c0,0-14.3,9.5-4.7,34.2C531.4,155.3,544.3,140.7,536.1,121.1z"/>
					<path d="M536,121.3c0,0.1,0.1,0.1,0,0.2l-0.2,0.2c-0.1,0.1-0.2,0.3-0.3,0.5c-0.2,0.3-0.4,0.6-0.6,0.9c-0.2,0.3-0.4,0.6-0.6,0.9
						c-0.2,0.3-0.4,0.6-0.6,1c-0.4,0.6-0.7,1.3-1,2c-0.3,0.6-0.6,1.3-0.8,2c-1,2.7-1.5,5.5-2,8.4c-0.1,0.7-0.2,1.5-0.4,2.2l-0.2,2.2
						c0,0.4-0.1,0.8-0.1,1.1v1.1c0,0.8,0.1,1.5,0.2,2.3c0.3,1.5,0.7,3,1.1,4.4c0.6,1.4,1.2,2.8,1.9,4.2l-1.9-0.3
						c0.7-1.2,1.4-2.5,2-3.8l0.9-2c0.3-0.7,0.6-1.3,0.8-2c1-2.7,1.6-5.5,2.1-8.3l0.2-1l0.1-1.1c0.1-0.7,0.2-1.4,0.2-2.1
						c0-1.4,0.1-2.9,0-4.3c-0.1-0.7,0-1.5-0.1-2.2c-0.1-0.7-0.2-1.5-0.2-2.2c-0.1-0.8-0.2-1.3-0.2-2
						C536.3,122.9,536.2,122.1,536,121.3z M536.1,120.9l1.2,1.9c0.4,0.7,0.9,1.6,1.2,2.3c0.6,1.5,1.2,2.9,1.5,4.5
						c0.8,3.1,0.9,6.4,0.6,9.5c-0.4,3.2-1.4,6.3-2.8,9.2c-1.4,2.9-3.2,5.5-5.5,7.8l-1.5,1.5l-0.4-1.8c-0.3-1.6-0.7-3.1-1.1-4.6
						c-0.3-1.5-0.7-3.1-1.1-4.6c-0.1-0.8-0.3-1.5-0.5-2.3l-0.3-1.2l-0.2-1.2l-0.4-2.4c-0.1-0.8-0.1-1.6-0.2-2.4
						c0-3.3,0.9-6.6,2.5-9.5c0.4-0.7,0.8-1.4,1.3-2.1c0.3-0.3,0.5-0.7,0.8-1l0.9-0.9c0.6-0.6,1.2-1.1,1.9-1.6c0.3-0.2,0.7-0.5,1-0.7
						c0.2-0.1,0.3-0.2,0.5-0.3l0.3-0.1C535.7,121,536,120.9,536.1,120.9z"/>
				</g>
				<g>
					<path d="M536.1,121.2C536.2,121.2,536.1,121.2,536.1,121.2l-0.1,0.2l-0.2,0.2l-0.3,0.4c-0.2,0.3-0.4,0.6-0.6,0.9
						c-0.4,0.6-0.8,1.3-1.1,1.9c-0.7,1.3-1.2,2.7-1.7,4.1c-0.9,2.8-1.5,5.7-1.8,8.6c-0.2,1.5-0.3,2.9-0.4,4.4c-0.1,1.5,0,3,0.1,4.5
						c0.3,3,1,5.9,2,8.7l-1-0.2c1.4-2.5,2.5-5.2,3.5-8c0.9-2.8,1.5-5.6,2-8.5c0.4-2.9,0.6-5.8,0.5-8.7c-0.1-1.5-0.1-2.9-0.3-4.4
						c-0.1-0.7-0.2-1.5-0.3-2.2l-0.1-1C536.2,121.9,536.1,121.5,536.1,121.2z M536.1,121c0.1,0.3,0.3,0.7,0.4,1
						c0.2,0.4,0.3,0.8,0.4,1.1c0.2,0.7,0.5,1.4,0.6,2.2c0.4,1.5,0.7,2.9,0.9,4.4c0.4,3,0.4,6.1,0,9.1s-1.2,6-2.3,8.8s-2.5,5.5-4.4,8
						l-0.7,1l-0.2-1.1c-0.6-3-1.1-6-1.6-9c-0.4-3-0.9-6-0.7-9.1c0.1-3.1,0.8-6.2,2-9c0.6-1.4,1.3-2.8,2.3-4.1
						c0.4-0.6,0.9-1.2,1.5-1.8c0.3-0.3,0.5-0.5,0.8-0.8c0.1-0.1,0.3-0.3,0.4-0.4l0.2-0.2l0.1-0.1C536,121,535.9,121,536.1,121z"/>
				</g>
				<g>
					<path d="M531.4,155.3c0.8-2.8,1.4-5.6,1.9-8.4c0.5-2.8,1-5.7,1.3-8.5c0.3-2.9,0.5-5.7,0.7-8.6c0.3-2.9,0.4-5.7,0.7-8.6h0.1
						c0.3,2.9,0.3,5.8,0.2,8.7s-0.5,5.8-1,8.6C534.5,144.1,533.3,149.8,531.4,155.3L531.4,155.3z"/>
				</g>
				<g>
					<path d="M531.3,155.3c0-2.9,0.2-5.8,0.4-8.6c0.3-2.9,0.6-5.7,1-8.6c0.4-2.9,0.7-5.7,1.3-8.6c0.6-2.8,1.2-5.7,2-8.4h0.1
						c-0.3,2.9-0.7,5.7-1.1,8.6c-0.4,2.8-1,5.7-1.5,8.5s-0.9,5.7-1.2,8.5c-0.4,2.9-0.7,5.7-0.8,8.6H531.3z"/>
				</g>
				<g>
					<path d="M536.1,121.1c-1.7,2.4-2.8,5.2-3.6,8s-1.3,5.7-1.6,8.6l-0.1,2.2v2.2c0,0.7,0,1.5,0,2.2l0.1,2.2c0,1.5,0.2,2.9,0.2,4.4
						c0.1,1.5,0.3,2.9,0.4,4.4h-0.1c-0.4-1.4-0.7-2.9-1-4.3c-0.2-1.5-0.4-2.9-0.5-4.4s-0.2-3-0.1-4.5l0.1-2.2l0.2-2.2
						c0.4-3,0.9-5.9,1.9-8.7C533,126.1,534.2,123.4,536.1,121.1L536.1,121.1z"/>
				</g>
				<g>
					<path d="M531.4,155.3c-0.3-1.4-0.5-2.9-0.7-4.4c-0.1-1.5-0.3-2.9-0.3-4.4v-2.2c0-0.7,0.1-1.5,0.1-2.2c0.1-1.5,0.2-2.9,0.3-4.4
						c0.3-2.9,0.8-5.8,1.6-8.7c0.8-2.8,1.9-5.6,3.6-8l0,0c-1.4,2.6-2.3,5.4-3.1,8.2c-0.8,2.8-1.4,5.7-1.8,8.6
						c-0.4,2.9-0.5,5.8-0.3,8.8c0,0.7,0.1,1.5,0.1,2.2l0.1,2.2C531.2,152.4,531.3,153.8,531.4,155.3L531.4,155.3z"/>
				</g>
				<g>
					<path d="M531.4,155.3c1.1-2.7,2-5.5,2.6-8.3c0.7-2.8,1.2-5.7,1.5-8.6c0.1-1.4,0.3-2.9,0.4-4.3l0.1-2.2l0.1-2.2
						c0.1-1.4,0-2.9,0.1-4.3c0-1.5-0.1-2.9-0.1-4.4l0,0c0.1,1.4,0.3,2.9,0.4,4.3c0,1.5,0.1,2.9,0.1,4.4c0,2.9-0.3,5.8-0.7,8.7
						s-1,5.8-1.7,8.6C533.5,149.9,532.6,152.7,531.4,155.3L531.4,155.3z"/>
				</g>
			</g>
			<g>
				<g>
					<path fill="#FFFFFF" d="M493.8,134.6c0,0,10.2,4.4,11.4,11.6c1.4,8.8-5.7,15-5.7,15s3.7-8.6,0-14.8
						C493.9,137,493.8,134.6,493.8,134.6z"/>
					<path d="M493.6,134.4c0.1,0,0.2,0,0.3,0h0.1h0.3c0.2,0,0.4,0.1,0.5,0.1c0.4,0.1,0.7,0.2,1.1,0.3c0.7,0.2,1.4,0.5,2.1,0.8
						c1.3,0.6,2.6,1.3,3.8,2.3c1.2,0.9,2.3,2,3.2,3.3c0.9,1.3,1.5,2.9,1.6,4.6c0,1.6-0.2,3.1-0.5,4.5c-0.4,1.4-0.8,2.8-1.3,4.2
						c-0.5,1.3-1.1,2.7-1.8,4c-0.7,1.3-1.4,2.5-2.5,3.8l-3.6,4.3l1.3-6c0.5-2.1,0.9-4.4,0.9-6.5c0-1.1-0.1-2.1-0.2-3.1
						c-0.2-1-0.4-1.9-0.8-2.8l-0.3-0.7c-0.1-0.2-0.3-0.5-0.4-0.8l-0.8-1.6c-0.5-1.1-1-2.2-1.4-3.3s-0.8-2.3-1.1-3.5
						c-0.2-0.6-0.3-1.2-0.4-1.8c0-0.3-0.1-0.6-0.1-0.9c0-0.2,0-0.3,0-0.5v-0.2v-0.1v-0.1l0,0C493.5,134.5,493.6,134.4,493.6,134.4z
						 M493.9,134.7c0.1,0,0.1-0.1,0.1-0.2l0,0l0,0v0.1l0.1,0.2l0.2,0.4c0.2,0.3,0.3,0.5,0.5,0.7c0.3,0.5,0.7,1,1,1.5l2,2.9l2,2.9
						l1,1.4c0.2,0.3,0.3,0.5,0.5,0.8l0.5,0.9c1.3,2.5,1.5,5.4,1.2,8c-0.1,1.3-0.4,2.6-0.8,3.8s-0.8,2.4-1.5,3.6l-2.3-1.7
						c2-1.4,4.1-3.5,5.1-6c1.1-2.5,0.8-5.4,0-7.7c-0.4-1.1-1-2.1-1.6-3.1s-1.5-2-2.3-2.9c-0.9-1-1.9-1.9-2.9-2.8
						c-0.2-0.2-0.5-0.5-0.8-0.7s-0.5-0.5-0.8-0.7l-0.8-0.7c-0.1-0.1-0.3-0.2-0.4-0.3l-0.2-0.2l-0.1-0.1
						C493.8,134.8,493.9,134.8,493.9,134.7z"/>
				</g>
				<g>
					<path d="M499.6,161.1c0-0.1-0.2,0-0.1,0H499.6L499.6,161.1v-0.2l0.1-0.2l0.2-0.4l0.4-0.9c0.3-0.6,0.6-1.2,0.8-1.7
						c0.5-1.2,0.9-2.4,1.2-3.6c0.6-2.4,0.7-4.9,0.2-7.3c-0.2-1.2-0.7-2.3-1.3-3.5c-0.6-1.1-1.3-2.2-2.2-3.2c-1.7-2-3.7-3.7-5.8-5.1
						l0.9-0.8c1.5,1.9,2.9,3.9,4.3,6l2.1,3.1l1,1.6c0.3,0.5,0.6,1.1,0.9,1.8c0.5,1.3,0.7,2.7,0.6,4c0,1.3-0.2,2.6-0.6,3.8
						c-0.3,1.2-0.7,2.4-1.2,3.6c-0.2,0.6-0.5,1.1-0.8,1.7l-0.5,0.8l-0.2,0.4l-0.1,0.2V161.1L499.6,161.1v0.1
						C499.6,161.2,499.6,161.1,499.6,161.1z M499.5,161.3c0,0-0.1-0.1,0-0.2l0,0V161v-0.1l0.1-0.2l0.1-0.4l0.3-0.9
						c0.2-0.6,0.3-1.2,0.5-1.8c0.3-1.2,0.5-2.4,0.7-3.5c0.3-2.3,0.3-4.7-0.5-6.7c-0.5-0.9-1.1-2-1.7-3l-1.9-3.1
						c-1.3-2.1-2.5-4.2-3.7-6.3l-0.1-0.1c-0.2-0.3-0.1-0.7,0.2-0.8c0.2-0.1,0.5-0.1,0.7,0.1c1,0.9,1.9,1.8,2.8,2.8
						c0.9,0.9,1.8,1.9,2.7,2.9c1.7,2,3.6,3.9,4.6,6.6c0.8,2.7,0.6,5.6-0.3,8.1c-0.4,1.3-1,2.5-1.7,3.6c-0.4,0.6-0.8,1.1-1.2,1.6
						c-0.2,0.3-0.4,0.5-0.7,0.8c-0.1,0.1-0.2,0.2-0.4,0.4l-0.2,0.2l-0.1,0.1l0,0l0,0C499.6,161.2,499.5,161.3,499.5,161.3z"/>
				</g>
				<g>
					<path d="M493.8,134.5c2,1.6,3.8,3.5,5.4,5.4c0.8,1,1.5,2.1,2.2,3.1c0.3,0.5,0.7,1.1,0.9,1.7c0.2,0.6,0.5,1.2,0.6,1.8
						c0.6,2.5,0.5,5.2,0,7.7c-0.3,1.3-0.7,2.5-1.3,3.6c-0.6,1.2-1.3,2.2-2.1,3.2l0,0c0.7-1.1,1.3-2.2,1.8-3.4s0.8-2.4,1.1-3.6
						c0.5-2.5,0.7-5,0.3-7.5c-0.3-2.6-2.1-4.6-3.8-6.4C497.2,138.3,495.5,136.5,493.8,134.5L493.8,134.5z"/>
				</g>
				<g>
					<path d="M493.8,134.5c2.2,1.4,4.4,3,6.3,4.8c1.9,1.9,3.7,3.9,4.6,6.6c0.9,2.6,0.6,5.5-0.3,8.1c-1,2.5-2.4,4.8-4.3,6.8l-0.1-0.1
						c1.4-2.2,2.7-4.6,3.4-7c0.8-2.4,1.3-5,0.5-7.5c-0.7-2.4-2.4-4.6-4.2-6.5C497.9,137.8,495.9,136.1,493.8,134.5L493.8,134.5z"/>
				</g>
			</g>
			<g>
				<g>
					<g>
						<path d="M512.2,122.7c0.6-0.3,1.3-0.5,2-0.6s1.5-0.1,2.2,0.1l0.7,0.2l-0.2,0.8c-0.2,0.7-0.4,1.3-0.6,2c-0.1,0.3-0.3,0.6-0.5,1
							c-0.2,0.3-0.4,0.7-1,1c-0.5,0.3-1,0.4-1.4,0.5s-0.8,0.2-1.1,0.2c-0.7,0.1-1.4,0-2.1-0.2l-1.6-0.4l0.4-1.3
							c0.2-0.7,0.7-1.4,1.3-2C510.8,123.4,511.5,123,512.2,122.7z M512.3,123c-0.3,0.2-0.5,0.5-0.6,0.8s-0.1,0.6-0.1,1
							c0.1,0.6,0.2,1.3,0.2,1.9l-1.2-1.8c0.5,0,1.1,0.1,1.7,0.2c0.3,0.1,0.5,0.1,0.8,0.1c0.2,0,0.5,0,0.5,0s0.2-0.1,0.4-0.3
							c0.2-0.2,0.4-0.4,0.5-0.6c0.3-0.5,0.7-1,1-1.5l0.5,1c-0.6-0.3-1.1-0.6-1.7-0.9c-0.3-0.1-0.6-0.2-0.9-0.1
							C512.9,122.7,512.6,122.8,512.3,123z"/>
					</g>
					<g>
						<path d="M512.5,123.3c0.6-0.3,1.1-0.5,1.8-0.6c0.6-0.1,1.3-0.1,1.9,0h0.4l-0.2,0.3c-0.3,0.5-0.6,1.1-1,1.6s-0.7,1-1.3,1.4
							s-1.3,0.5-1.9,0.6c-0.6,0.1-1.2,0.2-1.9,0.1h-0.7l0.3-0.6c0.3-0.6,0.6-1.2,1.1-1.6C511.4,124,511.9,123.6,512.5,123.3z
							 M512.5,123.4c-0.3,0.2-0.5,0.4-0.7,0.6c-0.2,0.2-0.3,0.5-0.5,0.8c-0.2,0.5-0.4,1.1-0.6,1.7l-0.5-0.7c0.6,0,1.2,0,1.7-0.1
							c0.6,0,1.2-0.1,1.6-0.3c0.4-0.2,0.8-0.7,1.2-1.1s0.7-0.9,1-1.4l0.2,0.4c-0.6-0.1-1.2-0.2-1.8-0.3
							C513.7,122.9,513.1,123.1,512.5,123.4z"/>
					</g>
					<g>
						<path d="M512.7,123.6c1-0.6,2.3-0.8,3.5-0.8h0.2l-0.1,0.2c-0.3,0.5-0.7,0.9-1.1,1.4c-0.4,0.4-0.8,0.9-1.3,1.2
							c-0.6,0.3-1.1,0.5-1.7,0.6c-0.6,0.1-1.2,0.2-1.8,0.3h-0.5l0.2-0.4C510.7,125,511.6,124.1,512.7,123.6z M512.7,123.6
							c-0.5,0.3-0.9,0.7-1.3,1.2c-0.3,0.5-0.6,1-0.9,1.5l-0.2-0.4c0.6-0.1,1.1-0.2,1.7-0.3c0.6-0.1,1.1-0.2,1.6-0.5s0.9-0.7,1.3-1.1
							c0.4-0.4,0.8-0.9,1.1-1.3l0.1,0.2c-0.6,0-1.2-0.1-1.8,0C513.8,123.1,513.2,123.3,512.7,123.6z"/>
					</g>
					<g>
						<path d="M516.3,122.9c0.5,1,0.8,2,1,3.1c0.1,0.6,0.2,1.1,0.1,1.8l-0.1,0.5c0,0.2-0.1,0.4-0.2,0.5c-0.1,0.2-0.2,0.4-0.3,0.6
							c-0.2,0.2-0.4,0.4-0.6,0.5c-0.9,0.6-1.9,0.5-2.6,0.4c-0.7-0.1-1.3-0.4-1.7-0.8c-0.5-0.4-0.8-0.8-1.1-1.3s-0.5-1.1-0.6-1.7
							l0.2-0.2c1.3,0.1,2.3,0.4,3.1,0.8c0.4,0.2,0.8,0.3,1.1,0.5s0.5,0.3,0.4,0.4c0,0.1,0.3-0.1,0.4-0.5c0.2-0.4,0.3-0.8,0.3-1.3
							c0.2-1,0.2-2,0.2-3.1L516.3,122.9z"/>
					</g>
					<g>
						<path d="M516,123.3c0.3,0.8,0.4,1.6,0.4,2.5c-0.1,0.4-0.2,0.8-0.3,1.2c-0.1,0.4-0.3,0.8-0.7,1.1c-0.4,0.3-0.9,0.3-1.3,0.2
							c-0.4-0.1-0.9-0.2-1.2-0.4c-0.7-0.4-1.4-1-1.9-1.6l0,0c0.7,0.4,1.4,0.8,2.1,1.2c0.7,0.3,1.5,0.7,2.2,0.4
							c0.3-0.1,0.6-0.5,0.7-0.9c0.1-0.4,0.1-0.8,0.1-1.2C515.9,125,515.9,124.2,516,123.3L516,123.3z"/>
					</g>
					<g>
						<path d="M516.2,122.9c0.2,0.9,0.4,1.9,0.5,2.9c0,0.5,0,1-0.2,1.5c-0.1,0.5-0.4,1.1-0.9,1.4c-0.5,0.3-1.2,0.3-1.7,0.2
							s-1-0.3-1.4-0.6c-0.8-0.5-1.6-1.2-2.1-2.1l0.1-0.1c0.9,0.4,1.7,0.9,2.5,1.2c0.4,0.2,0.8,0.4,1.2,0.5s0.8,0.2,1.1,0
							c0.6-0.3,0.9-1.3,1-2.2C516.2,124.9,516.2,123.9,516.2,122.9L516.2,122.9z"/>
					</g>
				</g>
				<g>
					<g>
						<circle stroke="currentColor" stroke-miterlimit="10" cx="503.5" cy="127.3" r="2"/>
						<circle fill="#FFFFFF" stroke="currentColor" stroke-miterlimit="10" cx="503.2" cy="126.8" r="0.9"/>
					</g>
					<g>
						<circle stroke="currentColor" stroke-miterlimit="10" cx="521.5" cy="118.6" r="2"/>
						<circle fill="#FFFFFF" stroke="currentColor" stroke-miterlimit="10" cx="521.3" cy="118.1" r="0.9"/>
					</g>
				</g>
			</g>
			<g>
				<path d="M534.4,121.1c-0.6-1.8-1.5-3.5-2.6-4.9c-0.5-0.8-1.2-1.4-1.8-2.1s-1.4-1.3-2-1.9c-2.9-2.3-6.3-4-9.9-5
					c-1.7-0.7-3.6-0.9-5.4-1.4c-1.8-0.3-3.7-0.5-5.6-0.7c-1.9-0.1-3.7-0.2-5.6-0.2s-3.8,0.1-5.7,0.1c1.9-0.2,3.8-0.4,5.6-0.6
					c1.9-0.1,3.8,0,5.7,0c0.9,0,1.9,0.1,2.8,0.2c0.9,0.1,1.9,0.2,2.8,0.3c1.9,0.4,3.8,0.6,5.6,1.3c3.6,1.1,7.2,2.8,10.1,5.4
					C531.2,114.1,533.6,117.3,534.4,121.1z"/>
			</g>
			<g>
				<path d="M492,126.5c-0.8-3.5-0.2-7.4,1.3-10.8c1.5-3.5,4-6.4,6.9-8.7c0.8-0.5,1.5-1.1,2.3-1.6l2.4-1.3c0.4-0.2,0.8-0.5,1.2-0.6
					l1.3-0.5c0.9-0.3,1.7-0.6,2.6-0.9c1.8-0.5,3.5-0.9,5.3-1.2c1.8-0.2,3.6-0.3,5.4-0.4c-1.7,0.7-3.4,1.2-5,1.8l-4.9,2
					c-0.8,0.4-1.5,0.8-2.3,1.2l-1.2,0.6c-0.4,0.2-0.7,0.4-1.1,0.6L504,108c-0.7,0.5-1.4,1-2,1.5c-2.6,2.1-4.9,4.5-6.7,7.4
					C493.6,119.6,492.4,122.9,492,126.5z"/>
			</g>
			<g>
				<path stroke="currentColor" stroke-miterlimit="10" d="M521.8,160.3v2.1c0,0.4-0.3,0.7-0.7,0.7l0,0
					c-0.4,0-0.7-0.3-0.7-0.7v-2.1c0-0.4,0.3-0.7,0.7-0.7l0,0C521.5,159.6,521.8,159.9,521.8,160.3z"/>
				<path stroke="currentColor" stroke-miterlimit="10" d="M519,160.3v2.1c0,0.4-0.3,0.7-0.7,0.7l0,0
					c-0.4,0-0.7-0.3-0.7-0.7v-2.1c0-0.4,0.3-0.7,0.7-0.7l0,0C518.7,159.6,519,159.9,519,160.3z"/>
				<path stroke="currentColor" stroke-miterlimit="10" d="M507.9,160.3v2.1c0,0.4-0.3,0.7-0.7,0.7l0,0
					c-0.4,0-0.7-0.3-0.7-0.7v-2.1c0-0.4,0.3-0.7,0.7-0.7l0,0C507.6,159.6,507.9,159.9,507.9,160.3z"/>
				<path stroke="currentColor" stroke-miterlimit="10" d="M505.3,160.3v2.1c0,0.4-0.3,0.7-0.7,0.7l0,0
					c-0.4,0-0.7-0.3-0.7-0.7v-2.1c0-0.4,0.3-0.7,0.7-0.7l0,0C505,159.6,505.3,159.9,505.3,160.3z"/>
			</g>
		</g>
	</g>
	<path id="barrre" d="M552.1,249.8H450.3c-3.6,0-6.4,2.4-6.4,5.6s2.8,5.6,6.4,5.6h101.8c3.6,0,6.4-2.4,6.4-5.6
		S555.5,249.8,552.1,249.8z"/>
</symbol>
</svg>
