<?xml version="1.0" standalone="no"?>
<!DOCTYPE svg PUBLIC "-//W3C//DTD SVG 20010904//EN"
 "http://www.w3.org/TR/2001/REC-SVG-20010904/DTD/svg10.dtd">
<svg version="1.0" xmlns="http://www.w3.org/2000/svg"
 width="700.000000pt" height="700.000000pt" viewBox="0 0 700.000000 700.000000"
 preserveAspectRatio="xMidYMid meet">
<metadata>
Created by potrace 1.11, written by Peter Selinger 2001-2013
</metadata>
<g transform="translate(0.000000,700.000000) scale(0.100000,-0.100000)"
fill="#000000" stroke="none">
<path d="M3487 6684 c-1 -1 -40 -5 -87 -8 -800 -61 -1443 -644 -1767 -1601
-33 -99 -97 -315 -107 -368 -3 -15 -9 -39 -12 -54 -3 -16 -14 -68 -24 -118
-23 -109 -23 -108 -56 -345 -2 -14 -6 -62 -9 -107 -3 -45 -8 -92 -11 -105 -2
-13 -6 -129 -8 -258 -4 -289 6 -417 49 -630 108 -529 381 -992 773 -1312 93
-76 270 -195 340 -228 51 -24 53 -26 48 -60 -3 -19 -5 -51 -6 -71 l0 -36 -92
-13 c-146 -20 -202 -25 -393 -36 l-120 -6 -79 83 c-279 294 -503 665 -641
1059 -20 58 -40 116 -46 130 -11 31 -75 284 -82 325 -3 17 -13 75 -22 130 -9
55 -18 110 -20 121 -2 12 -6 61 -10 110 -4 49 -9 100 -10 114 -2 14 -4 67 -4
118 -1 87 -2 92 -22 92 -22 0 -22 -1 -16 -152 6 -138 17 -259 31 -351 3 -17 8
-49 11 -71 3 -21 7 -41 9 -45 2 -3 7 -26 10 -51 12 -89 96 -406 126 -475 4
-11 21 -54 35 -95 47 -128 150 -350 222 -475 51 -89 184 -294 205 -316 7 -8
32 -39 55 -69 58 -78 83 -107 122 -146 27 -28 30 -34 15 -35 -48 -3 -319 3
-326 7 -5 3 -8 1 -8 -4 0 -8 24 -14 135 -37 6 -1 31 -5 58 -8 26 -3 51 -8 55
-10 4 -3 43 -8 87 -12 79 -7 81 -7 135 -58 30 -28 57 -54 60 -57 34 -37 224
-182 327 -248 l81 -53 -20 -72 c-23 -82 -37 -138 -38 -150 0 -4 21 7 48 25 26
18 54 33 64 34 9 1 37 18 63 39 l46 38 52 -22 c92 -40 300 -110 377 -126 41
-9 84 -18 95 -21 11 -2 36 -6 55 -9 19 -3 46 -8 60 -11 55 -13 425 -12 525 2
408 57 771 219 1105 493 72 59 305 292 355 356 22 28 43 52 46 55 15 14 163
227 214 310 140 228 286 561 364 836 39 135 83 333 96 424 3 25 8 52 10 60 2
8 6 46 10 83 3 37 9 78 11 90 3 12 7 135 9 272 3 231 -1 311 -30 550 -22 185
-99 499 -175 710 -55 152 -61 168 -171 400 -47 101 -219 385 -275 454 -7 9
-41 52 -76 96 -141 179 -320 356 -488 482 -273 204 -621 359 -920 407 -19 3
-45 8 -58 10 -52 11 -356 28 -365 20z m228 -148 c44 -4 87 -9 95 -11 8 -3 35
-7 60 -10 160 -19 416 -100 596 -186 266 -129 470 -292 681 -545 104 -123 260
-337 333 -455 237 -379 402 -862 466 -1359 24 -189 24 -642 0 -790 -3 -14 -7
-43 -10 -65 -9 -71 -27 -179 -37 -225 -6 -25 -13 -56 -15 -70 -12 -62 -71
-246 -116 -357 -96 -242 -213 -444 -428 -738 -253 -348 -324 -418 -630 -622
-340 -227 -632 -362 -860 -399 -19 -3 -37 -7 -40 -9 -15 -9 -160 -19 -270 -19
-181 0 -269 10 -448 48 -77 17 -307 90 -332 105 -12 8 -1 24 55 84 81 86 89
91 110 71 23 -24 77 -28 113 -10 38 20 77 68 181 224 45 67 86 120 92 116 18
-11 360 -13 444 -3 433 53 819 284 1115 669 19 25 77 90 130 146 147 153 234
309 293 524 25 89 28 117 33 270 2 80 8 168 14 195 5 28 12 73 15 100 4 28 9
64 11 80 3 17 6 140 8 275 4 248 -3 334 -40 530 -8 47 -18 98 -20 113 -9 47
-70 257 -102 347 -29 80 -116 283 -132 305 -4 6 -26 46 -50 90 -123 229 -318
464 -531 640 -61 49 -220 149 -303 189 -107 51 -246 97 -366 121 -97 20 -353
28 -445 14 -368 -54 -651 -239 -870 -569 -93 -140 -212 -402 -264 -580 -8 -25
-20 -65 -27 -90 -13 -42 -53 -221 -60 -265 -2 -11 -5 -31 -8 -45 -8 -44 -26
-171 -33 -229 -3 -31 -7 -63 -9 -71 -1 -8 -3 -31 -3 -52 -1 -27 -12 -50 -44
-90 -104 -130 -202 -314 -233 -438 -25 -105 -34 -144 -40 -186 -3 -27 -8 -58
-11 -69 -10 -42 -10 -323 -1 -385 17 -106 47 -209 82 -281 19 -38 30 -69 25
-71 -5 -2 48 -82 118 -178 180 -246 348 -413 553 -550 77 -52 78 -52 72 -91
-5 -36 -6 -36 -103 27 -318 203 -591 506 -739 816 -87 184 -170 461 -205 688
-3 19 -10 60 -15 90 -12 74 -18 115 -25 180 -3 30 -8 66 -10 80 -20 132 -27
558 -11 700 4 36 9 83 12 105 7 65 39 254 48 283 3 9 7 29 10 43 19 112 125
434 189 573 242 529 559 888 974 1102 282 147 590 201 958 170z m65 -730 c14
-3 50 -10 80 -16 306 -56 632 -252 833 -500 138 -171 296 -438 367 -620 12
-30 28 -68 35 -85 78 -174 143 -403 160 -564 17 -159 23 -385 16 -651 l-2 -75
-25 59 c-14 32 -36 76 -49 96 -13 21 -34 78 -46 127 -38 155 -84 258 -169 375
-54 73 -171 186 -242 230 -96 62 -230 118 -318 134 -25 4 -48 9 -52 10 -5 1
-11 2 -15 3 -5 1 24 15 62 32 l70 30 -121 -5 c-66 -3 -127 -8 -135 -10 -8 -3
-25 -7 -39 -10 -107 -19 -368 -97 -396 -117 -5 -5 -39 -11 -75 -13 -143 -12
-204 -19 -208 -22 -2 -2 42 -4 98 -4 l103 0 -63 -42 c-35 -23 -101 -80 -147
-126 l-83 -83 -40 45 c-22 24 -67 65 -100 90 -33 25 -59 49 -59 53 0 7 27 18
74 28 29 7 31 13 5 20 -74 17 -173 35 -220 40 -120 12 -120 12 -20 63 50 26
91 50 91 54 0 4 -6 6 -12 3 -7 -2 -42 -6 -78 -9 -73 -7 -240 -39 -282 -55 -15
-6 -69 -17 -120 -26 -174 -30 -293 -80 -426 -180 l-73 -55 5 33 c3 17 8 55 11
82 6 43 13 81 39 215 39 194 121 430 218 625 195 391 475 660 805 775 71 24
80 26 183 45 73 12 305 13 360 1z m560 -4120 c0 -9 -200 -136 -271 -171 -173
-88 -365 -134 -536 -130 -144 3 -144 3 -48 36 50 16 140 50 200 74 66 26 136
46 175 50 128 14 305 68 478 144 1 1 2 -1 2 -3z m-1744 -456 c-2 -8 -19 -75
-37 -147 -19 -73 -38 -133 -43 -133 -25 0 -281 174 -370 252 l-48 43 251 0
c218 0 250 -2 247 -15z"/>
</g>
</svg>
