<?xml version="1.0" encoding="utf-8"?>
<!-- Generator: Adobe Illustrator 22.0.1, SVG Export Plug-In . SVG Version: 6.00 Build 0)  -->
<svg version="1.2" baseProfile="tiny" id="addObs" xmlns="http://www.w3.org/2000/svg" xmlns:xlink="http://www.w3.org/1999/xlink"
	 x="0px" y="0px" viewBox="0 0 416 416" xml:space="preserve">
	<g id="appareil">
		<path d="M372.6,126h-58.9c-30.1-23.6-67.5-36.6-105.7-36.6s-75.6,13-105.7,36.6H43.4C19.5,126,0,145.5,0,169.4v183.8
			c0,23.9,19.5,43.4,43.4,43.4h329.1c23.9,0,43.4-19.5,43.4-43.4V169.4C416,145.5,396.5,126,372.6,126z M402.3,353.2
			c0,16.4-13.3,29.7-29.7,29.7H43.4c-16.4,0-29.7-13.3-29.7-29.7V169.4c0-16.4,13.3-29.7,29.7-29.7h61.3c1.6,0,3.1-0.5,4.3-1.5
			c27.9-22.6,63.1-35,99-35s71.1,12.4,99,35c1.2,1,2.7,1.5,4.3,1.5h61.3c16.4,0,29.7,13.3,29.7,29.7V353.2z"/>
		<path d="M54.9,112.3h38.4c3.8,0,6.9-3.1,6.9-6.9c0-3.8-3.1-6.9-6.9-6.9H54.9c-3.8,0-6.9,3.1-6.9,6.9
			C48,109.2,51.1,112.3,54.9,112.3z"/>
		<path d="M354.3,162.6c-13.9,0-25.1,11.3-25.1,25.1c0,13.9,11.3,25.1,25.1,25.1c13.9,0,25.1-11.3,25.1-25.1
			C379.4,173.9,368.1,162.6,354.3,162.6z M354.3,199.2c-6.3,0-11.4-5.1-11.4-11.4s5.1-11.4,11.4-11.4s11.4,5.1,11.4,11.4
			S360.6,199.2,354.3,199.2z"/>
	</g>
	<g id="objectif">
		<g>
			<path d="M208.3,359.4c-57.3,0-100.7-49.6-100.7-103h1.6c0,54,44.1,99.1,98.5,99.1c10.9,0,21.7-2.6,31.9-7.1
				c8-3.5,20.9-10.4,27.9-16c5.4-4.3,9.3-9.6,13.9-14.8c5.3-6,8.3-10.2,12.2-16.9c8.5-14.5,10.9-29.8,10.9-44.8
				c0-21.2-8.7-45.8-24.6-64c-3.9-4.5-9.4-10.4-13.9-14.3c-16.3-13.9-36.5-19.5-57-20.3c-55.8-2.1-87.6,51.5-82.4,97.5
				c0.7,6.5,1.9,13.6,3.7,20.5c2.5,9.2,6.2,18.2,12.2,25.6c15.7,19.3,42.2,30.6,65.2,30.6c8,0,15.8-2,23.1-5.4
				c5.7-2.7,19.6-11.3,24.5-15.5c5.8-5,16.9-26.9,18.9-32.9c2.3-6.9,2.7-15.2,2.7-21.8c0-8.9-0.7-18.9-5.3-28.3
				c-2.5-5.2-5.1-11.5-8.6-16.2c-2.4-3.3-6-8.2-8.8-11.1c-12.2-12.8-29.1-18.5-45.2-18.5c-15.3,0-29.8,7.2-39.4,18.7
				c-4.1,4.9-6.7,9-9.6,14.9c-6.3,12.6-8.9,28.7-8.9,41.1h-1.6c0-36,14.2-78.5,58.9-78.5c42.8,0,72.7,39.4,72.7,78.5
				c0,40.3-28.3,77.8-72.7,77.8c-46.7,0-86.6-31.9-86.6-78.5c0-50.5,27.7-103.3,86.6-103.3c57.3,0,99.4,50.9,99.4,103.9
				C307.7,309.5,265.6,359.4,208.3,359.4z"/>
		</g>
		<g>
			<g>
				<path fill="#FFFFFF" d="M167.7,262.7c1.9,0,1.9-3,0-3C165.8,259.7,165.8,262.7,167.7,262.7L167.7,262.7z"/>
			</g>
		</g>
		<text transform="matrix(1.1073 0 0 1 144.1051 278.4565)" display="none" font-family="'ArialMT'" font-size="207.807px">O</text>
	</g>
	<g id="oiseau">
		<g>
			<g>
				<g>
					<g>
						<g>
							<g>
								<path fill="#00CCCC" d="M218.3,314.1c0,0-2.5,4.8-9.2,12.3c-7.4,8.2-10.3,14.8-12.4,15.5c-2.1,0.7,1.5-7.5,0.7-7.1
									c-0.9,0.3-8.3,8.6-10.6,6.9c-2.3-1.7,14.7-12.7,12.9-16.2c-1.2-2.5-21.4-11-34.2-29.8L218.3,314.1z"/>
								<path d="M218.6,314c0,0.1,0,0.2,0,0.3v0.1v0.1l-0.1,0.2l-0.2,0.5l-0.4,0.9c-0.3,0.6-0.6,1.2-0.9,1.8c-0.6,1.2-1.3,2.3-2,3.4
									c-1.4,2.2-2.9,4.4-4.5,6.4s-3,4-4.4,6.1s-2.8,4.2-4.2,6.4c-0.4,0.6-0.8,1.1-1.2,1.7c-0.2,0.3-0.5,0.6-0.8,0.9l-0.5,0.5
									c-0.2,0.2-0.4,0.4-0.7,0.5c-0.2,0.2-0.7,0.4-1,0.5c-0.1,0-0.3,0.1-0.4,0.1c-0.2,0-0.3,0.1-0.6,0.1s-0.6,0-0.9-0.1
									s-0.7-0.2-1-0.4c-0.3-0.2-0.5-0.4-0.7-0.7c-0.1-0.1-0.2-0.2-0.2-0.3c-0.1-0.1-0.1-0.2-0.1-0.3s-0.1-0.2-0.1-0.3l-0.1-0.2
									c0-0.1-0.1-0.3-0.1-0.4c-0.1-0.4,0-0.8,0-1c0.1-1,0.3-1.7,0.4-2.4c0.2-0.7,0.4-1.3,0.6-1.9c0.2-0.6,0.4-1.2,0.5-1.6v-0.1l0,0
									c0,0.1,0,0.2,0,0.3c0,0.2,0.1,0.4,0.1,0.6c0.1,0.1,0.1,0.1,0.2,0.3c0.2,0.3,0.4,0.6,0.7,0.8c0.3,0.2,0.7,0.3,0.9,0.4
									c0.2,0.1,0.5,0.1,0.7,0.1s0.5-0.1,0.7-0.2l0.1-0.1c0.3-0.2,0.3-0.2,0.3-0.2c-0.1,0.1-0.4,0.3-0.6,0.5l-1.5,1.2
									c-1,0.8-2.1,1.7-3.2,2.5c-1.1,0.8-2.3,1.5-3.8,2.1c-0.4,0.1-0.8,0.3-1.3,0.3c-0.5,0.1-1.2,0.1-1.9-0.2
									c-0.2-0.1-0.3-0.2-0.5-0.3s-0.5-0.4-0.6-0.7c-0.2-0.3-0.2-0.6-0.3-0.9c0-0.2,0-0.3,0-0.4c0-0.1,0-0.2,0.1-0.3
									c0-0.2,0.1-0.4,0.2-0.5s0.1-0.3,0.2-0.4c0.1-0.2,0.3-0.4,0.4-0.5c1-1.2,2-2,3-2.9c2-1.7,4-3.3,5.9-5c0.9-0.9,1.8-1.8,2.6-2.7
									c0.4-0.5,0.8-1,1.1-1.4c0.3-0.5,0.5-1,0.5-1.3c0-0.2,0-0.1-0.1-0.2c-0.1-0.1-0.4-0.3-0.6-0.5c-0.5-0.3-1-0.7-1.6-1
									c-1.1-0.6-2.2-1.3-3.3-1.9c-2.3-1.3-4.5-2.5-6.8-3.9c-9-5.3-17.2-12.4-23.5-21.2l-5.5-7.6l9.1,3c4.6,1.5,9.2,3.1,13.8,4.9
									c4.6,1.7,9,3.6,13.4,5.4l6.5,2.8l6.3,2.8C210.7,310.3,214.8,312.2,218.6,314z M218.1,314.2l-14.4-3.8l-6.9-1.8l-6.7-1.8
									c-4.4-1.3-8.7-2.5-13-3.9c-4.3-1.3-8.4-2.8-12.6-4.4l3.6-4.7c5.3,8.3,12.7,15.2,20.5,21.7c2,1.6,4,3.2,6.1,4.7l3.2,2.3
									c0.5,0.4,1.1,0.8,1.6,1.2c0.3,0.2,0.5,0.5,0.8,0.8c0.3,0.3,0.6,1,0.6,1.5c-0.1,1-0.5,1.7-0.8,2.3c-0.4,0.6-0.8,1.1-1.3,1.6
									c-0.9,1-1.8,1.9-2.8,2.8c-1.9,1.8-3.8,3.6-5.5,5.4c-0.8,0.9-1.7,1.9-2.2,2.8c-0.1,0.1-0.1,0.2-0.1,0.3c0,0,0,0,0,0.1l0,0
									c0-0.1,0,0,0-0.2c0-0.2-0.1-0.3-0.1-0.4c0-0.1-0.2-0.3-0.3-0.3l-0.1-0.1c-0.1-0.1-0.1-0.1,0-0.1s0.3-0.1,0.5-0.3
									c0.8-0.5,1.7-1.3,2.6-2.1c0.9-0.8,1.7-1.7,2.6-2.7c0.4-0.5,0.9-0.9,1.4-1.4c0.3-0.3,0.5-0.5,0.9-0.8c0.2-0.1,0.2-0.2,0.7-0.4
									c0.1,0,0,0,0.2-0.1s0.5-0.1,0.8-0.2c0.3,0,0.5,0,0.8,0.1c0.2,0,0.6,0.2,0.9,0.4c0.3,0.2,0.6,0.5,0.7,0.8
									c0.1,0.2,0.1,0.3,0.2,0.4c0.1,0.2,0.1,0.5,0.2,0.7c0,0.2,0,0.4,0,0.5v0.3c0,0.2,0,0.3-0.1,0.4c-0.2,0.9-0.3,1.4-0.5,2.1
									c-0.2,0.6-0.3,1.2-0.5,1.8c-0.1,0.5-0.3,1.1-0.3,1.4c0,0.1,0,0.1,0-0.1c0,0,0-0.1,0-0.2v-0.1c0-0.1,0-0.1-0.1-0.2
									c0-0.1-0.1-0.1-0.1-0.2l-0.2-0.2c-0.2-0.2-0.3-0.4-0.6-0.5c-0.2-0.2-0.5-0.3-0.8-0.3c-0.2-0.1-0.4-0.1-0.6-0.1s-0.2,0-0.3,0
									s-0.2,0.1-0.2,0.1c-0.1,0-0.2,0.1-0.2,0.1s0,0,0.1-0.1l0.2-0.2c0.1-0.1,0.3-0.4,0.5-0.6c0.4-0.4,0.7-0.9,1.1-1.4
									c3-4.1,6.3-8.4,10.1-12c1.8-1.8,3.6-3.6,5.4-5.4c0.9-0.9,1.7-1.9,2.6-2.8l1.3-1.5l0.6-0.7l0.3-0.4l0.2-0.2l0.1-0.1l0,0
									C218,314,218,314.1,218.1,314.2z"/>
							</g>
						</g>
						<g>

								<line fill="none" stroke="#000000" stroke-width="1.4805" stroke-miterlimit="10" x1="184.1" y1="314.5" x2="217.1" y2="314.5"/>

								<line fill="none" stroke="#000000" stroke-width="1.4805" stroke-miterlimit="10" x1="184.9" y1="315.1" x2="217.1" y2="315.1"/>

								<line fill="none" stroke="#000000" stroke-width="1.4805" stroke-miterlimit="10" x1="217.1" y1="315.8" x2="185.8" y2="315.8"/>

								<line fill="none" stroke="#000000" stroke-width="1.4805" stroke-miterlimit="10" x1="216.9" y1="316.4" x2="186.7" y2="316.4"/>

								<line fill="none" stroke="#000000" stroke-width="1.4805" stroke-miterlimit="10" x1="187.7" y1="317.1" x2="216.5" y2="317.1"/>

								<line fill="none" stroke="#000000" stroke-width="1.4805" stroke-miterlimit="10" x1="216" y1="317.7" x2="188.6" y2="317.7"/>

								<line fill="none" stroke="#000000" stroke-width="1.4805" stroke-miterlimit="10" x1="215.5" y1="318.4" x2="189.6" y2="318.4"/>
							<line fill="none" stroke="#000000" stroke-width="1.4805" stroke-miterlimit="10" x1="215.1" y1="319" x2="190.5" y2="319"/>

								<line fill="none" stroke="#000000" stroke-width="1.4805" stroke-miterlimit="10" x1="214.6" y1="319.7" x2="191.5" y2="319.7"/>

								<line fill="none" stroke="#000000" stroke-width="1.4805" stroke-miterlimit="10" x1="214.1" y1="320.3" x2="192.5" y2="320.3"/>
							<line fill="none" stroke="#000000" stroke-width="1.4805" stroke-miterlimit="10" x1="213.6" y1="321" x2="193.6" y2="321"/>

								<line fill="none" stroke="#000000" stroke-width="1.4805" stroke-miterlimit="10" x1="213.1" y1="321.6" x2="194.6" y2="321.6"/>

								<line fill="none" stroke="#000000" stroke-width="1.4805" stroke-miterlimit="10" x1="212.6" y1="322.3" x2="195.6" y2="322.3"/>
							<line fill="none" stroke="#000000" stroke-width="1.4805" stroke-miterlimit="10" x1="212" y1="323" x2="196.6" y2="323"/>

								<line fill="none" stroke="#000000" stroke-width="1.4805" stroke-miterlimit="10" x1="211.5" y1="323.6" x2="197.6" y2="323.6"/>

								<line fill="none" stroke="#000000" stroke-width="1.4805" stroke-miterlimit="10" x1="211" y1="324.3" x2="198.6" y2="324.3"/>

								<line fill="none" stroke="#000000" stroke-width="1.4805" stroke-miterlimit="10" x1="210.4" y1="324.9" x2="199.4" y2="324.9"/>

								<line fill="none" stroke="#000000" stroke-width="1.4805" stroke-miterlimit="10" x1="209.8" y1="325.6" x2="199.8" y2="325.6"/>

								<line fill="none" stroke="#000000" stroke-width="1.4805" stroke-miterlimit="10" x1="209.3" y1="326.2" x2="199.9" y2="326.2"/>

								<line fill="none" stroke="#000000" stroke-width="1.4805" stroke-miterlimit="10" x1="208.7" y1="326.9" x2="199.7" y2="326.9"/>

								<line fill="none" stroke="#000000" stroke-width="1.4805" stroke-miterlimit="10" x1="208.1" y1="327.5" x2="199.4" y2="327.5"/>

								<line fill="none" stroke="#000000" stroke-width="1.4805" stroke-miterlimit="10" x1="207.6" y1="328.2" x2="198.9" y2="328.2"/>

								<line fill="none" stroke="#000000" stroke-width="1.4805" stroke-miterlimit="10" x1="207" y1="328.8" x2="198.4" y2="328.8"/>

								<line fill="none" stroke="#000000" stroke-width="1.4805" stroke-miterlimit="10" x1="206.5" y1="329.5" x2="197.9" y2="329.5"/>

								<line fill="none" stroke="#000000" stroke-width="1.4805" stroke-miterlimit="10" x1="205.9" y1="330.1" x2="197.3" y2="330.1"/>

								<line fill="none" stroke="#000000" stroke-width="1.4805" stroke-miterlimit="10" x1="205.4" y1="330.8" x2="196.7" y2="330.8"/>

								<line fill="none" stroke="#000000" stroke-width="1.4805" stroke-miterlimit="10" x1="204.9" y1="331.4" x2="196" y2="331.4"/>

								<line fill="none" stroke="#000000" stroke-width="1.4805" stroke-miterlimit="10" x1="204.4" y1="332.1" x2="195.3" y2="332.1"/>

								<line fill="none" stroke="#000000" stroke-width="1.4805" stroke-miterlimit="10" x1="203.9" y1="332.7" x2="194.6" y2="332.7"/>

								<line fill="none" stroke="#000000" stroke-width="1.4805" stroke-miterlimit="10" x1="203.5" y1="333.4" x2="193.9" y2="333.4"/>
							<line fill="none" stroke="#000000" stroke-width="1.4805" stroke-miterlimit="10" x1="203" y1="334" x2="193.2" y2="334"/>

								<line fill="none" stroke="#000000" stroke-width="1.4805" stroke-miterlimit="10" x1="202.5" y1="334.7" x2="192.5" y2="334.7"/>

								<line fill="none" stroke="#000000" stroke-width="1.4805" stroke-miterlimit="10" x1="202.1" y1="335.3" x2="197.5" y2="335.3"/>

								<line fill="none" stroke="#000000" stroke-width="1.4805" stroke-miterlimit="10" x1="191.8" y1="335.3" x2="196.6" y2="335.3"/>
							<line fill="none" stroke="#000000" stroke-width="1.4805" stroke-miterlimit="10" x1="201.6" y1="336" x2="197.3" y2="336"/>
							<line fill="none" stroke="#000000" stroke-width="1.4805" stroke-miterlimit="10" x1="191.1" y1="336" x2="195.9" y2="336"/>

								<line fill="none" stroke="#000000" stroke-width="1.4805" stroke-miterlimit="10" x1="190.4" y1="336.6" x2="195.2" y2="336.6"/>

								<line fill="none" stroke="#000000" stroke-width="1.4805" stroke-miterlimit="10" x1="201.1" y1="336.6" x2="197.1" y2="336.6"/>

								<line fill="none" stroke="#000000" stroke-width="1.4805" stroke-miterlimit="10" x1="189.7" y1="337.3" x2="194.5" y2="337.3"/>

								<line fill="none" stroke="#000000" stroke-width="1.4805" stroke-miterlimit="10" x1="200.7" y1="337.3" x2="196.9" y2="337.3"/>

								<line fill="none" stroke="#000000" stroke-width="1.4805" stroke-miterlimit="10" x1="189" y1="337.9" x2="193.8" y2="337.9"/>

								<line fill="none" stroke="#000000" stroke-width="1.4805" stroke-miterlimit="10" x1="200.2" y1="337.9" x2="196.7" y2="337.9"/>

								<line fill="none" stroke="#000000" stroke-width="1.4805" stroke-miterlimit="10" x1="188.3" y1="338.6" x2="193.1" y2="338.6"/>

								<line fill="none" stroke="#000000" stroke-width="1.4805" stroke-miterlimit="10" x1="199.8" y1="338.6" x2="196.6" y2="338.6"/>

								<line fill="none" stroke="#000000" stroke-width="1.4805" stroke-miterlimit="10" x1="199.3" y1="339.2" x2="196.4" y2="339.2"/>

								<line fill="none" stroke="#000000" stroke-width="1.4805" stroke-miterlimit="10" x1="187.7" y1="339.2" x2="192.3" y2="339.2"/>

								<line fill="none" stroke="#000000" stroke-width="1.4805" stroke-miterlimit="10" x1="187.2" y1="339.9" x2="191.5" y2="339.9"/>

								<line fill="none" stroke="#000000" stroke-width="1.4805" stroke-miterlimit="10" x1="198.8" y1="339.9" x2="196.2" y2="339.9"/>

								<line fill="none" stroke="#000000" stroke-width="1.4805" stroke-miterlimit="10" x1="186.8" y1="340.5" x2="190.6" y2="340.5"/>

								<line fill="none" stroke="#000000" stroke-width="1.4805" stroke-miterlimit="10" x1="198.3" y1="340.5" x2="196.1" y2="340.5"/>

								<line fill="none" stroke="#000000" stroke-width="1.4805" stroke-miterlimit="10" x1="186.6" y1="341.2" x2="189.5" y2="341.2"/>

								<line fill="none" stroke="#000000" stroke-width="1.4805" stroke-miterlimit="10" x1="197.7" y1="341.2" x2="196.1" y2="341.2"/>
						</g>
					</g>
					<g>
						<g>
							<path fill="#00CCCC" d="M157.7,247L157.7,247c4.7-11.7,16-20,29.1-20c17.4,0,31.5,14.5,31.5,32.4c0,1,0,1.9-0.1,2.9l0,0l0,0
								c-0.1,1-0.2,2.1-0.4,3.1c-2.1,18.9,5.8,24.1,4.1,36.4c-2.1,16.1-11.4,23.3-18.7,22c-5-0.9-30.3-17.7-42.9-35.6
								C147.7,270.3,157.7,247,157.7,247z"/>
							<path d="M157.6,246.7c-0.3,0.3-0.1,0.1-0.1,0.1l0,0l0,0L157.6,246.7v-0.2l0.1-0.3l0.3-0.7c0.2-0.4,0.4-0.9,0.6-1.3
								c0.5-0.8,0.9-1.7,1.4-2.5l0.7-1.2l0.8-1.2c0.5-0.8,1.2-1.5,1.7-2.3c2.4-3,5.4-5.5,8.7-7.6c6.6-4.2,15.2-5.8,23.1-3.9
								c4,0.9,7.8,2.6,11.1,5s6.1,5.4,8.3,8.9c4.3,6.9,5.8,15.2,4.8,22.9l-0.9-1.3l0,0l1.1,0.3l-0.2,1c-0.7,3.5-1.1,6.9-1,10.5
								c0,3.5,0.6,7,1.5,10.4s2.2,6.7,3.1,10.4c0.2,0.9,0.4,1.8,0.5,2.8c0.1,0.9,0.2,1.9,0.2,2.8c0,0.9-0.1,1.9-0.1,2.8l-0.3,2.8
								c-0.6,3.7-1.5,7.4-3.3,10.8c-1.8,3.4-4.3,6.7-7.9,8.9c-1.8,1.1-3.9,1.9-6.1,2.1c-1.1,0.1-2.3,0.1-3.4-0.2l-0.9-0.3L201,326
								l-0.4-0.1l-1.4-0.6c-3.5-1.7-6.6-3.5-9.6-5.6c-6.1-4-11.8-8.5-17.2-13.5c-2.7-2.5-5.2-5.1-7.6-7.9c-2.4-2.7-4.7-5.7-6.7-8.8
								c-2-3.3-3.5-6.8-4.3-10.5c-0.8-3.7-1.2-7.4-0.9-11.1c0.2-3.7,0.7-7.3,1.5-10.8c0.4-1.8,0.8-3.5,1.4-5.2
								c0.3-0.9,0.5-1.7,0.8-2.6c0.1-0.4,0.3-0.8,0.5-1.3l0.2-0.6l0.1-0.3C157.3,247.1,157.5,246.9,157.6,246.7z M157.9,247.3
								c0,0.1,0.1,0.1,0,0.2l-0.1,0.3l-0.2,0.6c-0.1,0.4-0.3,0.8-0.4,1.3c-0.3,0.8-0.5,1.7-0.7,2.6c-0.5,1.7-0.8,3.5-1,5.2
								c-0.5,3.5-0.5,7.1-0.2,10.5c0.3,3.5,1.2,6.9,2.4,10l1,2.3c0.4,0.8,0.8,1.5,1.2,2.2l0.6,1.1c0.2,0.4,0.5,0.7,0.7,1l1.4,2
								c8.6,10.7,19.4,20,30.7,28.1l2.1,1.5l2.2,1.4c0.7,0.5,1.5,0.9,2.2,1.3c0.7,0.4,1.5,0.8,2.2,1.2l1,0.5l0.3,0.1l0.2,0.1
								c0.1,0,0.2,0.1,0.4,0.1c0.6,0.1,1.2,0.2,1.9,0.2c1.3-0.1,2.7-0.5,4-1.2c2.6-1.4,4.8-3.8,6.5-6.5c1.7-2.8,3-6,3.8-9.3l0.6-2.5
								c0.1-0.8,0.3-1.7,0.3-2.5c0.1-1.7,0.1-3.4-0.2-5.1c-0.4-3.4-1.6-6.8-2.4-10.3c-1.8-7-1.9-14.5-1-21.6l0.9,1.3l0,0l-0.9-0.2
								v-1.1c0.3-7.3-2.2-14.4-6.4-20c-0.6-0.7-1.1-1.4-1.6-2l-1.8-1.9l-1.9-1.7c-0.7-0.5-1.4-1-2.1-1.6c-2.8-2-6-3.5-9.3-4.5
								c-6.6-1.9-14.1-1.9-20.8,1.1c-0.8,0.4-1.7,0.7-2.5,1.2c-0.8,0.4-1.6,0.9-2.3,1.5c-0.8,0.5-1.5,1.1-2.2,1.7s-1.4,1.2-2,1.9
								s-1.3,1.3-1.8,2.1l-0.9,1.1l-0.8,1.2c-0.5,0.8-1,1.6-1.4,2.4c-0.2,0.4-0.4,0.8-0.6,1.3l-0.3,0.6l-0.1,0.3l-0.1,0.2v0.1l0,0
								l0,0C157.9,247.2,158.1,247,157.9,247.3z"/>
						</g>
						<g>
							<path fill="#00CCCC" d="M202.6,323.4c-6.8-2.6-28.9-17.7-40.3-33.7c-12.2-17.1-2.5-39.4-2.5-39.4l0,0
								c4.6-11.2,15.5-19.1,28.1-19.1c16.8,0,30.5,13.9,30.5,31c0,0.9,0,1.9-0.1,2.8l0,0l0,0c-0.1,1-0.2,2-0.4,2.9
								c-2.1,18.1,5.6,23,4,34.8c-2.1,15.4-11.1,22.3-18.1,21C203.5,323.7,203.1,323.6,202.6,323.4"/>
							<path d="M202.5,323.6c-3.7-1.3-7.1-3.4-10.5-5.4c-3.3-2.1-6.6-4.3-9.7-6.7c-1.6-1.2-3.1-2.4-4.6-3.7c-1.5-1.3-3-2.6-4.4-3.9
								c-2.9-2.7-5.7-5.5-8.3-8.5c-1.3-1.5-2.5-3.1-3.7-4.7c-1.1-1.7-2.3-3.4-3-5.3c-1.7-3.7-2.7-7.7-2.9-11.7c-0.3-4,0-8,0.7-11.9
								s1.8-7.7,3.3-11.4l0.2-0.4l0.4,0.1l0,0l-0.6,0.3c1.4-3.4,3.4-6.5,5.9-9.3c2.5-2.7,5.4-5,8.7-6.8c6.5-3.6,14.4-4.6,21.7-3
								c3.7,0.9,7.2,2.4,10.3,4.5c3.2,2.1,5.9,4.8,8.1,7.9c4.4,6.2,6.6,14,5.9,21.6l-1.2-1.7l0,0l1.4,0.3l-0.2,1.4
								c-0.2,1.4-0.4,3-0.5,4.3c-0.1,1.4-0.2,2.8-0.2,4.2c0,2.8,0.2,5.6,0.8,8.4c0.5,2.8,1.3,5.5,2.1,8.4s1.4,5.9,1.3,9
								c0,0.4,0,0.8,0,1.2l-0.1,1.1c-0.1,0.8-0.2,1.5-0.3,2.3c-0.2,1.5-0.6,2.9-1,4.4c-0.9,2.9-2.2,5.7-3.9,8.2s-3.9,4.7-6.6,6.1
								C208.6,324.2,205.3,324.7,202.5,323.6l0.1-0.3c2.8,0.8,5.8,0.1,8.1-1.4c2.4-1.5,4.3-3.6,5.8-6.1c1.5-2.4,2.5-5.1,3.2-7.9
								c0.6-2.8,1.1-5.6,1.1-8.4c0-5.6-2.7-10.9-3.9-16.8c-0.6-3-0.9-6-1-9v-2.3c0-0.8,0.1-1.5,0.2-2.3c0.1-1.6,0.3-2.9,0.5-4.4
								l1.2,1.8l0,0l-1.3-0.3l0.1-1.3c0.6-6.9-1.1-13.9-5.1-19.7c-3.9-5.7-9.8-10.1-16.6-11.9c-3.4-0.9-6.9-1.3-10.4-1
								s-7,1.2-10.2,2.8s-6.1,3.7-8.5,6.4c-2.4,2.6-4.3,5.7-5.7,9l-0.2,0.4l-0.4-0.1l0,0l0.5-0.3c-1.4,3.6-2.3,7.4-2.8,11.2
								c-0.5,3.8-0.5,7.7-0.1,11.5l0.5,2.8l0.7,2.8c0.2,0.9,0.6,1.8,0.9,2.7c0.2,0.4,0.3,0.9,0.5,1.3l0.6,1.3
								c0.7,1.7,1.8,3.3,2.8,4.9c1.2,1.5,2.3,3.1,3.5,4.5c2.5,3,5.1,5.8,7.9,8.5c2.8,2.7,5.7,5.3,8.7,7.8s6,4.9,9.2,7.2
								c3.2,2.3,6.4,4.5,9.9,6.2L202.5,323.6z"/>
						</g>
						<g>
							<path fill="#00CCCC" d="M201.9,323.4c-7-2.7-29.9-18-41.6-34.3c-12.6-17.5-2.6-40.1-2.6-40.1l0,0c4.7-11.4,16-19.5,29.1-19.5
								c17.4,0,31.5,14.1,31.5,31.5c0,1,0,1.9-0.1,2.8l0,0l0,0c-0.1,1-0.2,2-0.4,3c-2.1,18.4,5.8,23.5,4.1,35.5
								c-2.1,15.7-11.4,22.7-18.7,21.4C202.8,323.7,202.4,323.6,201.9,323.4"/>
							<path d="M201.9,323.4c-3.7-1.5-7.2-3.5-10.6-5.6c-3.4-2.2-6.7-4.5-9.9-6.9s-6.4-4.9-9.3-7.7c-3-2.7-5.9-5.6-8.5-8.6
								c-0.7-0.8-1.4-1.5-2-2.3l-1.9-2.4c-0.6-0.8-1.1-1.7-1.7-2.6c-0.6-0.8-1-1.8-1.5-2.7c-1.8-3.7-3-7.8-3.5-11.9
								c-0.5-4.1-0.3-8.3,0.3-12.3c0.6-4.1,1.6-8,3.2-11.9l0.4-1l1.2,0.2l0,0l-1.6,0.8c1.5-3.6,3.6-6.9,6.3-9.8
								c2.6-2.9,5.8-5.2,9.3-7s7.3-2.9,11.1-3.3c3.9-0.4,7.8-0.1,11.6,0.8c3.8,0.9,7.4,2.5,10.6,4.7s6,5,8.3,8.2
								c4.5,6.4,6.6,14.3,5.8,22l-0.9-1.3l0,0l1.1,0.3l-0.2,1.1c-0.2,1.4-0.5,3-0.6,4.4c-0.1,0.7-0.2,1.4-0.2,2.2l-0.1,2.2
								c0,2.9,0.2,5.8,0.8,8.7c0.5,2.9,1.4,5.7,2.2,8.6s1.4,6,1.4,9.1c0,0.8-0.1,1.5-0.2,2.3c-0.1,0.8-0.2,1.5-0.4,2.3
								c-0.3,1.5-0.7,3-1.1,4.4c-0.9,2.9-2.2,5.7-3.9,8.2s-4,4.7-6.7,6.1C208,324,204.8,324.5,201.9,323.4c2.9,0.9,6,0.2,8.5-1.2
								c2.5-1.5,4.6-3.7,6.2-6.2c3.1-5,4.5-11,4.7-16.8c0.1-5.8-2.8-11.3-4-17.3c-0.7-3-1-6.1-1-9.1v-2.3c0-0.8,0.1-1.5,0.1-2.3
								c0.1-1.6,0.3-3,0.5-4.5l0.9,1.4l0,0l-1-0.2l0.1-1.1c0.6-7.2-1.5-14.4-5.6-20.2c-2.1-2.9-4.7-5.4-7.6-7.4c-3-2-6.3-3.4-9.7-4.3
								c-6.9-1.7-14.4-0.9-20.7,2.3c-3.2,1.6-6.1,3.8-8.5,6.4s-4.4,5.6-5.8,8.9l-0.5,1.1l-1.1-0.3l0,0l1.6-0.8
								c-1.5,3.5-2.5,7.4-3.1,11.2c-0.6,3.9-0.8,7.8-0.5,11.7s1.3,7.7,3,11.2c0.4,0.9,0.8,1.8,1.3,2.6c0.5,0.8,1,1.7,1.5,2.5l1.8,2.4
								c0.6,0.8,1.3,1.5,1.9,2.3c2.5,3,5.3,5.9,8.2,8.7c2.9,2.7,5.9,5.4,9,7.9s6.3,5,9.6,7.2C194.9,319.5,198.3,321.7,201.9,323.4z"
								/>
						</g>
						<g>

								<line fill="none" stroke="#000000" stroke-width="1.4805" stroke-miterlimit="10" x1="218" y1="314.5" x2="187.4" y2="314.5"/>

								<line fill="none" stroke="#000000" stroke-width="1.4805" stroke-miterlimit="10" x1="188.3" y1="315.1" x2="217.6" y2="315.1"/>

								<line fill="none" stroke="#000000" stroke-width="1.4805" stroke-miterlimit="10" x1="189.2" y1="315.8" x2="217.2" y2="315.8"/>

								<line fill="none" stroke="#000000" stroke-width="1.4805" stroke-miterlimit="10" x1="190.2" y1="316.4" x2="216.8" y2="316.4"/>

								<line fill="none" stroke="#000000" stroke-width="1.4805" stroke-miterlimit="10" x1="191.1" y1="317.1" x2="216.3" y2="317.1"/>

								<line fill="none" stroke="#000000" stroke-width="1.4805" stroke-miterlimit="10" x1="192.1" y1="317.7" x2="215.8" y2="317.7"/>

								<line fill="none" stroke="#000000" stroke-width="1.4805" stroke-miterlimit="10" x1="193" y1="318.4" x2="215.3" y2="318.4"/>
							<line fill="none" stroke="#000000" stroke-width="1.4805" stroke-miterlimit="10" x1="194" y1="319" x2="214.7" y2="319"/>

								<line fill="none" stroke="#000000" stroke-width="1.4805" stroke-miterlimit="10" x1="195.1" y1="319.7" x2="214.1" y2="319.7"/>

								<line fill="none" stroke="#000000" stroke-width="1.4805" stroke-miterlimit="10" x1="196.1" y1="320.3" x2="213.4" y2="320.3"/>
							<line fill="none" stroke="#000000" stroke-width="1.4805" stroke-miterlimit="10" x1="197.2" y1="321" x2="212.6" y2="321"/>

								<line fill="none" stroke="#000000" stroke-width="1.4805" stroke-miterlimit="10" x1="198.4" y1="321.6" x2="211.7" y2="321.6"/>

								<line fill="none" stroke="#000000" stroke-width="1.4805" stroke-miterlimit="10" x1="199.6" y1="322.3" x2="210.7" y2="322.3"/>
							<line fill="none" stroke="#000000" stroke-width="1.4805" stroke-miterlimit="10" x1="200.9" y1="323" x2="209.4" y2="323"/>
						</g>
					</g>
					<g>
						<path fill="#00CCCC" d="M200.3,269c0,0-12.9,1.4-14.1,9.7c-1.5,10.3,16.6,9,18.6,27.3c1.8,16.8-4.6,31.2-28.2,51.3"/>
						<path d="M200.3,269c-2.3,0.5-4.6,1.3-6.7,2.4c-2.1,1-3.9,2.5-5.1,4.2c-0.6,0.9-1,1.9-1.1,2.9c-0.1,0.5,0,1,0,1.5
							c0.1,0.5,0.2,0.9,0.4,1.3c0.7,1.6,2.4,2.7,4.3,3.9c1.9,1.2,4.1,2.4,6.1,3.9c2.1,1.5,4,3.4,5.6,5.7c1.5,2.3,2.6,4.9,3.2,7.5
							c0.3,1.3,0.4,2.7,0.5,3.9c0.1,1.2,0.2,2.5,0.2,3.8c0.1,5.1-0.8,10.2-2.6,14.9c-1.8,4.7-4.4,9-7.4,12.9s-6.4,7.3-10,10.5
							c-1.8,1.6-3.6,3.2-5.5,4.6c-1.9,1.5-3.8,2.9-5.8,4.3c6.6-6.9,13.1-13.9,18.1-21.7c2.5-3.9,4.6-8,5.9-12.3
							c1.3-4.3,1.9-8.7,1.7-13.2c0-1.1-0.1-2.2-0.2-3.4c-0.1-1.1-0.3-2.1-0.6-3.1c-0.5-2-1.3-3.9-2.3-5.6c-1.1-1.7-2.5-3.2-4.1-4.7
							s-3.5-2.8-5.4-4.4c-1-0.8-1.9-1.7-2.8-2.8c-0.9-1.1-1.7-2.4-2-3.9c-0.1-0.7-0.2-1.5-0.1-2.2c0.1-0.7,0.3-1.4,0.4-2
							c0.3-1.3,1-2.6,1.8-3.6s1.9-1.9,2.9-2.5c1.1-0.7,2.2-1.2,3.4-1.6C195.5,269.5,197.9,269.1,200.3,269z"/>
					</g>
					<g>
						<path fill="#00CCCC" d="M180.6,355.3c7.8-6,26.1-24.8,25.8-44.8c-0.2-14.9-6.4-19.2-13.2-23.3c-2.8-1.7-9.6-4.2-5.9-11.6"/>
						<path d="M180.6,355.2c6-5.4,11.2-11.5,15.9-18.1c2.3-3.2,4.5-6.6,6.2-10.3c1.6-3.7,2.7-7.6,3.1-11.6c0.1-1,0.1-2,0.2-3
							c0-1,0-2-0.1-3c-0.1-2-0.4-4-0.8-5.9c-0.8-3.9-2.4-7.5-5.1-10.3c-2.7-2.8-6.1-5-9.6-7c-1.7-1.1-3.5-2.6-4.1-4.7
							c-0.6-2.1,0-4.3,1-6l0.1,0.1c-0.8,1.8-1.2,3.9-0.5,5.7c0.7,1.8,2.3,3,4,4l2.7,1.4c0.9,0.5,1.8,1,2.6,1.6
							c1.7,1.1,3.4,2.3,4.9,3.8s2.7,3.3,3.5,5.2c0.9,1.9,1.4,3.9,1.8,6c0.4,2,0.5,4.1,0.6,6.1c0,2-0.1,4.1-0.5,6.1
							c-0.3,2-0.8,4-1.4,5.9s-1.3,3.8-2.1,5.7c-1.6,3.7-3.4,7.4-5.6,10.8c-2.2,3.4-4.8,6.6-7.6,9.5C187,350.1,184,352.9,180.6,355.2
							L180.6,355.2z"/>
					</g>
					<g>
						<path fill="#00CCCC" d="M160,244.5c0,0,6.3-15.4,43.3-23.1"/>
						<path d="M160,244.5c0.6-2,1.9-3.9,3.2-5.5c0.7-0.8,1.4-1.6,2.2-2.4c0.8-0.7,1.6-1.5,2.4-2.2c3.3-2.7,7-5,10.9-6.7
							c1-0.5,1.9-0.9,2.9-1.3l3-1.2c1-0.4,2-0.6,3-1c1-0.3,2-0.6,3.1-0.9c2.1-0.5,4.1-0.9,6.2-1.3c2.1-0.3,4.2-0.6,6.3-0.7
							c-2,0.8-4,1.5-6,2.1c-2,0.7-3.9,1.4-5.9,2.1c-1.9,0.8-3.9,1.5-5.8,2.2c-1.9,0.8-3.8,1.5-5.7,2.5c-0.9,0.4-1.9,0.8-2.8,1.3
							s-1.8,1-2.7,1.4c-1.8,1-3.6,2-5.3,3.2c-1.7,1.1-3.4,2.4-4.9,3.7C162.7,241.3,161.2,242.8,160,244.5z"/>
					</g>
					<g>
						<path fill="#00CCCC" d="M160,242.4c0,0,9.6-22.2,49-14.6"/>
						<path d="M160,242.4c1.8-4.2,5.2-7.7,9-10.3c3.8-2.7,8.2-4.3,12.7-5.3c4.5-1.1,9.2-1.2,13.8-1.1c2.3,0.2,4.6,0.4,6.8,0.7
							c2.2,0.5,4.5,0.9,6.7,1.4c-2.3-0.2-4.5-0.5-6.8-0.7c-2.3-0.1-4.5-0.2-6.8-0.3c-4.5,0.1-9,0.3-13.4,1.4c-4.4,1-8.6,2.5-12.4,4.9
							c-0.9,0.6-1.9,1.2-2.8,1.9l-1.3,1c-0.4,0.4-0.8,0.8-1.2,1.1C162.6,238.7,161.2,240.5,160,242.4z"/>
					</g>
				</g>
				<g>
					<g>
						<g>
							<path fill="#FFFFFF" d="M221.9,302.3L221.9,302.3c-3.1,15.3-10.3,16.7-5,19.4c5.3,2.7,38.6-3.9,50.4-28.3
								c8-16.5,7.5-30.3,7.2-36.4c0-0.8-0.1-1.6-0.2-2.4s-0.2-1.2-0.2-1.2l0,0c-2.4-16-16.1-28.2-32.7-28.2
								c-18.3,0-33.1,14.8-33.1,33.1c0,4.6,0.9,8.9,2.6,12.9l0,0c0,0,0.2,3.6,8.6,17.7C222.2,293.2,222.4,298.2,221.9,302.3z"/>
							<g>
								<path d="M222.2,302.5C222.2,302.5,222.1,302.5,222.2,302.5L222.2,302.5c-0.5,2.5-1.2,5-2.1,7.5s-2,4.8-3.2,7.1
									c-0.3,0.6-0.6,1.1-0.8,1.7c-0.2,0.6-0.3,1-0.1,1.2c0.1,0.2,0.5,0.5,1.1,0.8c0.1,0.1,0.3,0.1,0.4,0.2l0.3,0.1
									c0.2,0,0.5,0.1,0.8,0.1c2.3,0.1,4.8-0.3,7.2-0.9c4.9-1.2,9.6-3,14-5.2c4.5-2.1,8.8-4.6,12.7-7.6c2-1.4,3.9-3.1,5.6-4.8
									c1.8-1.7,3.4-3.6,4.9-5.5c1.5-2,2.7-4.1,3.9-6.4c1.2-2.2,2.2-4.6,3.1-6.9c0.9-2.4,1.6-4.8,2.2-7.3s1-5,1.2-7.5
									s0.3-5.1,0.3-7.6c-0.1-2.5-0.2-5.2-0.6-7.5l1.9,0.7l0,0l-1.5,1.4l-0.4-2.1c-0.8-4.4-2.7-8.6-5.3-12.2
									c-2.5-3.6-5.9-6.6-9.6-8.8c-7.4-4.6-16.7-5.6-24.8-3.2c-8.2,2.4-15.1,8.4-18.9,16c-1.9,3.8-3,8-3.3,12.3
									c-0.2,2.1-0.1,4.3,0.2,6.5c0.3,2.2,0.7,4.3,1.5,6.4l1.5,4.4l-4-1.8l0,0l2.6-2c0-0.1,0,0,0,0s0,0,0,0.1v0.2
									c0,0.1,0,0.3,0.1,0.4c0.1,0.3,0.1,0.6,0.2,0.9c0.2,0.6,0.4,1.3,0.6,1.9c0.4,1.3,0.9,2.6,1.5,3.8c1.1,2.6,2.2,5.1,3.5,7.6
									c0.6,1.3,1.3,2.4,1.9,3.8c0.6,1.3,1,2.7,1.3,4.1c0.3,1.4,0.4,2.8,0.4,4.2c0,0.7,0,1.4-0.1,2.1
									C222.4,301,222.3,301.7,222.2,302.5z M221.7,302.2c0-0.6,0.1-1.3,0.1-2c0-0.7,0-1.4,0-2.1c-0.1-1.4-0.2-2.7-0.6-4.1
									c-0.3-1.3-0.8-2.6-1.5-3.8c-0.6-1.1-1.5-2.3-2.2-3.5c-1.5-2.4-3-4.7-4.5-7.2c-0.7-1.2-1.4-2.5-2.1-3.7c-0.3-0.6-0.7-1.3-1-2
									c-0.1-0.3-0.3-0.7-0.4-1.1c-0.1-0.2-0.1-0.4-0.2-0.6c0-0.1-0.1-0.2-0.1-0.3v-0.2c0-0.1,0-0.1,0-0.3l-0.3-2.8l2.9,0.9l0,0
									l-2.5,2.6c-2.2-4.4-3.5-9.4-3.5-14.5c-0.1-5.1,1.1-10.2,3.2-14.8c2.2-4.6,5.3-8.8,9.3-12.1c3.9-3.3,8.6-5.7,13.5-7
									s10.1-1.5,15.1-0.7s9.8,2.8,13.9,5.7s7.6,6.6,10,10.9c2.5,4.3,4,9,4.6,13.8l-1.9-0.7l0,0l1.7-1.4l0.2,2.1
									c0.3,2.7,0.3,5.3,0.3,7.9c0,2.6-0.1,5.2-0.4,7.8c-0.6,5.2-1.5,10.4-3,15.4c-0.4,1.3-0.7,2.5-1.2,3.8
									c-0.5,1.2-0.8,2.5-1.3,3.7c-0.9,2.5-2.1,4.9-3.4,7.3c-2.7,4.7-6.4,8.8-10.6,12.2c-4.2,3.4-8.9,6.1-13.9,8.1
									s-10.2,3.3-15.5,3.9c-1.3,0.1-2.7,0.2-4,0.2c-1.4,0-2.7-0.1-4.1-0.4c-0.4-0.1-0.7-0.2-1.1-0.3l-0.6-0.3
									c-0.2-0.1-0.3-0.2-0.5-0.3c-0.6-0.4-1.3-0.9-1.7-1.8c-0.2-0.5-0.2-1-0.1-1.5c0.1-0.4,0.3-0.8,0.4-1.1
									c0.3-0.6,0.7-1.2,1.1-1.7c1.4-2.1,2.7-4.3,3.7-6.7c0.5-1.2,0.9-2.4,1.3-3.6C221.1,304.8,221.4,303.6,221.7,302.2L221.7,302.2
									L221.7,302.2z"/>
							</g>
						</g>
						<g>
							<path fill="#FFFFFF" d="M221.9,302.9L221.9,302.9c-3.1,14.9-10.3,16.3-5,18.9c5.3,2.6,38.6-3.8,50.4-27.6
								c8-16,7.5-29.5,7.2-35.4c0-0.8-0.1-1.5-0.2-2.3c-0.1-0.8-0.2-1.2-0.2-1.2l0,0c-2.4-15.6-16.1-27.5-32.7-27.5
								c-18.3,0-33.1,14.4-33.1,32.2c0,4.5,0.9,8.7,2.6,12.6l0,0c0,0,0.2,3.5,8.6,17.2C222.2,294,222.4,298.8,221.9,302.9z"/>
							<g>
								<path d="M222.1,302.9C222,303,222,303,222.1,302.9L222.1,302.9c-0.5,2.5-1.2,4.9-2.2,7.3c-0.9,2.4-2.2,4.6-3.5,6.8
									c-0.3,0.5-0.7,1.1-0.9,1.7c-0.3,0.6-0.4,1.2-0.1,1.7s0.8,0.8,1.4,1.1c0.3,0.2,0.6,0.2,0.8,0.3c0.3,0.1,0.6,0.2,0.9,0.2
									c2.5,0.3,5,0,7.5-0.5c5-0.9,9.8-2.5,14.4-4.5s9-4.5,13-7.6c2-1.5,3.9-3.2,5.6-5c1.7-1.8,3.4-3.7,4.7-5.8
									c1.4-2.1,2.6-4.2,3.6-6.5c1.1-2.3,2-4.6,2.8-7c1.6-4.8,2.7-9.7,3.2-14.7c0.2-2.5,0.3-5,0.3-7.5s-0.2-5.1-0.5-7.4l1.8,0.7l0,0
									l-1.5,1.3l-0.3-2c-0.7-4.4-2.4-8.6-4.9-12.3s-5.8-6.8-9.6-9.1c-7.5-4.7-17-5.9-25.5-3.6c-4.2,1.2-8.3,3.1-11.7,5.9
									c-3.4,2.8-6.3,6.2-8.3,10.1s-3.2,8.3-3.5,12.7c-0.3,4.4,0.5,9,2.1,13.1l0.7,1.7l-1.7-0.7l0,0l1-0.8c0,0.2,0.1,0.5,0.2,0.8
									c0.1,0.3,0.2,0.6,0.3,0.9c0.2,0.6,0.5,1.3,0.7,1.9c0.5,1.2,1.1,2.5,1.7,3.7c1.2,2.4,2.5,4.9,3.8,7.2c0.7,1.2,1.4,2.3,2,3.6
									c0.6,1.3,1,2.6,1.3,3.9C222.4,297.4,222.5,300.1,222.1,302.9z M221.8,302.8c0.3-2.6,0.2-5.4-0.4-8c-0.3-1.3-0.8-2.6-1.4-3.8
									c-0.6-1.2-1.4-2.3-2.1-3.5c-1.4-2.3-2.9-4.7-4.2-7.1c-0.7-1.2-1.3-2.4-1.9-3.7c-0.3-0.6-0.6-1.3-0.8-1.9
									c-0.1-0.3-0.3-0.7-0.4-1c-0.1-0.4-0.2-0.6-0.3-1.2l-0.2-1.2l1.2,0.4l0,0l-1,1c-4.1-8.6-4-19.1,0.3-27.7
									c2.1-4.3,5.2-8.2,9-11.2s8.2-5.3,12.8-6.5c9.3-2.4,19.6-1,27.7,4.3c4,2.6,7.6,6,10.2,10s4.4,8.6,5.1,13.3l-1.8-0.7l0,0
									l1.6-1.3l0.2,2c0.3,2.7,0.4,5.2,0.4,7.8s-0.1,5.2-0.4,7.7c-0.6,5.1-1.8,10.2-3.4,15.1c-0.9,2.4-1.8,4.8-2.9,7.1
									c-1,2.3-2.4,4.6-3.8,6.7c-1.5,2.1-3.2,4.1-5,5.9s-3.8,3.5-5.9,5c-4.2,3-8.7,5.5-13.4,7.4s-9.7,3.4-14.7,4.1
									c-2.5,0.4-5.1,0.6-7.7,0.3c-0.3,0-0.6-0.1-1-0.2c-0.3-0.1-0.6-0.2-0.9-0.4c-0.6-0.3-1.2-0.7-1.5-1.3c-0.2-0.3-0.2-0.7-0.2-1
									c0.1-0.3,0.2-0.6,0.3-0.9c0.3-0.6,0.6-1.1,0.9-1.7c1.3-2.2,2.5-4.4,3.5-6.8C220.6,307.8,221.2,305.3,221.8,302.8L221.8,302.8
									L221.8,302.8z"/>
							</g>
						</g>
						<g>
							<path fill="#00CCCC" d="M222.8,303.2L222.8,303.2c-3,14.6-9.9,16-4.8,18.6s37-3.7,48.4-27.1c7.7-15.7,7.2-28.9,7-34.8
								c0-0.8-0.1-1.5-0.2-2.3c-0.1-0.8-0.1-1.2-0.1-1.2l0,0c-2.3-15.3-15.5-27-31.4-27c-17.5,0-31.8,14.2-31.8,31.7
								c0,4.4,0.9,8.6,2.5,12.3l0,0c0,0,0.2,3.4,8.3,16.9C223.1,294.5,223.3,299.2,222.8,303.2z"/>
							<g>
								<path d="M222.8,303.2L222.8,303.2L222.8,303.2c-0.5,2.4-1.1,4.8-2,7.1c-0.9,2.3-2,4.5-3.3,6.7c-0.3,0.5-0.6,1.1-0.9,1.6
									c-0.2,0.5-0.4,1.2-0.2,1.7s0.8,0.9,1.3,1.2c0.5,0.3,1.1,0.5,1.7,0.6c2.4,0.3,4.9,0,7.3-0.4c4.9-0.9,9.6-2.4,14.1-4.4
									s8.8-4.5,12.7-7.5c3.9-3,7.4-6.6,10.1-10.7c1.4-2.1,2.5-4.2,3.5-6.5c1-2.2,1.9-4.5,2.7-6.9c1.6-4.7,2.6-9.5,3.2-14.4
									c0.5-4.9,0.4-9.9-0.1-14.8l0.3,0.1l0,0l-0.2,0.2v-0.3c-0.7-4.4-2.3-8.7-4.8-12.4c-2.4-3.8-5.7-6.9-9.4-9.3
									c-7.5-4.9-17-6.2-25.6-3.8c-4.3,1.2-8.3,3.3-11.7,6.1c-3.4,2.9-6.2,6.4-8.1,10.4c-3.8,8-4.3,17.6-0.8,25.8l0.2,0.5l-0.5-0.2
									l0,0l0.3-0.2c0.2,1.2,0.7,2.5,1.2,3.7c0.5,1.2,1.1,2.4,1.7,3.6c1.2,2.4,2.5,4.7,3.8,7.1c0.7,1.2,1.4,2.3,2,3.5
									c0.6,1.2,1,2.5,1.3,3.8C223.2,297.9,223.2,300.6,222.8,303.2z M222.8,303.2c0.3-2.6,0.3-5.3-0.3-7.9
									c-0.3-1.3-0.7-2.6-1.3-3.7c-0.6-1.2-1.3-2.3-2-3.5c-1.3-2.3-2.7-4.6-3.9-7c-0.6-1.2-1.2-2.4-1.7-3.6s-1.1-2.4-1.3-3.8
									l-0.1-0.4l0.4,0.1l0,0l-0.3,0.3c-1.8-4.1-2.7-8.7-2.6-13.2s1.1-9,3.1-13.1s4.8-7.7,8.3-10.6s7.6-5,12-6.3
									c8.7-2.4,18.5-1.1,26,4c3.8,2.5,7.1,5.7,9.5,9.5s4,8.1,4.7,12.6l-0.3-0.1l0,0l0.2-0.2v0.3c1,9.9,0.1,19.9-3,29.4
									c-0.8,2.4-1.7,4.7-2.7,6.9c-1,2.3-2.2,4.5-3.5,6.6c-2.7,4.2-6.2,7.8-10.1,10.9c-2,1.5-4,2.9-6.2,4.2
									c-2.2,1.2-4.4,2.3-6.7,3.3c-4.6,2-9.3,3.4-14.3,4.2c-2.4,0.4-4.9,0.7-7.4,0.3c-0.6-0.1-1.3-0.3-1.8-0.6
									c-0.5-0.3-1.1-0.7-1.4-1.3c-0.3-0.7,0-1.3,0.2-1.9c0.3-0.6,0.6-1.1,0.9-1.6c1.3-2.1,2.5-4.3,3.4-6.6
									C221.6,308,222.2,305.6,222.8,303.2L222.8,303.2L222.8,303.2L222.8,303.2z"/>
							</g>
						</g>
						<g>

								<line fill="none" stroke="#000000" stroke-width="1.4805" stroke-miterlimit="10" x1="217.7" y1="314.5" x2="247.7" y2="314.5"/>

								<line fill="none" stroke="#000000" stroke-width="1.4805" stroke-miterlimit="10" x1="217.3" y1="315.1" x2="246.5" y2="315.1"/>

								<line fill="none" stroke="#000000" stroke-width="1.4805" stroke-miterlimit="10" x1="245.2" y1="315.8" x2="216.9" y2="315.8"/>

								<line fill="none" stroke="#000000" stroke-width="1.4805" stroke-miterlimit="10" x1="243.8" y1="316.4" x2="216.5" y2="316.4"/>

								<line fill="none" stroke="#000000" stroke-width="1.4805" stroke-miterlimit="10" x1="242.3" y1="317.1" x2="216.1" y2="317.1"/>

								<line fill="none" stroke="#000000" stroke-width="1.4805" stroke-miterlimit="10" x1="240.8" y1="317.7" x2="215.8" y2="317.7"/>

								<line fill="none" stroke="#000000" stroke-width="1.4805" stroke-miterlimit="10" x1="239.1" y1="318.4" x2="215.4" y2="318.4"/>
							<line fill="none" stroke="#000000" stroke-width="1.4805" stroke-miterlimit="10" x1="237.3" y1="319" x2="215.2" y2="319"/>

								<line fill="none" stroke="#000000" stroke-width="1.4805" stroke-miterlimit="10" x1="235.7" y1="319.7" x2="215" y2="319.7"/>

								<line fill="none" stroke="#000000" stroke-width="1.4805" stroke-miterlimit="10" x1="233.5" y1="320.3" x2="215.2" y2="320.3"/>
							<line fill="none" stroke="#000000" stroke-width="1.4805" stroke-miterlimit="10" x1="231" y1="321" x2="215.7" y2="321"/>

								<line fill="none" stroke="#000000" stroke-width="1.4805" stroke-miterlimit="10" x1="228.3" y1="321.6" x2="216.7" y2="321.6"/>
						</g>
					</g>
					<g>
						<g>
							<path d="M268.3,241.1c2.6,2.9,4.5,6.4,5.9,10.2c1.3,3.8,1.9,7.8,1.9,11.8c0,8.1-2.8,16-6.9,23c-2,3.5-4.4,6.7-6.9,9.8
								l-1.9,2.3l-2,2.2c-0.7,0.7-1.4,1.4-2.1,2.1c-0.7,0.7-1.4,1.4-2.1,2.1c-5.8,5.4-12.3,10.2-19.2,14.2
								c-6.9,3.9-14.2,7.1-21.8,9.6c-3.8,1.2-7.6,2.2-11.5,3.1c-3.9,0.9-7.8,1.5-11.7,2s-7.8,0.9-11.8,1c-3.9,0.1-7.9,0.2-11.8,0
								c-7.8-0.4-15.6-1.2-23.2-3.1c7.8,0.6,15.5,0.6,23.2,0.2c7.7-0.4,15.3-1.3,22.8-2.7c7.5-1.5,14.9-3.3,22.1-5.9
								c7.2-2.5,14.1-5.6,20.6-9.4c6.6-3.7,12.7-8.2,18.4-13.2s10.8-10.6,15-16.8c2.1-3.1,3.8-6.4,5.2-9.9c1.4-3.4,2.3-7.1,2.7-10.8
								c0.4-3.7,0.2-7.5-0.6-11.2c-0.4-1.9-1-3.7-1.7-5.5C270.2,244.5,269.4,242.8,268.3,241.1z"/>
						</g>
						<g>
							<path d="M268.3,241.1c1.9,2.7,3.3,5.6,4.3,8.7s1.8,6.3,2,9.6c0.6,6.5-0.5,13.2-2.8,19.4c-2.3,6.2-5.9,11.8-10,16.9
								c-4.1,5.1-8.9,9.7-14,13.8c-10.3,8.2-22.1,14.3-34.5,18.3c-6.2,2-12.6,3.5-19,4.5s-12.9,1.6-19.4,1.8
								c6.5-0.5,12.9-1.2,19.3-2.5c6.4-1.2,12.7-2.8,18.8-4.9c12.3-4.1,23.9-10.2,33.9-18.3c5-4,9.7-8.5,13.8-13.5
								c2-2.5,4-5.1,5.6-7.8c1.6-2.8,3.2-5.6,4.3-8.6c2.4-6,3.5-12.4,3.1-18.9C273.6,253.1,271.7,246.7,268.3,241.1z"/>
						</g>
					</g>
					<g>
						<path d="M245.2,267.3c2.1-1.4,4.5-2.3,6.9-3.1c2.5-0.7,5-1.3,7.7-1.3c2.7-0.1,5.5,0.3,8.1,1.6c1.3,0.6,2.5,1.5,3.6,2.5
							c1.2,1.1,2,2.8,2.3,4.4c0.6,3.2-0.3,6.1-1.4,8.5c-1.1,2.5-2.5,4.7-4.1,6.7c-3.1,4.1-6.7,7.7-10.9,10.6
							c2.8-4.2,5.5-8.3,7.9-12.5c1.2-2.1,2.3-4.2,3.1-6.4c0.8-2.1,1.3-4.3,0.9-6c-0.2-0.8-0.5-1.5-1.1-2.1c-0.7-0.7-1.5-1.3-2.4-1.8
							c-1.8-1-4-1.6-6.3-1.8c-2.3-0.2-4.7-0.2-7.1,0C250.1,266.4,247.7,266.8,245.2,267.3z"/>
					</g>
					<g>
						<g>
							<path fill="#FFFFFF" d="M274.3,251.1c0,0-21.4,14.1-7,51.2C267.3,302.3,286.6,280.5,274.3,251.1z"/>
							<path d="M274.2,251.4c0,0.2,0.1,0.1,0,0.3l-0.3,0.3c-0.2,0.2-0.3,0.5-0.5,0.7c-0.4,0.4-0.7,0.9-1,1.4
								c-0.3,0.4-0.6,0.9-0.9,1.4s-0.6,0.9-0.8,1.4l-0.8,1.4c-0.3,0.5-0.5,1-0.7,1.5c-0.5,1-0.9,2-1.3,3s-0.7,2-1,3.1
								c-0.4,1-0.5,2.1-0.8,3.1c-0.1,0.5-0.3,1-0.4,1.6c-0.1,0.5-0.2,1.1-0.3,1.6c-0.2,1.1-0.5,2.1-0.6,3.2c-0.2,1.1-0.3,2.2-0.5,3.3
								l-0.3,3.4c0,0.6-0.1,1.1-0.1,1.7l0.1,1.7c0.1,1.1,0.1,2.3,0.3,3.4c0.4,2.2,1,4.4,1.7,6.6c0.9,2.1,1.9,4.2,2.8,6.2l-2.8-0.5
								c1.1-1.7,2.1-3.8,3-5.7c0.9-2,1.8-3.9,2.6-5.9c1.5-4,2.4-8.2,3.1-12.3c0.7-4.2,1-8.4,0.8-12.8c-0.1-2.2-0.2-4.3-0.6-6.5
								c-0.1-1.1-0.3-2.2-0.5-3.3l-0.1-0.4V254l-0.1-0.7C274.4,252.7,274.4,252.1,274.2,251.4z M274.4,250.9c0.3,0.4,0.6,0.9,1,1.4
								c0.2,0.3,0.4,0.6,0.6,0.9l0.3,0.5l0.2,0.4c0.5,1,1.1,2.1,1.5,3.2l0.7,1.6l0.6,1.7c0.4,1.1,0.7,2.3,1,3.4
								c1.1,4.6,1.4,9.5,0.8,14.3c-0.6,4.8-2.1,9.4-4.2,13.7c-1,2.1-2.2,4.2-3.6,6.2s-2.9,3.7-4.7,5.5l-2.2,2.2l-0.6-2.7
								c-0.5-2.3-1-4.6-1.7-6.9c-0.4-2.3-1-4.6-1.6-6.8c-0.2-1.2-0.5-2.3-0.8-3.4l-0.5-1.7l-0.3-1.8l-0.7-3.6
								c-0.1-1.2-0.2-2.4-0.2-3.6c0-4.9,1.3-9.8,3.7-14.1c0.6-1.1,1.2-2.1,2-3.1c0.4-0.5,0.7-1,1.1-1.5l1.3-1.3
								c0.4-0.4,0.9-0.8,1.4-1.2s0.9-0.8,1.4-1.1c0.5-0.4,1-0.7,1.5-1c0.3-0.2,0.5-0.3,0.8-0.4l0.4-0.2
								C273.8,251,274.2,250.8,274.4,250.9z"/>
						</g>
						<g>
							<path d="M274.3,251.3L274.3,251.3C274.4,251.3,274.3,251.3,274.3,251.3v0.1l-0.1,0.2l-0.3,0.3l-0.5,0.7
								c-0.3,0.4-0.6,0.9-0.9,1.4c-0.6,0.9-1.1,1.9-1.7,2.9c-1,2-1.9,4-2.6,6.1c-1.4,4.2-2.2,8.5-2.7,12.8c-0.6,4.4-0.8,8.9-0.4,13.3
								c0.4,4.5,1.5,8.8,3,13.1l-1.5-0.3c1.1-1.8,2-3.8,2.9-5.8s1.6-4,2.3-6.1c1.4-4.1,2.3-8.4,2.9-12.6c0.7-4.3,0.9-8.6,0.8-13
								c-0.1-2.2-0.2-4.4-0.5-6.5c-0.1-1.1-0.3-2.2-0.4-3.3l-0.2-1.5C274.4,252.4,274.4,251.9,274.3,251.3z M274.4,251
								c0.2,0.5,0.4,1,0.7,1.5c0.2,0.5,0.5,1.2,0.6,1.7c0.3,1.1,0.7,2.1,1,3.2l0.4,1.6l0.3,1.7c0.2,1.1,0.4,2.2,0.5,3.3
								c0.6,4.5,0.6,9.1,0,13.6s-1.8,8.9-3.4,13.2c-1.6,4.2-3.7,8.3-6.5,11.9l-1.1,1.4l-0.4-1.7c-0.9-4.5-1.7-8.9-2.4-13.4
								c-0.6-4.5-1.3-9-1.1-13.6c0.1-2.3,0.4-4.6,0.9-6.9s1.2-4.5,2.1-6.6s2-4.2,3.4-6.1c0.7-0.9,1.4-1.8,2.2-2.7
								c0.4-0.4,0.8-0.8,1.2-1.2c0.2-0.2,0.4-0.4,0.7-0.6l0.3-0.3l0.2-0.1l0.1-0.1h0.1C274.2,251,274.3,251,274.4,251z"/>
						</g>
						<g>
							<path d="M267.3,302.3c1.2-4.1,2.1-8.4,2.8-12.6c0.8-4.2,1.4-8.5,1.9-12.8c0.5-4.3,0.8-8.6,1.1-12.9c0.2-2.1,0.3-4.3,0.6-6.4
								c0.1-1.1,0.2-2.2,0.3-3.2c0.1-1.1,0.2-2.2,0.3-3.2h0.1c0.4,4.3,0.4,8.7,0.2,13c-0.2,4.3-0.8,8.6-1.4,12.9s-1.4,8.5-2.4,12.8
								c-1,4.2-2.1,8.4-3.4,12.5L267.3,302.3z"/>
						</g>
						<g>
							<path d="M267.3,302.3c0-4.3,0.3-8.6,0.7-12.9c0.4-4.3,0.9-8.6,1.4-12.9s1.1-8.6,1.9-12.8c0.8-4.2,1.8-8.4,3-12.6h0.1
								c-0.2,2.2-0.5,4.3-0.8,6.4c-0.3,2.1-0.6,4.3-0.9,6.4c-0.6,4.3-1.5,8.5-2.2,12.7c-0.7,4.2-1.3,8.5-1.9,12.8
								c-0.5,4.3-1,8.6-1.2,12.8h-0.1V302.3z"/>
						</g>
						<g>
							<path d="M274.4,251.2c-1.3,1.8-2.3,3.7-3.2,5.7c-0.9,2-1.6,4.1-2.2,6.2c-1.2,4.2-2,8.6-2.3,12.9l-0.2,3.3c0,1.1,0,2.2,0,3.3
								s0,2.2,0,3.3l0.1,3.3c0,1.1,0.1,2.2,0.2,3.3s0.1,2.2,0.2,3.3c0.2,2.2,0.4,4.4,0.6,6.6h-0.1c-0.5-2.1-1-4.3-1.4-6.5
								c-0.3-2.2-0.6-4.4-0.8-6.6c-0.1-2.2-0.3-4.4-0.1-6.7c0.1-1.1,0.1-2.2,0.2-3.3l0.4-3.3c0.5-4.4,1.4-8.8,2.8-13
								c0.7-2.1,1.5-4.2,2.5-6.2s2.1-3.9,3.5-5.6H274.4z"/>
						</g>
						<g>
							<path d="M267.3,302.3c-0.4-2.2-0.8-4.3-1-6.5c-0.1-2.2-0.4-4.4-0.4-6.6l0.1-3.3c0-1.1,0.1-2.2,0.2-3.3
								c0.1-2.2,0.3-4.4,0.4-6.6c0.4-4.4,1.2-8.7,2.4-13c1.3-4.2,2.9-8.4,5.3-12h0.1c-2,3.9-3.5,8-4.7,12.2
								c-1.2,4.2-2.1,8.5-2.7,12.8c-0.6,4.3-0.7,8.7-0.4,13.1c0,0.5,0,1.1,0,1.6s0.1,1.1,0.1,1.6l0.2,3.3
								C267,298,267.2,300.1,267.3,302.3L267.3,302.3z"/>
						</g>
						<g>
							<path d="M267.3,302.3c1.7-4,2.9-8.2,3.9-12.4c1-4.2,1.8-8.5,2.3-12.8c0.1-1.1,0.2-2.2,0.3-3.2c0.1-1.1,0.2-2.2,0.2-3.2
								l0.2-3.2l0.1-3.2c0.1-2.2,0-4.3,0.1-6.5c0-1.1-0.1-2.2-0.1-3.3l-0.1-3.3h0.1c0.2,2.2,0.5,4.3,0.6,6.5c0.1,2.2,0.2,4.4,0.2,6.5
								l-0.1,3.3l-0.2,3.3c-0.1,1.1-0.2,2.2-0.3,3.3c-0.1,1.1-0.2,2.2-0.4,3.2c-0.6,4.3-1.4,8.6-2.5,12.8
								C270.5,294.2,269.2,298.4,267.3,302.3L267.3,302.3z"/>
						</g>
					</g>
					<g>
						<g>
							<path fill="#FFFFFF" d="M211.1,271.3c0,0,15.3,6.5,17.1,17.4c2.1,13.1-8.4,22.4-8.4,22.4s5.5-12.8,0-22.1
								C211.3,274.9,211.1,271.3,211.1,271.3z"/>
							<path d="M210.9,271.1c0.1-0.1,0.4-0.1,0.5,0h0.2l0.4,0.1c0.3,0,0.5,0.1,0.8,0.2c0.5,0.1,1.1,0.2,1.6,0.4
								c1,0.3,2.1,0.7,3.1,1.1c2,0.9,3.9,2,5.7,3.4s3.4,3,4.8,5c1.3,2,2.2,4.4,2.4,6.8c0,2.3-0.2,4.6-0.8,6.8c-0.5,2.2-1.2,4.2-2,6.2
								s-1.7,4-2.7,5.9c-0.5,1-1.1,1.9-1.7,2.9s-1.2,1.8-2,2.8l-5.4,6.3l2-8.7c0.2-0.7,0.4-1.6,0.5-2.4c0.2-0.8,0.3-1.6,0.4-2.4
								c0.3-1.6,0.4-3.3,0.4-4.9c0-0.8-0.1-1.6-0.1-2.4c-0.1-0.8-0.1-1.5-0.3-2.3c-0.2-1.5-0.6-2.9-1.2-4.2l-0.4-1
								c-0.1-0.3-0.4-0.8-0.6-1.2c-0.4-0.8-0.8-1.6-1.2-2.4c-0.8-1.6-1.5-3.3-2.1-5c-0.6-1.7-1.2-3.4-1.7-5.2
								c-0.2-0.9-0.4-1.8-0.6-2.7c-0.1-0.5-0.1-0.9-0.2-1.4c0-0.2,0-0.5,0-0.7v-0.4v-0.2v-0.1c0,0,0,0,0-0.1
								C210.8,271.3,210.8,271.1,210.9,271.1z M211.3,271.6c0.1,0,0.2-0.1,0.1-0.2l0,0v0.1l0.1,0.1l0.2,0.3l0.3,0.6
								c0.2,0.4,0.5,0.7,0.7,1.1c0.5,0.7,1,1.5,1.5,2.2c1,1.4,2,2.9,3,4.3l3,4.3l1.5,2.2c0.2,0.4,0.5,0.7,0.7,1.1l0.8,1.4
								c0.3,0.5,0.4,1,0.6,1.4c0.2,0.5,0.4,1,0.5,1.5c0.3,1,0.5,2,0.6,3c0.3,2,0.2,4,0,6c-0.2,1.9-0.6,3.8-1.2,5.7
								c-0.5,1.9-1.2,3.5-2.2,5.3l-3.4-2.5c0.7-0.5,1.5-1.1,2.3-1.8c0.7-0.7,1.5-1.4,2.1-2.1c1.3-1.5,2.4-3.3,3.2-5.1
								c0.4-0.9,0.7-1.9,0.9-2.9c0.1-0.5,0.1-1,0.2-1.5c0-0.2,0.1-0.5,0.1-0.7v-0.8c0-2-0.5-3.9-1.1-5.7c-0.6-1.6-1.4-3.1-2.4-4.7
								c-0.9-1.5-2.2-3-3.5-4.4s-2.8-2.8-4.3-4.1c-0.4-0.3-0.8-0.7-1.2-1c-0.4-0.4-0.8-0.7-1.2-1l-1.2-1c-0.2-0.2-0.4-0.3-0.6-0.5
								l-0.3-0.3l-0.2-0.1C211.1,271.7,211.3,271.7,211.3,271.6z"/>
						</g>
						<g>
							<path d="M219.8,311c0,0-0.1-0.1-0.1,0c-0.1,0-0.1,0-0.1,0l0,0v-0.1l0.1-0.2l0.2-0.3l0.4-0.6c0.2-0.4,0.5-0.9,0.7-1.3
								c0.4-0.9,0.8-1.7,1.2-2.6c0.7-1.8,1.3-3.5,1.8-5.3c0.9-3.6,1-7.4,0.4-10.9c-0.7-3.5-2.7-7-5.2-9.9s-5.5-5.5-8.6-7.7l1.3-1.2
								c2.3,2.9,4.4,5.9,6.5,8.9c1,1.5,2.1,3,3.1,4.6c0.5,0.8,1,1.6,1.4,2.4c0.5,0.8,1,1.6,1.4,2.6c0.7,1.9,1,4,1,5.9
								c0,2-0.4,3.9-0.8,5.7c-0.5,1.8-1.1,3.6-1.9,5.3c-0.4,0.9-0.8,1.7-1.2,2.5l-0.7,1.2c-0.1,0.2-0.2,0.4-0.4,0.6l-0.2,0.3L220,311
								v0.1l0,0C219.9,311.1,219.8,311,219.8,311z M219.6,311.2c-0.1,0-0.1-0.2,0-0.2l0,0v-0.1l0.1-0.2l0.1-0.3l0.2-0.7l0.4-1.3
								c0.3-0.9,0.5-1.8,0.7-2.6c0.4-1.8,0.8-3.5,1-5.3c0.5-3.5,0.5-7.1-0.8-10c-0.3-0.6-0.8-1.4-1.2-2.2c-0.5-0.8-0.9-1.5-1.4-2.3
								l-2.8-4.7c-1.9-3.1-3.8-6.2-5.6-9.5l-0.1-0.1c-0.2-0.4-0.1-1,0.4-1.2c0.4-0.2,0.8-0.1,1.1,0.1c1.5,1.4,2.8,2.8,4.2,4.2
								s2.7,2.9,4,4.3c1.3,1.5,2.6,2.9,3.8,4.5s2.3,3.3,3,5.4c1.2,4,0.8,8.3-0.4,12.2c-0.6,1.9-1.5,3.8-2.6,5.4
								c-0.5,0.9-1.1,1.7-1.7,2.4c-0.3,0.4-0.6,0.8-1,1.1c-0.2,0.2-0.3,0.4-0.5,0.5l-0.3,0.3l-0.1,0.1l-0.1,0.1l0,0c0,0,0,0-0.1,0.1
								C219.7,311.3,219.6,311.2,219.6,311.2z"/>
						</g>
						<g>
							<path d="M211.1,271.3c2.9,2.5,5.6,5.2,8.1,8.1c1.2,1.5,2.3,3.1,3.3,4.7c0.3,0.4,0.5,0.8,0.7,1.2s0.4,0.9,0.6,1.3
								c0.4,0.9,0.7,1.8,0.9,2.7c0.5,1.9,0.6,3.8,0.6,5.7s-0.2,3.9-0.7,5.7c-0.4,1.9-1.1,3.7-1.9,5.5c-0.8,1.7-1.9,3.4-3.1,4.8h-0.1
								c1-1.6,1.9-3.3,2.6-5c0.7-1.7,1.2-3.6,1.7-5.4c0.8-3.7,1-7.5,0.4-11.2c-0.2-0.9-0.4-1.8-0.7-2.7c-0.4-0.9-0.8-1.7-1.3-2.5
								c-1-1.6-2.3-3-3.6-4.4C216.2,277,213.6,274.2,211.1,271.3L211.1,271.3z"/>
						</g>
						<g>
							<path d="M211.1,271.3c3.4,2.1,6.5,4.5,9.4,7.3c1.4,1.4,2.8,2.9,4,4.5s2.2,3.4,2.9,5.3s0.9,4,0.8,6.1s-0.6,4.1-1.3,6
								s-1.6,3.7-2.7,5.4c-1.1,1.7-2.3,3.3-3.7,4.7l-0.1-0.1c2.1-3.3,3.9-6.8,5.1-10.5c0.2-0.5,0.3-0.9,0.4-1.4s0.3-0.9,0.4-1.4
								l0.3-1.4c0.1-0.5,0.1-0.9,0.2-1.4c0.2-1.9,0.1-3.8-0.5-5.6c-0.5-1.8-1.4-3.6-2.5-5.1c-1.1-1.6-2.4-3.1-3.7-4.5
								c-2.7-2.8-5.7-5.4-9-7.6L211.1,271.3z"/>
						</g>
					</g>
					<g>
						<g>
							<g>
								<path d="M238.6,253.7c0.5-0.2,1-0.4,1.5-0.5s1-0.3,1.6-0.3c1.1-0.1,2.2-0.1,3.3,0.1l1,0.2l-0.3,1.2c-0.3,1-0.6,1.9-1,2.9
									c-0.2,0.5-0.5,1-0.8,1.5s-0.7,1-1.4,1.6c-0.8,0.5-1.4,0.6-2,0.8c-0.6,0.1-1.2,0.2-1.7,0.3c-1.1,0.1-2.1,0-3.2-0.3l-2.4-0.7
									l0.6-2c0.2-0.5,0.4-1.1,0.7-1.6s0.8-1,1.2-1.4c0.5-0.4,1-0.8,1.5-1.1C237.6,254.1,238.1,253.9,238.6,253.7z M238.8,254
									c-0.4,0.3-0.7,0.7-0.8,1.1c-0.1,0.5-0.2,0.9-0.1,1.4c0.1,1,0.3,1.9,0.2,2.8l-1.8-2.6c0.8,0,1.7,0.1,2.5,0.3
									c0.4,0.1,0.8,0.1,1.2,0.2c0.3,0,0.7,0,0.7,0s0.4-0.2,0.6-0.4c0.3-0.3,0.5-0.6,0.8-1c0.5-0.7,1-1.5,1.4-2.3l0.7,1.5
									c-0.9-0.4-1.7-0.9-2.6-1.3c-0.5-0.2-0.9-0.3-1.4-0.2C239.7,253.6,239.2,253.8,238.8,254z"/>
							</g>
							<g>
								<path d="M239.1,254.5c0.8-0.4,1.7-0.7,2.7-0.9c0.9-0.2,1.9-0.1,2.8,0l0.5,0.1l-0.3,0.5c-0.4,0.8-0.9,1.6-1.4,2.3
									c-0.5,0.7-1.1,1.5-2,2.1c-0.9,0.5-1.9,0.7-2.8,0.9c-0.9,0.1-1.8,0.2-2.8,0.2l-1.1-0.1l0.4-0.9c0.4-0.9,0.9-1.7,1.6-2.4
									C237.5,255.5,238.3,254.9,239.1,254.5z M239.2,254.6c-0.4,0.2-0.7,0.5-1,0.9c-0.3,0.3-0.5,0.7-0.7,1.1
									c-0.4,0.8-0.6,1.7-0.9,2.5l-0.7-1c0.8-0.1,1.7-0.1,2.6-0.1c0.8-0.1,1.7-0.2,2.4-0.5c0.6-0.3,1.3-1,1.8-1.7
									c0.6-0.7,1.1-1.4,1.6-2.1l0.3,0.6c-0.9-0.2-1.8-0.4-2.7-0.4c-0.5,0-0.9,0-1.4,0.2C240,254.2,239.5,254.4,239.2,254.6z"/>
							</g>
							<g>
								<path d="M239.3,254.9c0.8-0.4,1.6-0.8,2.5-1s1.8-0.3,2.7-0.2h0.3l-0.2,0.3c-0.5,0.7-1,1.4-1.6,2.1c-0.6,0.7-1.2,1.3-2,1.8
									s-1.7,0.7-2.5,0.9c-0.9,0.2-1.7,0.3-2.6,0.4l-0.7,0.1l0.3-0.6c0.4-0.8,1-1.5,1.6-2.2C237.8,255.9,238.5,255.4,239.3,254.9z
									M239.4,255c-0.8,0.4-1.4,1.1-1.9,1.8c-0.5,0.7-0.9,1.5-1.3,2.3l-0.4-0.5c0.8-0.1,1.7-0.2,2.5-0.4c0.8-0.2,1.7-0.3,2.4-0.7
									s1.3-1,1.9-1.6c0.6-0.6,1.1-1.3,1.7-2l0.1,0.3c-0.9-0.1-1.8-0.1-2.6,0C241,254.2,240.1,254.5,239.4,255z"/>
							</g>
							<g>
								<path d="M244.7,253.9c0.7,1.5,1.2,3,1.5,4.6c0.1,0.8,0.2,1.7,0.2,2.7l-0.1,0.7c-0.1,0.3-0.2,0.5-0.3,0.8
									c-0.1,0.3-0.3,0.6-0.5,0.8c-0.2,0.3-0.5,0.5-0.8,0.8c-0.3,0.2-0.7,0.4-1,0.5s-0.7,0.2-1,0.2s-0.6,0-0.9,0l-0.8-0.1
									c-1-0.2-1.9-0.7-2.6-1.2c-1.3-1.2-2.3-2.6-2.6-4.6l0.3-0.3c1.9,0.2,3.4,0.7,4.7,1.2c0.6,0.2,1.2,0.5,1.6,0.8
									c0.4,0.3,0.7,0.4,0.7,0.5s0.4-0.1,0.6-0.7c0.2-0.6,0.4-1.3,0.5-2c0.2-1.5,0.3-3,0.3-4.6L244.7,253.9z"/>
							</g>
							<g>
								<path d="M244.3,254.6c0.5,1.2,0.7,2.4,0.5,3.7c-0.1,0.6-0.3,1.3-0.5,1.8c-0.2,0.6-0.5,1.2-1.1,1.6c-0.6,0.4-1.3,0.5-2,0.3
									c-0.7-0.1-1.3-0.3-1.8-0.6c-1.1-0.6-2.1-1.4-2.9-2.4v-0.1c1.1,0.6,2.1,1.2,3.2,1.8c1,0.5,2.2,1,3.3,0.6
									c0.5-0.2,0.9-0.8,1-1.3c0.2-0.6,0.1-1.2,0.1-1.8C244.2,257,244.2,255.8,244.3,254.6L244.3,254.6z"/>
							</g>
							<g>
								<path d="M244.6,254c0.4,1.4,0.6,2.8,0.7,4.3c0,0.7,0,1.5-0.2,2.2c-0.2,0.7-0.5,1.6-1.4,2.1c-0.8,0.5-1.8,0.5-2.5,0.4
									c-0.8-0.2-1.5-0.5-2.2-0.9c-1.3-0.8-2.4-1.8-3.2-3.1l0.1-0.1c1.3,0.6,2.5,1.3,3.8,1.9c0.6,0.3,1.2,0.5,1.8,0.7
									c0.6,0.2,1.2,0.3,1.6,0c0.5-0.2,0.8-0.7,1-1.3s0.3-1.3,0.4-2c0.1-1.4,0.1-2.8-0.1-4.2L244.6,254L244.6,254z"/>
							</g>
						</g>
						<g>
							<g>

									<ellipse fill="#2F3E52" stroke="#000000" stroke-width="1.4805" stroke-miterlimit="10" cx="225.6" cy="260.5" rx="2.9" ry="2.9"/>
								<circle fill="#FFFFFF" stroke="#000000" stroke-width="1.4805" stroke-miterlimit="10" cx="225.2" cy="259.7" r="1.3"/>
							</g>
							<g>

									<ellipse fill="#2F3E52" stroke="#000000" stroke-width="1.4805" stroke-miterlimit="10" cx="252.6" cy="247.5" rx="2.9" ry="2.9"/>

									<ellipse transform="matrix(0.1602 -0.9871 0.9871 0.1602 -31.6707 456.1755)" fill="#FFFFFF" stroke="#000000" stroke-width="1.4805" stroke-miterlimit="10" cx="252.2" cy="246.7" rx="1.3" ry="1.3"/>
							</g>
						</g>
					</g>
					<g>
						<path d="M271.8,251.1c-0.8-2.7-2.2-5.2-3.9-7.4c-1.7-2.2-3.6-4.3-5.8-6c-4.3-3.5-9.4-5.9-14.7-7.6c-5.3-1.6-10.9-2.6-16.4-3
							c-2.8-0.2-5.6-0.3-8.4-0.3c-1.4,0-2.8,0-4.2,0c-1.4,0.1-2.8,0.1-4.2,0.1c1.4-0.2,2.8-0.4,4.2-0.5s2.8-0.2,4.2-0.3
							c2.8-0.1,5.7-0.2,8.5-0.1c5.7,0.2,11.3,1.1,16.8,2.7c2.7,0.9,5.4,1.9,7.9,3.3c2.5,1.3,4.9,2.9,7.1,4.8c2.1,1.9,4.1,4.1,5.6,6.5
							S271.2,248.3,271.8,251.1z"/>
					</g>
					<g>
						<path d="M208.5,259.2c-0.7-2.6-0.7-5.4-0.4-8.1c0.4-2.7,1.1-5.4,2.2-8c2.2-5.1,5.9-9.7,10.3-13c0.5-0.4,1.1-0.9,1.7-1.2
							c0.6-0.4,1.1-0.8,1.7-1.2c1.2-0.7,2.4-1.4,3.6-2c2.5-1.3,5-2.2,7.6-3c5.2-1.6,10.6-2.4,16-2.3c-5.1,1.8-10,3.5-14.8,5.6
							c-4.7,2.1-9.2,4.6-13.2,7.7c-4,3-7.4,6.8-10,11.1c-1.3,2.2-2.4,4.5-3.2,6.9C209.4,254,208.8,256.6,208.5,259.2z"/>
					</g>
				</g>
				<g>
					<path fill="#2F3E52" stroke="#000000" stroke-width="1.4805" stroke-miterlimit="10" d="M253,309.8v3.2c0,0.6-0.4,1-1,1l0,0
						c-0.6,0-1-0.4-1-1v-3.2c0-0.6,0.4-1,1-1l0,0C252.5,308.8,253,309.3,253,309.8z"/>
					<path fill="#2F3E52" stroke="#000000" stroke-width="1.4805" stroke-miterlimit="10" d="M248.8,309.8v3.2c0,0.6-0.4,1-1,1l0,0
						c-0.6,0-1-0.4-1-1v-3.2c0-0.6,0.4-1,1-1l0,0C248.3,308.8,248.8,309.3,248.8,309.8z"/>
					<path fill="#2F3E52" stroke="#000000" stroke-width="1.4805" stroke-miterlimit="10" d="M232.2,309.8v3.2c0,0.6-0.4,1-1,1l0,0
						c-0.6,0-1-0.4-1-1v-3.2c0-0.6,0.4-1,1-1l0,0C231.8,308.8,232.2,309.3,232.2,309.8z"/>
					<path fill="#2F3E52" stroke="#000000" stroke-width="1.4805" stroke-miterlimit="10" d="M228.3,309.8v3.2c0,0.6-0.4,1-1,1l0,0
						c-0.6,0-1-0.4-1-1v-3.2c0-0.6,0.4-1,1-1l0,0C227.9,308.8,228.3,309.3,228.3,309.8z"/>
				</g>
				<g>
					<g>

							<ellipse fill="#2F3E52" stroke="#000000" stroke-width="1.4805" stroke-miterlimit="10" cx="192.3" cy="261.7" rx="2.9" ry="2.9"/>
						<circle fill="#FFFFFF" stroke="#000000" stroke-width="1.4805" stroke-miterlimit="10" cx="191.9" cy="261" r="1.3"/>
					</g>
					<g>
						<path fill="#FFFFFF" d="M214.5,265.9c-1.4-2-4.8-6.7-6.6-6.4c-2.3,0.5-3,3-3,4c0,2.5,1,3.9,1.9,3.9c0.7,0,5.2-0.4,7.2-0.6
							C214.5,266.8,214.8,266.3,214.5,265.9"/>
						<path d="M214.3,266c-0.7-0.9-1.7-1.7-2.7-2.3c-1-0.7-1.7-1.5-2.5-2.2c-0.3-0.4-0.7-0.7-1-0.9c0,0-0.1-0.1-0.2-0.1l0,0h-0.1
							c-0.2,0-0.5,0-0.7,0.1c-0.5,0.1-0.7,0.6-0.8,1.1s-0.1,1-0.1,1.4c0,0.2,0.1,0.4,0.2,0.6s0.2,0.5,0.2,0.7c0.2,0.4,0.3,0.8,0.5,1
							c0.1,0.1,0.2,0.2,0.2,0.1c0,0,0-0.2-0.3-0.3c-0.1,0-0.2-0.1-0.3-0.1s0,0,0,0h0.1l0.4-0.1c0.3,0,0.6,0,0.8-0.1
							c1.1,0,2.3,0.1,3.4,0.3c0.6,0.1,1.2,0.3,1.8,0.5c0.1,0.1,0.3,0.1,0.4,0.2c0,0.1-0.1,0.2,0,0.2C214,266.3,214.3,266.3,214.3,266
							l0.4-0.3c0.4,0.2,0.6,0.9,0.2,1.5c-0.2,0.3-0.5,0.5-0.8,0.6c-0.1,0.1-0.3,0.1-0.4,0.2c-0.6,0.3-1.1,0.5-1.7,0.8
							c-1.2,0.4-2.4,0.7-3.6,0.9c-0.3,0-0.6,0.1-0.9,0.1h-0.4H207h-0.2c-0.3,0-0.5-0.1-0.7-0.1c-0.9-0.3-1.4-0.8-1.8-1.2
							c-0.4-0.5-0.6-0.9-0.7-1.3c-0.3-0.8-0.4-1.6-0.4-2.4c0-0.4,0.1-0.7,0.1-1.1c0.1-0.4,0.2-0.8,0.3-1.2c0.3-0.7,0.7-1.3,1.2-1.8
							s1.1-0.9,1.7-1.3c0.3-0.2,0.6-0.4,1-0.5c0.1,0,0.2-0.1,0.3-0.1s0.3,0,0.4-0.1c0.3,0,0.5,0,0.7,0c0.8,0.2,1.4,0.5,2,0.9
							c1.1,0.8,1.8,1.8,2.3,2.9c0.5,1.1,0.9,2.3,1.5,3.3L214.3,266z"/>
					</g>
					<g>
						<path d="M214.2,266.4c-1.5-0.1-3.1-0.2-4.6-0.4c-1.5-0.1-3-0.4-4.5-0.6l0.4-0.5l0.2,0.7l-0.3-0.3c1.4,0.2,2.8,0.4,4.3,0.6
							c1.4,0.2,2.8,0.5,4.2,0.8c-1.4,0-2.9-0.1-4.3-0.2c-1.4-0.1-2.9-0.2-4.3-0.4h-0.2l-0.1-0.2l-0.2-0.7l-0.2-0.5l0.6,0.1
							c1.5,0.2,3,0.4,4.5,0.7C211.2,265.7,212.7,266,214.2,266.4z"/>
					</g>
					<g>
						<path d="M213.8,266.7c0.2,0,0.5-0.2,0.5-0.5c0-0.2-0.2-0.4-0.4-0.7c-0.3-0.4-0.7-0.8-1.1-1.3c-0.7-0.8-1.5-1.6-2.3-2.3
							c-0.4-0.4-0.8-0.7-1.2-1c-0.4-0.3-0.9-0.5-1.2-0.5c-0.4,0-0.9,0.3-1.2,0.5c-0.4,0.3-0.6,0.7-0.8,1.1s-0.3,0.9-0.3,1.4
							c0,0.4,0.1,1,0.2,1.4c0.1,0.5,0.3,0.9,0.5,1.2c0.1,0.2,0.2,0.3,0.3,0.3h0.1h0.1h0.2C209.4,266.4,211.6,266.8,213.8,266.7z
							M213.8,266.8c-2.2,0.2-4.4,0.9-6.6,1.2H207c-0.1,0-0.1,0-0.3,0s-0.5-0.1-0.7-0.2c-0.4-0.2-0.7-0.5-0.9-0.8
							c-0.4-0.6-0.6-1.2-0.7-1.8c-0.1-0.6-0.1-1.2-0.1-1.8c0.1-0.6,0.3-1.2,0.6-1.8c0.6-1.1,1.7-2,3.1-2.1c0.8,0,1.3,0.4,1.8,0.8
							c0.5,0.4,0.9,0.8,1.3,1.2c0.8,0.8,1.4,1.7,2,2.6l0.9,1.4c0.1,0.2,0.4,0.4,0.4,0.8C214.4,266.5,214.1,266.8,213.8,266.8z"/>
					</g>
					<g>
						<path d="M205.1,263.9c0.1,1,0.3,2.2,1.1,2.8c0.2,0.2,0.4,0.3,0.6,0.3s0.5,0,0.7,0l1.6-0.2c1.1-0.1,2.1-0.2,3.2-0.3l0.8-0.1h0.4
							h0.2h0.1c0.1,0,0.1-0.1,0.1-0.2c0,0,0,0,0-0.1l-0.1-0.2l-0.2-0.3c-1.3-1.7-2.6-3.4-4.2-4.6c-0.4-0.3-0.9-0.5-1.3-0.5
							c-0.5,0.1-1,0.3-1.4,0.6C205.7,261.8,205.2,262.8,205.1,263.9c0-1.1,0.4-2.2,1.2-2.9c0.4-0.4,0.9-0.6,1.5-0.8
							c0.7-0.1,1.2,0.2,1.7,0.4c1,0.6,1.7,1.4,2.5,2.1c0.7,0.8,1.4,1.6,2.1,2.5l0.2,0.3l0.1,0.2c0,0.1,0.1,0.2,0.1,0.3
							c0.2,0.5-0.1,0.9-0.5,1.1c-0.1,0-0.2,0.1-0.3,0.1h-0.2h-0.4h-0.8c-1.1,0.1-2.1,0.1-3.2,0.2l-1.6,0.1c-0.3,0-0.5,0.1-0.8,0
							s-0.6-0.3-0.8-0.5C205.2,266.1,205,264.9,205.1,263.9z"/>
					</g>
				</g>
			</g>
		</g>
	</g>
	<g id="plus">
		<path fill="#FFFFFF" d="M344.3,28.6v73.6c0,7.3,4.5,13.2,10,13.2c5.5,0,10-5.9,10-13.2V28.6c0-7.3-4.5-13.2-10-13.2
			C348.8,15.4,344.3,21.3,344.3,28.6z"/>
		<path fill="#FFFFFF" d="M317.6,75.4h73.6c7.3,0,13.2-4.5,13.2-10s-5.9-10-13.2-10h-73.6c-7.3,0-13.2,4.5-13.2,10
			S310.3,75.4,317.6,75.4z"/>
	</g>
</svg>
