<?xml version="1.0" encoding="utf-8"?>
<!-- Generator: Adobe Illustrator 22.0.1, SVG Export Plug-In . SVG Version: 6.00 Build 0)  -->
<svg version="1.2" baseProfile="tiny" id="Calque_1"
	 xmlns="http://www.w3.org/2000/svg" xmlns:xlink="http://www.w3.org/1999/xlink" x="0px" y="0px" viewBox="0 0 425.2 311.8"
	 xml:space="preserve">
<g id="Calque_1_1_">
	<g>
		<path d="M377.2,38.9h-58.9C288.2,15.3,250.8,2.3,212.6,2.3s-75.6,13-105.7,36.6H48c-23.9,0-43.4,19.5-43.4,43.4v183.8
			c0,23.9,19.5,43.4,43.4,43.4h329.1c23.9,0,43.4-19.5,43.4-43.4V82.3C420.6,58.4,401.1,38.9,377.2,38.9z M406.9,266.1
			c0,16.4-13.3,29.7-29.7,29.7H48c-16.4,0-29.7-13.3-29.7-29.7V82.3c0-16.4,13.3-29.7,29.7-29.7h61.3c1.6,0,3.1-0.5,4.3-1.5
			c27.9-22.6,63.1-35,99-35s71.1,12.4,99,35c1.2,1,2.7,1.5,4.3,1.5h61.3c16.4,0,29.7,13.3,29.7,29.7V266.1z"/>
		<path d="M59.5,25.2h38.4c3.8,0,6.9-3.1,6.9-6.9s-3.1-6.9-6.9-6.9H59.5c-3.8,0-6.9,3.1-6.9,6.9S55.7,25.2,59.5,25.2z"/>
		<path d="M358.9,75.5c-13.9,0-25.1,11.3-25.1,25.1c0,13.9,11.3,25.1,25.1,25.1c13.9,0,25.1-11.3,25.1-25.1
			C384,86.8,372.7,75.5,358.9,75.5z M358.9,112.1c-6.3,0-11.4-5.1-11.4-11.4s5.1-11.4,11.4-11.4s11.4,5.1,11.4,11.4
			S365.2,112.1,358.9,112.1z"/>
	</g>
</g>
<g id="Calque_4">
	<g>
		<path d="M212.9,272.3c-57.3,0-100.7-49.6-100.7-103h1.6c0,54,44.1,99.1,98.5,99.1c10.9,0,21.7-2.6,31.9-7.1
			c8-3.5,20.9-10.4,27.9-16c5.4-4.3,9.3-9.6,13.9-14.8c5.3-6,8.3-10.2,12.2-16.9c8.5-14.5,10.9-29.8,10.9-44.8
			c0-21.2-8.7-45.8-24.6-64c-3.9-4.5-9.4-10.4-13.9-14.3c-16.3-13.9-36.5-19.5-57-20.3c-55.8-2.1-87.6,51.5-82.4,97.5
			c0.7,6.5,1.9,13.6,3.7,20.5c2.5,9.2,6.2,18.2,12.2,25.6c15.7,19.3,42.2,30.6,65.2,30.6c8,0,15.8-2,23.1-5.4
			c5.7-2.7,19.6-11.3,24.5-15.5c5.8-5,16.9-26.9,18.9-32.9c2.3-6.9,2.7-15.2,2.7-21.8c0-8.9-0.7-18.9-5.3-28.3
			c-2.5-5.2-5.1-11.5-8.6-16.2c-2.4-3.3-6-8.2-8.8-11.1c-12.2-12.8-29.1-18.5-45.2-18.5c-15.3,0-29.8,7.2-39.4,18.7
			c-4.1,4.9-6.7,9-9.6,14.9c-6.3,12.6-8.9,28.7-8.9,41.1h-1.6c0-36,14.2-78.5,58.9-78.5c42.8,0,72.7,39.4,72.7,78.5
			c0,40.3-28.3,77.8-72.7,77.8c-46.7,0-86.6-31.9-86.6-78.5c0-50.5,27.7-103.3,86.6-103.3c57.3,0,99.4,50.9,99.4,103.9
			C312.3,222.4,270.2,272.3,212.9,272.3z"/>
	</g>
	<g>
		<g>
			<path fill="#FFFFFF" d="M172.3,175.6c1.9,0,1.9-3,0-3C170.4,172.6,170.4,175.6,172.3,175.6L172.3,175.6z"/>
		</g>
	</g>
	<text transform="matrix(1.1073 0 0 1 148.6555 226.3566)" display="none" font-family="'Continuo'" font-size="207.807px">O</text>
</g>
<g id="Calque_3">
	<g>
		<g>
			<g>
				<g>
					<g>
						<g>
							<path fill="#00CCCC" d="M222.9,227c0,0-2.5,4.8-9.2,12.3c-7.4,8.2-10.3,14.8-12.4,15.5s1.5-7.5,0.7-7.1
								c-0.9,0.3-8.3,8.6-10.6,6.9c-2.3-1.7,14.7-12.7,12.9-16.2c-1.2-2.5-21.4-11-34.2-29.8L222.9,227z"/>
							<path d="M223.2,226.9c0,0.1,0,0.2,0,0.3v0.1v0.1l-0.1,0.2l-0.2,0.5l-0.4,0.9c-0.3,0.6-0.6,1.2-0.9,1.8
								c-0.6,1.2-1.3,2.3-2,3.4c-1.4,2.2-2.9,4.4-4.5,6.4s-3,4-4.4,6.1s-2.8,4.2-4.2,6.4c-0.4,0.6-0.8,1.1-1.2,1.7
								c-0.2,0.3-0.5,0.6-0.8,0.9l-0.5,0.5c-0.2,0.2-0.4,0.4-0.7,0.5c-0.2,0.2-0.7,0.4-1,0.5c-0.1,0-0.3,0.1-0.4,0.1
								c-0.2,0-0.3,0.1-0.6,0.1c-0.3,0-0.6,0-0.9-0.1s-0.7-0.2-1-0.4c-0.3-0.2-0.5-0.4-0.7-0.7c-0.1-0.1-0.2-0.2-0.2-0.3
								c-0.1-0.1-0.1-0.2-0.1-0.3c0-0.1-0.1-0.2-0.1-0.3l-0.1-0.2c0-0.1-0.1-0.3-0.1-0.4c-0.1-0.4,0-0.8,0-1c0.1-1,0.3-1.7,0.4-2.4
								c0.2-0.7,0.4-1.3,0.6-1.9s0.4-1.2,0.5-1.6v-0.1l0,0c0,0.1,0,0.2,0,0.3c0,0.2,0.1,0.4,0.1,0.6c0.1,0.1,0.1,0.1,0.2,0.3
								c0.2,0.3,0.4,0.6,0.7,0.8c0.3,0.2,0.7,0.3,0.9,0.4c0.2,0.1,0.5,0.1,0.7,0.1s0.5-0.1,0.7-0.2l0.1-0.1c0.3-0.2,0.3-0.2,0.3-0.2
								c-0.1,0.1-0.4,0.3-0.6,0.5l-1.5,1.2c-1,0.8-2.1,1.7-3.2,2.5s-2.3,1.5-3.8,2.1c-0.4,0.1-0.8,0.3-1.3,0.3
								c-0.5,0.1-1.2,0.1-1.9-0.2c-0.2-0.1-0.3-0.2-0.5-0.3c-0.2-0.1-0.5-0.4-0.6-0.7c-0.2-0.3-0.2-0.6-0.3-0.9c0-0.2,0-0.3,0-0.4
								s0-0.2,0.1-0.3c0-0.2,0.1-0.4,0.2-0.5s0.1-0.3,0.2-0.4c0.1-0.2,0.3-0.4,0.4-0.5c1-1.2,2-2,3-2.9c2-1.7,4-3.3,5.9-5
								c0.9-0.9,1.8-1.8,2.6-2.7c0.4-0.5,0.8-1,1.1-1.4c0.3-0.5,0.5-1,0.5-1.3c0-0.2,0-0.1-0.1-0.2s-0.4-0.3-0.6-0.5
								c-0.5-0.3-1-0.7-1.6-1c-1.1-0.6-2.2-1.3-3.3-1.9c-2.3-1.3-4.5-2.5-6.8-3.9c-9-5.3-17.2-12.4-23.5-21.2l-5.5-7.6l9.1,3
								c4.6,1.5,9.2,3.1,13.8,4.9c4.6,1.7,9,3.6,13.4,5.4l6.5,2.8l6.3,2.8C215.3,223.2,219.4,225.1,223.2,226.9z M222.7,227.1
								l-14.4-3.8l-6.9-1.8l-6.7-1.8c-4.4-1.3-8.7-2.5-13-3.9c-4.3-1.3-8.4-2.8-12.6-4.4l3.6-4.7c5.3,8.3,12.7,15.2,20.5,21.7
								c2,1.6,4,3.2,6.1,4.7l3.2,2.3c0.5,0.4,1.1,0.8,1.6,1.2c0.3,0.2,0.5,0.5,0.8,0.8s0.6,1,0.6,1.5c-0.1,1-0.5,1.7-0.8,2.3
								c-0.4,0.6-0.8,1.1-1.3,1.6c-0.9,1-1.8,1.9-2.8,2.8c-1.9,1.8-3.8,3.6-5.5,5.4c-0.8,0.9-1.7,1.9-2.2,2.8
								c-0.1,0.1-0.1,0.2-0.1,0.3c0,0,0,0,0,0.1l0,0c0-0.1,0,0,0-0.2s-0.1-0.3-0.1-0.4s-0.2-0.3-0.3-0.3l-0.1-0.1
								c-0.1-0.1-0.1-0.1,0-0.1s0.3-0.1,0.5-0.3c0.8-0.5,1.7-1.3,2.6-2.1c0.9-0.8,1.7-1.7,2.6-2.7c0.4-0.5,0.9-0.9,1.4-1.4
								c0.3-0.3,0.5-0.5,0.9-0.8c0.2-0.1,0.2-0.2,0.7-0.4c0.1,0,0,0,0.2-0.1s0.5-0.1,0.8-0.2c0.3,0,0.5,0,0.8,0.1
								c0.2,0,0.6,0.2,0.9,0.4c0.3,0.2,0.6,0.5,0.7,0.8c0.1,0.2,0.1,0.3,0.2,0.4c0.1,0.2,0.1,0.5,0.2,0.7c0,0.2,0,0.4,0,0.5v0.3
								c0,0.2,0,0.3-0.1,0.4c-0.2,0.9-0.3,1.4-0.5,2.1c-0.2,0.6-0.3,1.2-0.5,1.8c-0.1,0.5-0.3,1.1-0.3,1.4c0,0.1,0,0.1,0-0.1
								c0,0,0-0.1,0-0.2v-0.1c0-0.1,0-0.1-0.1-0.2c0-0.1-0.1-0.1-0.1-0.2L203,253c-0.2-0.2-0.3-0.4-0.6-0.5
								c-0.2-0.2-0.5-0.3-0.8-0.3c-0.2-0.1-0.4-0.1-0.6-0.1s-0.2,0-0.3,0c-0.1,0-0.2,0.1-0.2,0.1c-0.1,0-0.2,0.1-0.2,0.1
								s0,0,0.1-0.1l0.2-0.2c0.1-0.1,0.3-0.4,0.5-0.6c0.4-0.4,0.7-0.9,1.1-1.4c3-4.1,6.3-8.4,10.1-12c1.8-1.8,3.6-3.6,5.4-5.4
								c0.9-0.9,1.7-1.9,2.6-2.8l1.3-1.5l0.6-0.7l0.3-0.4l0.2-0.2l0.1-0.1l0,0C222.6,226.9,222.6,227,222.7,227.1z"/>
						</g>
					</g>
					<g>

							<line fill="none" stroke="#000000" stroke-width="1.4805" stroke-miterlimit="10" x1="188.7" y1="227.4" x2="221.7" y2="227.4"/>
						<line fill="none" stroke="#000000" stroke-width="1.4805" stroke-miterlimit="10" x1="189.5" y1="228" x2="221.7" y2="228"/>

							<line fill="none" stroke="#000000" stroke-width="1.4805" stroke-miterlimit="10" x1="221.7" y1="228.7" x2="190.4" y2="228.7"/>

							<line fill="none" stroke="#000000" stroke-width="1.4805" stroke-miterlimit="10" x1="221.5" y1="229.3" x2="191.3" y2="229.3"/>
						<line fill="none" stroke="#000000" stroke-width="1.4805" stroke-miterlimit="10" x1="192.3" y1="230" x2="221.1" y2="230"/>

							<line fill="none" stroke="#000000" stroke-width="1.4805" stroke-miterlimit="10" x1="220.6" y1="230.6" x2="193.2" y2="230.6"/>

							<line fill="none" stroke="#000000" stroke-width="1.4805" stroke-miterlimit="10" x1="220.1" y1="231.3" x2="194.2" y2="231.3"/>

							<line fill="none" stroke="#000000" stroke-width="1.4805" stroke-miterlimit="10" x1="219.7" y1="231.9" x2="195.1" y2="231.9"/>

							<line fill="none" stroke="#000000" stroke-width="1.4805" stroke-miterlimit="10" x1="219.2" y1="232.6" x2="196.1" y2="232.6"/>

							<line fill="none" stroke="#000000" stroke-width="1.4805" stroke-miterlimit="10" x1="218.7" y1="233.2" x2="197.1" y2="233.2"/>

							<line fill="none" stroke="#000000" stroke-width="1.4805" stroke-miterlimit="10" x1="218.2" y1="233.9" x2="198.2" y2="233.9"/>

							<line fill="none" stroke="#000000" stroke-width="1.4805" stroke-miterlimit="10" x1="217.7" y1="234.5" x2="199.2" y2="234.5"/>

							<line fill="none" stroke="#000000" stroke-width="1.4805" stroke-miterlimit="10" x1="217.2" y1="235.2" x2="200.2" y2="235.2"/>

							<line fill="none" stroke="#000000" stroke-width="1.4805" stroke-miterlimit="10" x1="216.6" y1="235.9" x2="201.2" y2="235.9"/>

							<line fill="none" stroke="#000000" stroke-width="1.4805" stroke-miterlimit="10" x1="216.1" y1="236.5" x2="202.2" y2="236.5"/>

							<line fill="none" stroke="#000000" stroke-width="1.4805" stroke-miterlimit="10" x1="215.6" y1="237.2" x2="203.2" y2="237.2"/>
						<line fill="none" stroke="#000000" stroke-width="1.4805" stroke-miterlimit="10" x1="215" y1="237.8" x2="204" y2="237.8"/>

							<line fill="none" stroke="#000000" stroke-width="1.4805" stroke-miterlimit="10" x1="214.4" y1="238.5" x2="204.4" y2="238.5"/>

							<line fill="none" stroke="#000000" stroke-width="1.4805" stroke-miterlimit="10" x1="213.9" y1="239.1" x2="204.5" y2="239.1"/>

							<line fill="none" stroke="#000000" stroke-width="1.4805" stroke-miterlimit="10" x1="213.3" y1="239.8" x2="204.3" y2="239.8"/>

							<line fill="none" stroke="#000000" stroke-width="1.4805" stroke-miterlimit="10" x1="212.7" y1="240.4" x2="204" y2="240.4"/>

							<line fill="none" stroke="#000000" stroke-width="1.4805" stroke-miterlimit="10" x1="212.2" y1="241.1" x2="203.5" y2="241.1"/>

							<line fill="none" stroke="#000000" stroke-width="1.4805" stroke-miterlimit="10" x1="211.6" y1="241.7" x2="203" y2="241.7"/>

							<line fill="none" stroke="#000000" stroke-width="1.4805" stroke-miterlimit="10" x1="211.1" y1="242.4" x2="202.5" y2="242.4"/>
						<line fill="none" stroke="#000000" stroke-width="1.4805" stroke-miterlimit="10" x1="210.5" y1="243" x2="201.9" y2="243"/>

							<line fill="none" stroke="#000000" stroke-width="1.4805" stroke-miterlimit="10" x1="210" y1="243.7" x2="201.3" y2="243.7"/>

							<line fill="none" stroke="#000000" stroke-width="1.4805" stroke-miterlimit="10" x1="209.5" y1="244.3" x2="200.6" y2="244.3"/>
						<line fill="none" stroke="#000000" stroke-width="1.4805" stroke-miterlimit="10" x1="209" y1="245" x2="199.9" y2="245"/>

							<line fill="none" stroke="#000000" stroke-width="1.4805" stroke-miterlimit="10" x1="208.5" y1="245.6" x2="199.2" y2="245.6"/>

							<line fill="none" stroke="#000000" stroke-width="1.4805" stroke-miterlimit="10" x1="208.1" y1="246.3" x2="198.5" y2="246.3"/>

							<line fill="none" stroke="#000000" stroke-width="1.4805" stroke-miterlimit="10" x1="207.6" y1="246.9" x2="197.8" y2="246.9"/>

							<line fill="none" stroke="#000000" stroke-width="1.4805" stroke-miterlimit="10" x1="207.1" y1="247.6" x2="197.1" y2="247.6"/>

							<line fill="none" stroke="#000000" stroke-width="1.4805" stroke-miterlimit="10" x1="206.7" y1="248.2" x2="202.1" y2="248.2"/>

							<line fill="none" stroke="#000000" stroke-width="1.4805" stroke-miterlimit="10" x1="196.4" y1="248.2" x2="201.2" y2="248.2"/>

							<line fill="none" stroke="#000000" stroke-width="1.4805" stroke-miterlimit="10" x1="206.2" y1="248.9" x2="201.9" y2="248.9"/>

							<line fill="none" stroke="#000000" stroke-width="1.4805" stroke-miterlimit="10" x1="195.7" y1="248.9" x2="200.5" y2="248.9"/>

							<line fill="none" stroke="#000000" stroke-width="1.4805" stroke-miterlimit="10" x1="195" y1="249.5" x2="199.8" y2="249.5"/>

							<line fill="none" stroke="#000000" stroke-width="1.4805" stroke-miterlimit="10" x1="205.7" y1="249.5" x2="201.7" y2="249.5"/>

							<line fill="none" stroke="#000000" stroke-width="1.4805" stroke-miterlimit="10" x1="194.3" y1="250.2" x2="199.1" y2="250.2"/>

							<line fill="none" stroke="#000000" stroke-width="1.4805" stroke-miterlimit="10" x1="205.3" y1="250.2" x2="201.5" y2="250.2"/>

							<line fill="none" stroke="#000000" stroke-width="1.4805" stroke-miterlimit="10" x1="193.6" y1="250.8" x2="198.4" y2="250.8"/>

							<line fill="none" stroke="#000000" stroke-width="1.4805" stroke-miterlimit="10" x1="204.8" y1="250.8" x2="201.3" y2="250.8"/>

							<line fill="none" stroke="#000000" stroke-width="1.4805" stroke-miterlimit="10" x1="192.9" y1="251.5" x2="197.7" y2="251.5"/>

							<line fill="none" stroke="#000000" stroke-width="1.4805" stroke-miterlimit="10" x1="204.4" y1="251.5" x2="201.2" y2="251.5"/>

							<line fill="none" stroke="#000000" stroke-width="1.4805" stroke-miterlimit="10" x1="203.9" y1="252.1" x2="201" y2="252.1"/>

							<line fill="none" stroke="#000000" stroke-width="1.4805" stroke-miterlimit="10" x1="192.3" y1="252.1" x2="196.9" y2="252.1"/>

							<line fill="none" stroke="#000000" stroke-width="1.4805" stroke-miterlimit="10" x1="191.8" y1="252.8" x2="196.1" y2="252.8"/>

							<line fill="none" stroke="#000000" stroke-width="1.4805" stroke-miterlimit="10" x1="203.4" y1="252.8" x2="200.8" y2="252.8"/>

							<line fill="none" stroke="#000000" stroke-width="1.4805" stroke-miterlimit="10" x1="191.4" y1="253.4" x2="195.2" y2="253.4"/>

							<line fill="none" stroke="#000000" stroke-width="1.4805" stroke-miterlimit="10" x1="202.9" y1="253.4" x2="200.7" y2="253.4"/>

							<line fill="none" stroke="#000000" stroke-width="1.4805" stroke-miterlimit="10" x1="191.2" y1="254.1" x2="194.1" y2="254.1"/>

							<line fill="none" stroke="#000000" stroke-width="1.4805" stroke-miterlimit="10" x1="202.3" y1="254.1" x2="200.7" y2="254.1"/>
					</g>
				</g>
				<g>
					<g>
						<path fill="#00CCCC" d="M162.3,159.9L162.3,159.9c4.7-11.7,16-20,29.1-20c17.4,0,31.5,14.5,31.5,32.4c0,1,0,1.9-0.1,2.9l0,0
							l0,0c-0.1,1-0.2,2.1-0.4,3.1c-2.1,18.9,5.8,24.1,4.1,36.4c-2.1,16.1-11.4,23.3-18.7,22c-5-0.9-30.3-17.7-42.9-35.6
							C152.3,183.2,162.3,159.9,162.3,159.9z"/>
						<path d="M162.2,159.6c-0.3,0.3-0.1,0.1-0.1,0.1l0,0l0,0L162.2,159.6v-0.2l0.1-0.3l0.3-0.7c0.2-0.4,0.4-0.9,0.6-1.3
							c0.5-0.8,0.9-1.7,1.4-2.5l0.7-1.2l0.8-1.2c0.5-0.8,1.2-1.5,1.7-2.3c2.4-3,5.4-5.5,8.7-7.6c6.6-4.2,15.2-5.8,23.1-3.9
							c4,0.9,7.8,2.6,11.1,5c3.3,2.4,6.1,5.4,8.3,8.9c4.3,6.9,5.8,15.2,4.8,22.9l-0.9-1.3l0,0l1.1,0.3l-0.2,1
							c-0.7,3.5-1.1,6.9-1,10.5c0,3.5,0.6,7,1.5,10.4s2.2,6.7,3.1,10.4c0.2,0.9,0.4,1.8,0.5,2.8c0.1,0.9,0.2,1.9,0.2,2.8
							s-0.1,1.9-0.1,2.8l-0.3,2.8c-0.6,3.7-1.5,7.4-3.3,10.8s-4.3,6.7-7.9,8.9c-1.8,1.1-3.9,1.9-6.1,2.1c-1.1,0.1-2.3,0.1-3.4-0.2
							l-0.9-0.3l-0.5-0.1l-0.4-0.1l-1.4-0.6c-3.5-1.7-6.6-3.5-9.6-5.6c-6.1-4-11.8-8.5-17.2-13.5c-2.7-2.5-5.2-5.1-7.6-7.9
							c-2.4-2.7-4.7-5.7-6.7-8.8c-2-3.3-3.5-6.8-4.3-10.5s-1.2-7.4-0.9-11.1c0.2-3.7,0.7-7.3,1.5-10.8c0.4-1.8,0.8-3.5,1.4-5.2
							c0.3-0.9,0.5-1.7,0.8-2.6c0.1-0.4,0.3-0.8,0.5-1.3l0.2-0.6l0.1-0.3C161.9,160,162.1,159.8,162.2,159.6z M162.5,160.2
							c0,0.1,0.1,0.1,0,0.2l-0.1,0.3l-0.2,0.6c-0.1,0.4-0.3,0.8-0.4,1.3c-0.3,0.8-0.5,1.7-0.7,2.6c-0.5,1.7-0.8,3.5-1,5.2
							c-0.5,3.5-0.5,7.1-0.2,10.5c0.3,3.5,1.2,6.9,2.4,10l1,2.3c0.4,0.8,0.8,1.5,1.2,2.2l0.6,1.1c0.2,0.4,0.5,0.7,0.7,1l1.4,2
							c8.6,10.7,19.4,20,30.7,28.1l2.1,1.5l2.2,1.4c0.7,0.5,1.5,0.9,2.2,1.3s1.5,0.8,2.2,1.2l1,0.5l0.3,0.1l0.2,0.1
							c0.1,0,0.2,0.1,0.4,0.1c0.6,0.1,1.2,0.2,1.9,0.2c1.3-0.1,2.7-0.5,4-1.2c2.6-1.4,4.8-3.8,6.5-6.5c1.7-2.8,3-6,3.8-9.3l0.6-2.5
							c0.1-0.8,0.3-1.7,0.3-2.5c0.1-1.7,0.1-3.4-0.2-5.1c-0.4-3.4-1.6-6.8-2.4-10.3c-1.8-7-1.9-14.5-1-21.6l0.9,1.3l0,0l-0.9-0.2
							V175c0.3-7.3-2.2-14.4-6.4-20c-0.6-0.7-1.1-1.4-1.6-2l-1.8-1.9l-1.9-1.7c-0.7-0.5-1.4-1-2.1-1.6c-2.8-2-6-3.5-9.3-4.5
							c-6.6-1.9-14.1-1.9-20.8,1.1c-0.8,0.4-1.7,0.7-2.5,1.2c-0.8,0.4-1.6,0.9-2.3,1.5c-0.8,0.5-1.5,1.1-2.2,1.7s-1.4,1.2-2,1.9
							c-0.6,0.7-1.3,1.3-1.8,2.1l-0.9,1.1l-0.8,1.2c-0.5,0.8-1,1.6-1.4,2.4c-0.2,0.4-0.4,0.8-0.6,1.3l-0.3,0.6l-0.1,0.3l-0.1,0.2
							v0.1l0,0l0,0C162.5,160.1,162.7,159.9,162.5,160.2z"/>
					</g>
					<g>
						<path fill="#00CCCC" d="M207.2,236.3c-6.8-2.6-28.9-17.7-40.3-33.7c-12.2-17.1-2.5-39.4-2.5-39.4l0,0
							c4.6-11.2,15.5-19.1,28.1-19.1c16.8,0,30.5,13.9,30.5,31c0,0.9,0,1.9-0.1,2.8l0,0l0,0c-0.1,1-0.2,2-0.4,2.9
							c-2.1,18.1,5.6,23,4,34.8c-2.1,15.4-11.1,22.3-18.1,21C208.1,236.6,207.7,236.5,207.2,236.3"/>
						<path d="M207.1,236.5c-3.7-1.3-7.1-3.4-10.5-5.4c-3.3-2.1-6.6-4.3-9.7-6.7c-1.6-1.2-3.1-2.4-4.6-3.7c-1.5-1.3-3-2.6-4.4-3.9
							c-2.9-2.7-5.7-5.5-8.3-8.5c-1.3-1.5-2.5-3.1-3.7-4.7c-1.1-1.7-2.3-3.4-3-5.3c-1.7-3.7-2.7-7.7-2.9-11.7c-0.3-4,0-8,0.7-11.9
							s1.8-7.7,3.3-11.4l0.2-0.4l0.4,0.1l0,0l-0.6,0.3c1.4-3.4,3.4-6.5,5.9-9.3c2.5-2.7,5.4-5,8.7-6.8c6.5-3.6,14.4-4.6,21.7-3
							c3.7,0.9,7.2,2.4,10.3,4.5c3.2,2.1,5.9,4.8,8.1,7.9c4.4,6.2,6.6,14,5.9,21.6l-1.2-1.7l0,0l1.4,0.3l-0.2,1.4
							c-0.2,1.4-0.4,3-0.5,4.3c-0.1,1.4-0.2,2.8-0.2,4.2c0,2.8,0.2,5.6,0.8,8.4c0.5,2.8,1.3,5.5,2.1,8.4c0.8,2.9,1.4,5.9,1.3,9
							c0,0.4,0,0.8,0,1.2l-0.1,1.1c-0.1,0.8-0.2,1.5-0.3,2.3c-0.2,1.5-0.6,2.9-1,4.4c-0.9,2.9-2.2,5.7-3.9,8.2
							c-1.7,2.5-3.9,4.7-6.6,6.1C213.2,237.1,209.9,237.6,207.1,236.5l0.1-0.3c2.8,0.8,5.8,0.1,8.1-1.4c2.4-1.5,4.3-3.6,5.8-6.1
							c1.5-2.4,2.5-5.1,3.2-7.9c0.6-2.8,1.1-5.6,1.1-8.4c0-5.6-2.7-10.9-3.9-16.8c-0.6-3-0.9-6-1-9v-2.3c0-0.8,0.1-1.5,0.2-2.3
							c0.1-1.6,0.3-2.9,0.5-4.4l1.2,1.8l0,0l-1.3-0.3l0.1-1.3c0.6-6.9-1.1-13.9-5.1-19.7c-3.9-5.7-9.8-10.1-16.6-11.9
							c-3.4-0.9-6.9-1.3-10.4-1s-7,1.2-10.2,2.8c-3.2,1.6-6.1,3.7-8.5,6.4c-2.4,2.6-4.3,5.7-5.7,9l-0.2,0.4l-0.4-0.1l0,0l0.5-0.3
							c-1.4,3.6-2.3,7.4-2.8,11.2c-0.5,3.8-0.5,7.7-0.1,11.5l0.5,2.8l0.7,2.8c0.2,0.9,0.6,1.8,0.9,2.7c0.2,0.4,0.3,0.9,0.5,1.3
							l0.6,1.3c0.7,1.7,1.8,3.3,2.8,4.9c1.2,1.5,2.3,3.1,3.5,4.5c2.5,3,5.1,5.8,7.9,8.5s5.7,5.3,8.7,7.8s6,4.9,9.2,7.2
							c3.2,2.3,6.4,4.5,9.9,6.2L207.1,236.5z"/>
					</g>
					<g>
						<path fill="#00CCCC" d="M206.5,236.3c-7-2.7-29.9-18-41.6-34.3c-12.6-17.5-2.6-40.1-2.6-40.1l0,0c4.7-11.4,16-19.5,29.1-19.5
							c17.4,0,31.5,14.1,31.5,31.5c0,1,0,1.9-0.1,2.8l0,0l0,0c-0.1,1-0.2,2-0.4,3c-2.1,18.4,5.8,23.5,4.1,35.5
							c-2.1,15.7-11.4,22.7-18.7,21.4C207.4,236.6,207,236.5,206.5,236.3"/>
						<path d="M206.5,236.3c-3.7-1.5-7.2-3.5-10.6-5.6c-3.4-2.2-6.7-4.5-9.9-6.9c-3.2-2.4-6.4-4.9-9.3-7.7c-3-2.7-5.9-5.6-8.5-8.6
							c-0.7-0.8-1.4-1.5-2-2.3l-1.9-2.4c-0.6-0.8-1.1-1.7-1.7-2.6c-0.6-0.8-1-1.8-1.5-2.7c-1.8-3.7-3-7.8-3.5-11.9
							s-0.3-8.3,0.3-12.3c0.6-4.1,1.6-8,3.2-11.9l0.4-1l1.2,0.2l0,0l-1.6,0.8c1.5-3.6,3.6-6.9,6.3-9.8c2.6-2.9,5.8-5.2,9.3-7
							s7.3-2.9,11.1-3.3c3.9-0.4,7.8-0.1,11.6,0.8c3.8,0.9,7.4,2.5,10.6,4.7s6,5,8.3,8.2c4.5,6.4,6.6,14.3,5.8,22l-0.9-1.3l0,0
							l1.1,0.3l-0.2,1.1c-0.2,1.4-0.5,3-0.6,4.4c-0.1,0.7-0.2,1.4-0.2,2.2l-0.1,2.2c0,2.9,0.2,5.8,0.8,8.7c0.5,2.9,1.4,5.7,2.2,8.6
							c0.8,2.9,1.4,6,1.4,9.1c0,0.8-0.1,1.5-0.2,2.3s-0.2,1.5-0.4,2.3c-0.3,1.5-0.7,3-1.1,4.4c-0.9,2.9-2.2,5.7-3.9,8.2
							c-1.7,2.5-4,4.7-6.7,6.1C212.6,236.9,209.4,237.4,206.5,236.3c2.9,0.9,6,0.2,8.5-1.2c2.5-1.5,4.6-3.7,6.2-6.2
							c3.1-5,4.5-11,4.7-16.8c0.1-5.8-2.8-11.3-4-17.3c-0.7-3-1-6.1-1-9.1v-2.3c0-0.8,0.1-1.5,0.1-2.3c0.1-1.6,0.3-3,0.5-4.5
							l0.9,1.4l0,0l-1-0.2l0.1-1.1c0.6-7.2-1.5-14.4-5.6-20.2c-2.1-2.9-4.7-5.4-7.6-7.4c-3-2-6.3-3.4-9.7-4.3
							c-6.9-1.7-14.4-0.9-20.7,2.3c-3.2,1.6-6.1,3.8-8.5,6.4s-4.4,5.6-5.8,8.9l-0.5,1.1l-1.1-0.3l0,0l1.6-0.8
							c-1.5,3.5-2.5,7.4-3.1,11.2c-0.6,3.9-0.8,7.8-0.5,11.7c0.3,3.9,1.3,7.7,3,11.2c0.4,0.9,0.8,1.8,1.3,2.6c0.5,0.8,1,1.7,1.5,2.5
							l1.8,2.4c0.6,0.8,1.3,1.5,1.9,2.3c2.5,3,5.3,5.9,8.2,8.7c2.9,2.7,5.9,5.4,9,7.9s6.3,5,9.6,7.2
							C199.5,232.4,202.9,234.6,206.5,236.3z"/>
					</g>
					<g>

							<line fill="none" stroke="#000000" stroke-width="1.4805" stroke-miterlimit="10" x1="222.6" y1="227.4" x2="192" y2="227.4"/>
						<line fill="none" stroke="#000000" stroke-width="1.4805" stroke-miterlimit="10" x1="192.9" y1="228" x2="222.2" y2="228"/>

							<line fill="none" stroke="#000000" stroke-width="1.4805" stroke-miterlimit="10" x1="193.8" y1="228.7" x2="221.8" y2="228.7"/>

							<line fill="none" stroke="#000000" stroke-width="1.4805" stroke-miterlimit="10" x1="194.8" y1="229.3" x2="221.4" y2="229.3"/>
						<line fill="none" stroke="#000000" stroke-width="1.4805" stroke-miterlimit="10" x1="195.7" y1="230" x2="220.9" y2="230"/>

							<line fill="none" stroke="#000000" stroke-width="1.4805" stroke-miterlimit="10" x1="196.7" y1="230.6" x2="220.4" y2="230.6"/>

							<line fill="none" stroke="#000000" stroke-width="1.4805" stroke-miterlimit="10" x1="197.6" y1="231.3" x2="219.9" y2="231.3"/>

							<line fill="none" stroke="#000000" stroke-width="1.4805" stroke-miterlimit="10" x1="198.6" y1="231.9" x2="219.3" y2="231.9"/>

							<line fill="none" stroke="#000000" stroke-width="1.4805" stroke-miterlimit="10" x1="199.7" y1="232.6" x2="218.7" y2="232.6"/>

							<line fill="none" stroke="#000000" stroke-width="1.4805" stroke-miterlimit="10" x1="200.7" y1="233.2" x2="218" y2="233.2"/>

							<line fill="none" stroke="#000000" stroke-width="1.4805" stroke-miterlimit="10" x1="201.8" y1="233.9" x2="217.2" y2="233.9"/>

							<line fill="none" stroke="#000000" stroke-width="1.4805" stroke-miterlimit="10" x1="203" y1="234.5" x2="216.3" y2="234.5"/>

							<line fill="none" stroke="#000000" stroke-width="1.4805" stroke-miterlimit="10" x1="204.2" y1="235.2" x2="215.3" y2="235.2"/>

							<line fill="none" stroke="#000000" stroke-width="1.4805" stroke-miterlimit="10" x1="205.5" y1="235.9" x2="214" y2="235.9"/>
					</g>
				</g>
				<g>
					<path fill="#00CCCC" d="M204.9,181.9c0,0-12.9,1.4-14.1,9.7c-1.5,10.3,16.6,9,18.6,27.3c1.8,16.8-4.6,31.2-28.2,51.3"/>
					<path d="M204.9,181.9c-2.3,0.5-4.6,1.3-6.7,2.4c-2.1,1-3.9,2.5-5.1,4.2c-0.6,0.9-1,1.9-1.1,2.9c-0.1,0.5,0,1,0,1.5
						c0.1,0.5,0.2,0.9,0.4,1.3c0.7,1.6,2.4,2.7,4.3,3.9c1.9,1.2,4.1,2.4,6.1,3.9c2.1,1.5,4,3.4,5.6,5.7c1.5,2.3,2.6,4.9,3.2,7.5
						c0.3,1.3,0.4,2.7,0.5,3.9c0.1,1.2,0.2,2.5,0.2,3.8c0.1,5.1-0.8,10.2-2.6,14.9c-1.8,4.7-4.4,9-7.4,12.9s-6.4,7.3-10,10.5
						c-1.8,1.6-3.6,3.2-5.5,4.6c-1.9,1.5-3.8,2.9-5.8,4.3c6.6-6.9,13.1-13.9,18.1-21.7c2.5-3.9,4.6-8,5.9-12.3s1.9-8.7,1.7-13.2
						c0-1.1-0.1-2.2-0.2-3.4c-0.1-1.1-0.3-2.1-0.6-3.1c-0.5-2-1.3-3.9-2.3-5.6c-1.1-1.7-2.5-3.2-4.1-4.7s-3.5-2.8-5.4-4.4
						c-1-0.8-1.9-1.7-2.8-2.8c-0.9-1.1-1.7-2.4-2-3.9c-0.1-0.7-0.2-1.5-0.1-2.2s0.3-1.4,0.4-2c0.3-1.3,1-2.6,1.8-3.6
						s1.9-1.9,2.9-2.5c1.1-0.7,2.2-1.2,3.4-1.6C200.1,182.4,202.5,182,204.9,181.9z"/>
				</g>
				<g>
					<path fill="#00CCCC" d="M185.2,268.2c7.8-6,26.1-24.8,25.8-44.8c-0.2-14.9-6.4-19.2-13.2-23.3c-2.8-1.7-9.6-4.2-5.9-11.6"/>
					<path d="M185.2,268.1c6-5.4,11.2-11.5,15.9-18.1c2.3-3.2,4.5-6.6,6.2-10.3c1.6-3.7,2.7-7.6,3.1-11.6c0.1-1,0.1-2,0.2-3
						c0-1,0-2-0.1-3c-0.1-2-0.4-4-0.8-5.9c-0.8-3.9-2.4-7.5-5.1-10.3s-6.1-5-9.6-7c-1.7-1.1-3.5-2.6-4.1-4.7s0-4.3,1-6l0.1,0.1
						c-0.8,1.8-1.2,3.9-0.5,5.7c0.7,1.8,2.3,3,4,4l2.7,1.4c0.9,0.5,1.8,1,2.6,1.6c1.7,1.1,3.4,2.3,4.9,3.8s2.7,3.3,3.5,5.2
						c0.9,1.9,1.4,3.9,1.8,6c0.4,2,0.5,4.1,0.6,6.1c0,2-0.1,4.1-0.5,6.1c-0.3,2-0.8,4-1.4,5.9s-1.3,3.8-2.1,5.7
						c-1.6,3.7-3.4,7.4-5.6,10.8s-4.8,6.6-7.6,9.5C191.6,263,188.6,265.8,185.2,268.1L185.2,268.1z"/>
				</g>
				<g>
					<path fill="#00CCCC" d="M164.6,157.4c0,0,6.3-15.4,43.3-23.1"/>
					<path d="M164.6,157.4c0.6-2,1.9-3.9,3.2-5.5c0.7-0.8,1.4-1.6,2.2-2.4c0.8-0.7,1.6-1.5,2.4-2.2c3.3-2.7,7-5,10.9-6.7
						c1-0.5,1.9-0.9,2.9-1.3l3-1.2c1-0.4,2-0.6,3-1c1-0.3,2-0.6,3.1-0.9c2.1-0.5,4.1-0.9,6.2-1.3c2.1-0.3,4.2-0.6,6.3-0.7
						c-2,0.8-4,1.5-6,2.1c-2,0.7-3.9,1.4-5.9,2.1c-1.9,0.8-3.9,1.5-5.8,2.2c-1.9,0.8-3.8,1.5-5.7,2.5c-0.9,0.4-1.9,0.8-2.8,1.3
						s-1.8,1-2.7,1.4c-1.8,1-3.6,2-5.3,3.2c-1.7,1.1-3.4,2.4-4.9,3.7C167.3,154.2,165.8,155.7,164.6,157.4z"/>
				</g>
				<g>
					<path fill="#00CCCC" d="M164.6,155.3c0,0,9.6-22.2,49-14.6"/>
					<path d="M164.6,155.3c1.8-4.2,5.2-7.7,9-10.3c3.8-2.7,8.2-4.3,12.7-5.3c4.5-1.1,9.2-1.2,13.8-1.1c2.3,0.2,4.6,0.4,6.8,0.7
						c2.2,0.5,4.5,0.9,6.7,1.4c-2.3-0.2-4.5-0.5-6.8-0.7c-2.3-0.1-4.5-0.2-6.8-0.3c-4.5,0.1-9,0.3-13.4,1.4c-4.4,1-8.6,2.5-12.4,4.9
						c-0.9,0.6-1.9,1.2-2.8,1.9l-1.3,1c-0.4,0.4-0.8,0.8-1.2,1.1C167.2,151.6,165.8,153.4,164.6,155.3z"/>
				</g>
			</g>
			<g>
				<g>
					<g>
						<path fill="#FFFFFF" d="M226.5,215.2L226.5,215.2c-3.1,15.3-10.3,16.7-5,19.4c5.3,2.7,38.6-3.9,50.4-28.3
							c8-16.5,7.5-30.3,7.2-36.4c0-0.8-0.1-1.6-0.2-2.4s-0.2-1.2-0.2-1.2l0,0c-2.4-16-16.1-28.2-32.7-28.2
							c-18.3,0-33.1,14.8-33.1,33.1c0,4.6,0.9,8.9,2.6,12.9l0,0c0,0,0.2,3.6,8.6,17.7C226.8,206.1,227,211.1,226.5,215.2z"/>
						<g>
							<path d="M226.8,215.4C226.8,215.4,226.7,215.4,226.8,215.4L226.8,215.4c-0.5,2.5-1.2,5-2.1,7.5s-2,4.8-3.2,7.1
								c-0.3,0.6-0.6,1.1-0.8,1.7c-0.2,0.6-0.3,1-0.1,1.2c0.1,0.2,0.5,0.5,1.1,0.8c0.1,0.1,0.3,0.1,0.4,0.2l0.3,0.1
								c0.2,0,0.5,0.1,0.8,0.1c2.3,0.1,4.8-0.3,7.2-0.9c4.9-1.2,9.6-3,14-5.2c4.5-2.1,8.8-4.6,12.7-7.6c2-1.4,3.9-3.1,5.6-4.8
								c1.8-1.7,3.4-3.6,4.9-5.5c1.5-2,2.7-4.1,3.9-6.4c1.2-2.2,2.2-4.6,3.1-6.9c0.9-2.4,1.6-4.8,2.2-7.3s1-5,1.2-7.5
								s0.3-5.1,0.3-7.6c-0.1-2.5-0.2-5.2-0.6-7.5l1.9,0.7l0,0l-1.5,1.4l-0.4-2.1c-0.8-4.4-2.7-8.6-5.3-12.2
								c-2.5-3.6-5.9-6.6-9.6-8.8c-7.4-4.6-16.7-5.6-24.8-3.2c-8.2,2.4-15.1,8.4-18.9,16c-1.9,3.8-3,8-3.3,12.3
								c-0.2,2.1-0.1,4.3,0.2,6.5c0.3,2.2,0.7,4.3,1.5,6.4l1.5,4.4l-4-1.8l0,0l2.6-2c0-0.1,0,0,0,0s0,0,0,0.1v0.2
								c0,0.1,0,0.3,0.1,0.4c0.1,0.3,0.1,0.6,0.2,0.9c0.2,0.6,0.4,1.3,0.6,1.9c0.4,1.3,0.9,2.6,1.5,3.8c1.1,2.6,2.2,5.1,3.5,7.6
								c0.6,1.3,1.3,2.4,1.9,3.8c0.6,1.3,1,2.7,1.3,4.1s0.4,2.8,0.4,4.2c0,0.7,0,1.4-0.1,2.1C227,213.9,226.9,214.6,226.8,215.4z
								 M226.3,215.1c0-0.6,0.1-1.3,0.1-2s0-1.4,0-2.1c-0.1-1.4-0.2-2.7-0.6-4.1c-0.3-1.3-0.8-2.6-1.5-3.8c-0.6-1.1-1.5-2.3-2.2-3.5
								c-1.5-2.4-3-4.7-4.5-7.2c-0.7-1.2-1.4-2.5-2.1-3.7c-0.3-0.6-0.7-1.3-1-2c-0.1-0.3-0.3-0.7-0.4-1.1c-0.1-0.2-0.1-0.4-0.2-0.6
								c0-0.1-0.1-0.2-0.1-0.3v-0.2c0-0.1,0-0.1,0-0.3l-0.3-2.8l2.9,0.9l0,0l-2.5,2.6c-2.2-4.4-3.5-9.4-3.5-14.5
								c-0.1-5.1,1.1-10.2,3.2-14.8c2.2-4.6,5.3-8.8,9.3-12.1c3.9-3.3,8.6-5.7,13.5-7s10.1-1.5,15.1-0.7s9.8,2.8,13.9,5.7
								c4.1,2.9,7.6,6.6,10,10.9c2.5,4.3,4,9,4.6,13.8l-1.9-0.7l0,0l1.7-1.4l0.2,2.1c0.3,2.7,0.3,5.3,0.3,7.9s-0.1,5.2-0.4,7.8
								c-0.6,5.2-1.5,10.4-3,15.4c-0.4,1.3-0.7,2.5-1.2,3.8c-0.5,1.2-0.8,2.5-1.3,3.7c-0.9,2.5-2.1,4.9-3.4,7.3
								c-2.7,4.7-6.4,8.8-10.6,12.2c-4.2,3.4-8.9,6.1-13.9,8.1s-10.2,3.3-15.5,3.9c-1.3,0.1-2.7,0.2-4,0.2c-1.4,0-2.7-0.1-4.1-0.4
								c-0.4-0.1-0.7-0.2-1.1-0.3l-0.6-0.3c-0.2-0.1-0.3-0.2-0.5-0.3c-0.6-0.4-1.3-0.9-1.7-1.8c-0.2-0.5-0.2-1-0.1-1.5
								c0.1-0.4,0.3-0.8,0.4-1.1c0.3-0.6,0.7-1.2,1.1-1.7c1.4-2.1,2.7-4.3,3.7-6.7c0.5-1.2,0.9-2.4,1.3-3.6
								C225.7,217.7,226,216.5,226.3,215.1L226.3,215.1L226.3,215.1z"/>
						</g>
					</g>
					<g>
						<path fill="#FFFFFF" d="M226.5,215.8L226.5,215.8c-3.1,14.9-10.3,16.3-5,18.9s38.6-3.8,50.4-27.6c8-16,7.5-29.5,7.2-35.4
							c0-0.8-0.1-1.5-0.2-2.3s-0.2-1.2-0.2-1.2l0,0c-2.4-15.6-16.1-27.5-32.7-27.5c-18.3,0-33.1,14.4-33.1,32.2
							c0,4.5,0.9,8.7,2.6,12.6l0,0c0,0,0.2,3.5,8.6,17.2C226.8,206.9,227,211.7,226.5,215.8z"/>
						<g>
							<path d="M226.7,215.8C226.6,215.9,226.6,215.9,226.7,215.8L226.7,215.8c-0.5,2.5-1.2,4.9-2.2,7.3c-0.9,2.4-2.2,4.6-3.5,6.8
								c-0.3,0.5-0.7,1.1-0.9,1.7c-0.3,0.6-0.4,1.2-0.1,1.7s0.8,0.8,1.4,1.1c0.3,0.2,0.6,0.2,0.8,0.3c0.3,0.1,0.6,0.2,0.9,0.2
								c2.5,0.3,5,0,7.5-0.5c5-0.9,9.8-2.5,14.4-4.5s9-4.5,13-7.6c2-1.5,3.9-3.2,5.6-5s3.4-3.7,4.7-5.8c1.4-2.1,2.6-4.2,3.6-6.5
								c1.1-2.3,2-4.6,2.8-7c1.6-4.8,2.7-9.7,3.2-14.7c0.2-2.5,0.3-5,0.3-7.5s-0.2-5.1-0.5-7.4l1.8,0.7l0,0l-1.5,1.3l-0.3-2
								c-0.7-4.4-2.4-8.6-4.9-12.3c-2.5-3.7-5.8-6.8-9.6-9.1c-7.5-4.7-17-5.9-25.5-3.6c-4.2,1.2-8.3,3.1-11.7,5.9
								c-3.4,2.8-6.3,6.2-8.3,10.1s-3.2,8.3-3.5,12.7c-0.3,4.4,0.5,9,2.1,13.1l0.7,1.7l-1.7-0.7l0,0l1-0.8c0,0.2,0.1,0.5,0.2,0.8
								s0.2,0.6,0.3,0.9c0.2,0.6,0.5,1.3,0.7,1.9c0.5,1.2,1.1,2.5,1.7,3.7c1.2,2.4,2.5,4.9,3.8,7.2c0.7,1.2,1.4,2.3,2,3.6
								c0.6,1.3,1,2.6,1.3,3.9C227,210.3,227.1,213,226.7,215.8z M226.4,215.7c0.3-2.6,0.2-5.4-0.4-8c-0.3-1.3-0.8-2.6-1.4-3.8
								c-0.6-1.2-1.4-2.3-2.1-3.5c-1.4-2.3-2.9-4.7-4.2-7.1c-0.7-1.2-1.3-2.4-1.9-3.7c-0.3-0.6-0.6-1.3-0.8-1.9
								c-0.1-0.3-0.3-0.7-0.4-1c-0.1-0.4-0.2-0.6-0.3-1.2l-0.2-1.2l1.2,0.4l0,0l-1,1c-4.1-8.6-4-19.1,0.3-27.7
								c2.1-4.3,5.2-8.2,9-11.2s8.2-5.3,12.8-6.5c9.3-2.4,19.6-1,27.7,4.3c4,2.6,7.6,6,10.2,10s4.4,8.6,5.1,13.3l-1.8-0.7l0,0
								l1.6-1.3l0.2,2c0.3,2.7,0.4,5.2,0.4,7.8c0,2.6-0.1,5.2-0.4,7.7c-0.6,5.1-1.8,10.2-3.4,15.1c-0.9,2.4-1.8,4.8-2.9,7.1
								c-1,2.3-2.4,4.6-3.8,6.7c-1.5,2.1-3.2,4.1-5,5.9s-3.8,3.5-5.9,5c-4.2,3-8.7,5.5-13.4,7.4c-4.7,1.9-9.7,3.4-14.7,4.1
								c-2.5,0.4-5.1,0.6-7.7,0.3c-0.3,0-0.6-0.1-1-0.2c-0.3-0.1-0.6-0.2-0.9-0.4c-0.6-0.3-1.2-0.7-1.5-1.3c-0.2-0.3-0.2-0.7-0.2-1
								c0.1-0.3,0.2-0.6,0.3-0.9c0.3-0.6,0.6-1.1,0.9-1.7c1.3-2.2,2.5-4.4,3.5-6.8C225.2,220.7,225.8,218.2,226.4,215.7L226.4,215.7
								L226.4,215.7z"/>
						</g>
					</g>
					<g>
						<path fill="#00CCCC" d="M227.4,216.1L227.4,216.1c-3,14.6-9.9,16-4.8,18.6s37-3.7,48.4-27.1c7.7-15.7,7.2-28.9,7-34.8
							c0-0.8-0.1-1.5-0.2-2.3s-0.1-1.2-0.1-1.2l0,0c-2.3-15.3-15.5-27-31.4-27c-17.5,0-31.8,14.2-31.8,31.7c0,4.4,0.9,8.6,2.5,12.3
							l0,0c0,0,0.2,3.4,8.3,16.9C227.7,207.4,227.9,212.1,227.4,216.1z"/>
						<g>
							<path d="M227.4,216.1L227.4,216.1L227.4,216.1c-0.5,2.4-1.1,4.8-2,7.1c-0.9,2.3-2,4.5-3.3,6.7c-0.3,0.5-0.6,1.1-0.9,1.6
								c-0.2,0.5-0.4,1.2-0.2,1.7c0.2,0.5,0.8,0.9,1.3,1.2c0.5,0.3,1.1,0.5,1.7,0.6c2.4,0.3,4.9,0,7.3-0.4c4.9-0.9,9.6-2.4,14.1-4.4
								s8.8-4.5,12.7-7.5c3.9-3,7.4-6.6,10.1-10.7c1.4-2.1,2.5-4.2,3.5-6.5c1-2.2,1.9-4.5,2.7-6.9c1.6-4.7,2.6-9.5,3.2-14.4
								c0.5-4.9,0.4-9.9-0.1-14.8l0.3,0.1l0,0l-0.2,0.2v-0.3c-0.7-4.4-2.3-8.7-4.8-12.4c-2.4-3.8-5.7-6.9-9.4-9.3
								c-7.5-4.9-17-6.2-25.6-3.8c-4.3,1.2-8.3,3.3-11.7,6.1c-3.4,2.9-6.2,6.4-8.1,10.4c-3.8,8-4.3,17.6-0.8,25.8l0.2,0.5l-0.5-0.2
								l0,0l0.3-0.2c0.2,1.2,0.7,2.5,1.2,3.7s1.1,2.4,1.7,3.6c1.2,2.4,2.5,4.7,3.8,7.1c0.7,1.2,1.4,2.3,2,3.5s1,2.5,1.3,3.8
								C227.8,210.8,227.8,213.5,227.4,216.1z M227.4,216.1c0.3-2.6,0.3-5.3-0.3-7.9c-0.3-1.3-0.7-2.6-1.3-3.7
								c-0.6-1.2-1.3-2.3-2-3.5c-1.3-2.3-2.7-4.6-3.9-7c-0.6-1.2-1.2-2.4-1.7-3.6s-1.1-2.4-1.3-3.8l-0.1-0.4l0.4,0.1l0,0l-0.3,0.3
								c-1.8-4.1-2.7-8.7-2.6-13.2s1.1-9,3.1-13.1s4.8-7.7,8.3-10.6s7.6-5,12-6.3c8.7-2.4,18.5-1.1,26,4c3.8,2.5,7.1,5.7,9.5,9.5
								s4,8.1,4.7,12.6l-0.3-0.1l0,0l0.2-0.2v0.3c1,9.9,0.1,19.9-3,29.4c-0.8,2.4-1.7,4.7-2.7,6.9c-1,2.3-2.2,4.5-3.5,6.6
								c-2.7,4.2-6.2,7.8-10.1,10.9c-2,1.5-4,2.9-6.2,4.2c-2.2,1.2-4.4,2.3-6.7,3.3c-4.6,2-9.3,3.4-14.3,4.2
								c-2.4,0.4-4.9,0.7-7.4,0.3c-0.6-0.1-1.3-0.3-1.8-0.6c-0.5-0.3-1.1-0.7-1.4-1.3c-0.3-0.7,0-1.3,0.2-1.9
								c0.3-0.6,0.6-1.1,0.9-1.6c1.3-2.1,2.5-4.3,3.4-6.6C226.2,220.9,226.8,218.5,227.4,216.1L227.4,216.1L227.4,216.1L227.4,216.1
								z"/>
						</g>
					</g>
					<g>

							<line fill="none" stroke="#000000" stroke-width="1.4805" stroke-miterlimit="10" x1="222.3" y1="227.4" x2="252.3" y2="227.4"/>
						<line fill="none" stroke="#000000" stroke-width="1.4805" stroke-miterlimit="10" x1="221.9" y1="228" x2="251.1" y2="228"/>

							<line fill="none" stroke="#000000" stroke-width="1.4805" stroke-miterlimit="10" x1="249.8" y1="228.7" x2="221.5" y2="228.7"/>

							<line fill="none" stroke="#000000" stroke-width="1.4805" stroke-miterlimit="10" x1="248.4" y1="229.3" x2="221.1" y2="229.3"/>
						<line fill="none" stroke="#000000" stroke-width="1.4805" stroke-miterlimit="10" x1="246.9" y1="230" x2="220.7" y2="230"/>

							<line fill="none" stroke="#000000" stroke-width="1.4805" stroke-miterlimit="10" x1="245.4" y1="230.6" x2="220.4" y2="230.6"/>

							<line fill="none" stroke="#000000" stroke-width="1.4805" stroke-miterlimit="10" x1="243.7" y1="231.3" x2="220" y2="231.3"/>

							<line fill="none" stroke="#000000" stroke-width="1.4805" stroke-miterlimit="10" x1="241.9" y1="231.9" x2="219.8" y2="231.9"/>

							<line fill="none" stroke="#000000" stroke-width="1.4805" stroke-miterlimit="10" x1="240.3" y1="232.6" x2="219.6" y2="232.6"/>

							<line fill="none" stroke="#000000" stroke-width="1.4805" stroke-miterlimit="10" x1="238.1" y1="233.2" x2="219.8" y2="233.2"/>

							<line fill="none" stroke="#000000" stroke-width="1.4805" stroke-miterlimit="10" x1="235.6" y1="233.9" x2="220.3" y2="233.9"/>

							<line fill="none" stroke="#000000" stroke-width="1.4805" stroke-miterlimit="10" x1="232.9" y1="234.5" x2="221.3" y2="234.5"/>
					</g>
				</g>
				<g>
					<g>
						<path d="M272.9,154c2.6,2.9,4.5,6.4,5.9,10.2c1.3,3.8,1.9,7.8,1.9,11.8c0,8.1-2.8,16-6.9,23c-2,3.5-4.4,6.7-6.9,9.8l-1.9,2.3
							l-2,2.2c-0.7,0.7-1.4,1.4-2.1,2.1s-1.4,1.4-2.1,2.1c-5.8,5.4-12.3,10.2-19.2,14.2c-6.9,3.9-14.2,7.1-21.8,9.6
							c-3.8,1.2-7.6,2.2-11.5,3.1s-7.8,1.5-11.7,2c-3.9,0.5-7.8,0.9-11.8,1c-3.9,0.1-7.9,0.2-11.8,0c-7.8-0.4-15.6-1.2-23.2-3.1
							c7.8,0.6,15.5,0.6,23.2,0.2s15.3-1.3,22.8-2.7c7.5-1.5,14.9-3.3,22.1-5.9c7.2-2.5,14.1-5.6,20.6-9.4
							c6.6-3.7,12.7-8.2,18.4-13.2c5.7-5,10.8-10.6,15-16.8c2.1-3.1,3.8-6.4,5.2-9.9c1.4-3.4,2.3-7.1,2.7-10.8
							c0.4-3.7,0.2-7.5-0.6-11.2c-0.4-1.9-1-3.7-1.7-5.5C274.8,157.4,274,155.7,272.9,154z"/>
					</g>
					<g>
						<path d="M272.9,154c1.9,2.7,3.3,5.6,4.3,8.7s1.8,6.3,2,9.6c0.6,6.5-0.5,13.2-2.8,19.4c-2.3,6.2-5.9,11.8-10,16.9
							s-8.9,9.7-14,13.8c-10.3,8.2-22.1,14.3-34.5,18.3c-6.2,2-12.6,3.5-19,4.5s-12.9,1.6-19.4,1.8c6.5-0.5,12.9-1.2,19.3-2.5
							c6.4-1.2,12.7-2.8,18.8-4.9c12.3-4.1,23.9-10.2,33.9-18.3c5-4,9.7-8.5,13.8-13.5c2-2.5,4-5.1,5.6-7.8c1.6-2.8,3.2-5.6,4.3-8.6
							c2.4-6,3.5-12.4,3.1-18.9C278.2,166,276.3,159.6,272.9,154z"/>
					</g>
				</g>
				<g>
					<path d="M249.8,180.2c2.1-1.4,4.5-2.3,6.9-3.1c2.5-0.7,5-1.3,7.7-1.3c2.7-0.1,5.5,0.3,8.1,1.6c1.3,0.6,2.5,1.5,3.6,2.5
						c1.2,1.1,2,2.8,2.3,4.4c0.6,3.2-0.3,6.1-1.4,8.5c-1.1,2.5-2.5,4.7-4.1,6.7c-3.1,4.1-6.7,7.7-10.9,10.6
						c2.8-4.2,5.5-8.3,7.9-12.5c1.2-2.1,2.3-4.2,3.1-6.4c0.8-2.1,1.3-4.3,0.9-6c-0.2-0.8-0.5-1.5-1.1-2.1c-0.7-0.7-1.5-1.3-2.4-1.8
						c-1.8-1-4-1.6-6.3-1.8c-2.3-0.2-4.7-0.2-7.1,0C254.7,179.3,252.3,179.7,249.8,180.2z"/>
				</g>
				<g>
					<g>
						<path fill="#FFFFFF" d="M278.9,164c0,0-21.4,14.1-7,51.2C271.9,215.2,291.2,193.4,278.9,164z"/>
						<path d="M278.8,164.3c0,0.2,0.1,0.1,0,0.3l-0.3,0.3c-0.2,0.2-0.3,0.5-0.5,0.7c-0.4,0.4-0.7,0.9-1,1.4
							c-0.3,0.4-0.6,0.9-0.9,1.4s-0.6,0.9-0.8,1.4l-0.8,1.4c-0.3,0.5-0.5,1-0.7,1.5c-0.5,1-0.9,2-1.3,3s-0.7,2-1,3.1
							c-0.4,1-0.5,2.1-0.8,3.1c-0.1,0.5-0.3,1-0.4,1.6c-0.1,0.5-0.2,1.1-0.3,1.6c-0.2,1.1-0.5,2.1-0.6,3.2c-0.2,1.1-0.3,2.2-0.5,3.3
							l-0.3,3.4c0,0.6-0.1,1.1-0.1,1.7l0.1,1.7c0.1,1.1,0.1,2.3,0.3,3.4c0.4,2.2,1,4.4,1.7,6.6c0.9,2.1,1.9,4.2,2.8,6.2l-2.8-0.5
							c1.1-1.7,2.1-3.8,3-5.7c0.9-2,1.8-3.9,2.6-5.9c1.5-4,2.4-8.2,3.1-12.3c0.7-4.2,1-8.4,0.8-12.8c-0.1-2.2-0.2-4.3-0.6-6.5
							c-0.1-1.1-0.3-2.2-0.5-3.3l-0.1-0.4v-0.3l-0.1-0.7C279,165.6,279,165,278.8,164.3z M279,163.8c0.3,0.4,0.6,0.9,1,1.4
							c0.2,0.3,0.4,0.6,0.6,0.9l0.3,0.5l0.2,0.4c0.5,1,1.1,2.1,1.5,3.2l0.7,1.6l0.6,1.7c0.4,1.1,0.7,2.3,1,3.4
							c1.1,4.6,1.4,9.5,0.8,14.3s-2.1,9.4-4.2,13.7c-1,2.1-2.2,4.2-3.6,6.2s-2.9,3.7-4.7,5.5l-2.2,2.2l-0.6-2.7
							c-0.5-2.3-1-4.6-1.7-6.9c-0.4-2.3-1-4.6-1.6-6.8c-0.2-1.2-0.5-2.3-0.8-3.4l-0.5-1.7l-0.3-1.8l-0.7-3.6
							c-0.1-1.2-0.2-2.4-0.2-3.6c0-4.9,1.3-9.8,3.7-14.1c0.6-1.1,1.2-2.1,2-3.1c0.4-0.5,0.7-1,1.1-1.5l1.3-1.3
							c0.4-0.4,0.9-0.8,1.4-1.2c0.5-0.4,0.9-0.8,1.4-1.1c0.5-0.4,1-0.7,1.5-1c0.3-0.2,0.5-0.3,0.8-0.4l0.4-0.2
							C278.4,163.9,278.8,163.7,279,163.8z"/>
					</g>
					<g>
						<path d="M278.9,164.2L278.9,164.2C279,164.2,278.9,164.2,278.9,164.2v0.1l-0.1,0.2l-0.3,0.3l-0.5,0.7
							c-0.3,0.4-0.6,0.9-0.9,1.4c-0.6,0.9-1.1,1.9-1.7,2.9c-1,2-1.9,4-2.6,6.1c-1.4,4.2-2.2,8.5-2.7,12.8c-0.6,4.4-0.8,8.9-0.4,13.3
							c0.4,4.5,1.5,8.8,3,13.1l-1.5-0.3c1.1-1.8,2-3.8,2.9-5.8s1.6-4,2.3-6.1c1.4-4.1,2.3-8.4,2.9-12.6c0.7-4.3,0.9-8.6,0.8-13
							c-0.1-2.2-0.2-4.4-0.5-6.5c-0.1-1.1-0.3-2.2-0.4-3.3L279,166C279,165.3,279,164.8,278.9,164.2z M279,163.9
							c0.2,0.5,0.4,1,0.7,1.5c0.2,0.5,0.5,1.2,0.6,1.7c0.3,1.1,0.7,2.1,1,3.2l0.4,1.6l0.3,1.7c0.2,1.1,0.4,2.2,0.5,3.3
							c0.6,4.5,0.6,9.1,0,13.6s-1.8,8.9-3.4,13.2c-1.6,4.2-3.7,8.3-6.5,11.9l-1.1,1.4l-0.4-1.7c-0.9-4.5-1.7-8.9-2.4-13.4
							c-0.6-4.5-1.3-9-1.1-13.6c0.1-2.3,0.4-4.6,0.9-6.9s1.2-4.5,2.1-6.6s2-4.2,3.4-6.1c0.7-0.9,1.4-1.8,2.2-2.7
							c0.4-0.4,0.8-0.8,1.2-1.2c0.2-0.2,0.4-0.4,0.7-0.6l0.3-0.3l0.2-0.1l0.1-0.1h0.1C278.8,163.9,278.9,163.9,279,163.9z"/>
					</g>
					<g>
						<path d="M271.9,215.2c1.2-4.1,2.1-8.4,2.8-12.6c0.8-4.2,1.4-8.5,1.9-12.8s0.8-8.6,1.1-12.9c0.2-2.1,0.3-4.3,0.6-6.4
							c0.1-1.1,0.2-2.2,0.3-3.2c0.1-1.1,0.2-2.2,0.3-3.2h0.1c0.4,4.3,0.4,8.7,0.2,13c-0.2,4.3-0.8,8.6-1.4,12.9s-1.4,8.5-2.4,12.8
							c-1,4.2-2.1,8.4-3.4,12.5L271.9,215.2z"/>
					</g>
					<g>
						<path d="M271.9,215.2c0-4.3,0.3-8.6,0.7-12.9c0.4-4.3,0.9-8.6,1.4-12.9s1.1-8.6,1.9-12.8c0.8-4.2,1.8-8.4,3-12.6h0.1
							c-0.2,2.2-0.5,4.3-0.8,6.4s-0.6,4.3-0.9,6.4c-0.6,4.3-1.5,8.5-2.2,12.7s-1.3,8.5-1.9,12.8c-0.5,4.3-1,8.6-1.2,12.8h-0.1V215.2
							z"/>
					</g>
					<g>
						<path d="M279,164.1c-1.3,1.8-2.3,3.7-3.2,5.7c-0.9,2-1.6,4.1-2.2,6.2c-1.2,4.2-2,8.6-2.3,12.9l-0.2,3.3c0,1.1,0,2.2,0,3.3
							c0,1.1,0,2.2,0,3.3l0.1,3.3c0,1.1,0.1,2.2,0.2,3.3c0.1,1.1,0.1,2.2,0.2,3.3c0.2,2.2,0.4,4.4,0.6,6.6h-0.1
							c-0.5-2.1-1-4.3-1.4-6.5c-0.3-2.2-0.6-4.4-0.8-6.6c-0.1-2.2-0.3-4.4-0.1-6.7c0.1-1.1,0.1-2.2,0.2-3.3l0.4-3.3
							c0.5-4.4,1.4-8.8,2.8-13c0.7-2.1,1.5-4.2,2.5-6.2s2.1-3.9,3.5-5.6L279,164.1z"/>
					</g>
					<g>
						<path d="M271.9,215.2c-0.4-2.2-0.8-4.3-1-6.5c-0.1-2.2-0.4-4.4-0.4-6.6l0.1-3.3c0-1.1,0.1-2.2,0.2-3.3
							c0.1-2.2,0.3-4.4,0.4-6.6c0.4-4.4,1.2-8.7,2.4-13c1.3-4.2,2.9-8.4,5.3-12h0.1c-2,3.9-3.5,8-4.7,12.2s-2.1,8.5-2.7,12.8
							s-0.7,8.7-0.4,13.1c0,0.5,0,1.1,0,1.6s0.1,1.1,0.1,1.6l0.2,3.3C271.6,210.9,271.8,213,271.9,215.2L271.9,215.2z"/>
					</g>
					<g>
						<path d="M271.9,215.2c1.7-4,2.9-8.2,3.9-12.4c1-4.2,1.8-8.5,2.3-12.8c0.1-1.1,0.2-2.2,0.3-3.2c0.1-1.1,0.2-2.2,0.2-3.2
							l0.2-3.2l0.1-3.2c0.1-2.2,0-4.3,0.1-6.5c0-1.1-0.1-2.2-0.1-3.3l-0.1-3.3h0.1c0.2,2.2,0.5,4.3,0.6,6.5s0.2,4.4,0.2,6.5
							l-0.1,3.3l-0.2,3.3c-0.1,1.1-0.2,2.2-0.3,3.3c-0.1,1.1-0.2,2.2-0.4,3.2c-0.6,4.3-1.4,8.6-2.5,12.8
							C275.1,207.1,273.8,211.3,271.9,215.2L271.9,215.2z"/>
					</g>
				</g>
				<g>
					<g>
						<path fill="#FFFFFF" d="M215.7,184.2c0,0,15.3,6.5,17.1,17.4c2.1,13.1-8.4,22.4-8.4,22.4s5.5-12.8,0-22.1
							C215.9,187.8,215.7,184.2,215.7,184.2z"/>
						<path d="M215.5,184c0.1-0.1,0.4-0.1,0.5,0h0.2l0.4,0.1c0.3,0,0.5,0.1,0.8,0.2c0.5,0.1,1.1,0.2,1.6,0.4c1,0.3,2.1,0.7,3.1,1.1
							c2,0.9,3.9,2,5.7,3.4c1.8,1.4,3.4,3,4.8,5c1.3,2,2.2,4.4,2.4,6.8c0,2.3-0.2,4.6-0.8,6.8c-0.5,2.2-1.2,4.2-2,6.2
							s-1.7,4-2.7,5.9c-0.5,1-1.1,1.9-1.7,2.9s-1.2,1.8-2,2.8l-5.4,6.3l2-8.7c0.2-0.7,0.4-1.6,0.5-2.4c0.2-0.8,0.3-1.6,0.4-2.4
							c0.3-1.6,0.4-3.3,0.4-4.9c0-0.8-0.1-1.6-0.1-2.4c-0.1-0.8-0.1-1.5-0.3-2.3c-0.2-1.5-0.6-2.9-1.2-4.2l-0.4-1
							c-0.1-0.3-0.4-0.8-0.6-1.2c-0.4-0.8-0.8-1.6-1.2-2.4c-0.8-1.6-1.5-3.3-2.1-5s-1.2-3.4-1.7-5.2c-0.2-0.9-0.4-1.8-0.6-2.7
							c-0.1-0.5-0.1-0.9-0.2-1.4c0-0.2,0-0.5,0-0.7v-0.4v-0.2v-0.1c0,0,0,0,0-0.1C215.4,184.2,215.4,184,215.5,184z M215.9,184.5
							c0.1,0,0.2-0.1,0.1-0.2l0,0v0.1l0.1,0.1l0.2,0.3l0.3,0.6c0.2,0.4,0.5,0.7,0.7,1.1c0.5,0.7,1,1.5,1.5,2.2c1,1.4,2,2.9,3,4.3
							l3,4.3l1.5,2.2c0.2,0.4,0.5,0.7,0.7,1.1l0.8,1.4c0.3,0.5,0.4,1,0.6,1.4c0.2,0.5,0.4,1,0.5,1.5c0.3,1,0.5,2,0.6,3
							c0.3,2,0.2,4,0,6c-0.2,1.9-0.6,3.8-1.2,5.7c-0.5,1.9-1.2,3.5-2.2,5.3l-3.4-2.5c0.7-0.5,1.5-1.1,2.3-1.8
							c0.7-0.7,1.5-1.4,2.1-2.1c1.3-1.5,2.4-3.3,3.2-5.1c0.4-0.9,0.7-1.9,0.9-2.9c0.1-0.5,0.1-1,0.2-1.5c0-0.2,0.1-0.5,0.1-0.7v-0.8
							c0-2-0.5-3.9-1.1-5.7c-0.6-1.6-1.4-3.1-2.4-4.7c-0.9-1.5-2.2-3-3.5-4.4s-2.8-2.8-4.3-4.1c-0.4-0.3-0.8-0.7-1.2-1
							c-0.4-0.4-0.8-0.7-1.2-1l-1.2-1c-0.2-0.2-0.4-0.3-0.6-0.5l-0.3-0.3l-0.2-0.1C215.7,184.6,215.9,184.6,215.9,184.5z"/>
					</g>
					<g>
						<path d="M224.4,223.9c0,0-0.1-0.1-0.1,0c-0.1,0-0.1,0-0.1,0l0,0v-0.1l0.1-0.2l0.2-0.3l0.4-0.6c0.2-0.4,0.5-0.9,0.7-1.3
							c0.4-0.9,0.8-1.7,1.2-2.6c0.7-1.8,1.3-3.5,1.8-5.3c0.9-3.6,1-7.4,0.4-10.9c-0.7-3.5-2.7-7-5.2-9.9s-5.5-5.5-8.6-7.7l1.3-1.2
							c2.3,2.9,4.4,5.9,6.5,8.9c1,1.5,2.1,3,3.1,4.6c0.5,0.8,1,1.6,1.4,2.4c0.5,0.8,1,1.6,1.4,2.6c0.7,1.9,1,4,1,5.9
							c0,2-0.4,3.9-0.8,5.7c-0.5,1.8-1.1,3.6-1.9,5.3c-0.4,0.9-0.8,1.7-1.2,2.5l-0.7,1.2c-0.1,0.2-0.2,0.4-0.4,0.6l-0.2,0.3
							l-0.1,0.1v0.1l0,0C224.5,224,224.4,223.9,224.4,223.9z M224.2,224.1c-0.1,0-0.1-0.2,0-0.2l0,0v-0.1l0.1-0.2l0.1-0.3l0.2-0.7
							l0.4-1.3c0.3-0.9,0.5-1.8,0.7-2.6c0.4-1.8,0.8-3.5,1-5.3c0.5-3.5,0.5-7.1-0.8-10c-0.3-0.6-0.8-1.4-1.2-2.2
							c-0.5-0.8-0.9-1.5-1.4-2.3l-2.8-4.7c-1.9-3.1-3.8-6.2-5.6-9.5l-0.1-0.1c-0.2-0.4-0.1-1,0.4-1.2c0.4-0.2,0.8-0.1,1.1,0.1
							c1.5,1.4,2.8,2.8,4.2,4.2c1.4,1.4,2.7,2.9,4,4.3c1.3,1.5,2.6,2.9,3.8,4.5c1.2,1.6,2.3,3.3,3,5.4c1.2,4,0.8,8.3-0.4,12.2
							c-0.6,1.9-1.5,3.8-2.6,5.4c-0.5,0.9-1.1,1.7-1.7,2.4c-0.3,0.4-0.6,0.8-1,1.1c-0.2,0.2-0.3,0.4-0.5,0.5l-0.3,0.3l-0.1,0.1
							l-0.1,0.1l0,0c0,0,0,0-0.1,0.1C224.3,224.2,224.2,224.1,224.2,224.1z"/>
					</g>
					<g>
						<path d="M215.7,184.2c2.9,2.5,5.6,5.2,8.1,8.1c1.2,1.5,2.3,3.1,3.3,4.7c0.3,0.4,0.5,0.8,0.7,1.2c0.2,0.4,0.4,0.9,0.6,1.3
							c0.4,0.9,0.7,1.8,0.9,2.7c0.5,1.9,0.6,3.8,0.6,5.7c0,1.9-0.2,3.9-0.7,5.7c-0.4,1.9-1.1,3.7-1.9,5.5c-0.8,1.7-1.9,3.4-3.1,4.8
							h-0.1c1-1.6,1.9-3.3,2.6-5s1.2-3.6,1.7-5.4c0.8-3.7,1-7.5,0.4-11.2c-0.2-0.9-0.4-1.8-0.7-2.7c-0.4-0.9-0.8-1.7-1.3-2.5
							c-1-1.6-2.3-3-3.6-4.4C220.8,189.9,218.2,187.1,215.7,184.2L215.7,184.2z"/>
					</g>
					<g>
						<path d="M215.7,184.2c3.4,2.1,6.5,4.5,9.4,7.3c1.4,1.4,2.8,2.9,4,4.5s2.2,3.4,2.9,5.3c0.7,1.9,0.9,4,0.8,6.1s-0.6,4.1-1.3,6
							c-0.7,1.9-1.6,3.7-2.7,5.4c-1.1,1.7-2.3,3.3-3.7,4.7l-0.1-0.1c2.1-3.3,3.9-6.8,5.1-10.5c0.2-0.5,0.3-0.9,0.4-1.4
							s0.3-0.9,0.4-1.4l0.3-1.4c0.1-0.5,0.1-0.9,0.2-1.4c0.2-1.9,0.1-3.8-0.5-5.6c-0.5-1.8-1.4-3.6-2.5-5.1
							c-1.1-1.6-2.4-3.1-3.7-4.5c-2.7-2.8-5.7-5.4-9-7.6L215.7,184.2z"/>
					</g>
				</g>
				<g>
					<g>
						<g>
							<path d="M243.2,166.6c0.5-0.2,1-0.4,1.5-0.5s1-0.3,1.6-0.3c1.1-0.1,2.2-0.1,3.3,0.1l1,0.2l-0.3,1.2c-0.3,1-0.6,1.9-1,2.9
								c-0.2,0.5-0.5,1-0.8,1.5s-0.7,1-1.4,1.6c-0.8,0.5-1.4,0.6-2,0.8c-0.6,0.1-1.2,0.2-1.7,0.3c-1.1,0.1-2.1,0-3.2-0.3l-2.4-0.7
								l0.6-2c0.2-0.5,0.4-1.1,0.7-1.6c0.3-0.5,0.8-1,1.2-1.4c0.5-0.4,1-0.8,1.5-1.1C242.2,167,242.7,166.8,243.2,166.6z
								 M243.4,166.9c-0.4,0.3-0.7,0.7-0.8,1.1c-0.1,0.5-0.2,0.9-0.1,1.4c0.1,1,0.3,1.9,0.2,2.8l-1.8-2.6c0.8,0,1.7,0.1,2.5,0.3
								c0.4,0.1,0.8,0.1,1.2,0.2c0.3,0,0.7,0,0.7,0s0.4-0.2,0.6-0.4c0.3-0.3,0.5-0.6,0.8-1c0.5-0.7,1-1.5,1.4-2.3l0.7,1.5
								c-0.9-0.4-1.7-0.9-2.6-1.3c-0.5-0.2-0.9-0.3-1.4-0.2C244.3,166.5,243.8,166.7,243.4,166.9z"/>
						</g>
						<g>
							<path d="M243.7,167.4c0.8-0.4,1.7-0.7,2.7-0.9c0.9-0.2,1.9-0.1,2.8,0l0.5,0.1l-0.3,0.5c-0.4,0.8-0.9,1.6-1.4,2.3
								c-0.5,0.7-1.1,1.5-2,2.1c-0.9,0.5-1.9,0.7-2.8,0.9c-0.9,0.1-1.8,0.2-2.8,0.2l-1.1-0.1l0.4-0.9c0.4-0.9,0.9-1.7,1.6-2.4
								C242.1,168.4,242.9,167.8,243.7,167.4z M243.8,167.5c-0.4,0.2-0.7,0.5-1,0.9c-0.3,0.3-0.5,0.7-0.7,1.1
								c-0.4,0.8-0.6,1.7-0.9,2.5l-0.7-1c0.8-0.1,1.7-0.1,2.6-0.1c0.8-0.1,1.7-0.2,2.4-0.5c0.6-0.3,1.3-1,1.8-1.7
								c0.6-0.7,1.1-1.4,1.6-2.1l0.3,0.6c-0.9-0.2-1.8-0.4-2.7-0.4c-0.5,0-0.9,0-1.4,0.2C244.6,167.1,244.1,167.3,243.8,167.5z"/>
						</g>
						<g>
							<path d="M243.9,167.8c0.8-0.4,1.6-0.8,2.5-1s1.8-0.3,2.7-0.2h0.3l-0.2,0.3c-0.5,0.7-1,1.4-1.6,2.1s-1.2,1.3-2,1.8
								s-1.7,0.7-2.5,0.9c-0.9,0.2-1.7,0.3-2.6,0.4l-0.7,0.1l0.3-0.6c0.4-0.8,1-1.5,1.6-2.2C242.4,168.8,243.1,168.3,243.9,167.8z
								 M244,167.9c-0.8,0.4-1.4,1.1-1.9,1.8c-0.5,0.7-0.9,1.5-1.3,2.3l-0.4-0.5c0.8-0.1,1.7-0.2,2.5-0.4c0.8-0.2,1.7-0.3,2.4-0.7
								c0.7-0.4,1.3-1,1.9-1.6s1.1-1.3,1.7-2l0.1,0.3c-0.9-0.1-1.8-0.1-2.6,0C245.6,167.1,244.7,167.4,244,167.9z"/>
						</g>
						<g>
							<path d="M249.3,166.8c0.7,1.5,1.2,3,1.5,4.6c0.1,0.8,0.2,1.7,0.2,2.7l-0.1,0.7c-0.1,0.3-0.2,0.5-0.3,0.8
								c-0.1,0.3-0.3,0.6-0.5,0.8c-0.2,0.3-0.5,0.5-0.8,0.8c-0.3,0.2-0.7,0.4-1,0.5s-0.7,0.2-1,0.2s-0.6,0-0.9,0l-0.8-0.1
								c-1-0.2-1.9-0.7-2.6-1.2c-1.3-1.2-2.3-2.6-2.6-4.6l0.3-0.3c1.9,0.2,3.4,0.7,4.7,1.2c0.6,0.2,1.2,0.5,1.6,0.8s0.7,0.4,0.7,0.5
								s0.4-0.1,0.6-0.7s0.4-1.3,0.5-2c0.2-1.5,0.3-3,0.3-4.6L249.3,166.8z"/>
						</g>
						<g>
							<path d="M248.9,167.5c0.5,1.2,0.7,2.4,0.5,3.7c-0.1,0.6-0.3,1.3-0.5,1.8c-0.2,0.6-0.5,1.2-1.1,1.6s-1.3,0.5-2,0.3
								c-0.7-0.1-1.3-0.3-1.8-0.6c-1.1-0.6-2.1-1.4-2.9-2.4v-0.1c1.1,0.6,2.1,1.2,3.2,1.8c1,0.5,2.2,1,3.3,0.6
								c0.5-0.2,0.9-0.8,1-1.3c0.2-0.6,0.1-1.2,0.1-1.8C248.8,169.9,248.8,168.7,248.9,167.5L248.9,167.5z"/>
						</g>
						<g>
							<path d="M249.2,166.9c0.4,1.4,0.6,2.8,0.7,4.3c0,0.7,0,1.5-0.2,2.2s-0.5,1.6-1.4,2.1c-0.8,0.5-1.8,0.5-2.5,0.4
								c-0.8-0.2-1.5-0.5-2.2-0.9c-1.3-0.8-2.4-1.8-3.2-3.1l0.1-0.1c1.3,0.6,2.5,1.3,3.8,1.9c0.6,0.3,1.2,0.5,1.8,0.7
								c0.6,0.2,1.2,0.3,1.6,0c0.5-0.2,0.8-0.7,1-1.3c0.2-0.6,0.3-1.3,0.4-2c0.1-1.4,0.1-2.8-0.1-4.2H249.2z"/>
						</g>
					</g>
					<g>
						<g>

								<ellipse fill="#2F3E52" stroke="#000000" stroke-width="1.4805" stroke-miterlimit="10" cx="230.2" cy="173.4" rx="2.9" ry="2.9"/>
							<circle fill="#FFFFFF" stroke="#000000" stroke-width="1.4805" stroke-miterlimit="10" cx="229.8" cy="172.6" r="1.3"/>
						</g>
						<g>

								<ellipse fill="#2F3E52" stroke="#000000" stroke-width="1.4805" stroke-miterlimit="10" cx="257.2" cy="160.4" rx="2.9" ry="2.9"/>
							<circle fill="#FFFFFF" stroke="#000000" stroke-width="1.4805" stroke-miterlimit="10" cx="256.8" cy="159.6" r="1.3"/>
						</g>
					</g>
				</g>
				<g>
					<path d="M276.4,164c-0.8-2.7-2.2-5.2-3.9-7.4c-1.7-2.2-3.6-4.3-5.8-6c-4.3-3.5-9.4-5.9-14.7-7.6c-5.3-1.6-10.9-2.6-16.4-3
						c-2.8-0.2-5.6-0.3-8.4-0.3c-1.4,0-2.8,0-4.2,0c-1.4,0.1-2.8,0.1-4.2,0.1c1.4-0.2,2.8-0.4,4.2-0.5c1.4-0.1,2.8-0.2,4.2-0.3
						c2.8-0.1,5.7-0.2,8.5-0.1c5.7,0.2,11.3,1.1,16.8,2.7c2.7,0.9,5.4,1.9,7.9,3.3c2.5,1.3,4.9,2.9,7.1,4.8c2.1,1.9,4.1,4.1,5.6,6.5
						S275.8,161.2,276.4,164z"/>
				</g>
				<g>
					<path d="M213.1,172.1c-0.7-2.6-0.7-5.4-0.4-8.1c0.4-2.7,1.1-5.4,2.2-8c2.2-5.1,5.9-9.7,10.3-13c0.5-0.4,1.1-0.9,1.7-1.2
						c0.6-0.4,1.1-0.8,1.7-1.2c1.2-0.7,2.4-1.4,3.6-2c2.5-1.3,5-2.2,7.6-3c5.2-1.6,10.6-2.4,16-2.3c-5.1,1.8-10,3.5-14.8,5.6
						c-4.7,2.1-9.2,4.6-13.2,7.7c-4,3-7.4,6.8-10,11.1c-1.3,2.2-2.4,4.5-3.2,6.9C214,166.9,213.4,169.5,213.1,172.1z"/>
				</g>
			</g>
			<g>
				<path fill="#2F3E52" stroke="#000000" stroke-width="1.4805" stroke-miterlimit="10" d="M257.6,222.7v3.2c0,0.6-0.4,1-1,1l0,0
					c-0.6,0-1-0.4-1-1v-3.2c0-0.6,0.4-1,1-1l0,0C257.1,221.7,257.6,222.2,257.6,222.7z"/>
				<path fill="#2F3E52" stroke="#000000" stroke-width="1.4805" stroke-miterlimit="10" d="M253.4,222.7v3.2c0,0.6-0.4,1-1,1l0,0
					c-0.6,0-1-0.4-1-1v-3.2c0-0.6,0.4-1,1-1l0,0C252.9,221.7,253.4,222.2,253.4,222.7z"/>
				<path fill="#2F3E52" stroke="#000000" stroke-width="1.4805" stroke-miterlimit="10" d="M236.8,222.7v3.2c0,0.6-0.4,1-1,1l0,0
					c-0.6,0-1-0.4-1-1v-3.2c0-0.6,0.4-1,1-1l0,0C236.4,221.7,236.8,222.2,236.8,222.7z"/>
				<path fill="#2F3E52" stroke="#000000" stroke-width="1.4805" stroke-miterlimit="10" d="M232.9,222.7v3.2c0,0.6-0.4,1-1,1l0,0
					c-0.6,0-1-0.4-1-1v-3.2c0-0.6,0.4-1,1-1l0,0C232.5,221.7,232.9,222.2,232.9,222.7z"/>
			</g>
			<g>
				<g>

						<ellipse fill="#2F3E52" stroke="#000000" stroke-width="1.4805" stroke-miterlimit="10" cx="196.9" cy="174.6" rx="2.9" ry="2.9"/>
					<circle fill="#FFFFFF" stroke="#000000" stroke-width="1.4805" stroke-miterlimit="10" cx="196.5" cy="173.9" r="1.3"/>
				</g>
				<g>
					<path fill="#FFFFFF" d="M219.1,178.8c-1.4-2-4.8-6.7-6.6-6.4c-2.3,0.5-3,3-3,4c0,2.5,1,3.9,1.9,3.9c0.7,0,5.2-0.4,7.2-0.6
						C219.1,179.7,219.4,179.2,219.1,178.8"/>
					<path d="M218.9,178.9c-0.7-0.9-1.7-1.7-2.7-2.3c-1-0.7-1.7-1.5-2.5-2.2c-0.3-0.4-0.7-0.7-1-0.9c0,0-0.1-0.1-0.2-0.1l0,0h-0.1
						c-0.2,0-0.5,0-0.7,0.1c-0.5,0.1-0.7,0.6-0.8,1.1c-0.1,0.5-0.1,1-0.1,1.4c0,0.2,0.1,0.4,0.2,0.6s0.2,0.5,0.2,0.7
						c0.2,0.4,0.3,0.8,0.5,1c0.1,0.1,0.2,0.2,0.2,0.1c0,0,0-0.2-0.3-0.3c-0.1,0-0.2-0.1-0.3-0.1c-0.1,0,0,0,0,0h0.1l0.4-0.1
						c0.3,0,0.6,0,0.8-0.1c1.1,0,2.3,0.1,3.4,0.3c0.6,0.1,1.2,0.3,1.8,0.5c0.1,0.1,0.3,0.1,0.4,0.2c0,0.1-0.1,0.2,0,0.2
						C218.6,179.2,218.9,179.2,218.9,178.9l0.4-0.3c0.4,0.2,0.6,0.9,0.2,1.5c-0.2,0.3-0.5,0.5-0.8,0.6c-0.1,0.1-0.3,0.1-0.4,0.2
						c-0.6,0.3-1.1,0.5-1.7,0.8c-1.2,0.4-2.4,0.7-3.6,0.9c-0.3,0-0.6,0.1-0.9,0.1h-0.4h-0.1h-0.2c-0.3,0-0.5-0.1-0.7-0.1
						c-0.9-0.3-1.4-0.8-1.8-1.2c-0.4-0.5-0.6-0.9-0.7-1.3c-0.3-0.8-0.4-1.6-0.4-2.4c0-0.4,0.1-0.7,0.1-1.1c0.1-0.4,0.2-0.8,0.3-1.2
						c0.3-0.7,0.7-1.3,1.2-1.8s1.1-0.9,1.7-1.3c0.3-0.2,0.6-0.4,1-0.5c0.1,0,0.2-0.1,0.3-0.1c0.1,0,0.3,0,0.4-0.1c0.3,0,0.5,0,0.7,0
						c0.8,0.2,1.4,0.5,2,0.9c1.1,0.8,1.8,1.8,2.3,2.9s0.9,2.3,1.5,3.3L218.9,178.9z"/>
				</g>
				<g>
					<path d="M218.8,179.3c-1.5-0.1-3.1-0.2-4.6-0.4c-1.5-0.1-3-0.4-4.5-0.6l0.4-0.5l0.2,0.7l-0.3-0.3c1.4,0.2,2.8,0.4,4.3,0.6
						c1.4,0.2,2.8,0.5,4.2,0.8c-1.4,0-2.9-0.1-4.3-0.2s-2.9-0.2-4.3-0.4h-0.2l-0.1-0.2l-0.2-0.7l-0.2-0.5l0.6,0.1
						c1.5,0.2,3,0.4,4.5,0.7C215.8,178.6,217.3,178.9,218.8,179.3z"/>
				</g>
				<g>
					<path d="M218.4,179.6c0.2,0,0.5-0.2,0.5-0.5c0-0.2-0.2-0.4-0.4-0.7c-0.3-0.4-0.7-0.8-1.1-1.3c-0.7-0.8-1.5-1.6-2.3-2.3
						c-0.4-0.4-0.8-0.7-1.2-1c-0.4-0.3-0.9-0.5-1.2-0.5c-0.4,0-0.9,0.3-1.2,0.5c-0.4,0.3-0.6,0.7-0.8,1.1c-0.2,0.4-0.3,0.9-0.3,1.4
						c0,0.4,0.1,1,0.2,1.4c0.1,0.5,0.3,0.9,0.5,1.2c0.1,0.2,0.2,0.3,0.3,0.3h0.1h0.1h0.2C214,179.3,216.2,179.7,218.4,179.6z
						 M218.4,179.7c-2.2,0.2-4.4,0.9-6.6,1.2h-0.2c-0.1,0-0.1,0-0.3,0c-0.2,0-0.5-0.1-0.7-0.2c-0.4-0.2-0.7-0.5-0.9-0.8
						c-0.4-0.6-0.6-1.2-0.7-1.8c-0.1-0.6-0.1-1.2-0.1-1.8c0.1-0.6,0.3-1.2,0.6-1.8c0.6-1.1,1.7-2,3.1-2.1c0.8,0,1.3,0.4,1.8,0.8
						s0.9,0.8,1.3,1.2c0.8,0.8,1.4,1.7,2,2.6l0.9,1.4c0.1,0.2,0.4,0.4,0.4,0.8C219,179.4,218.7,179.7,218.4,179.7z"/>
				</g>
				<g>
					<path d="M209.7,176.8c0.1,1,0.3,2.2,1.1,2.8c0.2,0.2,0.4,0.3,0.6,0.3s0.5,0,0.7,0l1.6-0.2c1.1-0.1,2.1-0.2,3.2-0.3l0.8-0.1h0.4
						h0.2h0.1c0.1,0,0.1-0.1,0.1-0.2c0,0,0,0,0-0.1l-0.1-0.2l-0.2-0.3c-1.3-1.7-2.6-3.4-4.2-4.6c-0.4-0.3-0.9-0.5-1.3-0.5
						c-0.5,0.1-1,0.3-1.4,0.6C210.3,174.7,209.8,175.7,209.7,176.8c0-1.1,0.4-2.2,1.2-2.9c0.4-0.4,0.9-0.6,1.5-0.8
						c0.7-0.1,1.2,0.2,1.7,0.4c1,0.6,1.7,1.4,2.5,2.1c0.7,0.8,1.4,1.6,2.1,2.5l0.2,0.3l0.1,0.2c0,0.1,0.1,0.2,0.1,0.3
						c0.2,0.5-0.1,0.9-0.5,1.1c-0.1,0-0.2,0.1-0.3,0.1h-0.2h-0.4h-0.8c-1.1,0.1-2.1,0.1-3.2,0.2l-1.6,0.1c-0.3,0-0.5,0.1-0.8,0
						s-0.6-0.3-0.8-0.5C209.8,179,209.6,177.8,209.7,176.8z"/>
				</g>
			</g>
		</g>
	</g>
</g>
</svg>
