<?xml version="1.0" encoding="utf-8"?>
<!-- Generator: Adobe Illustrator 22.0.1, SVG Export Plug-In . SVG Version: 6.00 Build 0)  -->
<svg version="1.2" baseProfile="tiny" id="Capa_1" xmlns="http://www.w3.org/2000/svg" xmlns:xlink="http://www.w3.org/1999/xlink"
	 x="0px" y="0px" viewBox="0 0 512 512" xml:space="preserve">
<g>
	<path fill="#FFFFFF" d="M412.6,155.1L255.5,293.5L98.4,155.1c-6.3-5.5-15.8-4.9-21.3,1.3c-5.5,6.3-4.9,15.8,1.3,21.3L245.5,325
		c2.8,2.5,6.4,3.8,10,3.8c3.6,0,7.1-1.3,10-3.8l167-147.2c6.2-5.5,6.9-15,1.3-21.3C428.4,150.2,418.8,149.6,412.6,155.1L412.6,155.1
		z M412.6,155.1"/>
	<path fill="#FFFFFF" d="M452.7,91H58.3c-25,0-45.3,20.3-45.3,45.3v239.4c0,25,20.3,45.3,45.3,45.3h394.5c25,0,45.3-20.3,45.3-45.3
		V136.3C498,111.3,477.7,91,452.7,91L452.7,91z M467.8,375.7c0,8.3-6.8,15.1-15.1,15.1H58.3c-8.3,0-15.1-6.8-15.1-15.1V136.3
		c0-8.3,6.8-15.1,15.1-15.1h394.5c8.3,0,15.1,6.8,15.1,15.1V375.7z M467.8,375.7"/>
</g>
</svg>
