<?xml version="1.0" encoding="utf-8"?>
<!-- Generator: Adobe Illustrator 22.0.1, SVG Export Plug-In . SVG Version: 6.00 Build 0)  -->
<svg version="1.2" baseProfile="tiny" id="Capa_1" xmlns="http://www.w3.org/2000/svg" xmlns:xlink="http://www.w3.org/1999/xlink"
	 x="0px" y="0px" viewBox="0 0 512 512" xml:space="preserve">
<path fill="#FFFFFF" d="M498.9,268.8c-3.5-1.2-12.8-4.9-15.3-8.6c-0.4-0.6-1-1.8-1.8-3.4c-4.7-9.3-15.7-31.1-38-31.1
	c-3.5,0-7.2,0.6-10.9,1.6c-20.9,6.1-31,20-38.3,30.1c-4.2,5.8-7.6,10.4-11.3,11.2c-1.2,0.2-2.3,0.3-3.3,0.3c-3.6,0-5.6-1.4-6-4
	c-1.4-10.1-1.1-22.7-0.7-36c0.6-22,1.2-47-6.1-66.6c-11.9-32-38.6-57.7-60.1-78.4c-5.4-5.2-10.4-10.1-14.8-14.5
	c-1.7-2.1-3.4-3.9-5.1-5.7c-2.4-2.6-4.7-5.1-6.4-7.7c-7.2-11.2-12.2-23.9-16.6-36c-0.4-1.3-0.8-2.6-1.2-4c-0.7-2.1-1.4-3.8-2.2-5
	C258.4,5.2,255.6,0,251.3,0c-0.7,0-1.4,0.1-2.1,0.4c-7.4,2.8-9,18.2-10.5,31.7c-0.7,7-1.4,13.6-2.8,16.8c-1.8,4.2-4.5,6.6-7.4,9.3
	c-3.4,3.1-6.9,6.3-8.6,12.3c-1.6,6,0,9.5,1.6,12.8c1.3,2.8,2.6,5.5,1.9,9.9c-0.7,4.7-3,7.2-5.4,9.9c-2.5,2.8-5.2,5.8-5.6,11.2
	c-0.5,5.6,2.5,9.2,5.3,12.7c2.5,3.1,4.8,5.9,4.7,10c0,3.5-2.1,5.2-4.7,7.4c-3.4,2.9-7.7,6.4-6.3,15c0.9,5.7,4.7,8.7,8,11.3
	c3.2,2.5,5.1,4.2,5,7.1c-0.1,2.2-0.8,4.5-1.5,7c-1.7,5.9-3.6,12.6,1.4,19.9c1.8,2.6,7.8,7.9,14.4,13.3
	c-18.2-8.4-45.3-18.9-73.6-23.3c-46.5-7.3-91.5-25.3-115.7-35c-11.4-4.6-16.5-6.6-18.5-6.6c-1.3,0-1.7,0.8-1.9,1.2
	c-0.5,1.3,0.7,2.6,3.4,4.9l7.5,6.2c10,8.3,17.9,14.8,21.2,18.1c-1.6-0.6-4-1.5-7-2.8c-1.6-0.7-2.9-0.4-3.6,0.6
	c-0.3,0.5-0.5,1.1-0.5,1.9c0,8.8,25.4,52.3,60.6,94.2c25.4,30.2,74.1,81,115.4,81c2.5,0,4.9-0.2,7.3-0.5
	c-16.5,17-76.2,61.9-129.3,83.9c-64.1,26.6-93,40.3-95,50.9c-0.5,2.4,0.4,4.7,2.5,6.7c2.8,2.7,5.4,4,8.3,4c2,0,3.8-0.6,5.6-1.3
	c1.8-0.6,3.7-1.3,5.8-1.3c2.4,0,4.8,0.8,7.5,2.5c6.7,4.3,14.8,8.8,25.6,8.8c11.2,0,23.6-4.9,37.8-15c2.7-1.9,5.1-2.7,7.9-2.7
	c1.6,0,3.1,0.3,4.7,0.5c1.8,0.3,3.6,0.6,5.6,0.6l0,0c4.6,0,8.9-1.7,13.7-5.4c35.3-27,73.7-32.1,114.4-37.4
	c48-6.3,97.7-12.9,151.1-53.9c45.5-35,54.4-65,60.4-84.8c0.6-2.1,1.2-4.1,1.8-5.9c5.9-18.4,9.4-22.7,13.8-24.2
	c2.9-1,10-3.9,16.3-6.4c4.4-1.8,8.3-3.3,9.3-3.7c1.6-0.5,1.8-1.5,1.7-2C503,271,502.9,269.7,498.9,268.8z"/>
</svg>
