<?xml version="1.0" encoding="utf-8"?>
<!-- Generator: Adobe Illustrator 22.0.1, SVG Export Plug-In . SVG Version: 6.00 Build 0)  -->
<svg version="1.2" baseProfile="tiny" id="Calque_1"
	 xmlns="http://www.w3.org/2000/svg" xmlns:xlink="http://www.w3.org/1999/xlink" x="0px" y="0px" viewBox="0 0 221.9 221.9"
	 xml:space="preserve">
<rect id="Fond" fill="#272832" width="221.9" height="221.9"/>
<g id="Calque_1_1_" display="none">
	<g display="inline">
		<g>
			<g>
				<g>
					<path fill="#00CCCC" d="M-20-4.6c-0.5-2.4-1.8-3.9-3.2-3.9s-2.8,1.7-3.3,4.1l-77.6,356.3c-0.7,3.3,0.2,7,2,8.3s3.9-0.4,4.6-3.6
						l26.8-123.2h94.9L51,356.5c0.6,2.5,1.9,4.1,3.3,4.1c0.4,0,0.8-0.1,1.3-0.4c1.8-1.3,2.7-5,2-8.3L-20-4.6z M-68,220.4l44.7-205.4
						l44.8,205.4H-68z"/>
					<path fill="#989898" d="M-24.9,61.5L-55,199.7c-0.4,1.7,0.1,3.4,1,4.1c0.2,0.1,0.4,0.3,0.6,0.3c0.7,0,1.3-0.8,1.6-2l30.1-138.2
						c0.4-1.7-0.1-3.4-1-4.1C-23.5,58.9-24.5,59.8-24.9,61.5z"/>
					<path fill="#989898" d="M-64,249.8c-0.9-0.6-1.9,0.1-2.3,1.8l-22.1,101.3c-0.4,1.7,0.1,3.4,1,4.1c0.2,0.1,0.4,0.3,0.6,0.3
						c0.7,0,1.3-0.8,1.6-2L-63,253.8C-62.7,252.3-63.2,250.3-64,249.8z"/>
				</g>
			</g>
		</g>
		<g id="N">
			<g>
				<path fill="#FFFFFF" d="M-113,351.9L-179.6-4.6c-0.4-2.4-1.5-3.9-2.7-3.9c-1.2,0-2.4,1.7-2.8,4.1l-66.7,356.3
					c-0.6,3.3,0.2,7,1.7,8.3c1.6,1.3,3.3-0.4,3.9-3.6l22.4-119.7c0-0.3,0-0.7,0.1-1.1c1-5.1,1.6-11,3.1-15.7l38.3-204.9l38,203.2
					c0.2,0.4,0.5,0.9,0.6,1.7c0.6,5,1.8,9.6,2.6,14.5c0.1,0.6,0.1,1.1,0.1,1.6l22.5,120.4c0.5,2.5,1.6,4.1,2.8,4.1
					c0.4,0,0.7-0.1,1.1-0.4C-113.1,358.9-112.4,355.2-113,351.9z"/>
			</g>
			<g>
				<path fill="#FFFFFF" d="M-46.6-4.6C-47-7-48.2-8.5-49.4-8.5s-2.4,1.7-2.8,4.1l-66.6,356.3c-0.6,3.3,0.2,7,1.7,8.3
					c1.6,1.3,3.3-0.4,3.9-3.6l23-123.2h0.2c0.1-1.1,0.3-2.1,0.5-3.1c0.2-1.4,0.5-2.7,0.8-3.9c0.3-1.3,0.5-2.7,0.5-4.2
					c0-0.7,0.2-1.3,0.4-1.8l38.1-203.6c0.6-6.1,1.9-11.9,3.1-17.6v-1.9c0-0.4,0-0.8,0.1-1.1L-46.6-4.6z"/>
				<path display="none" fill="#FFFFFF" d="M-50.8,61.5l-25.9,138.2c-0.3,1.7,0.1,3.4,0.8,4.1c0.2,0.1,0.4,0.3,0.5,0.3
					c0.6,0,1.2-0.8,1.4-2l26-138.3c0.3-1.7-0.1-3.4-0.8-4.1C-49.6,58.9-50.5,59.8-50.8,61.5z"/>
				<path display="none" fill="#FFFFFF" d="M-84.4,249.8c-0.8-0.6-1.6,0.1-1.9,1.8l-19,101.3c-0.3,1.7,0.1,3.4,0.8,4.1
					c0.2,0.1,0.4,0.3,0.5,0.3c0.6,0,1.2-0.8,1.4-2l19-101.3C-83.2,252.3-83.7,250.3-84.4,249.8z"/>
			</g>
		</g>
		
			<text transform="matrix(1.0334 0 0 1 127.3145 202.3752)" display="none" fill="#FFFFFF" font-family="'ArialMT'" font-size="391.3174px">O</text>
		<path fill="#FFFFFF" d="M187.5,220.8H53.1c-4.7,0-8.4,2.4-8.4,5.6s3.7,5.6,8.4,5.6h134.5c4.7,0,8.4-2.4,8.4-5.6
			S192.1,220.8,187.5,220.8z"/>
	</g>
</g>
<g id="Calque_4">
	<g>
		<path fill="#FFFFFF" d="M113,204.2c-45.4,0-79.8-46.6-79.8-96.7h1.3c0,50.7,34.9,93.1,78,93.1c8.7,0,17.2-2.4,25.3-6.7
			c6.3-3.3,16.6-9.8,22.1-15c4.2-4,7.4-9,11-13.9c4.2-5.6,6.5-9.6,9.7-15.9c6.7-13.6,8.6-28,8.6-42.1c0-20-6.9-43-19.5-60.1
			c-3.1-4.2-7.4-9.8-11-13.4c-12.9-13.1-29-18.4-45.2-19.1C69.3,12.5,44.1,62.8,48.3,106c0.6,6.1,1.5,12.7,2.9,19.3
			c1.9,8.6,4.9,17.1,9.7,24c12.4,18.1,33.5,28.8,51.6,28.8c6.4,0,12.5-1.9,18.3-5.1c4.5-2.5,15.5-10.6,19.4-14.5
			c4.6-4.7,13.4-25.2,15-30.9c1.8-6.5,2.1-14.3,2.1-20.5c0-8.4-0.6-17.7-4.2-26.6c-2-4.8-4.1-10.8-6.8-15.3c-1.9-3.1-4.8-7.7-7-10.4
			c-9.7-12-23-17.4-35.8-17.4c-12.1,0-23.6,6.8-31.2,17.6c-3.2,4.6-5.3,8.5-7.6,14c-5,11.8-7.1,27-7.1,38.6h-1.3
			c0-33.8,11.2-73.7,46.7-73.7c33.9,0,57.6,37,57.6,73.7c0,37.9-22.4,73.1-57.6,73.1c-37,0-68.6-30-68.6-73.7
			c0-47.5,21.9-97,68.6-97c45.4,0,78.8,47.8,78.8,97.6C191.7,157.2,158.3,204.2,113,204.2z"/>
	</g>
	<g>
		<path fill="#FFFFFF" d="M69.5,119.9c1.9,0,1.9-3,0-3S67.6,119.9,69.5,119.9L69.5,119.9z"/>
	</g>
	<text transform="matrix(1.1073 0 0 1 38.0073 174.4235)" display="none" font-family="'ArialMT'" font-size="207.807px">O</text>
</g>
<g id="Calque_3">
	<g>
		<g>
			<g>
				<g>
					<g>
						<g>
							<path fill="#00CCCC" d="M113.7,164.6c0,0-2.2,4.2-8,10.7c-6.4,7.2-9,12.9-10.8,13.5s1.3-6.5,0.6-6.2c-0.8,0.3-7.2,7.5-9.2,6
								s12.8-11.1,11.3-14.1c-1.1-2.1-18.7-9.6-29.9-26.1L113.7,164.6z"/>
							<path fill="#999999" d="M114,164.4c0,0.1,0,0.2,0,0.3v0.1v0.1l-0.1,0.2l-0.2,0.4l-0.3,0.8c-0.2,0.5-0.5,1-0.7,1.6
								c-0.5,1-1.1,2-1.7,3c-1.2,2-2.5,3.9-3.9,5.7c-1.3,1.7-2.6,3.5-3.8,5.4l-3.7,5.6c-0.3,0.5-0.7,1-1.1,1.5
								c-0.2,0.3-0.4,0.5-0.7,0.8l-0.4,0.4c-0.2,0.2-0.4,0.3-0.6,0.5s-0.6,0.4-1,0.5c-0.1,0-0.3,0.1-0.4,0.1c-0.2,0-0.3,0.1-0.6,0.1
								c-0.3,0-0.6,0-0.8-0.1c-0.3-0.1-0.7-0.2-1-0.4s-0.5-0.4-0.7-0.7c-0.1-0.1-0.2-0.2-0.2-0.3c-0.1-0.1-0.1-0.2-0.1-0.3
								s-0.1-0.2-0.1-0.3l-0.1-0.2c0-0.1-0.1-0.3-0.1-0.4c-0.1-0.4,0-0.7,0-1c0.1-1,0.2-1.5,0.4-2.2c0.2-0.6,0.3-1.2,0.5-1.7
								s0.4-1.1,0.4-1.4c0,0,0-0.1,0,0c0,0,0,0,0,0.1s0,0.2,0,0.3c0,0.2,0.1,0.4,0.1,0.6c0.1,0.1,0.1,0.1,0.2,0.3
								c0.2,0.3,0.4,0.6,0.7,0.8c0.3,0.2,0.7,0.4,0.9,0.4c0.2,0.1,0.5,0.1,0.7,0.1s0.5-0.1,0.7-0.2l0.1-0.1c0.4-0.2,0.3-0.2,0.3-0.2
								c-0.1,0-0.3,0.2-0.5,0.4l-1.3,1.1c-0.9,0.7-1.8,1.4-2.8,2.1c-1,0.7-2,1.3-3.4,1.9c-0.4,0.1-0.7,0.2-1.2,0.3s-1.1,0.1-1.8-0.2
								c-0.2-0.1-0.3-0.2-0.5-0.3s-0.4-0.4-0.6-0.7s-0.2-0.6-0.3-0.9c0-0.2,0-0.3,0-0.4c0-0.1,0-0.2,0-0.3c0-0.2,0.1-0.3,0.2-0.5
								c0.1-0.1,0.1-0.3,0.2-0.3c0.1-0.2,0.2-0.4,0.3-0.5c0.9-1.1,1.8-1.8,2.7-2.5c1.8-1.5,3.5-2.8,5.2-4.3c0.8-0.8,1.6-1.5,2.3-2.4
								c0.3-0.4,0.7-0.8,0.9-1.2c0.3-0.4,0.5-0.9,0.4-1c0-0.1,0,0-0.1-0.1s-0.3-0.3-0.5-0.4c-0.4-0.3-0.9-0.6-1.4-0.9
								c-1-0.6-1.9-1.1-2.9-1.6c-2-1.1-4-2.2-6-3.3c-8-4.5-15.2-10.8-20.7-18.5l-5.5-7.6l9.1,2.9c4.1,1.3,8.1,2.7,12.1,4.3
								c4,1.5,7.9,3.2,11.7,4.8l5.7,2.5l5.5,2.5C107.2,161.2,110.7,162.9,114,164.4z M113.4,164.7l-12.7-3.2l-6-1.5l-5.9-1.6
								c-3.8-1.1-7.6-2.1-11.3-3.3c-3.7-1.1-7.3-2.4-10.9-3.8l3.6-4.7c4.6,7.2,10.9,13.3,17.7,19c1.7,1.4,3.5,2.8,5.3,4.1l2.7,2
								c0.5,0.3,0.9,0.7,1.4,1.1c0.2,0.2,0.5,0.4,0.7,0.7c0.3,0.3,0.6,1,0.5,1.4c-0.1,1-0.4,1.5-0.8,2.1c-0.3,0.5-0.7,1-1.1,1.4
								c-0.8,0.9-1.6,1.7-2.4,2.5c-1.6,1.6-3.3,3.2-4.8,4.8c-0.7,0.8-1.5,1.7-1.9,2.4c0,0.1-0.1,0.2-0.1,0.2l0,0c0,0,0,0,0-0.1
								s0-0.1,0-0.2c0-0.2-0.1-0.3-0.1-0.5c0-0.1-0.3-0.3-0.3-0.4l-0.1-0.1c-0.2-0.1-0.2-0.1-0.1-0.1s0.2-0.1,0.4-0.2
								c0.7-0.4,1.5-1.1,2.2-1.9c0.7-0.7,1.5-1.5,2.2-2.3c0.4-0.4,0.8-0.8,1.2-1.2c0.2-0.2,0.4-0.4,0.8-0.7c0.1-0.1,0.2-0.2,0.7-0.4
								c0.1,0,0,0,0.2-0.1s0.5-0.1,0.8-0.2c0.3,0,0.5,0,0.8,0.1c0.2,0,0.6,0.2,0.9,0.4s0.6,0.5,0.7,0.8c0.1,0.2,0.1,0.3,0.2,0.4
								c0.1,0.2,0.1,0.5,0.2,0.7c0,0.2,0,0.4,0,0.5v0.3c0,0.2,0,0.3-0.1,0.4c-0.2,0.8-0.3,1.3-0.4,1.9c-0.1,0.5-0.3,1.1-0.4,1.5
								c-0.1,0.5-0.2,1-0.2,1.2c0,0,0,0,0-0.1c0,0,0-0.1,0-0.2v-0.1c0-0.1,0-0.1-0.1-0.2c0-0.1-0.1-0.1-0.1-0.2l-0.2-0.2
								c-0.2-0.2-0.3-0.4-0.6-0.5c-0.2-0.2-0.5-0.3-0.8-0.3c-0.2-0.1-0.4-0.1-0.6-0.1s-0.2,0-0.4,0c-0.1,0-0.2,0.1-0.2,0.1
								c-0.1,0-0.2,0.1-0.2,0.1l0,0l0.2-0.2c0.1-0.1,0.3-0.3,0.4-0.5c0.3-0.4,0.6-0.8,0.9-1.2c2.6-3.5,5.5-7.3,8.9-10.5
								c1.6-1.5,3.2-3.1,4.7-4.7c0.8-0.8,1.5-1.6,2.3-2.4l1.1-1.3l0.6-0.6l0.3-0.3l0.1-0.2l0.1-0.1l0,0
								C113.4,164.4,113.4,164.6,113.4,164.7z"/>
						</g>
					</g>
					<g>
						
							<line fill="none" stroke="#999999" stroke-width="1.4805" stroke-miterlimit="10" x1="83.8" y1="164.9" x2="112.6" y2="164.9"/>
						
							<line fill="none" stroke="#999999" stroke-width="1.4805" stroke-miterlimit="10" x1="84.5" y1="165.4" x2="112.6" y2="165.4"/>
						
							<line fill="none" stroke="#999999" stroke-width="1.4805" stroke-miterlimit="10" x1="112.6" y1="166.1" x2="85.3" y2="166.1"/>
						
							<line fill="none" stroke="#999999" stroke-width="1.4805" stroke-miterlimit="10" x1="112.4" y1="166.6" x2="86.1" y2="166.6"/>
						<line fill="none" stroke="#999999" stroke-width="1.4805" stroke-miterlimit="10" x1="86.9" y1="167.2" x2="112" y2="167.2"/>
						
							<line fill="none" stroke="#999999" stroke-width="1.4805" stroke-miterlimit="10" x1="111.7" y1="167.8" x2="87.7" y2="167.8"/>
						
							<line fill="none" stroke="#999999" stroke-width="1.4805" stroke-miterlimit="10" x1="111.3" y1="168.2" x2="88.6" y2="168.2"/>
						
							<line fill="none" stroke="#999999" stroke-width="1.4805" stroke-miterlimit="10" x1="110.8" y1="168.9" x2="89.4" y2="168.9"/>
						
							<line fill="none" stroke="#999999" stroke-width="1.4805" stroke-miterlimit="10" x1="110.4" y1="169.4" x2="90.3" y2="169.4"/>
						<line fill="none" stroke="#999999" stroke-width="1.4805" stroke-miterlimit="10" x1="110" y1="170.1" x2="91.2" y2="170.1"/>
						
							<line fill="none" stroke="#999999" stroke-width="1.4805" stroke-miterlimit="10" x1="109.6" y1="170.6" x2="92.1" y2="170.6"/>
						<line fill="none" stroke="#999999" stroke-width="1.4805" stroke-miterlimit="10" x1="109.1" y1="171.2" x2="93" y2="171.2"/>
						
							<line fill="none" stroke="#999999" stroke-width="1.4805" stroke-miterlimit="10" x1="108.7" y1="171.8" x2="93.9" y2="171.8"/>
						
							<line fill="none" stroke="#999999" stroke-width="1.4805" stroke-miterlimit="10" x1="108.2" y1="172.2" x2="94.8" y2="172.2"/>
						
							<line fill="none" stroke="#999999" stroke-width="1.4805" stroke-miterlimit="10" x1="107.7" y1="172.9" x2="95.6" y2="172.9"/>
						
							<line fill="none" stroke="#999999" stroke-width="1.4805" stroke-miterlimit="10" x1="107.2" y1="173.4" x2="96.4" y2="173.4"/>
						
							<line fill="none" stroke="#999999" stroke-width="1.4805" stroke-miterlimit="10" x1="106.8" y1="173.9" x2="97.1" y2="173.9"/>
						
							<line fill="none" stroke="#999999" stroke-width="1.4805" stroke-miterlimit="10" x1="106.3" y1="174.6" x2="97.5" y2="174.6"/>
						
							<line fill="none" stroke="#999999" stroke-width="1.4805" stroke-miterlimit="10" x1="105.8" y1="175.2" x2="97.6" y2="175.2"/>
						
							<line fill="none" stroke="#999999" stroke-width="1.4805" stroke-miterlimit="10" x1="105.3" y1="175.7" x2="97.4" y2="175.7"/>
						
							<line fill="none" stroke="#999999" stroke-width="1.4805" stroke-miterlimit="10" x1="104.8" y1="176.2" x2="97.1" y2="176.2"/>
						
							<line fill="none" stroke="#999999" stroke-width="1.4805" stroke-miterlimit="10" x1="104.3" y1="176.9" x2="96.8" y2="176.9"/>
						
							<line fill="none" stroke="#999999" stroke-width="1.4805" stroke-miterlimit="10" x1="103.8" y1="177.4" x2="96.3" y2="177.4"/>
						
							<line fill="none" stroke="#999999" stroke-width="1.4805" stroke-miterlimit="10" x1="103.3" y1="177.9" x2="95.8" y2="177.9"/>
						
							<line fill="none" stroke="#999999" stroke-width="1.4805" stroke-miterlimit="10" x1="102.9" y1="178.6" x2="95.3" y2="178.6"/>
						
							<line fill="none" stroke="#999999" stroke-width="1.4805" stroke-miterlimit="10" x1="102.4" y1="179.2" x2="94.8" y2="179.2"/>
						<line fill="none" stroke="#999999" stroke-width="1.4805" stroke-miterlimit="10" x1="102" y1="179.7" x2="94.2" y2="179.7"/>
						
							<line fill="none" stroke="#999999" stroke-width="1.4805" stroke-miterlimit="10" x1="101.6" y1="180.2" x2="93.6" y2="180.2"/>
						<line fill="none" stroke="#999999" stroke-width="1.4805" stroke-miterlimit="10" x1="101.1" y1="180.9" x2="93" y2="180.9"/>
						
							<line fill="none" stroke="#999999" stroke-width="1.4805" stroke-miterlimit="10" x1="100.7" y1="181.4" x2="92.4" y2="181.4"/>
						
							<line fill="none" stroke="#999999" stroke-width="1.4805" stroke-miterlimit="10" x1="100.3" y1="181.9" x2="91.8" y2="181.9"/>
						
							<line fill="none" stroke="#999999" stroke-width="1.4805" stroke-miterlimit="10" x1="99.9" y1="182.6" x2="91.1" y2="182.6"/>
						
							<line fill="none" stroke="#999999" stroke-width="1.4805" stroke-miterlimit="10" x1="99.5" y1="183.1" x2="95.5" y2="183.1"/>
						
							<line fill="none" stroke="#999999" stroke-width="1.4805" stroke-miterlimit="10" x1="90.5" y1="183.1" x2="94.7" y2="183.1"/>
						
							<line fill="none" stroke="#999999" stroke-width="1.4805" stroke-miterlimit="10" x1="99.1" y1="183.7" x2="95.3" y2="183.7"/>
						
							<line fill="none" stroke="#999999" stroke-width="1.4805" stroke-miterlimit="10" x1="89.9" y1="183.7" x2="94.1" y2="183.7"/>
						
							<line fill="none" stroke="#999999" stroke-width="1.4805" stroke-miterlimit="10" x1="89.3" y1="184.2" x2="93.5" y2="184.2"/>
						
							<line fill="none" stroke="#999999" stroke-width="1.4805" stroke-miterlimit="10" x1="98.7" y1="184.2" x2="95.2" y2="184.2"/>
						
							<line fill="none" stroke="#999999" stroke-width="1.4805" stroke-miterlimit="10" x1="88.7" y1="184.8" x2="92.9" y2="184.8"/>
						<line fill="none" stroke="#999999" stroke-width="1.4805" stroke-miterlimit="10" x1="98.3" y1="184.8" x2="95" y2="184.8"/>
						
							<line fill="none" stroke="#999999" stroke-width="1.4805" stroke-miterlimit="10" x1="88.1" y1="185.4" x2="92.3" y2="185.4"/>
						
							<line fill="none" stroke="#999999" stroke-width="1.4805" stroke-miterlimit="10" x1="97.9" y1="185.4" x2="94.8" y2="185.4"/>
						
							<line fill="none" stroke="#999999" stroke-width="1.4805" stroke-miterlimit="10" x1="87.5" y1="185.9" x2="91.6" y2="185.9"/>
						
							<line fill="none" stroke="#999999" stroke-width="1.4805" stroke-miterlimit="10" x1="97.5" y1="185.9" x2="94.7" y2="185.9"/>
						
							<line fill="none" stroke="#999999" stroke-width="1.4805" stroke-miterlimit="10" x1="97.1" y1="186.6" x2="94.5" y2="186.6"/>
						<line fill="none" stroke="#999999" stroke-width="1.4805" stroke-miterlimit="10" x1="87" y1="186.6" x2="91" y2="186.6"/>
						
							<line fill="none" stroke="#999999" stroke-width="1.4805" stroke-miterlimit="10" x1="86.5" y1="187.1" x2="90.2" y2="187.1"/>
						
							<line fill="none" stroke="#999999" stroke-width="1.4805" stroke-miterlimit="10" x1="96.6" y1="187.1" x2="94.4" y2="187.1"/>
						
							<line fill="none" stroke="#999999" stroke-width="1.4805" stroke-miterlimit="10" x1="86.2" y1="187.7" x2="89.5" y2="187.7"/>
						
							<line fill="none" stroke="#999999" stroke-width="1.4805" stroke-miterlimit="10" x1="96.2" y1="187.7" x2="94.3" y2="187.7"/>
						<line fill="none" stroke="#999999" stroke-width="1.4805" stroke-miterlimit="10" x1="86" y1="188.2" x2="88.5" y2="188.2"/>
						
							<line fill="none" stroke="#999999" stroke-width="1.4805" stroke-miterlimit="10" x1="95.7" y1="188.2" x2="94.3" y2="188.2"/>
					</g>
				</g>
				<g>
					<g>
						<path fill="#00CCCC" d="M60.8,105.9L60.8,105.9c4.1-10.2,14-17.4,25.4-17.4c15.2,0,27.5,12.7,27.5,28.3c0,0.9,0,1.7-0.1,2.5
							l0,0l0,0c-0.1,0.9-0.2,1.8-0.4,2.7c-1.9,16.5,5,21,3.6,31.8c-1.9,14-10,20.4-16.4,19.2c-4.3-0.8-26.4-15.4-37.4-31.1
							S60.8,105.9,60.8,105.9z"/>
						<path fill="#999999" d="M60.6,105.8c-0.3,0.3-0.1,0.1-0.1,0.1l0,0l0,0L60.6,105.8L60.6,105.8l0.1-0.4l0.3-0.6
							c0.2-0.4,0.3-0.8,0.5-1.1c0.4-0.7,0.7-1.5,1.2-2.2l0.6-1.1l0.7-1c0.4-0.7,1-1.3,1.5-2c2.1-2.6,4.7-4.9,7.6-6.7
							c5.8-3.7,13.3-5.2,20.3-3.6c7.1,1.6,13.4,6.1,17.1,12.3c3.8,6.1,5,13.4,4.1,20.2l-0.9-1.3l0,0l1.1,0.3l-0.2,1
							c-0.6,3.1-0.9,6-0.9,9.1s0.6,6.1,1.3,9c0.8,2.9,2,5.9,2.7,9c0.3,1.6,0.6,3.2,0.6,4.9c0,0.8,0,1.7-0.1,2.5l-0.3,2.4
							c-0.5,3.2-1.3,6.5-2.8,9.5c-1.6,3-3.7,6-7,7.9c-1.6,1-3.5,1.7-5.5,1.9c-1,0.1-2,0.1-3.1-0.1l-0.8-0.2l-0.4-0.1l-0.3-0.1
							l-1.3-0.5c-3.1-1.5-5.8-3.1-8.5-4.9c-5.4-3.5-10.4-7.4-15.1-11.8c-2.3-2.2-4.6-4.5-6.7-6.9s-4.1-5-5.8-7.8
							c-1.7-2.9-3.1-6.1-3.7-9.3s-0.9-6.5-0.7-9.7c0.2-3.2,0.7-6.3,1.4-9.4c0.3-1.5,0.7-3.1,1.2-4.6c0.2-0.8,0.5-1.5,0.7-2.2
							c0.1-0.4,0.3-0.7,0.4-1.1l0.2-0.6l0.1-0.3C60.4,106.1,60.5,105.9,60.6,105.8z M60.9,106.2c0,0.1,0.1,0,0,0.1l-0.1,0.3
							l-0.2,0.5c-0.1,0.4-0.3,0.7-0.4,1.1c-0.2,0.7-0.4,1.5-0.6,2.2c-0.4,1.5-0.7,3-0.9,4.5c-0.4,3.1-0.4,6.2-0.1,9.2
							s1.1,5.9,2.2,8.7l0.9,2c0.3,0.7,0.7,1.3,1.1,1.9l0.5,0.9c0.2,0.3,0.4,0.6,0.6,0.9l1.2,1.7c7.5,9.3,16.9,17.3,26.7,24.4
							c2.5,1.7,5,3.4,7.5,4.8l0.9,0.4l0.2,0.1h0.1c0.1,0,0.2,0.1,0.3,0.1c0.4,0.1,1,0.2,1.5,0.1c1.1,0,2.2-0.4,3.3-0.9
							c2.2-1.1,4.1-3.2,5.6-5.6c1.5-2.4,2.6-5.1,3.4-8l0.5-2.2c0.1-0.7,0.2-1.4,0.3-2.2c0.1-1.4,0.1-2.9-0.1-4.4
							c-0.4-3-1.4-5.9-2.1-9c-1.6-6.2-1.6-12.7-0.9-18.9l0.9,1.3l0,0l-0.9-0.2V119c0.2-6.4-2-12.5-5.7-17.3
							c-3.6-4.8-8.7-8.3-14.5-10c-5.7-1.7-12.2-1.7-18,0.8c-0.7,0.3-1.5,0.6-2.1,1c-0.7,0.4-1.4,0.8-2,1.2c-0.7,0.4-1.3,1-1.9,1.4
							c-0.6,0.5-1.2,1.1-1.8,1.6c-0.5,0.6-1.1,1.2-1.6,1.8l-0.8,1l-0.7,1c-0.5,0.7-0.8,1.4-1.2,2.1c-0.2,0.4-0.4,0.7-0.5,1.1
							l-0.3,0.6l-0.1,0.3l-0.1,0.1v0.1l0,0l0,0C61,106.2,61.2,105.9,60.9,106.2z"/>
					</g>
					<g>
						<path fill="#00CCCC" d="M100,172.7c-5.9-2.3-25.2-15.4-35.1-29.4c-10.6-15-2.2-34.4-2.2-34.4l0,0c4-9.8,13.5-16.7,24.6-16.7
							c14.7,0,26.6,12.1,26.6,27c0,0.8,0,1.6-0.1,2.4l0,0l0,0c-0.1,0.9-0.2,1.7-0.3,2.6c-1.8,15.8,4.9,20.1,3.5,30.4
							c-1.8,13.4-9.6,19.5-15.8,18.4C100.7,172.9,100.4,172.9,100,172.7"/>
						<path fill="#999999" d="M99.9,172.9c-3.3-1.1-6.2-2.9-9.2-4.7c-2.9-1.8-5.8-3.8-8.5-5.9c-2.8-2.1-5.4-4.3-8-6.6
							s-5-4.8-7.2-7.5c-1.2-1.3-2.2-2.7-3.2-4.1c-0.9-1.5-2-3-2.6-4.7c-1.5-3.3-2.3-6.8-2.5-10.3s0-7,0.7-10.4s1.6-6.7,2.9-10
							l0.2-0.4l0.4,0.1l0,0l-0.6,0.3c1.3-3,3-5.7,5.2-8.1c2.2-2.4,4.7-4.4,7.6-6c5.7-3.1,12.6-4.1,19-2.6c3.2,0.7,6.3,2.1,9.1,3.9
							c2.8,1.8,5.2,4.2,7.1,7c3.8,5.4,5.8,12.3,5.2,18.9l-1.2-1.7l0,0l1.4,0.3l-0.2,1.4c-0.2,1.2-0.4,2.6-0.4,3.8
							c-0.1,1.2-0.2,2.4-0.2,3.7c0,2.5,0.2,4.9,0.6,7.3c0.5,2.4,1.2,4.8,1.9,7.3c0.7,2.5,1.2,5.2,1.1,7.9c0,0.3,0,0.7,0,1l-0.1,1
							c-0.1,0.7-0.2,1.3-0.3,2c-0.2,1.3-0.6,2.6-0.9,3.8c-0.8,2.5-1.9,5-3.4,7.2s-3.5,4.1-5.9,5.3
							C105.2,173.4,102.4,173.9,99.9,172.9l0.1-0.3c2.4,0.7,5,0.1,7.1-1.2s3.8-3.2,5-5.3c1.3-2.1,2.2-4.4,2.7-6.8
							c0.5-2.4,1-4.9,0.9-7.3c0-4.8-2.4-9.4-3.4-14.7c-0.6-2.6-0.8-5.3-0.8-7.9v-2c0-0.7,0.1-1.3,0.2-2c0.1-1.4,0.3-2.5,0.5-3.9
							l1.2,1.8l0,0l-1.3-0.3l0.1-1.3c0.5-6-1-12.1-4.4-17.1c-3.3-5-8.5-8.8-14.4-10.3c-2.9-0.8-6-1.2-9.1-0.9s-6.1,1.1-8.9,2.4
							c-2.8,1.4-5.3,3.2-7.4,5.5s-3.8,5-4.9,7.9l-0.2,0.4l-0.4-0.1l0,0l0.5-0.3c-1.2,3.1-2,6.5-2.4,9.8s-0.4,6.7,0,10l0.4,2.5
							l0.6,2.4c0.2,0.8,0.5,1.5,0.8,2.3c0.1,0.4,0.3,0.8,0.4,1.1l0.5,1.1c0.6,1.5,1.6,2.8,2.4,4.2c1,1.3,2,2.7,3.1,4
							c2.1,2.6,4.5,5,6.9,7.4s4.9,4.6,7.5,6.8s5.3,4.3,8,6.3s5.5,4,8.6,5.5L99.9,172.9z"/>
					</g>
					<g>
						<path fill="#00CCCC" d="M99.4,172.7c-6.1-2.3-26.1-15.7-36.3-29.9c-11-15.2-2.3-35-2.3-35l0,0c4.1-10,14-17,25.4-17
							c15.2,0,27.5,12.3,27.5,27.5c0,0.8,0,1.7-0.1,2.5l0,0l0,0c-0.1,0.9-0.2,1.7-0.4,2.6c-1.9,16.1,5,20.5,3.6,31
							c-1.9,13.7-10,19.8-16.4,18.7C100.2,172.9,99.8,172.9,99.4,172.7"/>
						<path fill="#999999" d="M99.4,172.7c-3.3-1.3-6.3-3-9.3-4.9s-5.9-3.9-8.7-6c-2.8-2.1-5.6-4.3-8.2-6.7
							c-2.6-2.3-5.1-4.8-7.5-7.5c-0.6-0.7-1.2-1.3-1.7-2l-1.7-2.1c-0.5-0.7-1-1.5-1.5-2.3c-0.5-0.7-0.9-1.6-1.3-2.4
							c-1.6-3.3-2.7-6.8-3-10.4c-0.4-3.6-0.3-7.2,0.3-10.8c0.5-3.6,1.4-7,2.8-10.5l0.4-1l1.2,0.2l0,0l-1.6,0.8
							c1.3-3.2,3.2-6.1,5.5-8.6s5.1-4.6,8.1-6.2c3-1.6,6.4-2.6,9.8-2.9c3.4-0.4,6.9-0.1,10.2,0.7c3.3,0.8,6.5,2.2,9.3,4.2
							c2.8,1.9,5.3,4.4,7.2,7.2c3.9,5.6,5.8,12.6,5.1,19.4l-0.9-1.3l0,0l1.1,0.3l-0.2,1.1c-0.2,1.2-0.4,2.6-0.5,3.8
							c-0.2,1.2-0.2,2.5-0.2,3.8c0,2.5,0.2,5.1,0.7,7.6s1.2,5,1.9,7.5c0.7,2.5,1.2,5.3,1.2,8c0,0.7-0.1,1.4-0.1,2
							c-0.1,0.7-0.2,1.3-0.3,2c-0.2,1.3-0.6,2.6-1,3.9c-0.8,2.5-1.9,5-3.4,7.2s-3.5,4.1-5.9,5.3C104.7,173.2,101.8,173.7,99.4,172.7
							c2.5,0.8,5.2,0.2,7.4-1.1c2.2-1.3,4-3.2,5.4-5.4c2.7-4.3,3.9-9.6,4-14.6c0-5.1-2.5-9.8-3.6-15.1c-0.6-2.6-0.9-5.3-0.9-8
							c0-1.3,0-2.7,0.2-4c0.1-1.4,0.3-2.6,0.4-3.9l0.9,1.4l0,0l-1-0.2l0.1-1.1c0.5-6.2-1.3-12.5-4.9-17.5c-1.8-2.5-4-4.7-6.6-6.4
							s-5.4-3-8.4-3.7c-6-1.4-12.5-0.8-18,2c-2.7,1.4-5.3,3.3-7.4,5.5c-2.1,2.3-3.8,4.9-5,7.7l-0.5,1.1l-1.1-0.3l0,0l1.6-0.8
							c-1.3,3-2.2,6.4-2.7,9.8s-0.7,6.8-0.4,10.1c0.3,3.4,1.2,6.7,2.6,9.7c0.3,0.8,0.7,1.5,1.2,2.2c0.4,0.7,0.9,1.4,1.3,2.1
							c1,1.4,2,2.8,3.2,4.1c2.2,2.7,4.6,5.2,7.1,7.6c2.5,2.4,5.1,4.8,7.8,7c2.7,2.2,5.5,4.3,8.3,6.3
							C93.3,169.2,96.2,171.2,99.4,172.7z"/>
					</g>
					<g>
						
							<line fill="none" stroke="#999999" stroke-width="1.4805" stroke-miterlimit="10" x1="113.4" y1="164.9" x2="86.7" y2="164.9"/>
						
							<line fill="none" stroke="#999999" stroke-width="1.4805" stroke-miterlimit="10" x1="87.5" y1="165.4" x2="113.1" y2="165.4"/>
						
							<line fill="none" stroke="#999999" stroke-width="1.4805" stroke-miterlimit="10" x1="88.3" y1="166.1" x2="112.7" y2="166.1"/>
						
							<line fill="none" stroke="#999999" stroke-width="1.4805" stroke-miterlimit="10" x1="89.1" y1="166.6" x2="112.3" y2="166.6"/>
						
							<line fill="none" stroke="#999999" stroke-width="1.4805" stroke-miterlimit="10" x1="89.9" y1="167.2" x2="111.9" y2="167.2"/>
						
							<line fill="none" stroke="#999999" stroke-width="1.4805" stroke-miterlimit="10" x1="90.8" y1="167.8" x2="111.5" y2="167.8"/>
						<line fill="none" stroke="#999999" stroke-width="1.4805" stroke-miterlimit="10" x1="91.6" y1="168.2" x2="111" y2="168.2"/>
						
							<line fill="none" stroke="#999999" stroke-width="1.4805" stroke-miterlimit="10" x1="92.5" y1="168.9" x2="110.5" y2="168.9"/>
						<line fill="none" stroke="#999999" stroke-width="1.4805" stroke-miterlimit="10" x1="93.4" y1="169.4" x2="110" y2="169.4"/>
						
							<line fill="none" stroke="#999999" stroke-width="1.4805" stroke-miterlimit="10" x1="94.3" y1="170.1" x2="109.4" y2="170.1"/>
						
							<line fill="none" stroke="#999999" stroke-width="1.4805" stroke-miterlimit="10" x1="95.3" y1="170.6" x2="108.7" y2="170.6"/>
						
							<line fill="none" stroke="#999999" stroke-width="1.4805" stroke-miterlimit="10" x1="96.3" y1="171.2" x2="107.9" y2="171.2"/>
						<line fill="none" stroke="#999999" stroke-width="1.4805" stroke-miterlimit="10" x1="97.3" y1="171.8" x2="107" y2="171.8"/>
						
							<line fill="none" stroke="#999999" stroke-width="1.4805" stroke-miterlimit="10" x1="98.5" y1="172.2" x2="105.9" y2="172.2"/>
					</g>
				</g>
				<g>
					<path fill="#00CCCC" d="M97.9,125.2c0,0-11.3,1.2-12.3,8.5c-1.3,9,14.5,7.9,16.2,23.8c1.6,14.6-4.1,27.2-24.6,44.8"/>
					<path fill="#999999" d="M97.9,125.2c-2,0.5-4,1.2-5.8,2.1c-1.8,0.9-3.4,2.2-4.4,3.7c-0.5,0.8-0.8,1.6-0.9,2.5s0.1,1.7,0.4,2.4
						c0.6,1.3,2.1,2.2,3.8,3.2c1.7,1,3.6,2.1,5.4,3.4c1.8,1.3,3.6,3,5,5.1c1.4,2,2.3,4.3,2.8,6.7c0.3,1.2,0.4,2.4,0.5,3.5
						s0.2,2.2,0.2,3.3c0.1,4.4-0.7,9-2.3,13.1c-1.6,4.2-3.9,7.9-6.6,11.3c-2.7,3.4-5.7,6.4-8.8,9.2c-1.6,1.4-3.2,2.7-4.9,4
						c-1.6,1.3-3.4,2.5-5.1,3.7c5.7-6.1,11.3-12.3,15.6-19.1c2.1-3.4,3.9-7,5-10.7s1.6-7.5,1.4-11.4c-0.1-4-0.9-7.4-2.7-10.4
						c-0.9-1.5-2.1-2.8-3.5-4c-1.4-1.3-3-2.5-4.7-3.9c-0.8-0.7-1.7-1.5-2.5-2.5s-1.5-2.2-1.7-3.6c-0.1-0.3-0.1-0.7-0.1-1s0-0.7,0-1
						c0.1-0.6,0.2-1.2,0.4-1.8c0.3-1.2,0.9-2.3,1.7-3.2c0.7-0.9,1.7-1.6,2.6-2.2c1-0.6,2-1,3-1.3C93.8,125.6,95.9,125.2,97.9,125.2z
						"/>
				</g>
				<g>
					<path fill="#00CCCC" d="M80.8,200.4c6.8-5.3,22.8-21.7,22.5-39.2c-0.2-13-5.6-16.8-11.6-20.4c-2.4-1.5-8.4-3.7-5.1-10.1"/>
					<path fill="#999999" d="M80.7,200.4c5.2-4.8,9.7-10.1,13.8-15.8c2.1-2.8,4-5.8,5.4-9s2.4-6.6,2.7-10.1c0.2-1.7,0.2-3.5,0-5.2
						l-0.1-1.3l-0.2-1.3c-0.1-0.9-0.3-1.7-0.4-2.6c-0.4-1.7-0.9-3.3-1.6-4.8s-1.7-2.9-2.8-4.1c-2.3-2.4-5.3-4.3-8.3-6.1
						c-1.5-1-3-2.3-3.6-4.1c-0.6-1.9,0-3.7,0.9-5.2l0.1,0.1c-0.7,1.6-1,3.4-0.4,5c0.6,1.5,2,2.6,3.5,3.4l2.3,1.2
						c0.8,0.4,1.5,0.9,2.3,1.4c1.5,0.9,3,2,4.3,3.4c1.3,1.3,2.3,2.9,3.1,4.5c0.8,1.7,1.2,3.4,1.6,5.2c0.3,1.8,0.5,3.6,0.5,5.4
						c0.1,1.8-0.1,3.6-0.4,5.3c-0.6,3.5-1.7,6.9-3.1,10.2s-2.9,6.5-4.9,9.5c-1.9,3-4.2,5.7-6.7,8.3c-2.5,2.5-5.1,4.9-8.1,6.9
						L80.7,200.4z"/>
				</g>
				<g>
					<path fill="#00CCCC" d="M62.8,103.9c0,0,5.5-13.4,37.8-20.2"/>
					<path fill="#999999" d="M62.8,103.9c0.5-1.8,1.6-3.4,2.7-4.9c1.2-1.5,2.5-2.8,4-4c2.9-2.4,6.1-4.4,9.5-5.9
						c1.7-0.8,3.5-1.4,5.2-2.1c1.8-0.6,3.6-1.1,5.4-1.6c1.8-0.4,3.6-0.8,5.5-1.1c1.8-0.2,3.7-0.4,5.5-0.5c-1.7,0.7-3.4,1.3-5.2,1.9
						c-1.7,0.6-3.4,1.3-5.1,1.9l-5,2l-2.5,1.1c-0.8,0.3-1.7,0.7-2.5,1.1c-3.3,1.5-6.4,3.2-9.4,5.1c-1.5,1-2.9,2-4.3,3.2
						C65.2,101.1,63.9,102.4,62.8,103.9z"/>
				</g>
				<g>
					<path fill="#00CCCC" d="M62.8,101.9c0,0,8.4-19.4,42.8-12.7"/>
					<path fill="#999999" d="M62.8,101.9c1.6-3.7,4.5-6.8,7.8-9.1s7.2-3.8,11.1-4.7c4-1,8-1,12-0.9c2,0.2,4,0.4,6,0.7
						c2,0.4,3.9,0.8,5.9,1.3c-2-0.1-4-0.4-5.9-0.6l-5.9-0.2c-3.9,0.1-7.9,0.3-11.7,1.2c-3.8,0.8-7.5,2.2-10.8,4.2
						c-0.8,0.6-1.7,1-2.4,1.7l-1.2,0.9c-0.4,0.3-0.7,0.7-1.1,1C65.1,98.8,63.8,100.2,62.8,101.9z"/>
				</g>
			</g>
			<g>
				<g>
					<g>
						<path fill="#FFFFFF" d="M116.8,154.2L116.8,154.2c-2.7,13.4-9,14.6-4.4,17s33.7-3.4,44-24.7c7-14.4,6.6-26.4,6.3-31.7
							c0-0.7-0.1-1.4-0.1-2.1c-0.1-0.7-0.1-1.1-0.1-1.1l0,0C160.4,97.8,148.4,87,133.9,87C118,87,105,99.9,105,115.9
							c0,4,0.8,7.8,2.3,11.3l0,0c0,0,0.2,3.1,7.5,15.4C117.1,146.4,117.3,150.7,116.8,154.2z"/>
						<g>
							<path fill="#999999" d="M117.1,154.4C117.1,154.4,117,154.4,117.1,154.4L117.1,154.4c-0.4,2.2-1,4.4-1.8,6.5
								c-0.7,2.2-1.7,4.2-2.8,6.3c-0.2,0.5-0.5,1-0.7,1.5s-0.2,0.9-0.1,1s0.4,0.4,0.9,0.6c0.1,0,0.2,0.1,0.3,0.1l0.3,0.1
								c0.2,0,0.4,0.1,0.7,0.1c2,0.1,4.2-0.3,6.3-0.9c4.2-1.1,8.3-2.7,12.2-4.6c3.9-1.9,7.6-4,11-6.6c3.4-2.5,6.5-5.5,9.1-8.9
								c1.3-1.7,2.4-3.5,3.4-5.5c1-1.9,1.9-4,2.8-6c1.6-4.1,2.6-8.5,3.1-12.9c0.2-2.2,0.3-4.4,0.2-6.7c-0.1-2.2-0.2-4.5-0.6-6.6
								l1.9,0.7l0,0l-1.5,1.4l-0.4-2.1c-0.7-3.9-2.4-7.5-4.6-10.6s-5.2-5.6-8.4-7.6c-6.4-3.9-14.4-4.8-21.4-2.7s-12.9,7.2-16.2,13.7
								c-1.7,3.2-2.6,6.9-2.9,10.5c-0.3,3.7,0.1,7.5,1.3,11.1l1.4,4.4l-3.9-1.8l0,0l2.6-2c0-0.1,0-0.1,0-0.1l0,0v0.1
								c0,0.1,0,0.2,0.1,0.4c0,0.2,0.1,0.5,0.2,0.8c0.1,0.5,0.3,1.1,0.5,1.7c0.4,1.1,0.8,2.2,1.2,3.4c0.9,2.2,1.9,4.4,3,6.6
								c0.5,1.1,1.1,2.1,1.6,3.3s0.9,2.4,1.1,3.6c0.2,1.2,0.3,2.5,0.3,3.7c0,0.6,0,1.2,0,1.9C117.3,153.2,117.2,153.7,117.1,154.4z
								 M116.6,154.2c0-0.5,0.1-1.1,0.1-1.7c0-0.6,0-1.2,0-1.8c-0.1-1.2-0.2-2.4-0.5-3.5s-0.7-2.3-1.3-3.3c-0.6-1-1.3-2-2-3
								c-1.3-2-2.7-4.1-4-6.2c-0.6-1.1-1.3-2.1-1.9-3.3c-0.3-0.6-0.6-1.1-0.9-1.7c-0.1-0.3-0.3-0.6-0.4-0.9
								c-0.1-0.2-0.1-0.3-0.2-0.5c0-0.1-0.1-0.2-0.1-0.3v-0.2c0-0.1,0-0.1,0-0.3l-0.3-2.8l2.9,0.8l0,0l-2.5,2.6
								c-2-3.9-3.2-8.3-3.2-12.8c-0.1-4.5,0.9-9,2.8-13.1s4.7-7.8,8.2-10.7s7.6-5,12-6.1c4.4-1.2,9-1.3,13.4-0.6s8.7,2.5,12.3,5
								c3.6,2.6,6.6,5.9,8.8,9.7c2.2,3.8,3.5,7.9,4,12.2l-1.9-0.7l0,0l1.7-1.4l0.2,2.1c0.2,2.4,0.2,4.6,0.2,6.9s-0.1,4.6-0.4,6.8
								c-0.5,4.6-1.3,9.1-2.6,13.5c-0.3,1.1-0.6,2.2-1,3.3s-0.7,2.2-1.2,3.3c-0.8,2.2-1.8,4.3-3,6.4c-2.4,4.1-5.6,7.8-9.3,10.8
								c-3.7,3-7.8,5.4-12.2,7.1c-4.4,1.8-9,2.9-13.6,3.3c-1.2,0.1-2.4,0.2-3.5,0.2c-1.2,0-2.4-0.1-3.7-0.4c-0.3-0.1-0.6-0.2-1-0.3
								l-0.5-0.2c-0.2-0.1-0.3-0.2-0.4-0.3c-0.5-0.4-1.2-0.8-1.5-1.7c-0.2-0.5-0.1-1-0.1-1.3c0.1-0.4,0.2-0.7,0.4-1
								c0.3-0.6,0.6-1,0.9-1.5c1.3-1.9,2.4-3.8,3.3-5.8c0.4-1,0.8-2.1,1.1-3.2C116,156.4,116.3,155.4,116.6,154.2L116.6,154.2
								L116.6,154.2z"/>
						</g>
					</g>
					<g>
						<path fill="#FFFFFF" d="M116.8,154.8L116.8,154.8c-2.7,13-9,14.2-4.4,16.5s33.7-3.3,44-24.1c7-14,6.6-25.7,6.3-30.9
							c0-0.7-0.1-1.4-0.1-2c-0.1-0.7-0.1-1-0.1-1l0,0c-2.1-13.6-14.1-24-28.6-24c-15.9,0-28.9,12.6-28.9,28.1c0,3.9,0.8,7.6,2.3,11
							l0,0c0,0,0.2,3,7.5,15C117.1,146.9,117.3,151.2,116.8,154.8z"/>
						<g>
							<path fill="#999999" d="M117,154.9C116.9,154.9,116.9,154.9,117,154.9L117,154.9c-0.9,4.3-2.6,8.5-5,12.3
								c-0.3,0.5-0.6,1-0.8,1.4c-0.2,0.5-0.4,1-0.1,1.5c0.2,0.4,0.7,0.7,1.2,1c0.2,0.1,0.5,0.2,0.7,0.3c0.3,0,0.5,0.1,0.8,0.1
								c2.2,0.2,4.4,0,6.6-0.4c4.3-0.8,8.6-2.2,12.6-3.9c4-1.8,7.9-4,11.3-6.7c1.7-1.3,3.4-2.8,4.9-4.4c1.5-1.6,2.9-3.2,4.1-5
								s2.3-3.7,3.1-5.7c0.9-2,1.7-4,2.4-6.1c1.4-4.2,2.3-8.4,2.7-12.8c0.2-2.2,0.3-4.4,0.3-6.5c0-2.2-0.1-4.4-0.4-6.5l1.8,0.7l0,0
								l-1.5,1.3l-0.3-2c-0.6-3.8-2.1-7.5-4.3-10.7c-2.1-3.2-5.1-5.9-8.3-7.9c-6.5-4.1-14.8-5.1-22.1-3.1c-3.7,1-7.2,2.7-10.2,5.1
								c-3,2.4-5.4,5.4-7.2,8.8c-1.8,3.4-2.8,7.1-3.1,11c-0.3,3.9,0.4,7.8,1.8,11.4l0.7,1.7l-1.7-0.7l0,0l1-0.8
								c0,0.1,0.1,0.5,0.2,0.7c0.1,0.3,0.2,0.5,0.2,0.8c0.2,0.5,0.4,1.1,0.6,1.6c0.4,1.1,0.9,2.2,1.4,3.2c1,2.1,2.1,4.2,3.3,6.3
								c0.6,1,1.2,2,1.8,3.1c0.5,1.1,0.9,2.3,1.2,3.4C117.3,149.9,117.3,152.4,117,154.9z M116.7,154.7c0.2-2.3,0.2-4.7-0.3-7
								c-0.3-1.1-0.7-2.2-1.2-3.3c-0.6-1-1.2-2-1.9-3c-1.3-2-2.5-4.1-3.7-6.2c-0.6-1.1-1.1-2.1-1.7-3.2c-0.3-0.5-0.5-1.1-0.7-1.7
								c-0.1-0.3-0.2-0.6-0.3-0.9c-0.1-0.3-0.2-0.6-0.3-1l-0.2-1.2l1.2,0.4l0,0l-1,1c-3.6-7.5-3.6-16.7,0.2-24.3
								c1.8-3.8,4.6-7.2,7.9-9.9c3.3-2.6,7.2-4.6,11.3-5.7c8.2-2.1,17.3-0.8,24.3,3.8c3.5,2.3,6.6,5.3,8.9,8.8s3.8,7.5,4.4,11.7
								l-1.8-0.7l0,0l1.6-1.3l0.2,2c0.3,2.4,0.3,4.6,0.4,6.8c0,2.3-0.1,4.5-0.4,6.8c-0.5,4.5-1.5,8.9-3,13.2
								c-0.8,2.1-1.6,4.2-2.6,6.2c-0.9,2-2.1,4-3.4,5.9c-2.6,3.7-5.9,6.9-9.5,9.6c-3.6,2.7-7.6,4.8-11.8,6.5
								c-4.2,1.7-8.5,2.9-12.9,3.6c-2.2,0.3-4.5,0.6-6.7,0.2c-0.3,0-0.6-0.1-0.8-0.2c-0.3-0.1-0.6-0.2-0.8-0.3
								c-0.5-0.3-1-0.6-1.3-1.1c-0.3-0.6-0.1-1.2,0.1-1.7s0.5-1,0.8-1.5c1.2-1.9,2.2-3.8,3-5.9C115.6,159.1,116.2,156.9,116.7,154.7
								L116.7,154.7L116.7,154.7z"/>
						</g>
					</g>
					<g>
						<path fill="#00CCCC" d="M117.6,155.1L117.6,155.1c-2.6,12.8-8.6,14-4.2,16.2c4.4,2.3,32.3-3.2,42.3-23.6
							c6.7-13.7,6.3-25.3,6.1-30.4c0-0.7-0.1-1.3-0.1-2c-0.1-0.7-0.1-1-0.1-1l0,0c-2-13.3-13.5-23.6-27.4-23.6
							c-15.3,0-27.7,12.4-27.7,27.6c0,3.8,0.8,7.5,2.2,10.8l0,0c0,0,0.2,3,7.2,14.7C117.8,147.4,118,151.6,117.6,155.1z"/>
						<g>
							<path fill="#999999" d="M117.6,155.1L117.6,155.1L117.6,155.1c-0.4,2.1-1,4.2-1.8,6.2s-1.8,3.9-2.9,5.8
								c-0.3,0.5-0.5,0.9-0.8,1.4c-0.2,0.5-0.4,1-0.2,1.5c0.2,0.4,0.7,0.8,1.1,1c0.5,0.3,1,0.4,1.5,0.5c2.1,0.3,4.3,0,6.4-0.4
								c8.4-1.6,16.5-5.2,23.3-10.4c3.4-2.6,6.4-5.7,8.8-9.3c1.2-1.8,2.2-3.7,3.1-5.6c0.9-2,1.7-4,2.4-6c1.4-4.1,2.3-8.3,2.8-12.6
								c0.4-4.3,0.4-8.6-0.1-12.9l0.3,0.1l0,0l-0.2,0.2v-0.3c-0.6-3.8-2-7.5-4.2-10.8c-2.1-3.3-5-6-8.2-8.1
								c-6.5-4.3-14.8-5.4-22.3-3.3c-3.7,1-7.2,2.9-10.2,5.3c-3,2.5-5.4,5.6-7.1,9.1c-3.4,6.9-3.7,15.3-0.7,22.5l0.2,0.5l-0.5-0.2
								l0,0l0.3-0.2c0.2,1.1,0.6,2.2,1.1,3.2c0.4,1.1,0.9,2.1,1.5,3.2c1,2.1,2.1,4.1,3.3,6.2c0.6,1,1.2,2,1.7,3.1s0.9,2.2,1.1,3.3
								C117.9,150.4,117.9,152.8,117.6,155.1z M117.5,155.1c0.3-2.3,0.2-4.7-0.3-6.9c-0.3-1.1-0.6-2.2-1.2-3.3c-0.5-1-1.2-2-1.8-3
								c-1.2-2-2.3-4-3.4-6.1c-0.5-1-1.1-2.1-1.5-3.2c-0.5-1.1-0.9-2.1-1.2-3.4l-0.1-0.4l0.4,0.1l0,0l-0.3,0.3
								c-3.2-7.2-3-15.9,0.5-23c1.7-3.6,4.2-6.8,7.2-9.3c3-2.6,6.6-4.4,10.5-5.5c7.6-2.1,16.2-0.9,22.8,3.5c3.3,2.2,6.2,5,8.3,8.3
								c2.1,3.3,3.5,7.1,4.1,11l-0.3-0.1l0,0l0.2-0.2v0.3c0.5,4.3,0.5,8.7,0,13c-0.4,4.3-1.3,8.6-2.7,12.7c-0.7,2.1-1.4,4.1-2.3,6.1
								s-1.9,3.9-3.1,5.7c-2.4,3.6-5.4,6.9-8.9,9.5c-1.7,1.3-3.5,2.6-5.4,3.7c-1.9,1.1-3.8,2.1-5.8,2.9c-4,1.7-8.2,3-12.5,3.7
								c-2.1,0.3-4.3,0.6-6.5,0.3c-0.5-0.1-1.1-0.2-1.6-0.5s-1-0.6-1.2-1.1c-0.2-0.6,0-1.2,0.2-1.6c0.2-0.5,0.5-1,0.8-1.4
								c1.1-1.8,2.1-3.7,2.9-5.8C116.5,159.2,117.1,157.2,117.5,155.1L117.5,155.1L117.5,155.1L117.5,155.1z"/>
						</g>
					</g>
					<g>
						
							<line fill="none" stroke="#999999" stroke-width="1.4805" stroke-miterlimit="10" x1="113.1" y1="164.9" x2="139.3" y2="164.9"/>
						
							<line fill="none" stroke="#999999" stroke-width="1.4805" stroke-miterlimit="10" x1="112.8" y1="165.4" x2="138.3" y2="165.4"/>
						
							<line fill="none" stroke="#999999" stroke-width="1.4805" stroke-miterlimit="10" x1="137.1" y1="166.1" x2="112.5" y2="166.1"/>
						
							<line fill="none" stroke="#999999" stroke-width="1.4805" stroke-miterlimit="10" x1="135.9" y1="166.6" x2="112.1" y2="166.6"/>
						
							<line fill="none" stroke="#999999" stroke-width="1.4805" stroke-miterlimit="10" x1="134.6" y1="167.2" x2="111.8" y2="167.2"/>
						
							<line fill="none" stroke="#999999" stroke-width="1.4805" stroke-miterlimit="10" x1="133.3" y1="167.8" x2="111.4" y2="167.8"/>
						
							<line fill="none" stroke="#999999" stroke-width="1.4805" stroke-miterlimit="10" x1="131.8" y1="168.2" x2="111.1" y2="168.2"/>
						
							<line fill="none" stroke="#999999" stroke-width="1.4805" stroke-miterlimit="10" x1="130.3" y1="168.9" x2="110.9" y2="168.9"/>
						
							<line fill="none" stroke="#999999" stroke-width="1.4805" stroke-miterlimit="10" x1="128.9" y1="169.4" x2="110.8" y2="169.4"/>
						
							<line fill="none" stroke="#999999" stroke-width="1.4805" stroke-miterlimit="10" x1="127" y1="170.1" x2="110.9" y2="170.1"/>
						
							<line fill="none" stroke="#999999" stroke-width="1.4805" stroke-miterlimit="10" x1="124.8" y1="170.6" x2="111.4" y2="170.6"/>
						
							<line fill="none" stroke="#999999" stroke-width="1.4805" stroke-miterlimit="10" x1="122.4" y1="171.2" x2="112.3" y2="171.2"/>
					</g>
				</g>
				<g>
					<path fill="#999999" d="M157.3,100.9c4.6,5.1,7,12.1,7,19.2s-2.4,14.1-5.9,20.2c-3.5,6.2-8.2,11.4-13.2,16.2
						c-5.1,4.8-10.8,8.9-16.8,12.4c-6.1,3.5-12.5,6.2-19.1,8.4c-3.3,1-6.7,1.9-10,2.7c-3.4,0.8-6.8,1.3-10.2,1.7
						c-3.4,0.4-6.9,0.7-10.3,0.8s-6.9,0.1-10.3,0c-6.8-0.4-13.7-1.1-20.3-2.9c6.8,0.4,13.5,0.4,20.2,0s13.3-1.2,19.9-2.5
						c6.5-1.3,13-2.9,19.2-5.2c6.2-2.2,12.3-4.9,17.9-8.2c5.7-3.2,11.1-7.1,16-11.4c4.9-4.3,9.4-9.2,13.1-14.5
						c1.8-2.7,3.3-5.6,4.6-8.5c1.2-3,2.1-6.1,2.4-9.4c0.4-3.2,0.2-6.5-0.5-9.8c-0.3-1.6-0.8-3.2-1.4-4.8
						C159,103.9,158.2,102.2,157.3,100.9z"/>
					<path fill="#999999" d="M157.3,100.9c3.3,4.7,5.1,10.3,5.6,16s-0.4,11.5-2.4,16.9s-5.1,10.3-8.7,14.8c-3.6,4.4-7.8,8.4-12.2,12
						c-9,7.1-19.3,12.5-30.2,15.9c-5.4,1.7-11,3-16.6,3.9s-11.3,1.4-17,1.5c5.7-0.4,11.3-1.1,16.9-2.2c5.6-1,11.1-2.5,16.4-4.3
						c10.7-3.6,20.8-8.9,29.6-16c4.4-3.5,8.5-7.4,12.1-11.7c1.8-2.2,3.4-4.4,4.9-6.8c1.4-2.4,2.8-4.9,3.8-7.5
						c2.1-5.2,3.1-10.8,2.7-16.5C161.9,111.2,160.3,105.7,157.3,100.9z"/>
				</g>
				<path fill="#999999" d="M137.1,123.7c1.9-1.2,3.9-2.1,6-2.9c2.1-0.7,4.4-1.2,6.8-1.3c2.3-0.1,4.8,0.3,7.2,1.4
					c0.6,0.3,1.2,0.6,1.7,1s1,0.8,1.5,1.2c1.1,1,1.8,2.5,2.1,4c0.5,2.9-0.3,5.4-1.3,7.6c-1,2.2-2.2,4.1-3.6,5.9
					c-2.8,3.5-6,6.7-9.7,9.2c2.3-3.8,4.7-7.4,6.7-11.1c1-1.8,2-3.7,2.6-5.6c0.7-1.8,1.1-3.7,0.8-5.1c-0.1-0.7-0.4-1.2-0.9-1.7
					l-1-0.8c-0.3-0.3-0.7-0.5-1.1-0.7c-1.5-0.9-3.4-1.4-5.4-1.6C145.8,122.6,141.5,123.1,137.1,123.7z"/>
				<g>
					<g>
						<path fill="#FFFFFF" d="M162.6,109.6c0,0-18.6,12.4-6.1,44.7C156.5,154.2,173.3,135.2,162.6,109.6z"/>
						<path fill="#999999" d="M162.5,109.9c0,0.2,0.2,0.1,0,0.3l-0.2,0.3c-0.2,0.2-0.3,0.4-0.4,0.6c-0.3,0.4-0.5,0.8-0.8,1.2
							s-0.5,0.8-0.8,1.3c-0.2,0.4-0.5,0.8-0.7,1.3l-0.7,1.3c-0.2,0.4-0.4,0.9-0.6,1.3c-0.4,0.8-0.7,1.7-1,2.6
							c-0.6,1.7-1.1,3.5-1.5,5.3c-0.1,0.5-0.2,0.9-0.3,1.4c-0.1,0.5-0.1,0.9-0.2,1.4c-0.2,0.9-0.4,1.8-0.5,2.8
							c-0.2,0.9-0.3,1.9-0.5,2.8l-0.3,2.9c-0.1,0.5-0.1,1-0.1,1.5v1.5c0,1,0.1,2,0.2,3c0.3,2,0.9,3.9,1.5,5.8
							c0.8,1.8,1.7,3.6,2.6,5.4l-2.8-0.5c0.9-1.5,1.8-3.3,2.5-5l1.1-2.6c0.3-0.9,0.7-1.7,1-2.6c1.3-3.5,2-7.1,2.6-10.7l0.3-1.4
							c0-0.5,0.1-0.9,0.1-1.4l0.2-1.4c0.1-0.5,0.1-0.9,0.1-1.4c0.1-1.8,0.2-3.7,0.1-5.6c-0.1-0.9,0.1-1.9-0.1-2.8
							c-0.1-0.9-0.2-1.9-0.2-2.9c0-0.5-0.1-1-0.1-1.3l-0.1-1.3C162.8,112.1,162.7,111.1,162.5,109.9z M162.6,109.4
							c0.5,0.7,1,1.5,1.7,2.5c0.6,0.9,1.3,2.1,1.6,3c0.8,1.9,1.6,3.8,2,5.9c1.1,4,1.3,8.3,0.8,12.6c-0.5,4.2-1.8,8.3-3.7,12
							c-0.5,0.9-1,1.9-1.5,2.8c-0.5,0.9-1.1,1.8-1.7,2.6c-1.2,1.7-2.6,3.2-4.2,4.7l-2.3,2.2l-0.5-2.7c-0.4-2-0.8-4.1-1.4-6
							c-0.4-2-0.9-4-1.4-6c-0.2-1-0.4-2-0.7-3l-0.4-1.5l-0.3-1.5l-0.6-3.1c-0.1-1.1-0.2-2.1-0.2-3.2c-0.1-1.1,0-2.2,0.2-3.2
							c0.1-1.1,0.3-2.1,0.6-3.2c0.5-2.1,1.4-4.1,2.5-6c0.6-0.9,1.1-1.9,1.8-2.7c0.3-0.4,0.7-0.9,1-1.3l1.1-1.2
							c0.4-0.4,0.8-0.7,1.2-1.1c0.4-0.3,0.8-0.7,1.3-1c0.4-0.3,0.9-0.6,1.4-0.8c0.2-0.1,0.5-0.3,0.7-0.4l0.4-0.2
							C162.1,109.4,162.4,109.2,162.6,109.4z"/>
					</g>
					<path fill="#999999" d="M162.5,109.8C162.5,109.8,162.6,109.8,162.5,109.8C162.6,109.8,162.6,109.8,162.5,109.8v0.1l-0.1,0.1
						l-0.2,0.3l-0.4,0.6c-0.3,0.4-0.5,0.8-0.8,1.2c-0.5,0.8-1,1.7-1.4,2.5c-0.9,1.7-1.6,3.5-2.2,5.3c-1.2,3.6-1.9,7.4-2.3,11.2
						c-0.5,3.8-0.8,7.7-0.4,11.6c0.4,3.9,1.3,7.7,2.6,11.4l-1.5-0.3c0.9-1.6,1.7-3.4,2.5-5.1c0.7-1.7,1.4-3.5,2-5.3
						c1.2-3.6,2-7.3,2.5-11c0.6-3.7,0.8-7.5,0.8-11.3c-0.1-1.9-0.1-3.8-0.4-5.7c-0.1-1-0.2-1.9-0.3-2.9c-0.1-0.5-0.1-0.9-0.2-1.3
						S162.6,110.2,162.5,109.8z M162.6,109.4c0.2,0.4,0.4,0.8,0.6,1.3s0.4,1.1,0.6,1.5c0.3,0.9,0.7,1.9,0.9,2.8l0.4,1.4l0.3,1.4
						c0.2,1,0.3,1.9,0.5,2.9c0.5,3.9,0.5,7.9,0.1,11.9c-0.5,4-1.6,7.8-3,11.5s-3.3,7.2-5.8,10.4l-1.1,1.4l-0.3-1.7
						c-0.8-3.9-1.4-7.8-2-11.7c-0.5-3.9-1.2-7.9-1.1-11.9c0.1-2,0.3-4,0.8-6c0.4-2,1.1-3.9,1.9-5.8c0.8-1.9,1.8-3.7,3-5.3
						c0.6-0.8,1.2-1.6,1.9-2.3c0.3-0.4,0.7-0.7,1.1-1c0.2-0.2,0.4-0.3,0.6-0.5l0.3-0.2l0.2-0.1l0.1-0.1h0.1
						C162.5,109.4,162.6,109.4,162.6,109.4z"/>
					<path fill="#999999" d="M156.4,154.2c1-3.6,1.8-7.3,2.4-11c0.7-3.7,1.2-7.4,1.6-11.2c0.4-3.7,0.6-7.5,1-11.2
						c0.2-1.9,0.3-3.7,0.5-5.6c0.1-0.9,0.2-1.9,0.2-2.8c0.1-0.9,0.2-1.9,0.3-2.8h0.1c0.4,3.8,0.4,7.6,0.3,11.4s-0.7,7.5-1.3,11.3
						c-1.2,7.5-2.7,14.9-5.1,22.1V154.2z"/>
					<path fill="#999999" d="M156.4,154.2c0-3.8,0.2-7.5,0.5-11.3s0.7-7.5,1.2-11.2s0.9-7.5,1.6-11.2s1.6-7.4,2.7-11h0.1
						c-0.1,1.9-0.4,3.8-0.6,5.6c-0.2,1.9-0.5,3.7-0.8,5.6c-0.5,3.7-1.3,7.4-1.9,11.1c-0.6,3.7-1.2,7.4-1.7,11.1
						C157,146.7,156.6,150.4,156.4,154.2L156.4,154.2L156.4,154.2z"/>
					<path fill="#999999" d="M162.6,109.7c-1.1,1.5-2,3.3-2.8,5s-1.4,3.6-1.9,5.4c-1.1,3.7-1.7,7.5-2,11.3l-0.2,2.9v2.9
						c0,1,0,1.9,0,2.9l0.1,2.9c0,1.9,0.2,3.8,0.3,5.7c0.2,1.9,0.3,3.8,0.4,5.8h-0.1c-0.5-1.9-0.9-3.8-1.3-5.7
						c-0.3-1.9-0.6-3.8-0.7-5.8c-0.1-1.9-0.2-3.9-0.1-5.8l0.2-2.9l0.3-2.9c0.5-3.9,1.2-7.7,2.5-11.4c0.6-1.8,1.4-3.6,2.2-5.4
						C160.4,112.9,161.3,111.2,162.6,109.7L162.6,109.7z"/>
					<path fill="#999999" d="M156.4,154.2c-0.4-1.9-0.7-3.8-0.9-5.7c-0.1-1.9-0.4-3.8-0.3-5.7l0.1-2.9c0-1,0.1-1.9,0.2-2.9
						c0.1-1.9,0.2-3.8,0.4-5.7c0.3-3.8,1-7.6,2.1-11.3s2.6-7.3,4.7-10.5h0.1c-1.7,3.4-3,7-4,10.7s-1.8,7.4-2.4,11.2
						s-0.7,7.6-0.4,11.4c0,0.5,0,1,0,1.4c0,0.5,0.1,0.9,0.1,1.4l0.2,2.9C156.2,150.4,156.4,152.4,156.4,154.2L156.4,154.2z"/>
					<path fill="#999999" d="M156.4,154.2c1.5-3.5,2.5-7.1,3.4-10.8s1.5-7.4,2-11.2c0.1-0.9,0.2-1.9,0.3-2.8
						c0.1-0.9,0.2-1.9,0.2-2.8l0.2-2.8l0.1-2.8c0.1-1.9,0-3.8,0.1-5.7c0-0.9,0-1.9-0.1-2.8v-2.8h0.1c0.2,1.9,0.4,3.8,0.5,5.7
						s0.2,3.8,0.1,5.7l-0.1,2.9l-0.2,2.8c-0.1,0.9-0.2,1.9-0.3,2.8c-0.1,0.9-0.2,1.9-0.3,2.8c-0.5,3.8-1.3,7.5-2.2,11.2
						C159.2,147.2,158.1,150.9,156.4,154.2L156.4,154.2z"/>
				</g>
				<g>
					<g>
						<path fill="#FFFFFF" d="M107.4,127.2c0,0,13.4,5.7,14.9,15.2c1.8,11.4-7.4,19.6-7.4,19.6s4.8-11.2,0-19.3
							C107.6,130.4,107.4,127.2,107.4,127.2z"/>
						<path fill="#999999" d="M107.2,126.9c0.1-0.1,0.3-0.1,0.5,0h0.2h0.4c0.2,0,0.5,0.1,0.7,0.1c0.5,0.1,1,0.2,1.4,0.3
							c0.9,0.3,1.8,0.6,2.7,0.9c1.8,0.8,3.5,1.7,5.1,2.9s3,2.6,4.2,4.4c1.2,1.8,2,3.9,2.1,6.1c0,2.1-0.3,4.1-0.8,6s-1.1,3.7-1.8,5.5
							c-0.7,1.8-1.5,3.5-2.3,5.2c-0.4,0.9-0.9,1.7-1.4,2.6c-0.5,0.9-1,1.6-1.8,2.5l-5.4,6.4l2-8.9c0.3-1.3,0.5-2.8,0.8-4.2
							c0.2-1.4,0.3-2.8,0.3-4.2s-0.1-2.7-0.3-4c-0.2-1.3-0.5-2.5-1-3.6l-0.3-0.8c-0.1-0.3-0.3-0.7-0.5-1c-0.3-0.7-0.7-1.4-1-2.1
							c-0.7-1.4-1.3-2.9-1.8-4.4s-1-3-1.4-4.6c-0.2-0.8-0.3-1.6-0.5-2.4c0-0.4-0.1-0.8-0.1-1.2c0-0.2,0-0.4,0-0.6v-0.3v-0.2v-0.1
							c0,0,0,0,0-0.1C107,127.2,107.1,127.1,107.2,126.9z M107.5,127.4c0.1,0,0.2-0.1,0.1-0.2l0,0v0.1l0.1,0.1l0.1,0.2l0.3,0.5
							c0.2,0.3,0.4,0.6,0.7,1c0.4,0.6,0.9,1.3,1.3,1.9l2.7,3.7l2.7,3.7l1.3,1.9c0.2,0.3,0.4,0.6,0.7,1l0.7,1.2
							c0.2,0.4,0.4,0.9,0.6,1.3c0.2,0.4,0.4,0.9,0.5,1.3c0.2,0.9,0.5,1.8,0.6,2.7c0.3,1.8,0.2,3.6,0,5.3s-0.6,3.4-1.1,5
							s-1.1,3.1-2,4.7l-3.4-2.5c0.6-0.4,1.3-0.9,2-1.5s1.3-1.2,1.9-1.8c1.2-1.3,2.1-2.8,2.8-4.4c0.4-0.8,0.6-1.7,0.8-2.5
							c0.1-0.4,0.1-0.9,0.1-1.3c0-0.2,0-0.4,0-0.6v-0.7c0-1.7-0.6-3.4-1.1-4.9c-0.6-1.4-1.3-2.6-2.1-3.9c-0.8-1.3-1.9-2.5-3-3.8
							c-1.1-1.2-2.4-2.4-3.7-3.7c-0.3-0.3-0.6-0.6-1-0.9c-0.3-0.3-0.7-0.6-1-0.9l-1-0.9c-0.2-0.2-0.3-0.3-0.5-0.5l-0.3-0.2l-0.1-0.1
							C107.4,127.7,107.5,127.6,107.5,127.4z"/>
					</g>
					<path fill="#999999" d="M115,161.9h-0.1c-0.1,0-0.1,0-0.1,0l0,0v-0.1l0.1-0.1l0.2-0.3l0.3-0.6l0.6-1.1c0.4-0.8,0.7-1.5,1-2.3
						c0.6-1.5,1.1-3.1,1.5-4.7c0.8-3.1,0.8-6.4,0.3-9.4c-0.6-3-2.3-6.1-4.4-8.6c-2.2-2.6-4.8-4.8-7.6-6.6l1.3-1.2
						c2,2.5,3.9,5.1,5.7,7.8c0.9,1.3,1.8,2.7,2.7,4l1.3,2.1c0.4,0.7,0.8,1.4,1.2,2.3c0.7,1.7,0.9,3.5,0.8,5.3c0,1.7-0.3,3.4-0.8,5
						c-0.4,1.6-1,3.2-1.7,4.6c-0.3,0.7-0.7,1.5-1.1,2.2l-0.6,1.1l-0.3,0.5l-0.2,0.3l-0.1,0.1v0.1l0,0
						C115.1,161.9,115,161.9,115,161.9z M114.8,162.1c-0.1,0-0.1-0.2,0-0.2l0,0v-0.1v-0.1l0.1-0.3l0.2-0.6l0.3-1.2
						c0.2-0.8,0.4-1.5,0.6-2.3c0.3-1.5,0.7-3.1,0.8-4.6c0.4-3,0.3-6.1-0.7-8.6c-0.3-0.5-0.7-1.2-1-1.9l-1.2-2l-2.4-4.1
						c-1.6-2.7-3.3-5.5-4.8-8.3l-0.1-0.2c-0.2-0.4-0.1-1,0.4-1.2c0.4-0.2,0.8-0.1,1.1,0.1c1.3,1.2,2.4,2.5,3.6,3.7s2.3,2.5,3.5,3.8
						c1.1,1.3,2.3,2.6,3.4,4s2.1,2.9,2.7,4.7c1.1,3.5,0.8,7.3-0.4,10.7c-0.6,1.7-1.4,3.3-2.3,4.8c-0.5,0.7-1,1.4-1.6,2.1
						c-0.3,0.3-0.6,0.7-0.9,1c-0.1,0.2-0.3,0.3-0.5,0.5l-0.2,0.2l-0.1,0.1l-0.1,0.1l0,0c0,0,0,0-0.1,0.1
						C114.9,162.1,114.8,162.1,114.8,162.1z"/>
					<path fill="#999999" d="M107.4,127.2c2.6,2.1,4.9,4.5,7.1,7.1c1,1.3,2,2.7,2.9,4.1c0.4,0.7,0.9,1.4,1.2,2.2
						c0.3,0.8,0.6,1.6,0.8,2.4c0.4,1.6,0.6,3.3,0.6,5s-0.2,3.4-0.6,5s-1,3.2-1.7,4.8c-0.7,1.5-1.7,2.9-2.7,4.2h-0.1
						c0.9-1.4,1.6-2.9,2.3-4.4c0.6-1.5,1.1-3.1,1.4-4.7c0.7-3.2,0.9-6.5,0.4-9.8c-0.1-0.8-0.3-1.6-0.6-2.4c-0.3-0.8-0.7-1.5-1.2-2.2
						c-0.9-1.4-2-2.6-3.1-3.8L107.4,127.2L107.4,127.2z"/>
					<path fill="#999999" d="M107.4,127.2c2.9,1.8,5.7,3.9,8.2,6.3c1.3,1.2,2.4,2.5,3.5,3.9s2,3,2.5,4.7c1.2,3.4,0.8,7.3-0.4,10.6
						c-0.6,1.7-1.4,3.2-2.4,4.7s-2,2.9-3.3,4.1l-0.1-0.1c1.8-2.9,3.4-6,4.4-9.2c0.1-0.4,0.3-0.8,0.4-1.2s0.2-0.8,0.3-1.2l0.3-1.2
						c0.1-0.4,0.1-0.8,0.2-1.2c0.2-1.6,0.1-3.3-0.4-4.9c-0.9-3.2-3.1-5.9-5.4-8.4c-2.4-2.5-5-4.7-7.8-6.7L107.4,127.2z"/>
				</g>
				<g>
					<g>
						<path fill="#999999" d="M131.4,111.8c0.4-0.2,0.9-0.4,1.3-0.5s0.9-0.2,1.4-0.3c1-0.2,2-0.2,2.9,0l1,0.2l-0.3,1.2
							c-0.2,0.9-0.5,1.7-0.8,2.6c-0.2,0.4-0.4,0.9-0.7,1.3c-0.3,0.4-0.6,0.9-1.3,1.4c-0.8,0.5-1.3,0.6-1.9,0.7
							c-0.5,0.1-1,0.2-1.5,0.3c-1,0.1-1.9,0.1-2.8-0.2l-2.5-0.7l0.6-1.9c0.2-0.5,0.4-0.9,0.7-1.4c0.3-0.4,0.7-0.9,1.2-1.2
							c0.4-0.4,0.9-0.7,1.4-1C130.5,112.2,130.9,111.9,131.4,111.8z M131.6,112.2c-0.3,0.3-0.6,0.6-0.7,1s-0.1,0.8,0,1.3
							c0.2,0.9,0.4,1.6,0.3,2.4l-1.8-2.6c0.7,0,1.5,0.1,2.2,0.3c0.3,0.1,0.7,0.1,1,0.2c0.3,0.1,0.6,0,0.5,0.1c0,0.1,0.3-0.1,0.5-0.3
							s0.5-0.5,0.7-0.8c0.5-0.6,0.9-1.3,1.3-1.9l0.7,1.5c-0.7-0.4-1.4-0.9-2.2-1.2c-0.4-0.2-0.8-0.3-1.2-0.2
							C132.3,111.8,131.9,111.9,131.6,112.2z"/>
						<path fill="#999999" d="M131.8,112.6c0.7-0.4,1.5-0.7,2.3-0.8c0.8-0.2,1.7-0.1,2.5-0.1l0.5,0.1l-0.3,0.5
							c-0.4,0.7-0.8,1.4-1.2,2.1c-0.5,0.7-0.9,1.3-1.7,1.9c-0.8,0.5-1.7,0.6-2.5,0.8c-0.8,0.1-1.6,0.2-2.4,0.2l-1.1-0.1l0.4-0.9
							c0.3-0.8,0.8-1.5,1.5-2.1C130.4,113.4,131.1,112.9,131.8,112.6z M131.9,112.7c-0.3,0.2-0.6,0.5-0.9,0.8
							c-0.2,0.3-0.4,0.7-0.6,1c-0.3,0.7-0.5,1.5-0.7,2.2l-0.7-1c0.7-0.1,1.5-0.1,2.2-0.1s1.5-0.1,2.1-0.4c0.5-0.3,1.1-0.9,1.6-1.4
							c0.5-0.6,0.9-1.2,1.4-1.8l0.3,0.6c-0.8-0.2-1.5-0.3-2.3-0.4C133.4,112.1,132.5,112.2,131.9,112.7z"/>
						<path fill="#999999" d="M132,112.9c0.7-0.4,1.4-0.7,2.2-0.8c0.8-0.2,1.6-0.2,2.3-0.2h0.3l-0.2,0.3c-0.4,0.6-0.9,1.2-1.4,1.8
							s-1,1.2-1.7,1.6c-0.7,0.4-1.5,0.6-2.2,0.8c-0.8,0.2-1.5,0.3-2.3,0.4l-0.7,0.1l0.3-0.6c0.4-0.7,0.9-1.3,1.4-1.9
							C130.7,113.8,131.3,113.2,132,112.9z M132,112.9c-0.7,0.4-1.2,0.9-1.7,1.6c-0.4,0.6-0.8,1.3-1.1,2l-0.4-0.5
							c0.7-0.1,1.5-0.2,2.2-0.3s1.5-0.3,2.1-0.6s1.2-0.9,1.7-1.4s1-1.1,1.5-1.7l0.1,0.3c-0.8-0.1-1.5-0.1-2.3,0
							C133.5,112.2,132.7,112.6,132,112.9z"/>
						<path fill="#999999" d="M136.8,112.1c0.7,1.3,1.1,2.6,1.5,4c0.1,0.7,0.2,1.5,0.2,2.4l-0.1,0.7c-0.1,0.2-0.2,0.5-0.2,0.7
							c-0.1,0.3-0.3,0.5-0.5,0.8s-0.5,0.5-0.8,0.7s-0.6,0.3-1,0.5c-0.3,0.1-0.7,0.2-1,0.2s-0.6,0-0.9,0l-0.8-0.1
							c-0.9-0.2-1.7-0.6-2.3-1.1c-1.2-1.1-2-2.4-2.2-4.2l0.3-0.3c1.8,0,3.1,0.4,4.2,0.8c0.5,0.2,1,0.4,1.3,0.7s0.5,0.4,0.4,0.5
							c-0.1,0.2,0.3,0,0.5-0.5s0.4-1.1,0.5-1.7c0.2-1.3,0.3-2.6,0.3-4L136.8,112.1z"/>
						<path fill="#999999" d="M136.3,112.6c0.4,1,0.6,2.1,0.5,3.2c-0.1,0.6-0.3,1.1-0.5,1.6s-0.4,1.1-0.9,1.4
							c-0.5,0.4-1.2,0.4-1.7,0.3c-0.6-0.1-1.1-0.3-1.6-0.6c-1-0.5-1.8-1.3-2.5-2.2v-0.1c1,0.5,1.9,1.1,2.8,1.5s1.9,0.9,2.8,0.6
							c0.4-0.2,0.8-0.6,0.9-1.1s0.1-1,0.1-1.6C136.2,114.8,136.2,113.7,136.3,112.6L136.3,112.6z"/>
						<path fill="#999999" d="M136.6,112.1c0.4,1.2,0.6,2.5,0.6,3.7c0,0.6,0,1.3-0.2,2c-0.2,0.6-0.5,1.4-1.2,1.9s-1.6,0.5-2.3,0.3
							c-0.7-0.1-1.3-0.4-1.9-0.8c-1.1-0.7-2.1-1.6-2.7-2.8l0.1-0.1c1.2,0.5,2.3,1.1,3.3,1.6c0.5,0.2,1,0.5,1.5,0.6
							c0.5,0.2,1,0.2,1.4,0.1c0.4-0.2,0.7-0.6,0.9-1.1c0.2-0.5,0.3-1.1,0.4-1.7c0.1-1.2,0.1-2.4,0-3.7H136.6z"/>
					</g>
					<g>
						<g>
							
								<ellipse fill="#2F3E52" stroke="#999999" stroke-width="1.4805" stroke-miterlimit="10" cx="120.1" cy="117.8" rx="2.6" ry="2.6"/>
							<circle fill="#FFFFFF" stroke="#999999" stroke-width="1.4805" stroke-miterlimit="10" cx="119.7" cy="117.1" r="1.2"/>
						</g>
						<g>
							
								<ellipse fill="#2F3E52" stroke="#999999" stroke-width="1.4805" stroke-miterlimit="10" cx="143.6" cy="106.4" rx="2.6" ry="2.6"/>
							<circle fill="#FFFFFF" stroke="#999999" stroke-width="1.4805" stroke-miterlimit="10" cx="143.2" cy="105.8" r="1.2"/>
						</g>
					</g>
				</g>
				<path fill="#999999" d="M160.3,109.6c-0.8-2.3-2-4.5-3.4-6.4c-0.7-1-1.5-1.9-2.4-2.8c-0.8-0.9-1.8-1.6-2.7-2.5
					c-3.8-3-8.2-5.1-12.8-6.5c-2.3-0.9-4.7-1.2-7.1-1.7c-1.2-0.3-2.4-0.3-3.6-0.5c-1.2-0.1-2.4-0.3-3.6-0.4l-3.7-0.2
					c-1.2,0-2.4-0.2-3.7-0.2c-2.5,0-4.9,0.1-7.4,0c2.4-0.3,4.9-0.5,7.4-0.8c2.5-0.1,4.9-0.1,7.4-0.1c1.2,0,2.5,0.2,3.7,0.3
					s2.5,0.2,3.7,0.4c2.4,0.5,4.9,0.9,7.3,1.7c2.4,0.7,4.7,1.7,6.9,2.8l3.2,1.9c1,0.8,2,1.5,3,2.3l1.3,1.3c0.4,0.4,0.9,0.8,1.3,1.4
					c0.8,1,1.6,1.9,2.2,3C158.8,104.9,159.9,107.2,160.3,109.6z"/>
				<path fill="#999999" d="M105.1,116.7c-0.7-2.3-0.7-4.7-0.5-7.1c0.3-2.4,0.9-4.8,1.9-7.1c1.9-4.5,5.2-8.5,9.1-11.5
					s8.4-5.1,12.9-6.5c4.6-1.3,9.3-2,14-1.8c-4.4,1.7-8.7,3.2-12.8,5.1c-4.1,1.9-8,4-11.4,6.7c-3.5,2.6-6.4,5.8-8.7,9.6
					c-1.1,1.9-2.1,3.8-2.8,6C106,112.2,105.4,114.4,105.1,116.7z"/>
			</g>
			<g>
				<path fill="#2F3E52" stroke="#999999" stroke-width="1.4805" stroke-miterlimit="10" d="M143.9,160.9v2.8c0,0.5-0.4,0.9-0.9,0.9
					l0,0c-0.5,0-0.9-0.4-0.9-0.9v-2.8c0-0.5,0.4-0.9,0.9-0.9l0,0C143.5,159.9,143.9,160.4,143.9,160.9z"/>
				<path fill="#2F3E52" stroke="#999999" stroke-width="1.4805" stroke-miterlimit="10" d="M140.2,160.9v2.8c0,0.5-0.4,0.9-0.9,0.9
					l0,0c-0.5,0-0.9-0.4-0.9-0.9v-2.8c0-0.5,0.4-0.9,0.9-0.9l0,0C139.9,159.9,140.2,160.4,140.2,160.9z"/>
				<path fill="#2F3E52" stroke="#999999" stroke-width="1.4805" stroke-miterlimit="10" d="M125.8,160.9v2.8c0,0.5-0.4,0.9-0.9,0.9
					l0,0c-0.5,0-0.9-0.4-0.9-0.9v-2.8c0-0.5,0.4-0.9,0.9-0.9l0,0C125.4,159.9,125.8,160.4,125.8,160.9z"/>
				<path fill="#2F3E52" stroke="#999999" stroke-width="1.4805" stroke-miterlimit="10" d="M122.4,160.9v2.8c0,0.5-0.4,0.9-0.9,0.9
					l0,0c-0.5,0-0.9-0.4-0.9-0.9v-2.8c0-0.5,0.4-0.9,0.9-0.9l0,0C122,159.9,122.4,160.4,122.4,160.9z"/>
			</g>
			<g>
				<g>
					
						<ellipse fill="#2F3E52" stroke="#999999" stroke-width="1.4805" stroke-miterlimit="10" cx="90.9" cy="118.9" rx="2.6" ry="2.6"/>
					<circle fill="#FFFFFF" stroke="#999999" stroke-width="1.4805" stroke-miterlimit="10" cx="90.6" cy="118.2" r="1.2"/>
				</g>
				<g>
					<path fill="#FFFFFF" d="M110.4,122.4c-1.2-1.7-4.2-5.9-5.8-5.5c-2,0.4-2.6,2.6-2.6,3.5c0,2.2,0.9,3.4,1.7,3.4
						c0.6,0,4.5-0.3,6.3-0.5C110.4,123.2,110.6,122.8,110.4,122.4"/>
					<path fill="#999999" d="M110.2,122.6c-0.6-0.8-1.5-1.4-2.4-2s-1.6-1.2-2.1-1.9c-0.3-0.3-0.6-0.6-0.8-0.8l-0.1-0.1l0,0h-0.1
						c-0.2,0-0.4,0-0.6,0.1c-0.4,0-0.6,0.5-0.7,0.9s-0.1,0.8,0,1.2c0,0.2,0.1,0.3,0.2,0.5l0.2,0.6c0.2,0.3,0.3,0.6,0.5,0.8
						c0.1,0.1,0.2,0.1,0.2,0c0,0-0.1-0.2-0.4-0.3c-0.1,0-0.2-0.1-0.3-0.1c-0.1,0,0,0,0,0h0.1h0.4c0.2,0,0.5,0,0.7,0c1,0,2,0.1,3,0.4
						c0.5,0.1,1,0.3,1.5,0.5c0.1,0.1,0.3,0.1,0.4,0.2c0,0.1-0.1,0.2-0.1,0.3C109.8,122.9,110.1,122.9,110.2,122.6l0.4-0.3
						c0.4,0.2,0.6,0.8,0.2,1.4c-0.2,0.3-0.5,0.5-0.8,0.6c-0.1,0.1-0.2,0.1-0.4,0.2c-0.5,0.3-1,0.5-1.5,0.7c-1,0.4-2.1,0.7-3.1,0.9
						c-0.3,0-0.5,0.1-0.8,0.1h-0.4h-0.1h-0.2c-0.2,0-0.5-0.1-0.7-0.1c-0.9-0.3-1.4-0.8-1.7-1.2c-0.3-0.4-0.5-0.8-0.7-1.2
						c-0.3-0.8-0.3-1.5-0.3-2.1c0-0.3,0.1-0.7,0.1-1c0.1-0.4,0.2-0.8,0.3-1.1c0.3-0.6,0.7-1.2,1.2-1.6c0.5-0.5,1-0.7,1.5-1.2
						c0.3-0.2,0.6-0.4,0.9-0.5c0.1,0,0.1-0.1,0.3-0.1c0.1,0,0.2,0,0.4-0.1c0.3,0,0.4,0,0.7,0c0.8,0.1,1.3,0.5,1.8,0.8
						c1,0.7,1.6,1.5,2,2.6c0.4,1,0.7,2.1,1.2,2.9L110.2,122.6z"/>
				</g>
				<path fill="#999999" d="M110,122.9c-1.3,0-2.7-0.2-4-0.3s-2.7-0.3-4-0.5l0.4-0.5l0.2,0.6l-0.3-0.3c1.2,0.2,2.5,0.3,3.7,0.5
					s2.5,0.4,3.7,0.7c-1.3,0-2.5-0.1-3.8-0.2c-1.3-0.1-2.5-0.2-3.7-0.3H102l-0.1-0.2l-0.2-0.6l-0.2-0.5l0.6,0.1
					c1.3,0.2,2.6,0.4,3.9,0.6C107.4,122.2,108.7,122.6,110,122.9z"/>
				<path fill="#999999" d="M109.8,123.2c0.2,0,0.4-0.2,0.4-0.4s-0.2-0.4-0.3-0.6c-0.3-0.4-0.6-0.7-0.9-1.1c-0.7-0.7-1.3-1.4-2-2
					c-0.3-0.3-0.7-0.6-1.1-0.9c-0.4-0.2-0.8-0.4-1-0.4c-0.3,0-0.7,0.2-1,0.5c-0.3,0.2-0.5,0.6-0.7,0.9c-0.2,0.4-0.3,0.8-0.3,1.2
					s0.1,0.8,0.2,1.2s0.3,0.8,0.4,1c0.1,0.1,0.2,0.2,0.3,0.3h0.1c0,0,0,0,0.1,0h0.2C105.9,122.9,107.8,123.2,109.8,123.2z
					 M109.8,123.2c-1.9,0.2-3.8,0.9-5.7,1.1h-0.2c0,0-0.1,0-0.3,0c-0.2,0-0.4-0.1-0.6-0.2c-0.4-0.2-0.6-0.4-0.8-0.7
					c-0.4-0.5-0.5-1.1-0.6-1.6c-0.1-0.6-0.1-1,0-1.6s0.3-1.1,0.5-1.6c0.5-1,1.5-1.8,2.7-1.8c0.7,0,1.1,0.4,1.6,0.7
					c0.4,0.3,0.8,0.7,1.1,1c0.7,0.7,1.2,1.5,1.8,2.3l0.8,1.2c0.1,0.2,0.3,0.4,0.3,0.7C110.3,123.1,110,123.2,109.8,123.2z"/>
				<path fill="#999999" d="M102.1,120.8c0.1,0.9,0.3,1.9,0.9,2.5c0.2,0.1,0.3,0.2,0.5,0.3c0.1,0,0.4,0,0.6,0l1.4-0.2
					c0.9-0.1,1.8-0.2,2.8-0.3l0.7-0.1h0.3h0.2c0,0,0,0,0.1,0s0.1-0.1,0.1-0.1l0,0l-0.1-0.1l-0.2-0.3c-1.1-1.4-2.3-2.9-3.7-4
					c-0.4-0.2-0.8-0.5-1.1-0.4c-0.4,0.1-0.8,0.2-1.2,0.5C102.7,118.9,102.3,119.8,102.1,120.8c0-0.9,0.3-1.9,1-2.6
					c0.4-0.3,0.8-0.6,1.3-0.7c0.6-0.1,1.1,0.1,1.5,0.4c1.6,1.1,2.8,2.6,4,4l0.2,0.3l0.1,0.1c0,0,0.1,0.2,0.1,0.3
					c0.1,0.4-0.1,0.9-0.5,1c-0.1,0-0.2,0.1-0.3,0.1h-0.2H109h-0.7c-0.9,0-1.9,0.1-2.8,0.1h-1.4c-0.2,0-0.4,0.1-0.7,0
					c-0.3-0.1-0.5-0.2-0.7-0.4C102.2,122.7,102.1,121.7,102.1,120.8z"/>
			</g>
		</g>
	</g>
</g>
</svg>
