<?xml version="1.0" encoding="utf-8"?>
<!-- Generator: Adobe Illustrator 22.0.1, SVG Export Plug-In . SVG Version: 6.00 Build 0)  -->
<svg version="1.1" id="Calque_1" xmlns="http://www.w3.org/2000/svg" xmlns:xlink="http://www.w3.org/1999/xlink" x="0px" y="0px"
	 viewBox="0 0 500 500" style="enable-background:new 0 0 500 500;" xml:space="preserve">
<style type="text/css">
	.st0{fill:#272832;}
	.st1{fill:#00CCCC;}
	.st2{fill:#989898;}
	.st3{fill:#FFFFFF;}
	.st4{display:none;fill:#FFFFFF;}
	.st5{display:none;fill:#FFFFFF;enable-background:new    ;}
	.st6{font-family:'ArialMT';}
	.st7{font-size:391.3174px;}
	.st8{display:none;enable-background:new    ;}
	.st9{font-size:207.807px;}
	.st10{fill:#999999;}
	.st11{fill:none;stroke:#999999;stroke-width:1.4805;stroke-miterlimit:10;}
	.st12{fill:#2F3E52;stroke:#999999;stroke-width:1.4805;stroke-miterlimit:10;}
	.st13{fill:#FFFFFF;stroke:#999999;stroke-width:1.4805;stroke-miterlimit:10;}
</style>
<rect id="Fond" x="0" class="st0" width="500" height="500"/>
<g id="Calque_1_1_">
	<g>
		<g>
			<g>
				<g>
					<path class="st1" d="M258,69.4c-0.5-2.4-1.8-3.9-3.2-3.9s-2.8,1.7-3.3,4.1l-77.6,356.3c-0.7,3.3,0.2,7,2,8.3s3.9-0.4,4.6-3.6
						l26.8-123.2h94.9L329,430.5c0.6,2.5,1.9,4.1,3.3,4.1c0.4,0,0.8-0.1,1.3-0.4c1.8-1.3,2.7-5,2-8.3L258,69.4z M210.1,294.5
						l44.7-205.4l44.8,205.4H210.1z"/>
					<path class="st2" d="M253.2,135.5l-30.1,138.2c-0.4,1.7,0.1,3.4,1,4.1c0.2,0.1,0.4,0.3,0.6,0.3c0.7,0,1.3-0.8,1.6-2l30.1-138.2
						c0.4-1.7-0.1-3.4-1-4.1C254.6,132.9,253.6,133.8,253.2,135.5z"/>
					<path class="st2" d="M214.1,323.8c-0.9-0.6-1.9,0.1-2.3,1.8l-22.1,101.3c-0.4,1.7,0.1,3.4,1,4.1c0.2,0.1,0.4,0.3,0.6,0.3
						c0.7,0,1.3-0.8,1.6-2l22.2-101.4C215.4,326.3,214.9,324.3,214.1,323.8z"/>
				</g>
			</g>
		</g>
		<g id="N">
			<g>
				<path class="st3" d="M165.1,426L98.5,69.4c-0.4-2.4-1.5-3.9-2.7-3.9s-2.4,1.7-2.8,4.1L26.3,425.8c-0.6,3.3,0.2,7,1.7,8.3
					c1.6,1.3,3.3-0.4,3.9-3.6l22.4-119.7c0-0.3,0-0.7,0.1-1.1c1-5.1,1.6-11,3.1-15.7L95.8,89.2l38,203.2c0.2,0.4,0.5,0.9,0.6,1.7
					c0.6,5,1.8,9.6,2.6,14.5c0.1,0.6,0.1,1.1,0.1,1.6l22.5,120.4c0.5,2.5,1.6,4.1,2.8,4.1c0.4,0,0.7-0.1,1.1-0.4
					C164.9,433,165.7,429.2,165.1,426z"/>
			</g>
			<g>
				<path class="st3" d="M231.4,69.4c-0.4-2.4-1.6-3.9-2.8-3.9s-2.4,1.7-2.8,4.1l-66.6,356.3c-0.6,3.3,0.2,7,1.7,8.3
					c1.6,1.3,3.3-0.4,3.9-3.6l23-123.2h0.2c0.1-1.1,0.3-2.1,0.5-3.1c0.2-1.4,0.5-2.7,0.8-3.9c0.3-1.3,0.5-2.7,0.5-4.2
					c0-0.7,0.2-1.3,0.4-1.8l38.1-203.6c0.6-6.1,1.9-11.9,3.1-17.6v-1.9c0-0.4,0-0.8,0.1-1.1L231.4,69.4z"/>
				<path class="st4" d="M227.2,135.5l-25.9,138.2c-0.3,1.7,0.1,3.4,0.8,4.1c0.2,0.1,0.4,0.3,0.5,0.3c0.6,0,1.2-0.8,1.4-2l26-138.3
					c0.3-1.7-0.1-3.4-0.8-4.1C228.4,132.9,227.6,133.8,227.2,135.5z"/>
				<path class="st4" d="M193.7,323.8c-0.8-0.6-1.6,0.1-1.9,1.8l-19,101.3c-0.3,1.7,0.1,3.4,0.8,4.1c0.2,0.1,0.4,0.3,0.5,0.3
					c0.6,0,1.2-0.8,1.4-2l19-101.3C194.9,326.3,194.4,324.3,193.7,323.8z"/>
			</g>
		</g>
		<text transform="matrix(1.0334 0 0 1 405.3644 276.3752)" class="st5 st6 st7">O</text>
		<path class="st3" d="M465.5,294.8H331.2c-4.7,0-8.4,2.4-8.4,5.6s3.7,5.6,8.4,5.6h134.5c4.7,0,8.4-2.4,8.4-5.6
			S470.2,294.8,465.5,294.8z"/>
	</g>
</g>
<g id="Calque_4">
	<g>
		<path class="st3" d="M391,278.2c-45.4,0-79.8-46.6-79.8-96.7h1.3c0,50.7,34.9,93.1,78,93.1c8.7,0,17.2-2.4,25.3-6.7
			c6.3-3.3,16.6-9.8,22.1-15c4.2-4,7.4-9,11-13.9c4.2-5.6,6.5-9.6,9.7-15.9c6.7-13.6,8.6-28,8.6-42.1c0-20-6.9-43-19.5-60.1
			c-3.1-4.2-7.4-9.8-11-13.4c-12.9-13.1-29-18.4-45.2-19.1c-44.2-1.9-69.4,48.4-65.2,91.6c0.6,6.1,1.5,12.7,2.9,19.3
			c1.9,8.6,4.9,17.1,9.7,24c12.4,18.1,33.5,28.8,51.6,28.8c6.4,0,12.5-1.9,18.3-5.1c4.5-2.5,15.5-10.6,19.4-14.5
			c4.6-4.7,13.4-25.2,15-30.9c1.8-6.5,2.1-14.3,2.1-20.5c0-8.4-0.6-17.7-4.2-26.6c-2-4.8-4.1-10.8-6.8-15.3c-1.9-3.1-4.8-7.7-7-10.4
			c-9.7-12-23-17.4-35.8-17.4c-12.1,0-23.6,6.8-31.2,17.6c-3.2,4.6-5.3,8.5-7.6,14c-5,11.8-7.1,27-7.1,38.6h-1.3
			c0-33.8,11.2-73.7,46.7-73.7c33.9,0,57.6,37,57.6,73.7c0,37.9-22.4,73.1-57.6,73.1c-37,0-68.6-30-68.6-73.7
			c0-47.5,21.9-97,68.6-97c45.4,0,78.8,47.8,78.8,97.6C469.8,231.2,436.3,278.2,391,278.2z"/>
	</g>
	<g>
		<path class="st3" d="M347.5,193.9c1.9,0,1.9-3,0-3C345.7,190.9,345.7,193.9,347.5,193.9L347.5,193.9z"/>
	</g>
	<text transform="matrix(1.1073 0 0 1 316.0573 248.4235)" class="st8 st6 st9">O</text>
</g>
<g id="Calque_3">
	<g>
		<g>
			<g>
				<g>
					<g>
						<g>
							<path class="st1" d="M391.8,238.6c0,0-2.2,4.2-8,10.7c-6.4,7.2-9,12.9-10.8,13.5s1.3-6.5,0.6-6.2c-0.8,0.3-7.2,7.5-9.2,6
								s12.8-11.1,11.3-14.1c-1.1-2.1-18.7-9.6-29.9-26.1L391.8,238.6z"/>
							<path class="st10" d="M392,238.4c0,0.1,0,0.2,0,0.3v0.1v0.1l-0.1,0.2l-0.2,0.4l-0.3,0.8c-0.2,0.5-0.5,1-0.7,1.6
								c-0.5,1-1.1,2-1.7,3c-1.2,2-2.5,3.9-3.9,5.7c-1.3,1.7-2.6,3.5-3.8,5.4l-3.7,5.6c-0.3,0.5-0.7,1-1.1,1.5
								c-0.2,0.3-0.4,0.5-0.7,0.8l-0.4,0.4c-0.2,0.2-0.4,0.3-0.6,0.5s-0.6,0.4-1,0.5c-0.1,0-0.3,0.1-0.4,0.1c-0.2,0-0.3,0.1-0.6,0.1
								s-0.6,0-0.8-0.1c-0.3-0.1-0.7-0.2-1-0.4s-0.5-0.4-0.7-0.7c-0.1-0.1-0.2-0.2-0.2-0.3c-0.1-0.1-0.1-0.2-0.1-0.3
								c0-0.1-0.1-0.2-0.1-0.3l-0.1-0.2c0-0.1-0.1-0.3-0.1-0.4c-0.1-0.4,0-0.7,0-1c0.1-1,0.2-1.5,0.4-2.2c0.2-0.6,0.3-1.2,0.5-1.7
								s0.4-1.1,0.4-1.4c0,0,0-0.1,0,0c0,0,0,0,0,0.1c0,0.1,0,0.2,0,0.3c0,0.2,0.1,0.4,0.1,0.6c0.1,0.1,0.1,0.1,0.2,0.3
								c0.2,0.3,0.4,0.6,0.7,0.8s0.7,0.4,0.9,0.4c0.2,0.1,0.5,0.1,0.7,0.1s0.5-0.1,0.7-0.2l0.1-0.1c0.4-0.2,0.3-0.2,0.3-0.2
								c-0.1,0-0.3,0.2-0.5,0.4l-1.3,1.1c-0.9,0.7-1.8,1.4-2.8,2.1s-2,1.3-3.4,1.9c-0.4,0.1-0.7,0.2-1.2,0.3
								c-0.5,0.1-1.1,0.1-1.8-0.2c-0.2-0.1-0.3-0.2-0.5-0.3c-0.2-0.1-0.4-0.4-0.6-0.7s-0.2-0.6-0.3-0.9c0-0.2,0-0.3,0-0.4
								c0-0.1,0-0.2,0-0.3c0-0.2,0.1-0.3,0.2-0.5c0.1-0.1,0.1-0.3,0.2-0.3c0.1-0.2,0.2-0.4,0.3-0.5c0.9-1.1,1.8-1.8,2.7-2.5
								c1.8-1.5,3.5-2.8,5.2-4.3c0.8-0.8,1.6-1.5,2.3-2.4c0.3-0.4,0.7-0.8,0.9-1.2c0.3-0.4,0.5-0.9,0.4-1c0-0.1,0,0-0.1-0.1
								c-0.1-0.1-0.3-0.3-0.5-0.4c-0.4-0.3-0.9-0.6-1.4-0.9c-1-0.6-1.9-1.1-2.9-1.6c-2-1.1-4-2.2-6-3.3c-8-4.5-15.2-10.8-20.7-18.5
								l-5.5-7.6l9.1,2.9c4.1,1.3,8.1,2.7,12.1,4.3c4,1.5,7.9,3.2,11.7,4.8l5.7,2.5l5.5,2.5C385.2,235.2,388.8,236.9,392,238.4z
								 M391.5,238.7l-12.7-3.2l-6-1.5l-5.9-1.6c-3.8-1.1-7.6-2.1-11.3-3.3c-3.7-1.1-7.3-2.4-10.9-3.8l3.6-4.7
								c4.6,7.2,10.9,13.3,17.7,19c1.7,1.4,3.5,2.8,5.3,4.1l2.7,2c0.5,0.3,0.9,0.7,1.4,1.1c0.2,0.2,0.5,0.4,0.7,0.7
								c0.3,0.3,0.6,1,0.5,1.4c-0.1,1-0.4,1.5-0.8,2.1c-0.3,0.5-0.7,1-1.1,1.4c-0.8,0.9-1.6,1.7-2.4,2.5c-1.6,1.6-3.3,3.2-4.8,4.8
								c-0.7,0.8-1.5,1.7-1.9,2.4c0,0.1-0.1,0.2-0.1,0.2l0,0c0,0,0,0,0-0.1s0-0.1,0-0.2c0-0.2-0.1-0.3-0.1-0.5
								c0-0.1-0.3-0.3-0.3-0.4L365,261c-0.2-0.1-0.2-0.1-0.1-0.1c0.1,0,0.2-0.1,0.4-0.2c0.7-0.4,1.5-1.1,2.2-1.9
								c0.7-0.7,1.5-1.5,2.2-2.3c0.4-0.4,0.8-0.8,1.2-1.2c0.2-0.2,0.4-0.4,0.8-0.7c0.1-0.1,0.2-0.2,0.7-0.4c0.1,0,0,0,0.2-0.1
								s0.5-0.1,0.8-0.2c0.3,0,0.5,0,0.8,0.1c0.2,0,0.6,0.2,0.9,0.4s0.6,0.5,0.7,0.8c0.1,0.2,0.1,0.3,0.2,0.4
								c0.1,0.2,0.1,0.5,0.2,0.7c0,0.2,0,0.4,0,0.5v0.3c0,0.2,0,0.3-0.1,0.4c-0.2,0.8-0.3,1.3-0.4,1.9c-0.1,0.5-0.3,1.1-0.4,1.5
								c-0.1,0.5-0.2,1-0.2,1.2c0,0,0,0,0-0.1c0,0,0-0.1,0-0.2v-0.1c0-0.1,0-0.1-0.1-0.2c0-0.1-0.1-0.1-0.1-0.2l-0.2-0.2
								c-0.2-0.2-0.3-0.4-0.6-0.5c-0.2-0.2-0.5-0.3-0.8-0.3c-0.2-0.1-0.4-0.1-0.6-0.1s-0.2,0-0.4,0c-0.1,0-0.2,0.1-0.2,0.1
								c-0.1,0-0.2,0.1-0.2,0.1l0,0l0.2-0.2c0.1-0.1,0.3-0.3,0.4-0.5c0.3-0.4,0.6-0.8,0.9-1.2c2.6-3.5,5.5-7.3,8.9-10.5
								c1.6-1.5,3.2-3.1,4.7-4.7c0.8-0.8,1.5-1.6,2.3-2.4l1.1-1.3l0.6-0.6l0.3-0.3l0.1-0.2l0.1-0.1l0,0
								C391.5,238.4,391.5,238.6,391.5,238.7z"/>
						</g>
					</g>
					<g>
						<line class="st11" x1="361.8" y1="238.9" x2="390.7" y2="238.9"/>
						<line class="st11" x1="362.5" y1="239.4" x2="390.7" y2="239.4"/>
						<line class="st11" x1="390.7" y1="240.1" x2="363.3" y2="240.1"/>
						<line class="st11" x1="390.5" y1="240.6" x2="364.2" y2="240.6"/>
						<line class="st11" x1="365" y1="241.2" x2="390" y2="241.2"/>
						<line class="st11" x1="389.8" y1="241.8" x2="365.8" y2="241.8"/>
						<line class="st11" x1="389.3" y1="242.2" x2="366.7" y2="242.2"/>
						<line class="st11" x1="388.8" y1="242.9" x2="367.5" y2="242.9"/>
						<line class="st11" x1="388.5" y1="243.4" x2="368.3" y2="243.4"/>
						<line class="st11" x1="388" y1="244.1" x2="369.2" y2="244.1"/>
						<line class="st11" x1="387.7" y1="244.6" x2="370.2" y2="244.6"/>
						<line class="st11" x1="387.2" y1="245.2" x2="371" y2="245.2"/>
						<line class="st11" x1="386.8" y1="245.8" x2="372" y2="245.8"/>
						<line class="st11" x1="386.2" y1="246.2" x2="372.8" y2="246.2"/>
						<line class="st11" x1="385.8" y1="246.9" x2="373.7" y2="246.9"/>
						<line class="st11" x1="385.2" y1="247.4" x2="374.5" y2="247.4"/>
						<line class="st11" x1="384.8" y1="247.9" x2="375.2" y2="247.9"/>
						<line class="st11" x1="384.3" y1="248.6" x2="375.5" y2="248.6"/>
						<line class="st11" x1="383.8" y1="249.2" x2="375.7" y2="249.2"/>
						<line class="st11" x1="383.3" y1="249.7" x2="375.5" y2="249.7"/>
						<line class="st11" x1="382.8" y1="250.2" x2="375.2" y2="250.2"/>
						<line class="st11" x1="382.3" y1="250.9" x2="374.8" y2="250.9"/>
						<line class="st11" x1="381.8" y1="251.4" x2="374.3" y2="251.4"/>
						<line class="st11" x1="381.3" y1="251.9" x2="373.8" y2="251.9"/>
						<line class="st11" x1="381" y1="252.6" x2="373.3" y2="252.6"/>
						<line class="st11" x1="380.5" y1="253.2" x2="372.8" y2="253.2"/>
						<line class="st11" x1="380" y1="253.7" x2="372.2" y2="253.7"/>
						<line class="st11" x1="379.7" y1="254.2" x2="371.7" y2="254.2"/>
						<line class="st11" x1="379.2" y1="254.9" x2="371" y2="254.9"/>
						<line class="st11" x1="378.8" y1="255.4" x2="370.5" y2="255.4"/>
						<line class="st11" x1="378.3" y1="255.9" x2="369.8" y2="255.9"/>
						<line class="st11" x1="378" y1="256.5" x2="369.2" y2="256.5"/>
						<line class="st11" x1="377.5" y1="257" x2="373.5" y2="257"/>
						<line class="st11" x1="368.5" y1="257" x2="372.8" y2="257"/>
						<line class="st11" x1="377.2" y1="257.7" x2="373.3" y2="257.7"/>
						<line class="st11" x1="368" y1="257.7" x2="372.2" y2="257.7"/>
						<line class="st11" x1="367.3" y1="258.2" x2="371.5" y2="258.2"/>
						<line class="st11" x1="376.8" y1="258.2" x2="373.2" y2="258.2"/>
						<line class="st11" x1="366.8" y1="258.8" x2="371" y2="258.8"/>
						<line class="st11" x1="376.3" y1="258.8" x2="373" y2="258.8"/>
						<line class="st11" x1="366.2" y1="259.4" x2="370.3" y2="259.4"/>
						<line class="st11" x1="376" y1="259.4" x2="372.8" y2="259.4"/>
						<line class="st11" x1="365.5" y1="260" x2="369.7" y2="260"/>
						<line class="st11" x1="375.5" y1="260" x2="372.8" y2="260"/>
						<line class="st11" x1="375.2" y1="260.5" x2="372.5" y2="260.5"/>
						<line class="st11" x1="365" y1="260.5" x2="369" y2="260.5"/>
						<line class="st11" x1="364.5" y1="261" x2="368.2" y2="261"/>
						<line class="st11" x1="374.7" y1="261" x2="372.5" y2="261"/>
						<line class="st11" x1="364.2" y1="261.7" x2="367.5" y2="261.7"/>
						<line class="st11" x1="374.2" y1="261.7" x2="372.3" y2="261.7"/>
						<line class="st11" x1="364" y1="262.2" x2="366.5" y2="262.2"/>
						<line class="st11" x1="373.8" y1="262.2" x2="372.3" y2="262.2"/>
					</g>
				</g>
				<g>
					<g>
						<path class="st1" d="M338.8,179.9L338.8,179.9c4.1-10.2,14-17.4,25.4-17.4c15.2,0,27.5,12.7,27.5,28.3c0,0.9,0,1.7-0.1,2.5
							l0,0l0,0c-0.1,0.9-0.2,1.8-0.4,2.7c-1.9,16.5,5,21,3.6,31.8c-1.9,14-10,20.4-16.4,19.2c-4.3-0.8-26.4-15.4-37.4-31.1
							S338.8,179.9,338.8,179.9z"/>
						<path class="st10" d="M338.7,179.8c-0.3,0.3-0.1,0.1-0.1,0.1l0,0l0,0L338.7,179.8L338.7,179.8l0.1-0.4l0.3-0.6
							c0.2-0.4,0.3-0.8,0.5-1.1c0.4-0.7,0.7-1.5,1.2-2.2l0.6-1.1l0.7-1c0.4-0.7,1-1.3,1.5-2c2.1-2.6,4.7-4.9,7.6-6.7
							c5.8-3.7,13.3-5.2,20.3-3.6c7.1,1.6,13.4,6.1,17.1,12.3c3.8,6.1,5,13.4,4.1,20.2l-0.9-1.3l0,0l1.1,0.3l-0.2,1
							c-0.6,3.1-0.9,6-0.9,9.1s0.6,6.1,1.3,9c0.8,2.9,2,5.9,2.7,9c0.3,1.6,0.6,3.2,0.6,4.9c0,0.8,0,1.7-0.1,2.5l-0.3,2.4
							c-0.5,3.2-1.3,6.5-2.8,9.5c-1.6,3-3.7,6-7,7.9c-1.6,1-3.5,1.7-5.5,1.9c-1,0.1-2,0.1-3.1-0.1l-0.8-0.2l-0.4-0.1l-0.3-0.1
							l-1.3-0.5c-3.1-1.5-5.8-3.1-8.5-4.9c-5.4-3.5-10.4-7.4-15.1-11.8c-2.3-2.2-4.6-4.5-6.7-6.9c-2.1-2.4-4.1-5-5.8-7.8
							c-1.7-2.9-3.1-6.1-3.7-9.3c-0.6-3.2-0.9-6.5-0.7-9.7c0.2-3.2,0.7-6.3,1.4-9.4c0.3-1.5,0.7-3.1,1.2-4.6
							c0.2-0.8,0.5-1.5,0.7-2.2c0.1-0.4,0.3-0.7,0.4-1.1l0.2-0.6l0.1-0.3C338.5,180.1,338.5,179.9,338.7,179.8z M339,180.2
							c0,0.1,0.1,0,0,0.1l-0.1,0.3l-0.2,0.5c-0.1,0.4-0.3,0.7-0.4,1.1c-0.2,0.7-0.4,1.5-0.6,2.2c-0.4,1.5-0.7,3-0.9,4.5
							c-0.4,3.1-0.4,6.2-0.1,9.2s1.1,5.9,2.2,8.7l0.9,2c0.3,0.7,0.7,1.3,1.1,1.9l0.5,0.9c0.2,0.3,0.4,0.6,0.6,0.9l1.2,1.7
							c7.5,9.3,16.9,17.3,26.7,24.4c2.5,1.7,5,3.4,7.5,4.8l0.9,0.4l0.2,0.1h0.1c0.1,0,0.2,0.1,0.3,0.1c0.4,0.1,1,0.2,1.5,0.1
							c1.1,0,2.2-0.4,3.3-0.9c2.2-1.1,4.1-3.2,5.6-5.6c1.5-2.4,2.6-5.1,3.4-8l0.5-2.2c0.1-0.7,0.2-1.4,0.3-2.2
							c0.1-1.4,0.1-2.9-0.1-4.4c-0.4-3-1.4-5.9-2.1-9c-1.6-6.2-1.6-12.7-0.9-18.9l0.9,1.3l0,0l-0.9-0.2V193c0.2-6.4-2-12.5-5.7-17.3
							c-3.6-4.8-8.7-8.3-14.5-10c-5.7-1.7-12.2-1.7-18,0.8c-0.7,0.3-1.5,0.6-2.1,1c-0.7,0.4-1.4,0.8-2,1.2c-0.7,0.4-1.3,1-1.9,1.4
							c-0.6,0.5-1.2,1.1-1.8,1.6c-0.5,0.6-1.1,1.2-1.6,1.8l-0.8,1l-0.7,1c-0.5,0.7-0.8,1.4-1.2,2.1c-0.2,0.4-0.4,0.7-0.5,1.1
							l-0.3,0.6l-0.1,0.3l-0.1,0.1v0.1l0,0l0,0C339,180.2,339.2,179.9,339,180.2z"/>
					</g>
					<g>
						<path class="st1" d="M378,246.7c-5.9-2.3-25.2-15.4-35.1-29.4c-10.6-15-2.2-34.4-2.2-34.4l0,0c4-9.8,13.5-16.7,24.6-16.7
							c14.7,0,26.6,12.1,26.6,27c0,0.8,0,1.6-0.1,2.4l0,0l0,0c-0.1,0.9-0.2,1.7-0.3,2.6c-1.8,15.8,4.9,20.1,3.5,30.4
							c-1.8,13.4-9.6,19.5-15.8,18.4C378.8,246.9,378.5,246.9,378,246.7"/>
						<path class="st10" d="M378,246.9c-3.3-1.1-6.2-2.9-9.2-4.7c-2.9-1.8-5.8-3.8-8.5-5.9c-2.8-2.1-5.4-4.3-8-6.6
							c-2.6-2.3-5-4.8-7.2-7.5c-1.2-1.3-2.2-2.7-3.2-4.1c-0.9-1.5-2-3-2.6-4.7c-1.5-3.3-2.3-6.8-2.5-10.3s0-7,0.7-10.4
							s1.6-6.7,2.9-10l0.2-0.4l0.4,0.1l0,0l-0.6,0.3c1.3-3,3-5.7,5.2-8.1c2.2-2.4,4.7-4.4,7.6-6c5.7-3.1,12.6-4.1,19-2.6
							c3.2,0.7,6.3,2.1,9.1,3.9c2.8,1.8,5.2,4.2,7.1,7c3.8,5.4,5.8,12.3,5.2,18.9l-1.2-1.7l0,0l1.4,0.3l-0.2,1.4
							c-0.2,1.2-0.4,2.6-0.4,3.8c-0.1,1.2-0.2,2.4-0.2,3.7c0,2.5,0.2,4.9,0.6,7.3c0.5,2.4,1.2,4.8,1.9,7.3c0.7,2.5,1.2,5.2,1.1,7.9
							c0,0.3,0,0.7,0,1l-0.1,1c-0.1,0.7-0.2,1.3-0.3,2c-0.2,1.3-0.6,2.6-0.9,3.8c-0.8,2.5-1.9,5-3.4,7.2s-3.5,4.1-5.9,5.3
							C383.2,247.4,380.5,247.9,378,246.9l0.1-0.3c2.4,0.7,5,0.1,7.1-1.2c2.1-1.3,3.8-3.2,5-5.3c1.3-2.1,2.2-4.4,2.7-6.8
							c0.5-2.4,1-4.9,0.9-7.3c0-4.8-2.4-9.4-3.4-14.7c-0.6-2.6-0.8-5.3-0.8-7.9v-2c0-0.7,0.1-1.3,0.2-2c0.1-1.4,0.3-2.5,0.5-3.9
							l1.2,1.8l0,0l-1.3-0.3l0.1-1.3c0.5-6-1-12.1-4.4-17.1c-3.3-5-8.5-8.8-14.4-10.3c-2.9-0.8-6-1.2-9.1-0.9
							c-3.1,0.3-6.1,1.1-8.9,2.4c-2.8,1.4-5.3,3.2-7.4,5.5c-2.1,2.3-3.8,5-4.9,7.9l-0.2,0.4l-0.4-0.1l0,0l0.5-0.3
							c-1.2,3.1-2,6.5-2.4,9.8c-0.4,3.3-0.4,6.7,0,10l0.4,2.5l0.6,2.4c0.2,0.8,0.5,1.5,0.8,2.3c0.1,0.4,0.3,0.8,0.4,1.1l0.5,1.1
							c0.6,1.5,1.6,2.8,2.4,4.2c1,1.3,2,2.7,3.1,4c2.1,2.6,4.5,5,6.9,7.4c2.4,2.4,4.9,4.6,7.5,6.8c2.6,2.2,5.3,4.3,8,6.3
							s5.5,4,8.6,5.5L378,246.9z"/>
					</g>
					<g>
						<path class="st1" d="M377.5,246.7c-6.1-2.3-26.1-15.7-36.3-29.9c-11-15.2-2.3-35-2.3-35l0,0c4.1-10,14-17,25.4-17
							c15.2,0,27.5,12.3,27.5,27.5c0,0.8,0,1.7-0.1,2.5l0,0l0,0c-0.1,0.9-0.2,1.7-0.4,2.6c-1.9,16.1,5,20.5,3.6,31
							c-1.9,13.7-10,19.8-16.4,18.7C378.2,246.9,377.8,246.9,377.5,246.7"/>
						<path class="st10" d="M377.5,246.7c-3.3-1.3-6.3-3-9.3-4.9s-5.9-3.9-8.7-6s-5.6-4.3-8.2-6.7c-2.6-2.3-5.1-4.8-7.5-7.5
							c-0.6-0.7-1.2-1.3-1.7-2l-1.7-2.1c-0.5-0.7-1-1.5-1.5-2.3c-0.5-0.7-0.9-1.6-1.3-2.4c-1.6-3.3-2.7-6.8-3-10.4
							c-0.4-3.6-0.3-7.2,0.3-10.8c0.5-3.6,1.4-7,2.8-10.5l0.4-1l1.2,0.2l0,0l-1.6,0.8c1.3-3.2,3.2-6.1,5.5-8.6s5.1-4.6,8.1-6.2
							c3-1.6,6.4-2.6,9.8-2.9c3.4-0.4,6.9-0.1,10.2,0.7s6.5,2.2,9.3,4.2c2.8,1.9,5.3,4.4,7.2,7.2c3.9,5.6,5.8,12.6,5.1,19.4
							l-0.9-1.3l0,0l1.1,0.3l-0.2,1.1c-0.2,1.2-0.4,2.6-0.5,3.8c-0.2,1.2-0.2,2.5-0.2,3.8c0,2.5,0.2,5.1,0.7,7.6s1.2,5,1.9,7.5
							c0.7,2.5,1.2,5.3,1.2,8c0,0.7-0.1,1.4-0.1,2c-0.1,0.7-0.2,1.3-0.3,2c-0.2,1.3-0.6,2.6-1,3.9c-0.8,2.5-1.9,5-3.4,7.2
							s-3.5,4.1-5.9,5.3C382.8,247.2,379.8,247.7,377.5,246.7c2.5,0.8,5.2,0.2,7.4-1.1c2.2-1.3,4-3.2,5.4-5.4
							c2.7-4.3,3.9-9.6,4-14.6c0-5.1-2.5-9.8-3.6-15.1c-0.6-2.6-0.9-5.3-0.9-8c0-1.3,0-2.7,0.2-4c0.1-1.4,0.3-2.6,0.4-3.9l0.9,1.4
							l0,0l-1-0.2l0.1-1.1c0.5-6.2-1.3-12.5-4.9-17.5c-1.8-2.5-4-4.7-6.6-6.4c-2.6-1.7-5.4-3-8.4-3.7c-6-1.4-12.5-0.8-18,2
							c-2.7,1.4-5.3,3.3-7.4,5.5c-2.1,2.3-3.8,4.9-5,7.7l-0.5,1.1l-1.1-0.3l0,0l1.6-0.8c-1.3,3-2.2,6.4-2.7,9.8s-0.7,6.8-0.4,10.1
							c0.3,3.4,1.2,6.7,2.6,9.7c0.3,0.8,0.7,1.5,1.2,2.2c0.4,0.7,0.9,1.4,1.3,2.1c1,1.4,2,2.8,3.2,4.1c2.2,2.7,4.6,5.2,7.1,7.6
							c2.5,2.4,5.1,4.8,7.8,7s5.5,4.3,8.3,6.3C371.3,243.2,374.2,245.2,377.5,246.7z"/>
					</g>
					<g>
						<line class="st11" x1="391.5" y1="238.9" x2="364.8" y2="238.9"/>
						<line class="st11" x1="365.5" y1="239.4" x2="391.2" y2="239.4"/>
						<line class="st11" x1="366.3" y1="240.1" x2="390.8" y2="240.1"/>
						<line class="st11" x1="367.2" y1="240.6" x2="390.3" y2="240.6"/>
						<line class="st11" x1="368" y1="241.2" x2="390" y2="241.2"/>
						<line class="st11" x1="368.8" y1="241.8" x2="389.5" y2="241.8"/>
						<line class="st11" x1="369.7" y1="242.2" x2="389" y2="242.2"/>
						<line class="st11" x1="370.5" y1="242.9" x2="388.5" y2="242.9"/>
						<line class="st11" x1="371.5" y1="243.4" x2="388" y2="243.4"/>
						<line class="st11" x1="372.3" y1="244.1" x2="387.5" y2="244.1"/>
						<line class="st11" x1="373.3" y1="244.6" x2="386.8" y2="244.6"/>
						<line class="st11" x1="374.3" y1="245.2" x2="386" y2="245.2"/>
						<line class="st11" x1="375.3" y1="245.8" x2="385" y2="245.8"/>
						<line class="st11" x1="376.5" y1="246.2" x2="384" y2="246.2"/>
					</g>
				</g>
				<g>
					<path class="st1" d="M376,199.2c0,0-11.3,1.2-12.3,8.5c-1.3,9,14.5,7.9,16.2,23.8c1.6,14.6-4.1,27.2-24.6,44.8"/>
					<path class="st10" d="M376,199.2c-2,0.5-4,1.2-5.8,2.1c-1.8,0.9-3.4,2.2-4.4,3.7c-0.5,0.8-0.8,1.6-0.9,2.5
						c-0.1,0.9,0.1,1.7,0.4,2.4c0.6,1.3,2.1,2.2,3.8,3.2c1.7,1,3.6,2.1,5.4,3.4c1.8,1.3,3.6,3,5,5.1c1.4,2,2.3,4.3,2.8,6.7
						c0.3,1.2,0.4,2.4,0.5,3.5c0.1,1.1,0.2,2.2,0.2,3.3c0.1,4.4-0.7,9-2.3,13.1c-1.6,4.2-3.9,7.9-6.6,11.3c-2.7,3.4-5.7,6.4-8.8,9.2
						c-1.6,1.4-3.2,2.7-4.9,4c-1.6,1.3-3.4,2.5-5.1,3.7c5.7-6.1,11.3-12.3,15.6-19.1c2.1-3.4,3.9-7,5-10.7c1.1-3.7,1.6-7.5,1.4-11.4
						c-0.1-4-0.9-7.4-2.7-10.4c-0.9-1.5-2.1-2.8-3.5-4c-1.4-1.3-3-2.5-4.7-3.9c-0.8-0.7-1.7-1.5-2.5-2.5s-1.5-2.2-1.7-3.6
						c-0.1-0.3-0.1-0.7-0.1-1s0-0.7,0-1c0.1-0.6,0.2-1.2,0.4-1.8c0.3-1.2,0.9-2.3,1.7-3.2c0.7-0.9,1.7-1.6,2.6-2.2c1-0.6,2-1,3-1.3
						C371.8,199.6,374,199.2,376,199.2z"/>
				</g>
				<g>
					<path class="st1" d="M358.8,274.5c6.8-5.3,22.8-21.7,22.5-39.2c-0.2-13-5.6-16.8-11.6-20.4c-2.4-1.5-8.4-3.7-5.1-10.1"/>
					<path class="st10" d="M358.8,274.5c5.2-4.8,9.7-10.1,13.8-15.8c2.1-2.8,4-5.8,5.4-9c1.4-3.2,2.4-6.6,2.7-10.1
						c0.2-1.7,0.2-3.5,0-5.2l-0.1-1.3l-0.2-1.3c-0.1-0.9-0.3-1.7-0.4-2.6c-0.4-1.7-0.9-3.3-1.6-4.8s-1.7-2.9-2.8-4.1
						c-2.3-2.4-5.3-4.3-8.3-6.1c-1.5-1-3-2.3-3.6-4.1c-0.6-1.9,0-3.7,0.9-5.2l0.1,0.1c-0.7,1.6-1,3.4-0.4,5c0.6,1.5,2,2.6,3.5,3.4
						l2.3,1.2c0.8,0.4,1.5,0.9,2.3,1.4c1.5,0.9,3,2,4.3,3.4c1.3,1.3,2.3,2.9,3.1,4.5c0.8,1.7,1.2,3.4,1.6,5.2
						c0.3,1.8,0.5,3.6,0.5,5.4c0.1,1.8-0.1,3.6-0.4,5.3c-0.6,3.5-1.7,6.9-3.1,10.2c-1.4,3.3-2.9,6.5-4.9,9.5c-1.9,3-4.2,5.7-6.7,8.3
						c-2.5,2.5-5.1,4.9-8.1,6.9L358.8,274.5z"/>
				</g>
				<g>
					<path class="st1" d="M340.8,177.9c0,0,5.5-13.4,37.8-20.2"/>
					<path class="st10" d="M340.8,177.9c0.5-1.8,1.6-3.4,2.7-4.9c1.2-1.5,2.5-2.8,4-4c2.9-2.4,6.1-4.4,9.5-5.9
						c1.7-0.8,3.5-1.4,5.2-2.1c1.8-0.6,3.6-1.1,5.4-1.6c1.8-0.4,3.6-0.8,5.5-1.1c1.8-0.2,3.7-0.4,5.5-0.5c-1.7,0.7-3.4,1.3-5.2,1.9
						c-1.7,0.6-3.4,1.3-5.1,1.9l-5,2l-2.5,1.1c-0.8,0.3-1.7,0.7-2.5,1.1c-3.3,1.5-6.4,3.2-9.4,5.1c-1.5,1-2.9,2-4.3,3.2
						C343.2,175.1,342,176.4,340.8,177.9z"/>
				</g>
				<g>
					<path class="st1" d="M340.8,175.9c0,0,8.4-19.4,42.8-12.7"/>
					<path class="st10" d="M340.8,175.9c1.6-3.7,4.5-6.8,7.8-9.1s7.2-3.8,11.1-4.7c4-1,8-1,12-0.9c2,0.2,4,0.4,6,0.7
						c2,0.4,3.9,0.8,5.9,1.3c-2-0.1-4-0.4-5.9-0.6l-5.9-0.2c-3.9,0.1-7.9,0.3-11.7,1.2c-3.8,0.8-7.5,2.2-10.8,4.2
						c-0.8,0.6-1.7,1-2.4,1.7l-1.2,0.9c-0.4,0.3-0.7,0.7-1.1,1C343.2,172.8,341.8,174.2,340.8,175.9z"/>
				</g>
			</g>
			<g>
				<g>
					<g>
						<path class="st3" d="M394.8,228.2L394.8,228.2c-2.7,13.4-9,14.6-4.4,17c4.6,2.4,33.7-3.4,44-24.7c7-14.4,6.6-26.4,6.3-31.7
							c0-0.7-0.1-1.4-0.1-2.1c-0.1-0.7-0.1-1.1-0.1-1.1l0,0c-2.1-13.9-14.1-24.6-28.6-24.6c-15.9,0-28.9,12.9-28.9,28.9
							c0,4,0.8,7.8,2.3,11.3l0,0c0,0,0.2,3.1,7.5,15.4C395.2,220.4,395.3,224.7,394.8,228.2z"/>
						<g>
							<path class="st10" d="M395.2,228.4C395.2,228.4,395,228.4,395.2,228.4L395.2,228.4c-0.4,2.2-1,4.4-1.8,6.5
								c-0.7,2.2-1.7,4.2-2.8,6.3c-0.2,0.5-0.5,1-0.7,1.5s-0.2,0.9-0.1,1c0.1,0.1,0.4,0.4,0.9,0.6c0.1,0,0.2,0.1,0.3,0.1l0.3,0.1
								c0.2,0,0.4,0.1,0.7,0.1c2,0.1,4.2-0.3,6.3-0.9c4.2-1.1,8.3-2.7,12.2-4.6c3.9-1.9,7.6-4,11-6.6c3.4-2.5,6.5-5.5,9.1-8.9
								c1.3-1.7,2.4-3.5,3.4-5.5c1-1.9,1.9-4,2.8-6c1.6-4.1,2.6-8.5,3.1-12.9c0.2-2.2,0.3-4.4,0.2-6.7c-0.1-2.2-0.2-4.5-0.6-6.6
								l1.9,0.7l0,0l-1.5,1.4l-0.4-2.1c-0.7-3.9-2.4-7.5-4.6-10.6s-5.2-5.6-8.4-7.6c-6.4-3.9-14.4-4.8-21.4-2.7s-12.9,7.2-16.2,13.7
								c-1.7,3.2-2.6,6.9-2.9,10.5c-0.3,3.7,0.1,7.5,1.3,11.1l1.4,4.4l-3.9-1.8l0,0l2.6-2c0-0.1,0-0.1,0-0.1l0,0v0.1
								c0,0.1,0,0.2,0.1,0.4c0,0.2,0.1,0.5,0.2,0.8c0.1,0.5,0.3,1.1,0.5,1.7c0.4,1.1,0.8,2.2,1.2,3.4c0.9,2.2,1.9,4.4,3,6.6
								c0.5,1.1,1.1,2.1,1.6,3.3s0.9,2.4,1.1,3.6c0.2,1.2,0.3,2.5,0.3,3.7c0,0.6,0,1.2,0,1.9C395.3,227.2,395.2,227.7,395.2,228.4z
								 M394.7,228.2c0-0.5,0.1-1.1,0.1-1.7c0-0.6,0-1.2,0-1.8c-0.1-1.2-0.2-2.4-0.5-3.5s-0.7-2.3-1.3-3.3s-1.3-2-2-3
								c-1.3-2-2.7-4.1-4-6.2c-0.6-1.1-1.3-2.1-1.9-3.3c-0.3-0.6-0.6-1.1-0.9-1.7c-0.1-0.3-0.3-0.6-0.4-0.9
								c-0.1-0.2-0.1-0.3-0.2-0.5c0-0.1-0.1-0.2-0.1-0.3v-0.2c0-0.1,0-0.1,0-0.3l-0.3-2.8l2.9,0.8l0,0l-2.5,2.6
								c-2-3.9-3.2-8.3-3.2-12.8c-0.1-4.5,0.9-9,2.8-13.1c1.9-4.1,4.7-7.8,8.2-10.7s7.6-5,12-6.1c4.4-1.2,9-1.3,13.4-0.6
								c4.4,0.7,8.7,2.5,12.3,5c3.6,2.6,6.6,5.9,8.8,9.7c2.2,3.8,3.5,7.9,4,12.2l-1.9-0.7l0,0l1.7-1.4l0.2,2.1
								c0.2,2.4,0.2,4.6,0.2,6.9s-0.1,4.6-0.4,6.8c-0.5,4.6-1.3,9.1-2.6,13.5c-0.3,1.1-0.6,2.2-1,3.3c-0.4,1.1-0.7,2.2-1.2,3.3
								c-0.8,2.2-1.8,4.3-3,6.4c-2.4,4.1-5.6,7.8-9.3,10.8c-3.7,3-7.8,5.4-12.2,7.1c-4.4,1.8-9,2.9-13.6,3.3
								c-1.2,0.1-2.4,0.2-3.5,0.2c-1.2,0-2.4-0.1-3.7-0.4c-0.3-0.1-0.6-0.2-1-0.3l-0.5-0.2c-0.2-0.1-0.3-0.2-0.4-0.3
								c-0.5-0.4-1.2-0.8-1.5-1.7c-0.2-0.5-0.1-1-0.1-1.3c0.1-0.4,0.2-0.7,0.4-1c0.3-0.6,0.6-1,0.9-1.5c1.3-1.9,2.4-3.8,3.3-5.8
								c0.4-1,0.8-2.1,1.1-3.2C394,230.4,394.3,229.4,394.7,228.2L394.7,228.2L394.7,228.2z"/>
						</g>
					</g>
					<g>
						<path class="st3" d="M394.8,228.8L394.8,228.8c-2.7,13-9,14.2-4.4,16.5c4.6,2.3,33.7-3.3,44-24.1c7-14,6.6-25.7,6.3-30.9
							c0-0.7-0.1-1.4-0.1-2c-0.1-0.7-0.1-1-0.1-1l0,0c-2.1-13.6-14.1-24-28.6-24c-15.9,0-28.9,12.6-28.9,28.1c0,3.9,0.8,7.6,2.3,11
							l0,0c0,0,0.2,3,7.5,15C395.2,220.9,395.3,225.2,394.8,228.8z"/>
						<g>
							<path class="st10" d="M395,228.9C395,228.9,395,228.9,395,228.9L395,228.9c-0.9,4.3-2.6,8.5-5,12.3c-0.3,0.5-0.6,1-0.8,1.4
								c-0.2,0.5-0.4,1-0.1,1.5c0.2,0.4,0.7,0.7,1.2,1c0.2,0.1,0.5,0.2,0.7,0.3c0.3,0,0.5,0.1,0.8,0.1c2.2,0.2,4.4,0,6.6-0.4
								c4.3-0.8,8.6-2.2,12.6-3.9c4-1.8,7.9-4,11.3-6.7c1.7-1.3,3.4-2.8,4.9-4.4c1.5-1.6,2.9-3.2,4.1-5s2.3-3.7,3.1-5.7
								c0.9-2,1.7-4,2.4-6.1c1.4-4.2,2.3-8.4,2.7-12.8c0.2-2.2,0.3-4.4,0.3-6.5c0-2.2-0.1-4.4-0.4-6.5l1.8,0.7l0,0l-1.5,1.3l-0.3-2
								c-0.6-3.8-2.1-7.5-4.3-10.7c-2.1-3.2-5.1-5.9-8.3-7.9c-6.5-4.1-14.8-5.1-22.1-3.1c-3.7,1-7.2,2.7-10.2,5.1
								c-3,2.4-5.4,5.4-7.2,8.8c-1.8,3.4-2.8,7.1-3.1,11c-0.3,3.9,0.4,7.8,1.8,11.4l0.7,1.7l-1.7-0.7l0,0l1-0.8
								c0,0.1,0.1,0.5,0.2,0.7c0.1,0.3,0.2,0.5,0.2,0.8c0.2,0.5,0.4,1.1,0.6,1.6c0.4,1.1,0.9,2.2,1.4,3.2c1,2.1,2.1,4.2,3.3,6.3
								c0.6,1,1.2,2,1.8,3.1c0.5,1.1,0.9,2.3,1.2,3.4C395.3,223.9,395.3,226.4,395,228.9z M394.8,228.7c0.2-2.3,0.2-4.7-0.3-7
								c-0.3-1.1-0.7-2.2-1.2-3.3c-0.6-1-1.2-2-1.9-3c-1.3-2-2.5-4.1-3.7-6.2c-0.6-1.1-1.1-2.1-1.7-3.2c-0.3-0.5-0.5-1.1-0.7-1.7
								c-0.1-0.3-0.2-0.6-0.3-0.9c-0.1-0.3-0.2-0.6-0.3-1l-0.2-1.2l1.2,0.4l0,0l-1,1c-3.6-7.5-3.6-16.7,0.2-24.3
								c1.8-3.8,4.6-7.2,7.9-9.9c3.3-2.6,7.2-4.6,11.3-5.7c8.2-2.1,17.3-0.8,24.3,3.8c3.5,2.3,6.6,5.3,8.9,8.8s3.8,7.5,4.4,11.7
								l-1.8-0.7l0,0l1.6-1.3l0.2,2c0.3,2.4,0.3,4.6,0.4,6.8c0,2.3-0.1,4.5-0.4,6.8c-0.5,4.5-1.5,8.9-3,13.2
								c-0.8,2.1-1.6,4.2-2.6,6.2c-0.9,2-2.1,4-3.4,5.9c-2.6,3.7-5.9,6.9-9.5,9.6c-3.6,2.7-7.6,4.8-11.8,6.5
								c-4.2,1.7-8.5,2.9-12.9,3.6c-2.2,0.3-4.5,0.6-6.7,0.2c-0.3,0-0.6-0.1-0.8-0.2c-0.3-0.1-0.6-0.2-0.8-0.3
								c-0.5-0.3-1-0.6-1.3-1.1c-0.3-0.6-0.1-1.2,0.1-1.7s0.5-1,0.8-1.5c1.2-1.9,2.2-3.8,3-5.9C393.7,233.1,394.2,230.9,394.8,228.7
								L394.8,228.7L394.8,228.7z"/>
						</g>
					</g>
					<g>
						<path class="st1" d="M395.7,229.1L395.7,229.1c-2.6,12.8-8.6,14-4.2,16.2c4.4,2.3,32.3-3.2,42.3-23.6
							c6.7-13.7,6.3-25.3,6.1-30.4c0-0.7-0.1-1.3-0.1-2c-0.1-0.7-0.1-1-0.1-1l0,0c-2-13.3-13.5-23.6-27.4-23.6
							c-15.3,0-27.7,12.4-27.7,27.6c0,3.8,0.8,7.5,2.2,10.8l0,0c0,0,0.2,3,7.2,14.7C395.8,221.4,396,225.6,395.7,229.1z"/>
						<g>
							<path class="st10" d="M395.7,229.1L395.7,229.1L395.7,229.1c-0.4,2.1-1,4.2-1.8,6.2s-1.8,3.9-2.9,5.8
								c-0.3,0.5-0.5,0.9-0.8,1.4c-0.2,0.5-0.4,1-0.2,1.5c0.2,0.4,0.7,0.8,1.1,1c0.5,0.3,1,0.4,1.5,0.5c2.1,0.3,4.3,0,6.4-0.4
								c8.4-1.6,16.5-5.2,23.3-10.4c3.4-2.6,6.4-5.7,8.8-9.3c1.2-1.8,2.2-3.7,3.1-5.6c0.9-2,1.7-4,2.4-6c1.4-4.1,2.3-8.3,2.8-12.6
								c0.4-4.3,0.4-8.6-0.1-12.9l0.3,0.1l0,0l-0.2,0.2v-0.3c-0.6-3.8-2-7.5-4.2-10.8c-2.1-3.3-5-6-8.2-8.1
								c-6.5-4.3-14.8-5.4-22.3-3.3c-3.7,1-7.2,2.9-10.2,5.3c-3,2.5-5.4,5.6-7.1,9.1c-3.4,6.9-3.7,15.3-0.7,22.5l0.2,0.5l-0.5-0.2
								l0,0l0.3-0.2c0.2,1.1,0.6,2.2,1.1,3.2c0.4,1.1,0.9,2.1,1.5,3.2c1,2.1,2.1,4.1,3.3,6.2c0.6,1,1.2,2,1.7,3.1s0.9,2.2,1.1,3.3
								C396,224.4,396,226.8,395.7,229.1z M395.5,229.1c0.3-2.3,0.2-4.7-0.3-6.9c-0.3-1.1-0.6-2.2-1.2-3.3c-0.5-1-1.2-2-1.8-3
								c-1.2-2-2.3-4-3.4-6.1c-0.5-1-1.1-2.1-1.5-3.2c-0.5-1.1-0.9-2.1-1.2-3.4l-0.1-0.4l0.4,0.1l0,0l-0.3,0.3
								c-3.2-7.2-3-15.9,0.5-23c1.7-3.6,4.2-6.8,7.2-9.3c3-2.6,6.6-4.4,10.5-5.5c7.6-2.1,16.2-0.9,22.8,3.5c3.3,2.2,6.2,5,8.3,8.3
								s3.5,7.1,4.1,11l-0.3-0.1l0,0l0.2-0.2v0.3c0.5,4.3,0.5,8.7,0,13c-0.4,4.3-1.3,8.6-2.7,12.7c-0.7,2.1-1.4,4.1-2.3,6.1
								c-0.9,2-1.9,3.9-3.1,5.7c-2.4,3.6-5.4,6.9-8.9,9.5c-1.7,1.3-3.5,2.6-5.4,3.7c-1.9,1.1-3.8,2.1-5.8,2.9c-4,1.7-8.2,3-12.5,3.7
								c-2.1,0.3-4.3,0.6-6.5,0.3c-0.5-0.1-1.1-0.2-1.6-0.5s-1-0.6-1.2-1.1c-0.2-0.6,0-1.2,0.2-1.6c0.2-0.5,0.5-1,0.8-1.4
								c1.1-1.8,2.1-3.7,2.9-5.8C394.5,233.2,395.2,231.2,395.5,229.1L395.5,229.1L395.5,229.1L395.5,229.1z"/>
						</g>
					</g>
					<g>
						<line class="st11" x1="391.2" y1="238.9" x2="417.3" y2="238.9"/>
						<line class="st11" x1="390.8" y1="239.4" x2="416.3" y2="239.4"/>
						<line class="st11" x1="415.2" y1="240.1" x2="390.5" y2="240.1"/>
						<line class="st11" x1="414" y1="240.6" x2="390.2" y2="240.6"/>
						<line class="st11" x1="412.7" y1="241.2" x2="389.8" y2="241.2"/>
						<line class="st11" x1="411.3" y1="241.8" x2="389.5" y2="241.8"/>
						<line class="st11" x1="409.8" y1="242.2" x2="389.2" y2="242.2"/>
						<line class="st11" x1="408.3" y1="242.9" x2="389" y2="242.9"/>
						<line class="st11" x1="407" y1="243.4" x2="388.8" y2="243.4"/>
						<line class="st11" x1="405" y1="244.1" x2="389" y2="244.1"/>
						<line class="st11" x1="402.8" y1="244.6" x2="389.5" y2="244.6"/>
						<line class="st11" x1="400.5" y1="245.2" x2="390.3" y2="245.2"/>
					</g>
				</g>
				<g>
					<path class="st10" d="M435.3,174.9c4.6,5.1,7,12.1,7,19.2s-2.4,14.1-5.9,20.2c-3.5,6.2-8.2,11.4-13.2,16.2
						c-5.1,4.8-10.8,8.9-16.8,12.4c-6.1,3.5-12.5,6.2-19.1,8.4c-3.3,1-6.7,1.9-10,2.7c-3.4,0.8-6.8,1.3-10.2,1.7
						c-3.4,0.4-6.9,0.7-10.3,0.8c-3.4,0.1-6.9,0.1-10.3,0c-6.8-0.4-13.7-1.1-20.3-2.9c6.8,0.4,13.5,0.4,20.2,0s13.3-1.2,19.9-2.5
						c6.5-1.3,13-2.9,19.2-5.2c6.2-2.2,12.3-4.9,17.9-8.2c5.7-3.2,11.1-7.1,16-11.4c4.9-4.3,9.4-9.2,13.1-14.5
						c1.8-2.7,3.3-5.6,4.6-8.5c1.2-3,2.1-6.1,2.4-9.4c0.4-3.2,0.2-6.5-0.5-9.8c-0.3-1.6-0.8-3.2-1.4-4.8
						C437,177.9,436.2,176.2,435.3,174.9z"/>
					<path class="st10" d="M435.3,174.9c3.3,4.7,5.1,10.3,5.6,16s-0.4,11.5-2.4,16.9s-5.1,10.3-8.7,14.8c-3.6,4.4-7.8,8.4-12.2,12
						c-9,7.1-19.3,12.5-30.2,15.9c-5.4,1.7-11,3-16.6,3.9c-5.6,0.9-11.3,1.4-17,1.5c5.7-0.4,11.3-1.1,16.9-2.2
						c5.6-1,11.1-2.5,16.4-4.3c10.7-3.6,20.8-8.9,29.6-16c4.4-3.5,8.5-7.4,12.1-11.7c1.8-2.2,3.4-4.4,4.9-6.8
						c1.4-2.4,2.8-4.9,3.8-7.5c2.1-5.2,3.1-10.8,2.7-16.5C440,185.2,438.3,179.7,435.3,174.9z"/>
				</g>
				<path class="st10" d="M415.2,197.7c1.9-1.2,3.9-2.1,6-2.9c2.1-0.7,4.4-1.2,6.8-1.3c2.3-0.1,4.8,0.3,7.2,1.4
					c0.6,0.3,1.2,0.6,1.7,1s1,0.8,1.5,1.2c1.1,1,1.8,2.5,2.1,4c0.5,2.9-0.3,5.4-1.3,7.6c-1,2.2-2.2,4.1-3.6,5.9
					c-2.8,3.5-6,6.7-9.7,9.2c2.3-3.8,4.7-7.4,6.7-11.1c1-1.8,2-3.7,2.6-5.6c0.7-1.8,1.1-3.7,0.8-5.1c-0.1-0.7-0.4-1.2-0.9-1.7
					l-1-0.8c-0.3-0.3-0.7-0.5-1.1-0.7c-1.5-0.9-3.4-1.4-5.4-1.6C423.8,196.6,419.5,197.1,415.2,197.7z"/>
				<g>
					<g>
						<path class="st3" d="M440.7,183.6c0,0-18.6,12.4-6.1,44.7C434.5,228.2,451.3,209.2,440.7,183.6z"/>
						<path class="st10" d="M440.5,183.9c0,0.2,0.2,0.1,0,0.3l-0.2,0.3c-0.2,0.2-0.3,0.4-0.4,0.6c-0.3,0.4-0.5,0.8-0.8,1.2
							s-0.5,0.8-0.8,1.3c-0.2,0.4-0.5,0.8-0.7,1.3l-0.7,1.3c-0.2,0.4-0.4,0.9-0.6,1.3c-0.4,0.8-0.7,1.7-1,2.6
							c-0.6,1.7-1.1,3.5-1.5,5.3c-0.1,0.5-0.2,0.9-0.3,1.4s-0.1,0.9-0.2,1.4c-0.2,0.9-0.4,1.8-0.5,2.8c-0.2,0.9-0.3,1.9-0.5,2.8
							l-0.3,2.9c-0.1,0.5-0.1,1-0.1,1.5v1.5c0,1,0.1,2,0.2,3c0.3,2,0.9,3.9,1.5,5.8c0.8,1.8,1.7,3.6,2.6,5.4l-2.8-0.5
							c0.9-1.5,1.8-3.3,2.5-5l1.1-2.6c0.3-0.9,0.7-1.7,1-2.6c1.3-3.5,2-7.1,2.6-10.7l0.3-1.4c0-0.5,0.1-0.9,0.1-1.4l0.2-1.4
							c0.1-0.5,0.1-0.9,0.1-1.4c0.1-1.8,0.2-3.7,0.1-5.6c-0.1-0.9,0.1-1.9-0.1-2.8c-0.1-0.9-0.2-1.9-0.2-2.9c0-0.5-0.1-1-0.1-1.3
							L441,187C440.8,186.1,440.8,185.1,440.5,183.9z M440.7,183.4c0.5,0.7,1,1.5,1.7,2.5c0.6,0.9,1.3,2.1,1.6,3
							c0.8,1.9,1.6,3.8,2,5.9c1.1,4,1.3,8.3,0.8,12.6c-0.5,4.2-1.8,8.3-3.7,12c-0.5,0.9-1,1.9-1.5,2.8c-0.5,0.9-1.1,1.8-1.7,2.6
							c-1.2,1.7-2.6,3.2-4.2,4.7l-2.3,2.2l-0.5-2.7c-0.4-2-0.8-4.1-1.4-6c-0.4-2-0.9-4-1.4-6c-0.2-1-0.4-2-0.7-3l-0.4-1.5l-0.3-1.5
							l-0.6-3.1c-0.1-1.1-0.2-2.1-0.2-3.2c-0.1-1.1,0-2.2,0.2-3.2c0.1-1.1,0.3-2.1,0.6-3.2c0.5-2.1,1.4-4.1,2.5-6
							c0.6-0.9,1.1-1.9,1.8-2.7c0.3-0.4,0.7-0.9,1-1.3l1.1-1.2c0.4-0.4,0.8-0.7,1.2-1.1c0.4-0.3,0.8-0.7,1.3-1
							c0.4-0.3,0.9-0.6,1.4-0.8c0.2-0.1,0.5-0.3,0.7-0.4l0.4-0.2C440.2,183.4,440.5,183.2,440.7,183.4z"/>
					</g>
					<path class="st10" d="M440.5,183.8C440.5,183.8,440.7,183.8,440.5,183.8C440.7,183.8,440.7,183.8,440.5,183.8v0.1l-0.1,0.1
						l-0.2,0.3l-0.4,0.6c-0.3,0.4-0.5,0.8-0.8,1.2c-0.5,0.8-1,1.7-1.4,2.5c-0.9,1.7-1.6,3.5-2.2,5.3c-1.2,3.6-1.9,7.4-2.3,11.2
						c-0.5,3.8-0.8,7.7-0.4,11.6c0.4,3.9,1.3,7.7,2.6,11.4l-1.5-0.3c0.9-1.6,1.7-3.4,2.5-5.1c0.7-1.7,1.4-3.5,2-5.3
						c1.2-3.6,2-7.3,2.5-11c0.6-3.7,0.8-7.5,0.8-11.3c-0.1-1.9-0.1-3.8-0.4-5.7c-0.1-1-0.2-1.9-0.3-2.9c-0.1-0.5-0.1-0.9-0.2-1.3
						C440.7,184.8,440.7,184.2,440.5,183.8z M440.7,183.4c0.2,0.4,0.4,0.8,0.6,1.3s0.4,1.1,0.6,1.5c0.3,0.9,0.7,1.9,0.9,2.8l0.4,1.4
						l0.3,1.4c0.2,1,0.3,1.9,0.5,2.9c0.5,3.9,0.5,7.9,0.1,11.9c-0.5,4-1.6,7.8-3,11.5c-1.4,3.7-3.3,7.2-5.8,10.4l-1.1,1.4l-0.3-1.7
						c-0.8-3.9-1.4-7.8-2-11.7c-0.5-3.9-1.2-7.9-1.1-11.9c0.1-2,0.3-4,0.8-6c0.4-2,1.1-3.9,1.9-5.8c0.8-1.9,1.8-3.7,3-5.3
						c0.6-0.8,1.2-1.6,1.9-2.3c0.3-0.4,0.7-0.7,1.1-1c0.2-0.2,0.4-0.3,0.6-0.5l0.3-0.2l0.2-0.1l0.1-0.1h0.1
						C440.5,183.4,440.7,183.4,440.7,183.4z"/>
					<path class="st10" d="M434.5,228.2c1-3.6,1.8-7.3,2.4-11c0.7-3.7,1.2-7.4,1.6-11.2c0.4-3.7,0.6-7.5,1-11.2
						c0.2-1.9,0.3-3.7,0.5-5.6c0.1-0.9,0.2-1.9,0.2-2.8c0.1-0.9,0.2-1.9,0.3-2.8h0.1c0.4,3.8,0.4,7.6,0.3,11.4
						c-0.1,3.8-0.7,7.5-1.3,11.3c-1.2,7.5-2.7,14.9-5.1,22.1V228.2z"/>
					<path class="st10" d="M434.5,228.2c0-3.8,0.2-7.5,0.5-11.3s0.7-7.5,1.2-11.2s0.9-7.5,1.6-11.2s1.6-7.4,2.7-11h0.1
						c-0.1,1.9-0.4,3.8-0.6,5.6c-0.2,1.9-0.5,3.7-0.8,5.6c-0.5,3.7-1.3,7.4-1.9,11.1c-0.6,3.7-1.2,7.4-1.7,11.1
						C435,220.7,434.7,224.4,434.5,228.2L434.5,228.2L434.5,228.2z"/>
					<path class="st10" d="M440.7,183.7c-1.1,1.5-2,3.3-2.8,5s-1.4,3.6-1.9,5.4c-1.1,3.7-1.7,7.5-2,11.3l-0.2,2.9v2.9
						c0,1,0,1.9,0,2.9l0.1,2.9c0,1.9,0.2,3.8,0.3,5.7c0.2,1.9,0.3,3.8,0.4,5.8h-0.1c-0.5-1.9-0.9-3.8-1.3-5.7
						c-0.3-1.9-0.6-3.8-0.7-5.8c-0.1-1.9-0.2-3.9-0.1-5.8l0.2-2.9l0.3-2.9c0.5-3.9,1.2-7.7,2.5-11.4c0.6-1.8,1.4-3.6,2.2-5.4
						C438.5,186.9,439.3,185.2,440.7,183.7L440.7,183.7z"/>
					<path class="st10" d="M434.5,228.2c-0.4-1.9-0.7-3.8-0.9-5.7c-0.1-1.9-0.4-3.8-0.3-5.7l0.1-2.9c0-1,0.1-1.9,0.2-2.9
						c0.1-1.9,0.2-3.8,0.4-5.7c0.3-3.8,1-7.6,2.1-11.3c1.1-3.7,2.6-7.3,4.7-10.5h0.1c-1.7,3.4-3,7-4,10.7s-1.8,7.4-2.4,11.2
						c-0.6,3.8-0.7,7.6-0.4,11.4c0,0.5,0,1,0,1.4c0,0.5,0.1,0.9,0.1,1.4l0.2,2.9C434.2,224.4,434.5,226.4,434.5,228.2L434.5,228.2z"
						/>
					<path class="st10" d="M434.5,228.2c1.5-3.5,2.5-7.1,3.4-10.8c0.9-3.7,1.5-7.4,2-11.2c0.1-0.9,0.2-1.9,0.3-2.8
						c0.1-0.9,0.2-1.9,0.2-2.8l0.2-2.8l0.1-2.8c0.1-1.9,0-3.8,0.1-5.7c0-0.9,0-1.9-0.1-2.8v-2.8h0.1c0.2,1.9,0.4,3.8,0.5,5.7
						c0.1,1.9,0.2,3.8,0.1,5.7l-0.1,2.9l-0.2,2.8c-0.1,0.9-0.2,1.9-0.3,2.8c-0.1,0.9-0.2,1.9-0.3,2.8c-0.5,3.8-1.3,7.5-2.2,11.2
						C437.2,221.2,436.2,224.9,434.5,228.2L434.5,228.2z"/>
				</g>
				<g>
					<g>
						<path class="st3" d="M385.5,201.2c0,0,13.4,5.7,14.9,15.2c1.8,11.4-7.4,19.6-7.4,19.6s4.8-11.2,0-19.3
							C385.7,204.4,385.5,201.2,385.5,201.2z"/>
						<path class="st10" d="M385.2,200.9c0.1-0.1,0.3-0.1,0.5,0h0.2h0.4c0.2,0,0.5,0.1,0.7,0.1c0.5,0.1,1,0.2,1.4,0.3
							c0.9,0.3,1.8,0.6,2.7,0.9c1.8,0.8,3.5,1.7,5.1,2.9c1.6,1.2,3,2.6,4.2,4.4c1.2,1.8,2,3.9,2.1,6.1c0,2.1-0.3,4.1-0.8,6
							s-1.1,3.7-1.8,5.5s-1.5,3.5-2.3,5.2c-0.4,0.9-0.9,1.7-1.4,2.6c-0.5,0.9-1,1.6-1.8,2.5l-5.4,6.4l2-8.9c0.3-1.3,0.5-2.8,0.8-4.2
							c0.2-1.4,0.3-2.8,0.3-4.2s-0.1-2.7-0.3-4s-0.5-2.5-1-3.6l-0.3-0.8c-0.1-0.3-0.3-0.7-0.5-1c-0.3-0.7-0.7-1.4-1-2.1
							c-0.7-1.4-1.3-2.9-1.8-4.4s-1-3-1.4-4.6c-0.2-0.8-0.3-1.6-0.5-2.4c0-0.4-0.1-0.8-0.1-1.2c0-0.2,0-0.4,0-0.6v-0.3v-0.2v-0.1
							c0,0,0,0,0-0.1C385,201.2,385.2,201.1,385.2,200.9z M385.5,201.4c0.1,0,0.2-0.1,0.1-0.2l0,0v0.1l0.1,0.1l0.1,0.2l0.3,0.5
							c0.2,0.3,0.4,0.6,0.7,1c0.4,0.6,0.9,1.3,1.3,1.9l2.7,3.7l2.7,3.7l1.3,1.9c0.2,0.3,0.4,0.6,0.7,1l0.7,1.2
							c0.2,0.4,0.4,0.9,0.6,1.3c0.2,0.4,0.4,0.9,0.5,1.3c0.2,0.9,0.5,1.8,0.6,2.7c0.3,1.8,0.2,3.6,0,5.3s-0.6,3.4-1.1,5
							s-1.1,3.1-2,4.7l-3.4-2.5c0.6-0.4,1.3-0.9,2-1.5s1.3-1.2,1.9-1.8c1.2-1.3,2.1-2.8,2.8-4.4c0.4-0.8,0.6-1.7,0.8-2.5
							c0.1-0.4,0.1-0.9,0.1-1.3c0-0.2,0-0.4,0-0.6v-0.7c0-1.7-0.6-3.4-1.1-4.9c-0.6-1.4-1.3-2.6-2.1-3.9c-0.8-1.3-1.9-2.5-3-3.8
							c-1.1-1.2-2.4-2.4-3.7-3.7c-0.3-0.3-0.6-0.6-1-0.9c-0.3-0.3-0.7-0.6-1-0.9l-1-0.9c-0.2-0.2-0.3-0.3-0.5-0.5l-0.3-0.2l-0.1-0.1
							C385.5,201.7,385.5,201.6,385.5,201.4z"/>
					</g>
					<path class="st10" d="M393,235.9L393,235.9c-0.2,0-0.2,0-0.2,0l0,0v-0.1l0.1-0.1l0.2-0.3l0.3-0.6l0.6-1.1
						c0.4-0.8,0.7-1.5,1-2.3c0.6-1.5,1.1-3.1,1.5-4.7c0.8-3.1,0.8-6.4,0.3-9.4c-0.6-3-2.3-6.1-4.4-8.6c-2.2-2.6-4.8-4.8-7.6-6.6
						l1.3-1.2c2,2.5,3.9,5.1,5.7,7.8c0.9,1.3,1.8,2.7,2.7,4l1.3,2.1c0.4,0.7,0.8,1.4,1.2,2.3c0.7,1.7,0.9,3.5,0.8,5.3
						c0,1.7-0.3,3.4-0.8,5c-0.4,1.6-1,3.2-1.7,4.6c-0.3,0.7-0.7,1.5-1.1,2.2l-0.6,1.1l-0.3,0.5l-0.2,0.3l-0.1,0.1v0.1l0,0
						C393.2,235.9,393,235.9,393,235.9z M392.8,236.1c-0.1,0-0.1-0.2,0-0.2l0,0v-0.1v-0.1l0.1-0.3l0.2-0.6l0.3-1.2
						c0.2-0.8,0.4-1.5,0.6-2.3c0.3-1.5,0.7-3.1,0.8-4.6c0.4-3,0.3-6.1-0.7-8.6c-0.3-0.5-0.7-1.2-1-1.9l-1.2-2l-2.4-4.1
						c-1.6-2.7-3.3-5.5-4.8-8.3l-0.1-0.2c-0.2-0.4-0.1-1,0.4-1.2c0.4-0.2,0.8-0.1,1.1,0.1c1.3,1.2,2.4,2.5,3.6,3.7s2.3,2.5,3.5,3.8
						c1.1,1.3,2.3,2.6,3.4,4c1.1,1.4,2.1,2.9,2.7,4.7c1.1,3.5,0.8,7.3-0.4,10.7c-0.6,1.7-1.4,3.3-2.3,4.8c-0.5,0.7-1,1.4-1.6,2.1
						c-0.3,0.3-0.6,0.7-0.9,1c-0.1,0.2-0.3,0.3-0.5,0.5l-0.2,0.2l-0.1,0.1l-0.1,0.1l0,0c0,0,0,0-0.1,0.1
						C393,236.1,392.8,236.1,392.8,236.1z"/>
					<path class="st10" d="M385.5,201.2c2.6,2.1,4.9,4.5,7.1,7.1c1,1.3,2,2.7,2.9,4.1c0.4,0.7,0.9,1.4,1.2,2.2
						c0.3,0.8,0.6,1.6,0.8,2.4c0.4,1.6,0.6,3.3,0.6,5s-0.2,3.4-0.6,5c-0.4,1.6-1,3.2-1.7,4.8c-0.7,1.5-1.7,2.9-2.7,4.2h-0.1
						c0.9-1.4,1.6-2.9,2.3-4.4c0.6-1.5,1.1-3.1,1.4-4.7c0.7-3.2,0.9-6.5,0.4-9.8c-0.1-0.8-0.3-1.6-0.6-2.4c-0.3-0.8-0.7-1.5-1.2-2.2
						c-0.9-1.4-2-2.6-3.1-3.8L385.5,201.2L385.5,201.2z"/>
					<path class="st10" d="M385.5,201.2c2.9,1.8,5.7,3.9,8.2,6.3c1.3,1.2,2.4,2.5,3.5,3.9c1.1,1.4,2,3,2.5,4.7
						c1.2,3.4,0.8,7.3-0.4,10.6c-0.6,1.7-1.4,3.2-2.4,4.7s-2,2.9-3.3,4.1l-0.1-0.1c1.8-2.9,3.4-6,4.4-9.2c0.1-0.4,0.3-0.8,0.4-1.2
						c0.1-0.4,0.2-0.8,0.3-1.2l0.3-1.2c0.1-0.4,0.1-0.8,0.2-1.2c0.2-1.6,0.1-3.3-0.4-4.9c-0.9-3.2-3.1-5.9-5.4-8.4
						c-2.4-2.5-5-4.7-7.8-6.7V201.2z"/>
				</g>
				<g>
					<g>
						<path class="st10" d="M409.5,185.8c0.4-0.2,0.9-0.4,1.3-0.5c0.4-0.1,0.9-0.2,1.4-0.3c1-0.2,2-0.2,2.9,0l1,0.2l-0.3,1.2
							c-0.2,0.9-0.5,1.7-0.8,2.6c-0.2,0.4-0.4,0.9-0.7,1.3c-0.3,0.4-0.6,0.9-1.3,1.4c-0.8,0.5-1.3,0.6-1.9,0.7
							c-0.5,0.1-1,0.2-1.5,0.3c-1,0.1-1.9,0.1-2.8-0.2l-2.5-0.7l0.6-1.9c0.2-0.5,0.4-0.9,0.7-1.4c0.3-0.4,0.7-0.9,1.2-1.2
							c0.4-0.4,0.9-0.7,1.4-1C408.5,186.2,409,185.9,409.5,185.8z M409.7,186.2c-0.3,0.3-0.6,0.6-0.7,1c-0.1,0.4-0.1,0.8,0,1.3
							c0.2,0.9,0.4,1.6,0.3,2.4l-1.8-2.6c0.7,0,1.5,0.1,2.2,0.3c0.3,0.1,0.7,0.1,1,0.2c0.3,0.1,0.6,0,0.5,0.1c0,0.1,0.3-0.1,0.5-0.3
							s0.5-0.5,0.7-0.8c0.5-0.6,0.9-1.3,1.3-1.9l0.7,1.5c-0.7-0.4-1.4-0.9-2.2-1.2c-0.4-0.2-0.8-0.3-1.2-0.2
							C410.3,185.8,410,185.9,409.7,186.2z"/>
						<path class="st10" d="M409.8,186.6c0.7-0.4,1.5-0.7,2.3-0.8c0.8-0.2,1.7-0.1,2.5-0.1l0.5,0.1l-0.3,0.5
							c-0.4,0.7-0.8,1.4-1.2,2.1c-0.5,0.7-0.9,1.3-1.7,1.9c-0.8,0.5-1.7,0.6-2.5,0.8c-0.8,0.1-1.6,0.2-2.4,0.2l-1.1-0.1l0.4-0.9
							c0.3-0.8,0.8-1.5,1.5-2.1C408.5,187.4,409.2,186.9,409.8,186.6z M410,186.7c-0.3,0.2-0.6,0.5-0.9,0.8c-0.2,0.3-0.4,0.7-0.6,1
							c-0.3,0.7-0.5,1.5-0.7,2.2l-0.7-1c0.7-0.1,1.5-0.1,2.2-0.1s1.5-0.1,2.1-0.4c0.5-0.3,1.1-0.9,1.6-1.4c0.5-0.6,0.9-1.2,1.4-1.8
							l0.3,0.6c-0.8-0.2-1.5-0.3-2.3-0.4C411.5,186.1,410.5,186.2,410,186.7z"/>
						<path class="st10" d="M410,186.9c0.7-0.4,1.4-0.7,2.2-0.8c0.8-0.2,1.6-0.2,2.3-0.2h0.3l-0.2,0.3c-0.4,0.6-0.9,1.2-1.4,1.8
							s-1,1.2-1.7,1.6c-0.7,0.4-1.5,0.6-2.2,0.8c-0.8,0.2-1.5,0.3-2.3,0.4l-0.7,0.1l0.3-0.6c0.4-0.7,0.9-1.3,1.4-1.9
							C408.8,187.8,409.3,187.2,410,186.9z M410,186.9c-0.7,0.4-1.2,0.9-1.7,1.6c-0.4,0.6-0.8,1.3-1.1,2l-0.4-0.5
							c0.7-0.1,1.5-0.2,2.2-0.3s1.5-0.3,2.1-0.6c0.6-0.3,1.2-0.9,1.7-1.4s1-1.1,1.5-1.7l0.1,0.3c-0.8-0.1-1.5-0.1-2.3,0
							C411.5,186.2,410.8,186.6,410,186.9z"/>
						<path class="st10" d="M414.8,186.1c0.7,1.3,1.1,2.6,1.5,4c0.1,0.7,0.2,1.5,0.2,2.4l-0.1,0.7c-0.1,0.2-0.2,0.5-0.2,0.7
							c-0.1,0.3-0.3,0.5-0.5,0.8s-0.5,0.5-0.8,0.7s-0.6,0.3-1,0.5c-0.3,0.1-0.7,0.2-1,0.2s-0.6,0-0.9,0l-0.8-0.1
							c-0.9-0.2-1.7-0.6-2.3-1.1c-1.2-1.1-2-2.4-2.2-4.2l0.3-0.3c1.8,0,3.1,0.4,4.2,0.8c0.5,0.2,1,0.4,1.3,0.7s0.5,0.4,0.4,0.5
							c-0.1,0.2,0.3,0,0.5-0.5s0.4-1.1,0.5-1.7c0.2-1.3,0.3-2.6,0.3-4L414.8,186.1z"/>
						<path class="st10" d="M414.3,186.6c0.4,1,0.6,2.1,0.5,3.2c-0.1,0.6-0.3,1.1-0.5,1.6s-0.4,1.1-0.9,1.4
							c-0.5,0.4-1.2,0.4-1.7,0.3c-0.6-0.1-1.1-0.3-1.6-0.6c-1-0.5-1.8-1.3-2.5-2.2v-0.1c1,0.5,1.9,1.1,2.8,1.5
							c0.9,0.4,1.9,0.9,2.8,0.6c0.4-0.2,0.8-0.6,0.9-1.1c0.1-0.5,0.1-1,0.1-1.6C414.2,188.8,414.2,187.7,414.3,186.6L414.3,186.6z"
							/>
						<path class="st10" d="M414.7,186.1c0.4,1.2,0.6,2.5,0.6,3.7c0,0.6,0,1.3-0.2,2c-0.2,0.6-0.5,1.4-1.2,1.9s-1.6,0.5-2.3,0.3
							c-0.7-0.1-1.3-0.4-1.9-0.8c-1.1-0.7-2.1-1.6-2.7-2.8l0.1-0.1c1.2,0.5,2.3,1.1,3.3,1.6c0.5,0.2,1,0.5,1.5,0.6
							c0.5,0.2,1,0.2,1.4,0.1c0.4-0.2,0.7-0.6,0.9-1.1c0.2-0.5,0.3-1.1,0.4-1.7c0.1-1.2,0.1-2.4,0-3.7H414.7z"/>
					</g>
					<g>
						<g>
							<ellipse class="st12" cx="398.2" cy="191.8" rx="2.6" ry="2.6"/>
							<circle class="st13" cx="397.8" cy="191.1" r="1.2"/>
						</g>
						<g>
							<ellipse class="st12" cx="421.7" cy="180.4" rx="2.6" ry="2.6"/>
							<circle class="st13" cx="421.2" cy="179.8" r="1.2"/>
						</g>
					</g>
				</g>
				<path class="st10" d="M438.3,183.6c-0.8-2.3-2-4.5-3.4-6.4c-0.7-1-1.5-1.9-2.4-2.8c-0.8-0.9-1.8-1.6-2.7-2.5
					c-3.8-3-8.2-5.1-12.8-6.5c-2.3-0.9-4.7-1.2-7.1-1.7c-1.2-0.3-2.4-0.3-3.6-0.5c-1.2-0.1-2.4-0.3-3.6-0.4l-3.7-0.2
					c-1.2,0-2.4-0.2-3.7-0.2c-2.5,0-4.9,0.1-7.4,0c2.4-0.3,4.9-0.5,7.4-0.8c2.5-0.1,4.9-0.1,7.4-0.1c1.2,0,2.5,0.2,3.7,0.3
					s2.5,0.2,3.7,0.4c2.4,0.5,4.9,0.9,7.3,1.7c2.4,0.7,4.7,1.7,6.9,2.8l3.2,1.9c1,0.8,2,1.5,3,2.3l1.3,1.3c0.4,0.4,0.9,0.8,1.3,1.4
					c0.8,1,1.6,1.9,2.2,3C436.8,178.9,438,181.2,438.3,183.6z"/>
				<path class="st10" d="M383.2,190.7c-0.7-2.3-0.7-4.7-0.5-7.1c0.3-2.4,0.9-4.8,1.9-7.1c1.9-4.5,5.2-8.5,9.1-11.5
					c3.9-3,8.4-5.1,12.9-6.5c4.6-1.3,9.3-2,14-1.8c-4.4,1.7-8.7,3.2-12.8,5.1c-4.1,1.9-8,4-11.4,6.7c-3.5,2.6-6.4,5.8-8.7,9.6
					c-1.1,1.9-2.1,3.8-2.8,6C384,186.2,383.5,188.4,383.2,190.7z"/>
			</g>
			<g>
				<path class="st12" d="M422,234.9v2.8c0,0.5-0.4,0.9-0.9,0.9l0,0c-0.5,0-0.9-0.4-0.9-0.9v-2.8c0-0.5,0.4-0.9,0.9-0.9l0,0
					C421.5,233.9,422,234.4,422,234.9z"/>
				<path class="st12" d="M418.2,234.9v2.8c0,0.5-0.4,0.9-0.9,0.9l0,0c-0.5,0-0.9-0.4-0.9-0.9v-2.8c0-0.5,0.4-0.9,0.9-0.9l0,0
					C418,233.9,418.2,234.4,418.2,234.9z"/>
				<path class="st12" d="M403.8,234.9v2.8c0,0.5-0.4,0.9-0.9,0.9l0,0c-0.5,0-0.9-0.4-0.9-0.9v-2.8c0-0.5,0.4-0.9,0.9-0.9l0,0
					C403.5,233.9,403.8,234.4,403.8,234.9z"/>
				<path class="st12" d="M400.5,234.9v2.8c0,0.5-0.4,0.9-0.9,0.9l0,0c-0.5,0-0.9-0.4-0.9-0.9v-2.8c0-0.5,0.4-0.9,0.9-0.9l0,0
					C400,233.9,400.5,234.4,400.5,234.9z"/>
			</g>
			<g>
				<g>
					<ellipse class="st12" cx="369" cy="192.9" rx="2.6" ry="2.6"/>
					<circle class="st13" cx="368.7" cy="192.2" r="1.2"/>
				</g>
				<g>
					<path class="st3" d="M388.5,196.4c-1.2-1.7-4.2-5.9-5.8-5.5c-2,0.4-2.6,2.6-2.6,3.5c0,2.2,0.9,3.4,1.7,3.4
						c0.6,0,4.5-0.3,6.3-0.5C388.5,197.2,388.7,196.8,388.5,196.4"/>
					<path class="st10" d="M388.2,196.6c-0.6-0.8-1.5-1.4-2.4-2c-0.9-0.6-1.6-1.2-2.1-1.9c-0.3-0.3-0.6-0.6-0.8-0.8l-0.1-0.1l0,0
						h-0.1c-0.2,0-0.4,0-0.6,0.1c-0.4,0-0.6,0.5-0.7,0.9c-0.1,0.4-0.1,0.8,0,1.2c0,0.2,0.1,0.3,0.2,0.5l0.2,0.6
						c0.2,0.3,0.3,0.6,0.5,0.8c0.1,0.1,0.2,0.1,0.2,0c0,0-0.1-0.2-0.4-0.3c-0.1,0-0.2-0.1-0.3-0.1s0,0,0,0h0.1h0.4
						c0.2,0,0.5,0,0.7,0c1,0,2,0.1,3,0.4c0.5,0.1,1,0.3,1.5,0.5c0.1,0.1,0.3,0.1,0.4,0.2c0,0.1-0.1,0.2-0.1,0.3
						C387.8,196.9,388.2,196.9,388.2,196.6l0.4-0.3c0.4,0.2,0.6,0.8,0.2,1.4c-0.2,0.3-0.5,0.5-0.8,0.6c-0.1,0.1-0.2,0.1-0.4,0.2
						c-0.5,0.3-1,0.5-1.5,0.7c-1,0.4-2.1,0.7-3.1,0.9c-0.3,0-0.5,0.1-0.8,0.1h-0.4h-0.1h-0.2c-0.2,0-0.5-0.1-0.7-0.1
						c-0.9-0.3-1.4-0.8-1.7-1.2s-0.5-0.8-0.7-1.2c-0.3-0.8-0.3-1.5-0.3-2.1c0-0.3,0.1-0.7,0.1-1c0.1-0.4,0.2-0.8,0.3-1.1
						c0.3-0.6,0.7-1.2,1.2-1.6c0.5-0.5,1-0.7,1.5-1.2c0.3-0.2,0.6-0.4,0.9-0.5c0.1,0,0.1-0.1,0.3-0.1c0.1,0,0.2,0,0.4-0.1
						c0.3,0,0.4,0,0.7,0c0.8,0.1,1.3,0.5,1.8,0.8c1,0.7,1.6,1.5,2,2.6c0.4,1,0.7,2.1,1.2,2.9L388.2,196.6z"/>
				</g>
				<path class="st10" d="M388,196.9c-1.3,0-2.7-0.2-4-0.3s-2.7-0.3-4-0.5l0.4-0.5l0.2,0.6l-0.3-0.3c1.2,0.2,2.5,0.3,3.7,0.5
					s2.5,0.4,3.7,0.7c-1.3,0-2.5-0.1-3.8-0.2c-1.3-0.1-2.5-0.2-3.7-0.3H380l-0.1-0.2l-0.2-0.6l-0.2-0.5l0.6,0.1
					c1.3,0.2,2.6,0.4,3.9,0.6C385.5,196.2,386.8,196.6,388,196.9z"/>
				<path class="st10" d="M387.8,197.2c0.2,0,0.4-0.2,0.4-0.4s-0.2-0.4-0.3-0.6c-0.3-0.4-0.6-0.7-0.9-1.1c-0.7-0.7-1.3-1.4-2-2
					c-0.3-0.3-0.7-0.6-1.1-0.9c-0.4-0.2-0.8-0.4-1-0.4c-0.3,0-0.7,0.2-1,0.5c-0.3,0.2-0.5,0.6-0.7,0.9c-0.2,0.4-0.3,0.8-0.3,1.2
					s0.1,0.8,0.2,1.2c0.1,0.4,0.3,0.8,0.4,1c0.1,0.1,0.2,0.2,0.3,0.3h0.1c0,0,0,0,0.1,0h0.2C384,196.9,385.8,197.2,387.8,197.2z
					 M387.8,197.2c-1.9,0.2-3.8,0.9-5.7,1.1h-0.2c0,0-0.1,0-0.3,0s-0.4-0.1-0.6-0.2c-0.4-0.2-0.6-0.4-0.8-0.7
					c-0.4-0.5-0.5-1.1-0.6-1.6c-0.1-0.6-0.1-1,0-1.6c0.1-0.6,0.3-1.1,0.5-1.6c0.5-1,1.5-1.8,2.7-1.8c0.7,0,1.1,0.4,1.6,0.7
					c0.4,0.3,0.8,0.7,1.1,1c0.7,0.7,1.2,1.5,1.8,2.3l0.8,1.2c0.1,0.2,0.3,0.4,0.3,0.7C388.3,197.1,388,197.2,387.8,197.2z"/>
				<path class="st10" d="M380.2,194.8c0.1,0.9,0.3,1.9,0.9,2.5c0.2,0.1,0.3,0.2,0.5,0.3c0.1,0,0.4,0,0.6,0l1.4-0.2
					c0.9-0.1,1.8-0.2,2.8-0.3l0.7-0.1h0.3h0.2c0,0,0,0,0.1,0c0.1,0,0.1-0.1,0.1-0.1l0,0l-0.1-0.1l-0.2-0.3c-1.1-1.4-2.3-2.9-3.7-4
					c-0.4-0.2-0.8-0.5-1.1-0.4c-0.4,0.1-0.8,0.2-1.2,0.5C380.8,192.9,380.3,193.8,380.2,194.8c0-0.9,0.3-1.9,1-2.6
					c0.4-0.3,0.8-0.6,1.3-0.7c0.6-0.1,1.1,0.1,1.5,0.4c1.6,1.1,2.8,2.6,4,4l0.2,0.3l0.1,0.1c0,0,0.1,0.2,0.1,0.3
					c0.1,0.4-0.1,0.9-0.5,1c-0.1,0-0.2,0.1-0.3,0.1h-0.2H387h-0.7c-0.9,0-1.9,0.1-2.8,0.1h-1.4c-0.2,0-0.4,0.1-0.7,0
					s-0.5-0.2-0.7-0.4C380.2,196.7,380.2,195.7,380.2,194.8z"/>
			</g>
		</g>
	</g>
</g>
</svg>
