<?xml version="1.0" encoding="utf-8"?>
<!-- Generator: Adobe Illustrator 22.0.1, SVG Export Plug-In . SVG Version: 6.00 Build 0)  -->
<svg version="1.2" baseProfile="tiny" id="Capa_1" xmlns="http://www.w3.org/2000/svg" xmlns:xlink="http://www.w3.org/1999/xlink"
	 x="0px" y="0px" viewBox="0 0 512 512" xml:space="preserve">
<path fill="#FFFFFF" d="M462.4,253.9c-6.8,0-12.4,5.6-12.4,12.4v220.9H317V348.6c0-6.8-5.6-12.4-12.4-12.4h-97.1
	c-6.8,0-12.4,5.6-12.4,12.4v109.9c0,6.8,5.6,12.4,12.4,12.4c6.8,0,12.4-5.6,12.4-12.4V361h72.3v126.3H62V183.8L256,28.3l198.6,159.2
	c5.3,4.3,13.1,3.4,17.4-1.9c4.3-5.3,3.4-13.1-1.9-17.4L263.8,2.7c-4.5-3.6-11-3.6-15.5,0L41.9,168.1c-2.9,2.4-4.6,5.9-4.6,9.7v321.8
	c0,6.8,5.6,12.4,12.4,12.4h412.8c6.8,0,12.4-5.6,12.4-12.4V266.3C474.8,259.5,469.2,253.9,462.4,253.9z"/>
</svg>
