<?xml version="1.0" encoding="utf-8"?>
<!-- Generator: Adobe Illustrator 22.0.1, SVG Export Plug-In . SVG Version: 6.00 Build 0)  -->
<svg version="1.2" baseProfile="tiny" xmlns="http://www.w3.org/2000/svg" xmlns:xlink="http://www.w3.org/1999/xlink" x="0px"
	 y="0px" viewBox="0 0 447.9 369.1" xml:space="preserve">
<g id="Calque_1">
	<g>
		<g>
			<g>
				<g>
					<path fill="#00CCCC" d="M232,3.9c-0.5-2.4-1.8-3.9-3.2-3.9c-1.4,0-2.8,1.7-3.3,4.1l-77.6,356.3c-0.7,3.3,0.2,7,2,8.3
						c1.8,1.3,3.9-0.4,4.6-3.6l26.8-123.2h94.9l26.8,123.2c0.6,2.5,1.9,4.1,3.3,4.1c0.4,0,0.8-0.1,1.3-0.4c1.8-1.3,2.7-5,2-8.3
						L232,3.9z M184,229l44.7-205.4L273.5,229H184z"/>
					<path fill="#989898" d="M227.1,70L197,208.2c-0.4,1.7,0.1,3.4,1,4.1c0.2,0.1,0.4,0.3,0.6,0.3c0.7,0,1.3-0.8,1.6-2l30.1-138.2
						c0.4-1.7-0.1-3.4-1-4.1C228.5,67.4,227.5,68.3,227.1,70z"/>
					<path fill="#989898" d="M188,258.3c-0.9-0.6-1.9,0.1-2.3,1.8l-22.1,101.3c-0.4,1.7,0.1,3.4,1,4.1c0.2,0.1,0.4,0.3,0.6,0.3
						c0.7,0,1.3-0.8,1.6-2L189,262.4C189.3,260.9,188.8,258.9,188,258.3z"/>
				</g>
			</g>
		</g>
		<g id="N">
			<g>
				<path fill="#FFFFFF" d="M139,360.5L72.4,3.9C72,1.5,70.9,0,69.7,0c-1.2,0-2.4,1.7-2.8,4.1L0.2,360.4c-0.6,3.3,0.2,7,1.7,8.3
					c1.6,1.3,3.3-0.4,3.9-3.6l22.4-119.7c0-0.3,0-0.7,0.1-1.1c1-5.1,1.6-11,3.1-15.7L69.7,23.7l38,203.2c0.2,0.4,0.5,0.9,0.6,1.7
					c0.6,5,1.8,9.6,2.6,14.5c0.1,0.6,0.1,1.1,0.1,1.6l22.5,120.4c0.5,2.5,1.6,4.1,2.8,4.1c0.4,0,0.7-0.1,1.1-0.4
					C138.9,367.5,139.6,363.8,139,360.5z"/>
			</g>
			<g>
				<path fill="#FFFFFF" d="M205.4,3.9C205,1.5,203.8,0,202.6,0c-1.2,0-2.4,1.7-2.8,4.1l-66.6,356.3c-0.6,3.3,0.2,7,1.7,8.3
					c1.6,1.3,3.3-0.4,3.9-3.6l23-123.2h0.2c0.1-1.1,0.3-2.1,0.5-3.1c0.2-1.4,0.5-2.7,0.8-3.9c0.3-1.3,0.5-2.7,0.5-4.2
					c0-0.7,0.2-1.3,0.4-1.8l38.1-203.6c0.6-6.1,1.9-11.9,3.1-17.6V5.8c0-0.4,0-0.8,0.1-1.1L205.4,3.9z"/>
				<path display="none" fill="#FFFFFF" d="M201.2,70l-25.9,138.2c-0.3,1.7,0.1,3.4,0.8,4.1c0.2,0.1,0.4,0.3,0.5,0.3
					c0.6,0,1.2-0.8,1.4-2L204,72.3c0.3-1.7-0.1-3.4-0.8-4.1C202.4,67.4,201.5,68.3,201.2,70z"/>
				<path display="none" fill="#FFFFFF" d="M167.6,258.3c-0.8-0.6-1.6,0.1-1.9,1.8l-19,101.3c-0.3,1.7,0.1,3.4,0.8,4.1
					c0.2,0.1,0.4,0.3,0.5,0.3c0.6,0,1.2-0.8,1.4-2l19-101.3C168.8,260.9,168.3,258.9,167.6,258.3z"/>
			</g>
		</g>

			<text transform="matrix(1.0334 0 0 1 379.314 210.9254)" display="none" fill="#FFFFFF" font-family="'Continuo'" font-size="391.3174px">O</text>
		<path fill="#FFFFFF" d="M439.5,229.4H305.1c-4.7,0-8.4,2.4-8.4,5.6s3.7,5.6,8.4,5.6h134.5c4.7,0,8.4-2.4,8.4-5.6
			S444.1,229.4,439.5,229.4z"/>
	</g>
</g>
<g id="Calque_4">
	<g>
		<path fill="#FFFFFF" d="M365,212.7c-45.4,0-79.8-46.6-79.8-96.7h1.3c0,50.7,34.9,93.1,78,93.1c8.7,0,17.2-2.4,25.3-6.7
			c6.3-3.3,16.6-9.8,22.1-15c4.2-4,7.4-9,11-13.9c4.2-5.6,6.5-9.6,9.7-15.9c6.7-13.6,8.6-28,8.6-42.1c0-20-6.9-43-19.5-60.1
			c-3.1-4.2-7.4-9.8-11-13.4c-12.9-13.1-29-18.4-45.2-19.1c-44.2-1.9-69.4,48.4-65.2,91.6c0.6,6.1,1.5,12.7,2.9,19.3
			c1.9,8.6,4.9,17.1,9.7,24c12.4,18.1,33.5,28.8,51.6,28.8c6.4,0,12.5-1.9,18.3-5.1c4.5-2.5,15.5-10.6,19.4-14.5
			c4.6-4.7,13.4-25.2,15-30.9c1.8-6.5,2.1-14.3,2.1-20.5c0-8.4-0.6-17.7-4.2-26.6c-2-4.8-4.1-10.8-6.8-15.3c-1.9-3.1-4.8-7.7-7-10.4
			c-9.7-12-23-17.4-35.8-17.4c-12.1,0-23.6,6.8-31.2,17.6c-3.2,4.6-5.3,8.5-7.6,14c-5,11.8-7.1,27-7.1,38.6h-1.3
			c0-33.8,11.2-73.7,46.7-73.7c33.9,0,57.6,37,57.6,73.7c0,37.9-22.4,73.1-57.6,73.1c-37,0-68.6-30-68.6-73.7
			c0-47.5,21.9-97,68.6-97c45.4,0,78.8,47.8,78.8,97.6C443.7,165.8,410.3,212.7,365,212.7z"/>
	</g>
	<g>
		<path fill="#FFFFFF" d="M321.5,128.5c1.9,0,1.9-3,0-3C319.6,125.5,319.6,128.5,321.5,128.5L321.5,128.5z"/>
	</g>
	<text transform="matrix(1.1073 0 0 1 290.0074 182.9737)" display="none" font-family="'Continuo'" font-size="207.807px">O</text>
</g>
<g id="Calque_3">
	<g>
		<g>
			<g>
				<g>
					<g>
						<g>
							<path fill="#00CCCC" d="M365.7,173.1c0,0-2.2,4.2-8,10.7c-6.4,7.2-9,12.9-10.8,13.5c-1.8,0.6,1.3-6.5,0.6-6.2
								c-0.8,0.3-7.2,7.5-9.2,6c-2-1.5,12.8-11.1,11.3-14.1c-1.1-2.1-18.7-9.6-29.9-26.1L365.7,173.1z"/>
							<path fill="#999999" d="M366,173c0,0.1,0,0.2,0,0.3l0,0.1l0,0.1l-0.1,0.2l-0.2,0.4l-0.3,0.8c-0.2,0.5-0.5,1-0.7,1.6
								c-0.5,1-1.1,2-1.7,3c-1.2,2-2.5,3.9-3.9,5.7c-1.3,1.7-2.6,3.5-3.8,5.4l-3.7,5.6c-0.3,0.5-0.7,1-1.1,1.5
								c-0.2,0.3-0.4,0.5-0.7,0.8l-0.4,0.4c-0.2,0.2-0.4,0.3-0.6,0.5c-0.2,0.2-0.6,0.4-1,0.5c-0.1,0-0.3,0.1-0.4,0.1
								c-0.2,0-0.3,0.1-0.6,0.1c-0.3,0-0.6,0-0.8-0.1c-0.3-0.1-0.7-0.2-1-0.4c-0.3-0.2-0.5-0.4-0.7-0.7c-0.1-0.1-0.2-0.2-0.2-0.3
								c-0.1-0.1-0.1-0.2-0.1-0.3c0-0.1-0.1-0.2-0.1-0.3l-0.1-0.2c0-0.1-0.1-0.3-0.1-0.4c-0.1-0.4,0-0.7,0-1c0.1-1,0.2-1.5,0.4-2.2
								c0.2-0.6,0.3-1.2,0.5-1.7c0.2-0.5,0.4-1.1,0.4-1.4c0,0,0-0.1,0,0c0,0,0,0,0,0.1c0,0.1,0,0.2,0,0.3c0,0.2,0.1,0.4,0.1,0.6
								c0.1,0.1,0.1,0.1,0.2,0.3c0.2,0.3,0.4,0.6,0.7,0.8c0.3,0.2,0.7,0.4,0.9,0.4c0.2,0.1,0.5,0.1,0.7,0.1c0.2,0,0.5-0.1,0.7-0.2
								l0.1-0.1c0.4-0.2,0.3-0.2,0.3-0.2c-0.1,0-0.3,0.2-0.5,0.4l-1.3,1.1c-0.9,0.7-1.8,1.4-2.8,2.1c-1,0.7-2,1.3-3.4,1.9
								c-0.4,0.1-0.7,0.2-1.2,0.3c-0.5,0.1-1.1,0.1-1.8-0.2c-0.2-0.1-0.3-0.2-0.5-0.3c-0.2-0.1-0.4-0.4-0.6-0.7
								c-0.2-0.3-0.2-0.6-0.3-0.9c0-0.2,0-0.3,0-0.4c0-0.1,0-0.2,0-0.3c0-0.2,0.1-0.3,0.2-0.5c0.1-0.1,0.1-0.3,0.2-0.3
								c0.1-0.2,0.2-0.4,0.3-0.5c0.9-1.1,1.8-1.8,2.7-2.5c1.8-1.5,3.5-2.8,5.2-4.3c0.8-0.8,1.6-1.5,2.3-2.4c0.3-0.4,0.7-0.8,0.9-1.2
								c0.3-0.4,0.5-0.9,0.4-1c0-0.1,0,0-0.1-0.1c-0.1-0.1-0.3-0.3-0.5-0.4c-0.4-0.3-0.9-0.6-1.4-0.9c-1-0.6-1.9-1.1-2.9-1.6
								c-2-1.1-4-2.2-6-3.3c-8-4.5-15.2-10.8-20.7-18.5l-5.5-7.6l9.1,2.9c4.1,1.3,8.1,2.7,12.1,4.3c4,1.5,7.9,3.2,11.7,4.8l5.7,2.5
								l5.5,2.5C359.2,169.7,362.7,171.4,366,173z M365.4,173.2l-12.7-3.2l-6-1.5l-5.9-1.6c-3.8-1.1-7.6-2.1-11.3-3.3
								c-3.7-1.1-7.3-2.4-10.9-3.8l3.6-4.7c4.6,7.2,10.9,13.3,17.7,19c1.7,1.4,3.5,2.8,5.3,4.1l2.7,2c0.5,0.3,0.9,0.7,1.4,1.1
								c0.2,0.2,0.5,0.4,0.7,0.7c0.3,0.3,0.6,1,0.5,1.4c-0.1,1-0.4,1.5-0.8,2.1c-0.3,0.5-0.7,1-1.1,1.4c-0.8,0.9-1.6,1.7-2.4,2.5
								c-1.6,1.6-3.3,3.2-4.8,4.8c-0.7,0.8-1.5,1.7-1.9,2.4c0,0.1-0.1,0.2-0.1,0.2c0,0,0,0,0,0c0,0,0,0,0-0.1c0-0.1,0-0.1,0-0.2
								c0-0.2-0.1-0.3-0.1-0.5c0-0.1-0.3-0.3-0.3-0.4c0,0-0.1-0.1-0.1-0.1c-0.2-0.1-0.2-0.1-0.1-0.1c0.1,0,0.2-0.1,0.4-0.2
								c0.7-0.4,1.5-1.1,2.2-1.9c0.7-0.7,1.5-1.5,2.2-2.3c0.4-0.4,0.8-0.8,1.2-1.2c0.2-0.2,0.4-0.4,0.8-0.7c0.1-0.1,0.2-0.2,0.7-0.4
								c0.1,0,0,0,0.2-0.1c0.2-0.1,0.5-0.1,0.8-0.2c0.3,0,0.5,0,0.8,0.1c0.2,0,0.6,0.2,0.9,0.4c0.3,0.2,0.6,0.5,0.7,0.8
								c0.1,0.2,0.1,0.3,0.2,0.4c0.1,0.2,0.1,0.5,0.2,0.7c0,0.2,0,0.4,0,0.5l0,0.3c0,0.2,0,0.3-0.1,0.4c-0.2,0.8-0.3,1.3-0.4,1.9
								c-0.1,0.5-0.3,1.1-0.4,1.5c-0.1,0.5-0.2,1-0.2,1.2c0,0,0,0,0-0.1c0,0,0-0.1,0-0.2l0-0.1c0-0.1,0-0.1-0.1-0.2
								c0-0.1-0.1-0.1-0.1-0.2l-0.2-0.2c-0.2-0.2-0.3-0.4-0.6-0.5c-0.2-0.2-0.5-0.3-0.8-0.3c-0.2-0.1-0.4-0.1-0.6-0.1
								c-0.2,0-0.2,0-0.4,0c-0.1,0-0.2,0.1-0.2,0.1c-0.1,0-0.2,0.1-0.2,0.1c0,0,0,0,0,0l0.2-0.2c0.1-0.1,0.3-0.3,0.4-0.5
								c0.3-0.4,0.6-0.8,0.9-1.2c2.6-3.5,5.5-7.3,8.9-10.5c1.6-1.5,3.2-3.1,4.7-4.7c0.8-0.8,1.5-1.6,2.3-2.4l1.1-1.3l0.6-0.6
								l0.3-0.3l0.1-0.2l0.1-0.1c0,0,0,0,0,0C365.4,173,365.4,173.1,365.4,173.2z"/>
						</g>
					</g>
					<g>
							<line fill="#00CCCC" stroke="#999999" stroke-width="1.4805" stroke-miterlimit="10" x1="335.8" y1="173.4" x2="364.6" y2="173.4"/>

							<line fill="#00CCCC" stroke="#999999" stroke-width="1.4805" stroke-miterlimit="10" x1="336.5" y1="174" x2="364.6" y2="174"/>

							<line fill="#00CCCC" stroke="#999999" stroke-width="1.4805" stroke-miterlimit="10" x1="364.6" y1="174.6" x2="337.3" y2="174.6"/>

							<line fill="#00CCCC" stroke="#999999" stroke-width="1.4805" stroke-miterlimit="10" x1="364.4" y1="175.1" x2="338.1" y2="175.1"/>

							<line fill="#00CCCC" stroke="#999999" stroke-width="1.4805" stroke-miterlimit="10" x1="338.9" y1="175.7" x2="364" y2="175.7"/>

							<line fill="#00CCCC" stroke="#999999" stroke-width="1.4805" stroke-miterlimit="10" x1="363.7" y1="176.3" x2="339.7" y2="176.3"/>

							<line fill="#00CCCC" stroke="#999999" stroke-width="1.4805" stroke-miterlimit="10" x1="363.3" y1="176.8" x2="340.6" y2="176.8"/>

							<line fill="#00CCCC" stroke="#999999" stroke-width="1.4805" stroke-miterlimit="10" x1="362.8" y1="177.4" x2="341.4" y2="177.4"/>

							<line fill="#00CCCC" stroke="#999999" stroke-width="1.4805" stroke-miterlimit="10" x1="362.4" y1="178" x2="342.3" y2="178"/>

							<line fill="#00CCCC" stroke="#999999" stroke-width="1.4805" stroke-miterlimit="10" x1="362" y1="178.6" x2="343.2" y2="178.6"/>

							<line fill="#00CCCC" stroke="#999999" stroke-width="1.4805" stroke-miterlimit="10" x1="361.6" y1="179.1" x2="344.1" y2="179.1"/>

							<line fill="#00CCCC" stroke="#999999" stroke-width="1.4805" stroke-miterlimit="10" x1="361.1" y1="179.7" x2="345" y2="179.7"/>

							<line fill="#00CCCC" stroke="#999999" stroke-width="1.4805" stroke-miterlimit="10" x1="360.7" y1="180.3" x2="345.9" y2="180.3"/>

							<line fill="#00CCCC" stroke="#999999" stroke-width="1.4805" stroke-miterlimit="10" x1="360.2" y1="180.8" x2="346.8" y2="180.8"/>

							<line fill="#00CCCC" stroke="#999999" stroke-width="1.4805" stroke-miterlimit="10" x1="359.7" y1="181.4" x2="347.6" y2="181.4"/>

							<line fill="#00CCCC" stroke="#999999" stroke-width="1.4805" stroke-miterlimit="10" x1="359.2" y1="182" x2="348.4" y2="182"/>

							<line fill="#00CCCC" stroke="#999999" stroke-width="1.4805" stroke-miterlimit="10" x1="358.8" y1="182.5" x2="349.1" y2="182.5"/>

							<line fill="#00CCCC" stroke="#999999" stroke-width="1.4805" stroke-miterlimit="10" x1="358.3" y1="183.1" x2="349.5" y2="183.1"/>

							<line fill="#00CCCC" stroke="#999999" stroke-width="1.4805" stroke-miterlimit="10" x1="357.8" y1="183.7" x2="349.6" y2="183.7"/>

							<line fill="#00CCCC" stroke="#999999" stroke-width="1.4805" stroke-miterlimit="10" x1="357.3" y1="184.2" x2="349.4" y2="184.2"/>

							<line fill="#00CCCC" stroke="#999999" stroke-width="1.4805" stroke-miterlimit="10" x1="356.8" y1="184.8" x2="349.1" y2="184.8"/>

							<line fill="#00CCCC" stroke="#999999" stroke-width="1.4805" stroke-miterlimit="10" x1="356.3" y1="185.4" x2="348.8" y2="185.4"/>

							<line fill="#00CCCC" stroke="#999999" stroke-width="1.4805" stroke-miterlimit="10" x1="355.8" y1="185.9" x2="348.3" y2="185.9"/>

							<line fill="#00CCCC" stroke="#999999" stroke-width="1.4805" stroke-miterlimit="10" x1="355.3" y1="186.5" x2="347.8" y2="186.5"/>

							<line fill="#00CCCC" stroke="#999999" stroke-width="1.4805" stroke-miterlimit="10" x1="354.9" y1="187.1" x2="347.3" y2="187.1"/>

							<line fill="#00CCCC" stroke="#999999" stroke-width="1.4805" stroke-miterlimit="10" x1="354.4" y1="187.7" x2="346.8" y2="187.7"/>

							<line fill="#00CCCC" stroke="#999999" stroke-width="1.4805" stroke-miterlimit="10" x1="354" y1="188.2" x2="346.2" y2="188.2"/>

							<line fill="#00CCCC" stroke="#999999" stroke-width="1.4805" stroke-miterlimit="10" x1="353.6" y1="188.8" x2="345.6" y2="188.8"/>

							<line fill="#00CCCC" stroke="#999999" stroke-width="1.4805" stroke-miterlimit="10" x1="353.1" y1="189.4" x2="345" y2="189.4"/>

							<line fill="#00CCCC" stroke="#999999" stroke-width="1.4805" stroke-miterlimit="10" x1="352.7" y1="189.9" x2="344.4" y2="189.9"/>

							<line fill="#00CCCC" stroke="#999999" stroke-width="1.4805" stroke-miterlimit="10" x1="352.3" y1="190.5" x2="343.8" y2="190.5"/>

							<line fill="#00CCCC" stroke="#999999" stroke-width="1.4805" stroke-miterlimit="10" x1="351.9" y1="191.1" x2="343.1" y2="191.1"/>

							<line fill="#00CCCC" stroke="#999999" stroke-width="1.4805" stroke-miterlimit="10" x1="351.5" y1="191.6" x2="347.5" y2="191.6"/>

							<line fill="#00CCCC" stroke="#999999" stroke-width="1.4805" stroke-miterlimit="10" x1="342.5" y1="191.6" x2="346.7" y2="191.6"/>

							<line fill="#00CCCC" stroke="#999999" stroke-width="1.4805" stroke-miterlimit="10" x1="351.1" y1="192.2" x2="347.3" y2="192.2"/>

							<line fill="#00CCCC" stroke="#999999" stroke-width="1.4805" stroke-miterlimit="10" x1="341.9" y1="192.2" x2="346.1" y2="192.2"/>

							<line fill="#00CCCC" stroke="#999999" stroke-width="1.4805" stroke-miterlimit="10" x1="341.3" y1="192.8" x2="345.5" y2="192.8"/>

							<line fill="#00CCCC" stroke="#999999" stroke-width="1.4805" stroke-miterlimit="10" x1="350.7" y1="192.8" x2="347.2" y2="192.8"/>

							<line fill="#00CCCC" stroke="#999999" stroke-width="1.4805" stroke-miterlimit="10" x1="340.7" y1="193.3" x2="344.9" y2="193.3"/>

							<line fill="#00CCCC" stroke="#999999" stroke-width="1.4805" stroke-miterlimit="10" x1="350.3" y1="193.3" x2="347" y2="193.3"/>

							<line fill="#00CCCC" stroke="#999999" stroke-width="1.4805" stroke-miterlimit="10" x1="340.1" y1="193.9" x2="344.3" y2="193.9"/>

							<line fill="#00CCCC" stroke="#999999" stroke-width="1.4805" stroke-miterlimit="10" x1="349.9" y1="193.9" x2="346.8" y2="193.9"/>

							<line fill="#00CCCC" stroke="#999999" stroke-width="1.4805" stroke-miterlimit="10" x1="339.5" y1="194.5" x2="343.6" y2="194.5"/>

							<line fill="#00CCCC" stroke="#999999" stroke-width="1.4805" stroke-miterlimit="10" x1="349.5" y1="194.5" x2="346.7" y2="194.5"/>

							<line fill="#00CCCC" stroke="#999999" stroke-width="1.4805" stroke-miterlimit="10" x1="349.1" y1="195.1" x2="346.5" y2="195.1"/>

							<line fill="#00CCCC" stroke="#999999" stroke-width="1.4805" stroke-miterlimit="10" x1="339" y1="195.1" x2="343" y2="195.1"/>

							<line fill="#00CCCC" stroke="#999999" stroke-width="1.4805" stroke-miterlimit="10" x1="338.5" y1="195.6" x2="342.2" y2="195.6"/>

							<line fill="#00CCCC" stroke="#999999" stroke-width="1.4805" stroke-miterlimit="10" x1="348.6" y1="195.6" x2="346.4" y2="195.6"/>

							<line fill="#00CCCC" stroke="#999999" stroke-width="1.4805" stroke-miterlimit="10" x1="338.2" y1="196.2" x2="341.5" y2="196.2"/>

							<line fill="#00CCCC" stroke="#999999" stroke-width="1.4805" stroke-miterlimit="10" x1="348.2" y1="196.2" x2="346.3" y2="196.2"/>

							<line fill="#00CCCC" stroke="#999999" stroke-width="1.4805" stroke-miterlimit="10" x1="338" y1="196.8" x2="340.5" y2="196.8"/>

							<line fill="#00CCCC" stroke="#999999" stroke-width="1.4805" stroke-miterlimit="10" x1="347.7" y1="196.8" x2="346.3" y2="196.8"/>
					</g>
				</g>
				<g>
					<g>
						<path fill="#00CCCC" d="M312.8,114.5L312.8,114.5c4.1-10.2,14-17.4,25.4-17.4c15.2,0,27.5,12.7,27.5,28.3c0,0.9,0,1.7-0.1,2.5
							l0,0c0,0,0,0,0,0c-0.1,0.9-0.2,1.8-0.4,2.7c-1.9,16.5,5,21,3.6,31.8c-1.9,14-10,20.4-16.4,19.2c-4.3-0.8-26.4-15.4-37.4-31.1
							C304,134.8,312.8,114.5,312.8,114.5z"/>
						<path fill="#999999" d="M312.6,114.3c-0.3,0.3-0.1,0.1-0.1,0.1l0,0l0,0L312.6,114.3l0-0.1l0.1-0.3l0.3-0.6
							c0.2-0.4,0.3-0.8,0.5-1.1c0.4-0.7,0.7-1.5,1.2-2.2l0.6-1.1l0.7-1c0.4-0.7,1-1.3,1.5-2c2.1-2.6,4.7-4.9,7.6-6.7
							c5.8-3.7,13.3-5.2,20.3-3.6c7.1,1.6,13.4,6.1,17.1,12.3c3.8,6.1,5,13.4,4.1,20.2l-0.9-1.3l0,0l1.1,0.3l-0.2,1
							c-0.6,3.1-0.9,6-0.9,9.1c0,3.1,0.6,6.1,1.3,9c0.8,2.9,2,5.9,2.7,9c0.3,1.6,0.6,3.2,0.6,4.9c0,0.8,0,1.7-0.1,2.5l-0.3,2.4
							c-0.5,3.2-1.3,6.5-2.8,9.5c-1.6,3-3.7,6-7,7.9c-1.6,1-3.5,1.7-5.5,1.9c-1,0.1-2,0.1-3.1-0.1l-0.8-0.2l-0.4-0.1l-0.3-0.1
							l-1.3-0.5c-3.1-1.5-5.8-3.1-8.5-4.9c-5.4-3.5-10.4-7.4-15.1-11.8c-2.3-2.2-4.6-4.5-6.7-6.9c-2.1-2.4-4.1-5-5.8-7.8
							c-1.7-2.9-3.1-6.1-3.7-9.3c-0.6-3.2-0.9-6.5-0.7-9.7c0.2-3.2,0.7-6.3,1.4-9.4c0.3-1.5,0.7-3.1,1.2-4.6
							c0.2-0.8,0.5-1.5,0.7-2.2c0.1-0.4,0.3-0.7,0.4-1.1l0.2-0.6l0.1-0.3C312.4,114.6,312.5,114.4,312.6,114.3z M312.9,114.8
							c0,0.1,0.1,0,0,0.1l-0.1,0.3l-0.2,0.5c-0.1,0.4-0.3,0.7-0.4,1.1c-0.2,0.7-0.4,1.5-0.6,2.2c-0.4,1.5-0.7,3-0.9,4.5
							c-0.4,3.1-0.4,6.2-0.1,9.2c0.3,3,1.1,5.9,2.2,8.7l0.9,2c0.3,0.7,0.7,1.3,1.1,1.9l0.5,0.9c0.2,0.3,0.4,0.6,0.6,0.9l1.2,1.7
							c7.5,9.3,16.9,17.3,26.7,24.4c2.5,1.7,5,3.4,7.5,4.8l0.9,0.4l0.2,0.1l0.1,0c0.1,0,0.2,0.1,0.3,0.1c0.4,0.1,1,0.2,1.5,0.1
							c1.1,0,2.2-0.4,3.3-0.9c2.2-1.1,4.1-3.2,5.6-5.6c1.5-2.4,2.6-5.1,3.4-8l0.5-2.2c0.1-0.7,0.2-1.4,0.3-2.2
							c0.1-1.4,0.1-2.9-0.1-4.4c-0.4-3-1.4-5.9-2.1-9c-1.6-6.2-1.6-12.7-0.9-18.9l0.9,1.3l0,0l-0.9-0.2l0-1.1
							c0.2-6.4-2-12.5-5.7-17.3c-3.6-4.8-8.7-8.3-14.5-10c-5.7-1.7-12.2-1.7-18,0.8c-0.7,0.3-1.5,0.6-2.1,1c-0.7,0.4-1.4,0.8-2,1.2
							c-0.7,0.4-1.3,1-1.9,1.4c-0.6,0.5-1.2,1.1-1.8,1.6c-0.5,0.6-1.1,1.2-1.6,1.8l-0.8,1l-0.7,1c-0.5,0.7-0.8,1.4-1.2,2.1
							c-0.2,0.4-0.4,0.7-0.5,1.1l-0.3,0.6l-0.1,0.3l-0.1,0.1l0,0.1l0,0l0,0C313,114.7,313.2,114.5,312.9,114.8z"/>
					</g>
					<g>
						<path fill="#00CCCC" d="M352,181.2c-5.9-2.3-25.2-15.4-35.1-29.4c-10.6-15-2.2-34.4-2.2-34.4l0,0c4-9.8,13.5-16.7,24.6-16.7
							c14.7,0,26.6,12.1,26.6,27c0,0.8,0,1.6-0.1,2.4l0,0c0,0,0,0,0,0c-0.1,0.9-0.2,1.7-0.3,2.6c-1.8,15.8,4.9,20.1,3.5,30.4
							c-1.8,13.4-9.6,19.5-15.8,18.4C352.7,181.5,352.4,181.4,352,181.2"/>
						<path fill="#999999" d="M351.9,181.4c-3.3-1.1-6.2-2.9-9.2-4.7c-2.9-1.8-5.8-3.8-8.5-5.9c-2.8-2.1-5.4-4.3-8-6.6
							c-2.6-2.3-5-4.8-7.2-7.5c-1.2-1.3-2.2-2.7-3.2-4.1c-0.9-1.5-2-3-2.6-4.7c-1.5-3.3-2.3-6.8-2.5-10.3c-0.2-3.5,0-7,0.7-10.4
							c0.7-3.4,1.6-6.7,2.9-10l0.2-0.4l0.4,0.1l0,0l-0.6,0.3c1.3-3,3-5.7,5.2-8.1c2.2-2.4,4.7-4.4,7.6-6c5.7-3.1,12.6-4.1,19-2.6
							c3.2,0.7,6.3,2.1,9.1,3.9c2.8,1.8,5.2,4.2,7.1,7c3.8,5.4,5.8,12.3,5.2,18.9l-1.2-1.7l0,0l1.4,0.3l-0.2,1.4
							c-0.2,1.2-0.4,2.6-0.4,3.8c-0.1,1.2-0.2,2.4-0.2,3.7c0,2.5,0.2,4.9,0.6,7.3c0.5,2.4,1.2,4.8,1.9,7.3c0.7,2.5,1.2,5.2,1.1,7.9
							c0,0.3,0,0.7,0,1l-0.1,1c-0.1,0.7-0.2,1.3-0.3,2c-0.2,1.3-0.6,2.6-0.9,3.8c-0.8,2.5-1.9,5-3.4,7.2c-1.5,2.2-3.5,4.1-5.9,5.3
							C357.2,182,354.4,182.4,351.9,181.4l0.1-0.3c2.4,0.7,5,0.1,7.1-1.2c2.1-1.3,3.8-3.2,5-5.3c1.3-2.1,2.2-4.4,2.7-6.8
							c0.5-2.4,1-4.9,0.9-7.3c0-4.8-2.4-9.4-3.4-14.7c-0.6-2.6-0.8-5.3-0.8-7.9l0-2c0-0.7,0.1-1.3,0.2-2c0.1-1.4,0.3-2.5,0.5-3.9
							l1.2,1.8l0,0l-1.3-0.3l0.1-1.3c0.5-6-1-12.1-4.4-17.1c-3.3-5-8.5-8.8-14.4-10.3c-2.9-0.8-6-1.2-9.1-0.9
							c-3.1,0.3-6.1,1.1-8.9,2.4c-2.8,1.4-5.3,3.2-7.4,5.5c-2.1,2.3-3.8,5-4.9,7.9l-0.2,0.4l-0.4-0.1l0,0l0.5-0.3
							c-1.2,3.1-2,6.5-2.4,9.8c-0.4,3.3-0.4,6.7,0,10l0.4,2.5l0.6,2.4c0.2,0.8,0.5,1.5,0.8,2.3c0.1,0.4,0.3,0.8,0.4,1.1l0.5,1.1
							c0.6,1.5,1.6,2.8,2.4,4.2c1,1.3,2,2.7,3.1,4c2.1,2.6,4.5,5,6.9,7.4c2.4,2.4,4.9,4.6,7.5,6.8c2.6,2.2,5.3,4.3,8,6.3
							c2.7,2,5.5,4,8.6,5.5L351.9,181.4z"/>
					</g>
					<g>
						<path fill="#00CCCC" d="M351.4,181.2c-6.1-2.3-26.1-15.7-36.3-29.9c-11-15.2-2.3-35-2.3-35l0,0c4.1-10,14-17,25.4-17
							c15.2,0,27.5,12.3,27.5,27.5c0,0.8,0,1.7-0.1,2.5l0,0c0,0,0,0,0,0c-0.1,0.9-0.2,1.7-0.4,2.6c-1.9,16.1,5,20.5,3.6,31
							c-1.9,13.7-10,19.8-16.4,18.7C352.2,181.5,351.8,181.4,351.4,181.2"/>
						<path fill="#999999" d="M351.4,181.2c-3.3-1.3-6.3-3-9.3-4.9c-3-1.9-5.9-3.9-8.7-6c-2.8-2.1-5.6-4.3-8.2-6.7
							c-2.6-2.3-5.1-4.8-7.5-7.5c-0.6-0.7-1.2-1.3-1.7-2l-1.7-2.1c-0.5-0.7-1-1.5-1.5-2.3c-0.5-0.7-0.9-1.6-1.3-2.4
							c-1.6-3.3-2.7-6.8-3-10.4c-0.4-3.6-0.3-7.2,0.3-10.8c0.5-3.6,1.4-7,2.8-10.5l0.4-1l1.2,0.2l0,0l-1.6,0.8
							c1.3-3.2,3.2-6.1,5.5-8.6c2.3-2.5,5.1-4.6,8.1-6.2c3-1.6,6.4-2.6,9.8-2.9c3.4-0.4,6.9-0.1,10.2,0.7c3.3,0.8,6.5,2.2,9.3,4.2
							c2.8,1.9,5.3,4.4,7.2,7.2c3.9,5.6,5.8,12.6,5.1,19.4l-0.9-1.3l0,0l1.1,0.3l-0.2,1.1c-0.2,1.2-0.4,2.6-0.5,3.8
							c-0.2,1.2-0.2,2.5-0.2,3.8c0,2.5,0.2,5.1,0.7,7.6c0.5,2.5,1.2,5,1.9,7.5c0.7,2.5,1.2,5.3,1.2,8c0,0.7-0.1,1.4-0.1,2
							c-0.1,0.7-0.2,1.3-0.3,2c-0.2,1.3-0.6,2.6-1,3.9c-0.8,2.5-1.9,5-3.4,7.2c-1.5,2.2-3.5,4.1-5.9,5.3
							C356.7,181.7,353.8,182.2,351.4,181.2c2.5,0.8,5.2,0.2,7.4-1.1c2.2-1.3,4-3.2,5.4-5.4c2.7-4.3,3.9-9.6,4-14.6
							c0-5.1-2.5-9.8-3.6-15.1c-0.6-2.6-0.9-5.3-0.9-8c0-1.3,0-2.7,0.2-4c0.1-1.4,0.3-2.6,0.4-3.9l0.9,1.4l0,0l-1-0.2l0.1-1.1
							c0.5-6.2-1.3-12.5-4.9-17.5c-1.8-2.5-4-4.7-6.6-6.4c-2.6-1.7-5.4-3-8.4-3.7c-6-1.4-12.5-0.8-18,2c-2.7,1.4-5.3,3.3-7.4,5.5
							c-2.1,2.3-3.8,4.9-5,7.7l-0.5,1.1l-1.1-0.3l0,0l1.6-0.8c-1.3,3-2.2,6.4-2.7,9.8c-0.5,3.4-0.7,6.8-0.4,10.1
							c0.3,3.4,1.2,6.7,2.6,9.7c0.3,0.8,0.7,1.5,1.2,2.2c0.4,0.7,0.9,1.4,1.3,2.1c1,1.4,2,2.8,3.2,4.1c2.2,2.7,4.6,5.2,7.1,7.6
							c2.5,2.4,5.1,4.8,7.8,7c2.7,2.2,5.5,4.3,8.3,6.3C345.3,177.8,348.2,179.8,351.4,181.2z"/>
					</g>
					<g>

							<line fill="#00CCCC" stroke="#999999" stroke-width="1.4805" stroke-miterlimit="10" x1="365.4" y1="173.4" x2="338.7" y2="173.4"/>

							<line fill="#00CCCC" stroke="#999999" stroke-width="1.4805" stroke-miterlimit="10" x1="339.5" y1="174" x2="365.1" y2="174"/>

							<line fill="#00CCCC" stroke="#999999" stroke-width="1.4805" stroke-miterlimit="10" x1="340.3" y1="174.6" x2="364.7" y2="174.6"/>

							<line fill="#00CCCC" stroke="#999999" stroke-width="1.4805" stroke-miterlimit="10" x1="341.1" y1="175.1" x2="364.3" y2="175.1"/>

							<line fill="#00CCCC" stroke="#999999" stroke-width="1.4805" stroke-miterlimit="10" x1="341.9" y1="175.7" x2="363.9" y2="175.7"/>

							<line fill="#00CCCC" stroke="#999999" stroke-width="1.4805" stroke-miterlimit="10" x1="342.8" y1="176.3" x2="363.5" y2="176.3"/>

							<line fill="#00CCCC" stroke="#999999" stroke-width="1.4805" stroke-miterlimit="10" x1="343.6" y1="176.8" x2="363" y2="176.8"/>

							<line fill="#00CCCC" stroke="#999999" stroke-width="1.4805" stroke-miterlimit="10" x1="344.5" y1="177.4" x2="362.5" y2="177.4"/>
						<line fill="#00CCCC" stroke="#999999" stroke-width="1.4805" stroke-miterlimit="10" x1="345.4" y1="178" x2="362" y2="178"/>

							<line fill="#00CCCC" stroke="#999999" stroke-width="1.4805" stroke-miterlimit="10" x1="346.3" y1="178.6" x2="361.4" y2="178.6"/>

							<line fill="#00CCCC" stroke="#999999" stroke-width="1.4805" stroke-miterlimit="10" x1="347.3" y1="179.1" x2="360.7" y2="179.1"/>

							<line fill="#00CCCC" stroke="#999999" stroke-width="1.4805" stroke-miterlimit="10" x1="348.3" y1="179.7" x2="359.9" y2="179.7"/>

							<line fill="#00CCCC" stroke="#999999" stroke-width="1.4805" stroke-miterlimit="10" x1="349.3" y1="180.3" x2="359" y2="180.3"/>

							<line fill="#00CCCC" stroke="#999999" stroke-width="1.4805" stroke-miterlimit="10" x1="350.5" y1="180.8" x2="357.9" y2="180.8"/>
					</g>
				</g>
				<g>
					<path fill="#00CCCC" d="M349.9,133.7c0,0-11.3,1.2-12.3,8.5c-1.3,9,14.5,7.9,16.2,23.8c1.6,14.6-4.1,27.2-24.6,44.8"/>
					<path fill="#999999" d="M349.9,133.7c-2,0.5-4,1.2-5.8,2.1c-1.8,0.9-3.4,2.2-4.4,3.7c-0.5,0.8-0.8,1.6-0.9,2.5
						c-0.1,0.9,0.1,1.7,0.4,2.4c0.6,1.3,2.1,2.2,3.8,3.2c1.7,1,3.6,2.1,5.4,3.4c1.8,1.3,3.6,3,5,5.1c1.4,2,2.3,4.3,2.8,6.7
						c0.3,1.2,0.4,2.4,0.5,3.5c0.1,1.1,0.2,2.2,0.2,3.3c0.1,4.4-0.7,9-2.3,13.1c-1.6,4.2-3.9,7.9-6.6,11.3c-2.7,3.4-5.7,6.4-8.8,9.2
						c-1.6,1.4-3.2,2.7-4.9,4c-1.6,1.3-3.4,2.5-5.1,3.7c5.7-6.1,11.3-12.3,15.6-19.1c2.1-3.4,3.9-7,5-10.7c1.1-3.7,1.6-7.5,1.4-11.4
						c-0.1-4-0.9-7.4-2.7-10.4c-0.9-1.5-2.1-2.8-3.5-4c-1.4-1.3-3-2.5-4.7-3.9c-0.8-0.7-1.7-1.5-2.5-2.5c-0.8-1-1.5-2.2-1.7-3.6
						c-0.1-0.3-0.1-0.7-0.1-1c0-0.3,0-0.7,0-1c0.1-0.6,0.2-1.2,0.4-1.8c0.3-1.2,0.9-2.3,1.7-3.2c0.7-0.9,1.7-1.6,2.6-2.2
						c1-0.6,2-1,3-1.3C345.8,134.1,347.9,133.8,349.9,133.7z"/>
				</g>
				<g>
					<path fill="#00CCCC" d="M332.8,209c6.8-5.3,22.8-21.7,22.5-39.2c-0.2-13-5.6-16.8-11.6-20.4c-2.4-1.5-8.4-3.7-5.1-10.1"/>
					<path fill="#999999" d="M332.7,209c5.2-4.8,9.7-10.1,13.8-15.8c2.1-2.8,4-5.8,5.4-9c1.4-3.2,2.4-6.6,2.7-10.1
						c0.2-1.7,0.2-3.5,0-5.2l-0.1-1.3l-0.2-1.3c-0.1-0.9-0.3-1.7-0.4-2.6c-0.4-1.7-0.9-3.3-1.6-4.8c-0.7-1.5-1.7-2.9-2.8-4.1
						c-2.3-2.4-5.3-4.3-8.3-6.1c-1.5-1-3-2.3-3.6-4.1c-0.6-1.9,0-3.7,0.9-5.2l0.1,0.1c-0.7,1.6-1,3.4-0.4,5c0.6,1.5,2,2.6,3.5,3.4
						l2.3,1.2c0.8,0.4,1.5,0.9,2.3,1.4c1.5,0.9,3,2,4.3,3.4c1.3,1.3,2.3,2.9,3.1,4.5c0.8,1.7,1.2,3.4,1.6,5.2
						c0.3,1.8,0.5,3.6,0.5,5.4c0.1,1.8-0.1,3.6-0.4,5.3c-0.6,3.5-1.7,6.9-3.1,10.2c-1.4,3.3-2.9,6.5-4.9,9.5c-1.9,3-4.2,5.7-6.7,8.3
						c-2.5,2.5-5.1,4.9-8.1,6.9L332.7,209z"/>
				</g>
				<g>
					<path fill="#00CCCC" d="M314.8,112.4c0,0,5.5-13.4,37.8-20.2"/>
					<path fill="#999999" d="M314.8,112.4c0.5-1.8,1.6-3.4,2.7-4.9c1.2-1.5,2.5-2.8,4-4c2.9-2.4,6.1-4.4,9.5-5.9
						c1.7-0.8,3.5-1.4,5.2-2.1c1.8-0.6,3.6-1.1,5.4-1.6c1.8-0.4,3.6-0.8,5.5-1.1c1.8-0.2,3.7-0.4,5.5-0.5c-1.7,0.7-3.4,1.3-5.2,1.9
						c-1.7,0.6-3.4,1.3-5.1,1.9l-5,2l-2.5,1.1c-0.8,0.3-1.7,0.7-2.5,1.1c-3.3,1.5-6.4,3.2-9.4,5.1c-1.5,1-2.9,2-4.3,3.2
						C317.2,109.6,315.9,110.9,314.8,112.4z"/>
				</g>
				<g>
					<path fill="#00CCCC" d="M314.8,110.5c0,0,8.4-19.4,42.8-12.7"/>
					<path fill="#999999" d="M314.8,110.5c1.6-3.7,4.5-6.8,7.8-9.1c3.3-2.3,7.2-3.8,11.1-4.7c4-1,8-1,12-0.9c2,0.2,4,0.4,6,0.7
						c2,0.4,3.9,0.8,5.9,1.3c-2-0.1-4-0.4-5.9-0.6l-5.9-0.2c-3.9,0.1-7.9,0.3-11.7,1.2c-3.8,0.8-7.5,2.2-10.8,4.2
						c-0.8,0.6-1.7,1-2.4,1.7l-1.2,0.9c-0.4,0.3-0.7,0.7-1.1,1C317.1,107.3,315.8,108.8,314.8,110.5z"/>
				</g>
			</g>
			<g>
				<g>
					<g>
						<path fill="#FFFFFF" d="M368.8,162.8L368.8,162.8c-2.7,13.4-9,14.6-4.4,17c4.6,2.4,33.7-3.4,44-24.7c7-14.4,6.6-26.4,6.3-31.7
							c0-0.7-0.1-1.4-0.1-2.1c-0.1-0.7-0.1-1.1-0.1-1.1l0,0c-2.1-13.9-14.1-24.6-28.6-24.6c-15.9,0-28.9,12.9-28.9,28.9
							c0,4,0.8,7.8,2.3,11.3l0,0c0,0,0.2,3.1,7.5,15.4C369.1,154.9,369.3,159.2,368.8,162.8z"/>
						<g>
							<path fill="#999999" d="M369.1,163C369.1,163,369,163,369.1,163L369.1,163c-0.4,2.2-1,4.4-1.8,6.5c-0.7,2.2-1.7,4.2-2.8,6.3
								c-0.2,0.5-0.5,1-0.7,1.5c-0.2,0.5-0.2,0.9-0.1,1c0.1,0.1,0.4,0.4,0.9,0.6c0.1,0,0.2,0.1,0.3,0.1l0.3,0.1
								c0.2,0,0.4,0.1,0.7,0.1c2,0.1,4.2-0.3,6.3-0.9c4.2-1.1,8.3-2.7,12.2-4.6c3.9-1.9,7.6-4,11-6.6c3.4-2.5,6.5-5.5,9.1-8.9
								c1.3-1.7,2.4-3.5,3.4-5.5c1-1.9,1.9-4,2.8-6c1.6-4.1,2.6-8.5,3.1-12.9c0.2-2.2,0.3-4.4,0.2-6.7c-0.1-2.2-0.2-4.5-0.6-6.6
								l1.9,0.7l0,0l-1.5,1.4l-0.4-2.1c-0.7-3.9-2.4-7.5-4.6-10.6c-2.2-3.1-5.2-5.6-8.4-7.6c-6.4-3.9-14.4-4.8-21.4-2.7
								c-7,2.1-12.9,7.2-16.2,13.7c-1.7,3.2-2.6,6.9-2.9,10.5c-0.3,3.7,0.1,7.5,1.3,11.1l1.4,4.4l-3.9-1.8l0,0l2.6-2
								c0-0.1,0-0.1,0-0.1s0,0,0,0c0,0,0,0.1,0,0.1c0,0.1,0,0.2,0.1,0.4c0,0.2,0.1,0.5,0.2,0.8c0.1,0.5,0.3,1.1,0.5,1.7
								c0.4,1.1,0.8,2.2,1.2,3.4c0.9,2.2,1.9,4.4,3,6.6c0.5,1.1,1.1,2.1,1.6,3.3c0.5,1.2,0.9,2.4,1.1,3.6c0.2,1.2,0.3,2.5,0.3,3.7
								c0,0.6,0,1.2,0,1.9C369.3,161.7,369.2,162.2,369.1,163z M368.6,162.7c0-0.5,0.1-1.1,0.1-1.7c0-0.6,0-1.2,0-1.8
								c-0.1-1.2-0.2-2.4-0.5-3.5c-0.3-1.1-0.7-2.3-1.3-3.3c-0.6-1-1.3-2-2-3c-1.3-2-2.7-4.1-4-6.2c-0.6-1.1-1.3-2.1-1.9-3.3
								c-0.3-0.6-0.6-1.1-0.9-1.7c-0.1-0.3-0.3-0.6-0.4-0.9c-0.1-0.2-0.1-0.3-0.2-0.5c0-0.1-0.1-0.2-0.1-0.3l0-0.2
								c0-0.1,0-0.1,0-0.3l-0.3-2.8l2.9,0.8l0,0l-2.5,2.6c-2-3.9-3.2-8.3-3.2-12.8c-0.1-4.5,0.9-9,2.8-13.1
								c1.9-4.1,4.7-7.8,8.2-10.7c3.5-2.9,7.6-5,12-6.1c4.4-1.2,9-1.3,13.4-0.6c4.4,0.7,8.7,2.5,12.3,5c3.6,2.6,6.6,5.9,8.8,9.7
								c2.2,3.8,3.5,7.9,4,12.2l-1.9-0.7l0,0l1.7-1.4l0.2,2.1c0.2,2.4,0.2,4.6,0.2,6.9c0,2.3-0.1,4.6-0.4,6.8
								c-0.5,4.6-1.3,9.1-2.6,13.5c-0.3,1.1-0.6,2.2-1,3.3c-0.4,1.1-0.7,2.2-1.2,3.3c-0.8,2.2-1.8,4.3-3,6.4
								c-2.4,4.1-5.6,7.8-9.3,10.8c-3.7,3-7.8,5.4-12.2,7.1c-4.4,1.8-9,2.9-13.6,3.3c-1.2,0.1-2.4,0.2-3.5,0.2
								c-1.2,0-2.4-0.1-3.7-0.4c-0.3-0.1-0.6-0.2-1-0.3l-0.5-0.2c-0.2-0.1-0.3-0.2-0.4-0.3c-0.5-0.4-1.2-0.8-1.5-1.7
								c-0.2-0.5-0.1-1-0.1-1.3c0.1-0.4,0.2-0.7,0.4-1c0.3-0.6,0.6-1,0.9-1.5c1.3-1.9,2.4-3.8,3.3-5.8c0.4-1,0.8-2.1,1.1-3.2
								C368,165,368.3,163.9,368.6,162.7L368.6,162.7C368.6,162.7,368.6,162.7,368.6,162.7z"/>
						</g>
					</g>
					<g>
						<path fill="#FFFFFF" d="M368.8,163.3L368.8,163.3c-2.7,13-9,14.2-4.4,16.5c4.6,2.3,33.7-3.3,44-24.1c7-14,6.6-25.7,6.3-30.9
							c0-0.7-0.1-1.4-0.1-2c-0.1-0.7-0.1-1-0.1-1l0,0c-2.1-13.6-14.1-24-28.6-24c-15.9,0-28.9,12.6-28.9,28.1c0,3.9,0.8,7.6,2.3,11
							l0,0c0,0,0.2,3,7.5,15C369.1,155.5,369.3,159.8,368.8,163.3z"/>
						<g>
							<path fill="#999999" d="M369,163.4C368.9,163.4,368.9,163.4,369,163.4L369,163.4c-0.9,4.3-2.6,8.5-5,12.3
								c-0.3,0.5-0.6,1-0.8,1.4c-0.2,0.5-0.4,1-0.1,1.5c0.2,0.4,0.7,0.7,1.2,1c0.2,0.1,0.5,0.2,0.7,0.3c0.3,0,0.5,0.1,0.8,0.1
								c2.2,0.2,4.4,0,6.6-0.4c4.3-0.8,8.6-2.2,12.6-3.9c4-1.8,7.9-4,11.3-6.7c1.7-1.3,3.4-2.8,4.9-4.4c1.5-1.6,2.9-3.2,4.1-5
								c1.2-1.8,2.3-3.7,3.1-5.7c0.9-2,1.7-4,2.4-6.1c1.4-4.2,2.3-8.4,2.7-12.8c0.2-2.2,0.3-4.4,0.3-6.5c0-2.2-0.1-4.4-0.4-6.5
								l1.8,0.7l0,0l-1.5,1.3l-0.3-2c-0.6-3.8-2.1-7.5-4.3-10.7c-2.1-3.2-5.1-5.9-8.3-7.9c-6.5-4.1-14.8-5.1-22.1-3.1
								c-3.7,1-7.2,2.7-10.2,5.1c-3,2.4-5.4,5.4-7.2,8.8c-1.8,3.4-2.8,7.1-3.1,11c-0.3,3.9,0.4,7.8,1.8,11.4l0.7,1.7l-1.7-0.7l0,0
								l1-0.8c0,0.1,0.1,0.5,0.2,0.7c0.1,0.3,0.2,0.5,0.2,0.8c0.2,0.5,0.4,1.1,0.6,1.6c0.4,1.1,0.9,2.2,1.4,3.2
								c1,2.1,2.1,4.2,3.3,6.3c0.6,1,1.2,2,1.8,3.1c0.5,1.1,0.9,2.3,1.2,3.4C369.3,158.5,369.3,160.9,369,163.4z M368.7,163.2
								c0.2-2.3,0.2-4.7-0.3-7c-0.3-1.1-0.7-2.2-1.2-3.3c-0.6-1-1.2-2-1.9-3c-1.3-2-2.5-4.1-3.7-6.2c-0.6-1.1-1.1-2.1-1.7-3.2
								c-0.3-0.5-0.5-1.1-0.7-1.7c-0.1-0.3-0.2-0.6-0.3-0.9c-0.1-0.3-0.2-0.6-0.3-1l-0.2-1.2l1.2,0.4l0,0l-1,1
								c-3.6-7.5-3.6-16.7,0.2-24.3c1.8-3.8,4.6-7.2,7.9-9.9c3.3-2.6,7.2-4.6,11.3-5.7c8.2-2.1,17.3-0.8,24.3,3.8
								c3.5,2.3,6.6,5.3,8.9,8.8c2.3,3.5,3.8,7.5,4.4,11.7l-1.8-0.7l0,0l1.6-1.3l0.2,2c0.3,2.4,0.3,4.6,0.4,6.8
								c0,2.3-0.1,4.5-0.4,6.8c-0.5,4.5-1.5,8.9-3,13.2c-0.8,2.1-1.6,4.2-2.6,6.2c-0.9,2-2.1,4-3.4,5.9c-2.6,3.7-5.9,6.9-9.5,9.6
								c-3.6,2.7-7.6,4.8-11.8,6.5c-4.2,1.7-8.5,2.9-12.9,3.6c-2.2,0.3-4.5,0.6-6.7,0.2c-0.3,0-0.6-0.1-0.8-0.2
								c-0.3-0.1-0.6-0.2-0.8-0.3c-0.5-0.3-1-0.6-1.3-1.1c-0.3-0.6-0.1-1.2,0.1-1.7c0.2-0.5,0.5-1,0.8-1.5c1.2-1.9,2.2-3.8,3-5.9
								C367.6,167.6,368.2,165.4,368.7,163.2L368.7,163.2C368.7,163.2,368.7,163.2,368.7,163.2z"/>
						</g>
					</g>
					<g>
						<path fill="#00CCCC" d="M369.6,163.6L369.6,163.6c-2.6,12.8-8.6,14-4.2,16.2c4.4,2.3,32.3-3.2,42.3-23.6
							c6.7-13.7,6.3-25.3,6.1-30.4c0-0.7-0.1-1.3-0.1-2c-0.1-0.7-0.1-1-0.1-1l0,0c-2-13.3-13.5-23.6-27.4-23.6
							c-15.3,0-27.7,12.4-27.7,27.6c0,3.8,0.8,7.5,2.2,10.8l0,0c0,0,0.2,3,7.2,14.7C369.8,156,370,160.1,369.6,163.6z"/>
						<g>
							<path fill="#999999" d="M369.6,163.6L369.6,163.6L369.6,163.6c-0.4,2.1-1,4.2-1.8,6.2c-0.8,2-1.8,3.9-2.9,5.8
								c-0.3,0.5-0.5,0.9-0.8,1.4c-0.2,0.5-0.4,1-0.2,1.5c0.2,0.4,0.7,0.8,1.1,1c0.5,0.3,1,0.4,1.5,0.5c2.1,0.3,4.3,0,6.4-0.4
								c8.4-1.6,16.5-5.2,23.3-10.4c3.4-2.6,6.4-5.7,8.8-9.3c1.2-1.8,2.2-3.7,3.1-5.6c0.9-2,1.7-4,2.4-6c1.4-4.1,2.3-8.3,2.8-12.6
								c0.4-4.3,0.4-8.6-0.1-12.9l0.3,0.1l0,0l-0.2,0.2l0-0.3c-0.6-3.8-2-7.5-4.2-10.8c-2.1-3.3-5-6-8.2-8.1
								c-6.5-4.3-14.8-5.4-22.3-3.3c-3.7,1-7.2,2.9-10.2,5.3c-3,2.5-5.4,5.6-7.1,9.1c-3.4,6.9-3.7,15.3-0.7,22.5l0.2,0.5l-0.5-0.2
								l0,0l0.3-0.2c0.2,1.1,0.6,2.2,1.1,3.2c0.4,1.1,0.9,2.1,1.5,3.2c1,2.1,2.1,4.1,3.3,6.2c0.6,1,1.2,2,1.7,3.1
								c0.5,1.1,0.9,2.2,1.1,3.3C369.9,158.9,369.9,161.3,369.6,163.6z M369.5,163.6c0.3-2.3,0.2-4.7-0.3-6.9
								c-0.3-1.1-0.6-2.2-1.2-3.3c-0.5-1-1.2-2-1.8-3c-1.2-2-2.3-4-3.4-6.1c-0.5-1-1.1-2.1-1.5-3.2c-0.5-1.1-0.9-2.1-1.2-3.4
								l-0.1-0.4l0.4,0.1l0,0l-0.3,0.3c-3.2-7.2-3-15.9,0.5-23c1.7-3.6,4.2-6.8,7.2-9.3c3-2.6,6.6-4.4,10.5-5.5
								c7.6-2.1,16.2-0.9,22.8,3.5c3.3,2.2,6.2,5,8.3,8.3c2.1,3.3,3.5,7.1,4.1,11l-0.3-0.1l0,0l0.2-0.2l0,0.3c0.5,4.3,0.5,8.7,0,13
								c-0.4,4.3-1.3,8.6-2.7,12.7c-0.7,2.1-1.4,4.1-2.3,6.1c-0.9,2-1.9,3.9-3.1,5.7c-2.4,3.6-5.4,6.9-8.9,9.5
								c-1.7,1.3-3.5,2.6-5.4,3.7c-1.9,1.1-3.8,2.1-5.8,2.9c-4,1.7-8.2,3-12.5,3.7c-2.1,0.3-4.3,0.6-6.5,0.3
								c-0.5-0.1-1.1-0.2-1.6-0.5c-0.5-0.3-1-0.6-1.2-1.1c-0.2-0.6,0-1.2,0.2-1.6c0.2-0.5,0.5-1,0.8-1.4c1.1-1.8,2.1-3.7,2.9-5.8
								C368.5,167.8,369.1,165.7,369.5,163.6L369.5,163.6L369.5,163.6L369.5,163.6z"/>
						</g>
					</g>
					<g>
							<line fill="none" stroke="#999999" stroke-width="1.4805" stroke-miterlimit="10" x1="365.1" y1="173.4" x2="391.3" y2="173.4"/>

							<line fill="none" stroke="#999999" stroke-width="1.4805" stroke-miterlimit="10" x1="364.8" y1="174" x2="390.3" y2="174"/>

							<line fill="none" stroke="#999999" stroke-width="1.4805" stroke-miterlimit="10" x1="389.1" y1="174.6" x2="364.5" y2="174.6"/>

							<line fill="none" stroke="#999999" stroke-width="1.4805" stroke-miterlimit="10" x1="387.9" y1="175.1" x2="364.1" y2="175.1"/>

							<line fill="none" stroke="#999999" stroke-width="1.4805" stroke-miterlimit="10" x1="386.6" y1="175.7" x2="363.8" y2="175.7"/>

							<line fill="none" stroke="#999999" stroke-width="1.4805" stroke-miterlimit="10" x1="385.3" y1="176.3" x2="363.4" y2="176.3"/>

							<line fill="none" stroke="#999999" stroke-width="1.4805" stroke-miterlimit="10" x1="383.8" y1="176.8" x2="363.1" y2="176.8"/>

							<line fill="none" stroke="#999999" stroke-width="1.4805" stroke-miterlimit="10" x1="382.3" y1="177.4" x2="362.9" y2="177.4"/>

							<line fill="none" stroke="#999999" stroke-width="1.4805" stroke-miterlimit="10" x1="380.9" y1="178" x2="362.8" y2="178"/>

							<line fill="none" stroke="#999999" stroke-width="1.4805" stroke-miterlimit="10" x1="379" y1="178.6" x2="362.9" y2="178.6"/>

							<line fill="none" stroke="#999999" stroke-width="1.4805" stroke-miterlimit="10" x1="376.8" y1="179.1" x2="363.4" y2="179.1"/>

							<line fill="none" stroke="#999999" stroke-width="1.4805" stroke-miterlimit="10" x1="374.4" y1="179.7" x2="364.3" y2="179.7"/>
					</g>
				</g>
				<g>
					<path fill="#999999" d="M409.3,109.4c4.6,5.1,7,12.1,7,19.2c0,7.1-2.4,14.1-5.9,20.2c-3.5,6.2-8.2,11.4-13.2,16.2
						c-5.1,4.8-10.8,8.9-16.8,12.4c-6.1,3.5-12.5,6.2-19.1,8.4c-3.3,1-6.7,1.9-10,2.7c-3.4,0.8-6.8,1.3-10.2,1.7
						c-3.4,0.4-6.9,0.7-10.3,0.8c-3.4,0.1-6.9,0.1-10.3,0c-6.8-0.4-13.7-1.1-20.3-2.9c6.8,0.4,13.5,0.4,20.2,0
						c6.7-0.4,13.3-1.2,19.9-2.5c6.5-1.3,13-2.9,19.2-5.2c6.2-2.2,12.3-4.9,17.9-8.2c5.7-3.2,11.1-7.1,16-11.4
						c4.9-4.3,9.4-9.2,13.1-14.5c1.8-2.7,3.3-5.6,4.6-8.5c1.2-3,2.1-6.1,2.4-9.4c0.4-3.2,0.2-6.5-0.5-9.8c-0.3-1.6-0.8-3.2-1.4-4.8
						C411,112.4,410.2,110.8,409.3,109.4z"/>
					<path fill="#999999" d="M409.3,109.4c3.3,4.7,5.1,10.3,5.6,16c0.5,5.7-0.4,11.5-2.4,16.9c-2,5.4-5.1,10.3-8.7,14.8
						c-3.6,4.4-7.8,8.4-12.2,12c-9,7.1-19.3,12.5-30.2,15.9c-5.4,1.7-11,3-16.6,3.9c-5.6,0.9-11.3,1.4-17,1.5
						c5.7-0.4,11.3-1.1,16.9-2.2c5.6-1,11.1-2.5,16.4-4.3c10.7-3.6,20.8-8.9,29.6-16c4.4-3.5,8.5-7.4,12.1-11.7
						c1.8-2.2,3.4-4.4,4.9-6.8c1.4-2.4,2.8-4.9,3.8-7.5c2.1-5.2,3.1-10.8,2.7-16.5C413.9,119.8,412.3,114.2,409.3,109.4z"/>
				</g>
				<path fill="#999999" d="M389.1,132.2c1.9-1.2,3.9-2.1,6-2.9c2.1-0.7,4.4-1.2,6.8-1.3c2.3-0.1,4.8,0.3,7.2,1.4
					c0.6,0.3,1.2,0.6,1.7,1c0.5,0.4,1,0.8,1.5,1.2c1.1,1,1.8,2.5,2.1,4c0.5,2.9-0.3,5.4-1.3,7.6c-1,2.2-2.2,4.1-3.6,5.9
					c-2.8,3.5-6,6.7-9.7,9.2c2.3-3.8,4.7-7.4,6.7-11.1c1-1.8,2-3.7,2.6-5.6c0.7-1.8,1.1-3.7,0.8-5.1c-0.1-0.7-0.4-1.2-0.9-1.7
					l-1-0.8c-0.3-0.3-0.7-0.5-1.1-0.7c-1.5-0.9-3.4-1.4-5.4-1.6C397.8,131.1,393.5,131.6,389.1,132.2z"/>
				<g>
					<g>
						<path fill="#FFFFFF" d="M414.6,118.1c0,0-18.6,12.4-6.1,44.7C408.5,162.8,425.3,143.8,414.6,118.1z"/>
						<path fill="#999999" d="M414.5,118.4c0,0.2,0.2,0.1,0,0.3l-0.2,0.3c-0.2,0.2-0.3,0.4-0.4,0.6c-0.3,0.4-0.5,0.8-0.8,1.2
							c-0.3,0.4-0.5,0.8-0.8,1.3c-0.2,0.4-0.5,0.8-0.7,1.3l-0.7,1.3c-0.2,0.4-0.4,0.9-0.6,1.3c-0.4,0.8-0.7,1.7-1,2.6
							c-0.6,1.7-1.1,3.5-1.5,5.3c-0.1,0.5-0.2,0.9-0.3,1.4c-0.1,0.5-0.1,0.9-0.2,1.4c-0.2,0.9-0.4,1.8-0.5,2.8
							c-0.2,0.9-0.3,1.9-0.5,2.8l-0.3,2.9c-0.1,0.5-0.1,1-0.1,1.5l0,1.5c0,1,0.1,2,0.2,3c0.3,2,0.9,3.9,1.5,5.8
							c0.8,1.8,1.7,3.6,2.6,5.4l-2.8-0.5c0.9-1.5,1.8-3.3,2.5-5l1.1-2.6c0.3-0.9,0.7-1.7,1-2.6c1.3-3.5,2-7.1,2.6-10.7l0.3-1.4
							c0-0.5,0.1-0.9,0.1-1.4l0.2-1.4c0.1-0.5,0.1-0.9,0.1-1.4c0.1-1.8,0.2-3.7,0.1-5.6c-0.1-0.9,0.1-1.9-0.1-2.8
							c-0.1-0.9-0.2-1.9-0.2-2.9c0-0.5-0.1-1-0.1-1.3l-0.1-1.3C414.8,120.6,414.7,119.6,414.5,118.4z M414.6,117.9
							c0.5,0.7,1,1.5,1.7,2.5c0.6,0.9,1.3,2.1,1.6,3c0.8,1.9,1.6,3.8,2,5.9c1.1,4,1.3,8.3,0.8,12.6c-0.5,4.2-1.8,8.3-3.7,12
							c-0.5,0.9-1,1.9-1.5,2.8c-0.5,0.9-1.1,1.8-1.7,2.6c-1.2,1.7-2.6,3.2-4.2,4.7l-2.3,2.2l-0.5-2.7c-0.4-2-0.8-4.1-1.4-6
							c-0.4-2-0.9-4-1.4-6c-0.2-1-0.4-2-0.7-3l-0.4-1.5l-0.3-1.5l-0.6-3.1c-0.1-1.1-0.2-2.1-0.2-3.2c-0.1-1.1,0-2.2,0.2-3.2
							c0.1-1.1,0.3-2.1,0.6-3.2c0.5-2.1,1.4-4.1,2.5-6c0.6-0.9,1.1-1.9,1.8-2.7c0.3-0.4,0.7-0.9,1-1.3l1.1-1.2
							c0.4-0.4,0.8-0.7,1.2-1.1c0.4-0.3,0.8-0.7,1.3-1c0.4-0.3,0.9-0.6,1.4-0.8c0.2-0.1,0.5-0.3,0.7-0.4l0.4-0.2
							C414.1,118,414.4,117.8,414.6,117.9z"/>
					</g>
					<path fill="#999999" d="M414.5,118.3C414.5,118.3,414.6,118.3,414.5,118.3C414.6,118.3,414.6,118.3,414.5,118.3l0,0.1l-0.1,0.1
						l-0.2,0.3l-0.4,0.6c-0.3,0.4-0.5,0.8-0.8,1.2c-0.5,0.8-1,1.7-1.4,2.5c-0.9,1.7-1.6,3.5-2.2,5.3c-1.2,3.6-1.9,7.4-2.3,11.2
						c-0.5,3.8-0.8,7.7-0.4,11.6c0.4,3.9,1.3,7.7,2.6,11.4l-1.5-0.3c0.9-1.6,1.7-3.4,2.5-5.1c0.7-1.7,1.4-3.5,2-5.3
						c1.2-3.6,2-7.3,2.5-11c0.6-3.7,0.8-7.5,0.8-11.3c-0.1-1.9-0.1-3.8-0.4-5.7c-0.1-1-0.2-1.9-0.3-2.9c-0.1-0.5-0.1-0.9-0.2-1.3
						C414.6,119.3,414.6,118.8,414.5,118.3z M414.6,118c0.2,0.4,0.4,0.8,0.6,1.3c0.2,0.5,0.4,1.1,0.6,1.5c0.3,0.9,0.7,1.9,0.9,2.8
						l0.4,1.4l0.3,1.4c0.2,1,0.3,1.9,0.5,2.9c0.5,3.9,0.5,7.9,0.1,11.9c-0.5,4-1.6,7.8-3,11.5c-1.4,3.7-3.3,7.2-5.8,10.4l-1.1,1.4
						l-0.3-1.7c-0.8-3.9-1.4-7.8-2-11.7c-0.5-3.9-1.2-7.9-1.1-11.9c0.1-2,0.3-4,0.8-6c0.4-2,1.1-3.9,1.9-5.8c0.8-1.9,1.8-3.7,3-5.3
						c0.6-0.8,1.2-1.6,1.9-2.3c0.3-0.4,0.7-0.7,1.1-1c0.2-0.2,0.4-0.3,0.6-0.5l0.3-0.2l0.2-0.1l0.1-0.1l0.1,0
						C414.5,118,414.6,118,414.6,118z"/>
					<path fill="#999999" d="M408.4,162.8c1-3.6,1.8-7.3,2.4-11c0.7-3.7,1.2-7.4,1.6-11.2c0.4-3.7,0.6-7.5,1-11.2
						c0.2-1.9,0.3-3.7,0.5-5.6c0.1-0.9,0.2-1.9,0.2-2.8c0.1-0.9,0.2-1.9,0.3-2.8h0.1c0.4,3.8,0.4,7.6,0.3,11.4
						c-0.1,3.8-0.7,7.5-1.3,11.3c-1.2,7.5-2.7,14.9-5.1,22.1L408.4,162.8z"/>
					<path fill="#999999" d="M408.4,162.8c0-3.8,0.2-7.5,0.5-11.3c0.3-3.8,0.7-7.5,1.2-11.2c0.5-3.7,0.9-7.5,1.6-11.2
						c0.7-3.7,1.6-7.4,2.7-11l0.1,0c-0.1,1.9-0.4,3.8-0.6,5.6c-0.2,1.9-0.5,3.7-0.8,5.6c-0.5,3.7-1.3,7.4-1.9,11.1
						c-0.6,3.7-1.2,7.4-1.7,11.1c-0.5,3.7-0.9,7.5-1.1,11.2H408.4z"/>
					<path fill="#999999" d="M414.6,118.2c-1.1,1.5-2,3.3-2.8,5c-0.8,1.7-1.4,3.6-1.9,5.4c-1.1,3.7-1.7,7.5-2,11.3l-0.2,2.9l0,2.9
						c0,1,0,1.9,0,2.9l0.1,2.9c0,1.9,0.2,3.8,0.3,5.7c0.2,1.9,0.3,3.8,0.4,5.8l-0.1,0c-0.5-1.9-0.9-3.8-1.3-5.7
						c-0.3-1.9-0.6-3.8-0.7-5.8c-0.1-1.9-0.2-3.9-0.1-5.8l0.2-2.9l0.3-2.9c0.5-3.9,1.2-7.7,2.5-11.4c0.6-1.8,1.4-3.6,2.2-5.4
						c0.9-1.7,1.8-3.4,3.1-4.9L414.6,118.2z"/>
					<path fill="#999999" d="M408.4,162.8c-0.4-1.9-0.7-3.8-0.9-5.7c-0.1-1.9-0.4-3.8-0.3-5.7l0.1-2.9c0-1,0.1-1.9,0.2-2.9
						c0.1-1.9,0.2-3.8,0.4-5.7c0.3-3.8,1-7.6,2.1-11.3c1.1-3.7,2.6-7.3,4.7-10.5l0.1,0c-1.7,3.4-3,7-4,10.7c-1,3.7-1.8,7.4-2.4,11.2
						c-0.6,3.8-0.7,7.6-0.4,11.4c0,0.5,0,1,0,1.4c0,0.5,0.1,0.9,0.1,1.4l0.2,2.9C408.2,159,408.4,160.9,408.4,162.8L408.4,162.8z"/>
					<path fill="#999999" d="M408.4,162.8c1.5-3.5,2.5-7.1,3.4-10.8c0.9-3.7,1.5-7.4,2-11.2c0.1-0.9,0.2-1.9,0.3-2.8
						c0.1-0.9,0.2-1.9,0.2-2.8l0.2-2.8l0.1-2.8c0.1-1.9,0-3.8,0.1-5.7c0-0.9,0-1.9-0.1-2.8l0-2.8l0.1,0c0.2,1.9,0.4,3.8,0.5,5.7
						c0.1,1.9,0.2,3.8,0.1,5.7l-0.1,2.9l-0.2,2.8c-0.1,0.9-0.2,1.9-0.3,2.8c-0.1,0.9-0.2,1.9-0.3,2.8c-0.5,3.8-1.3,7.5-2.2,11.2
						C411.2,155.8,410.1,159.4,408.4,162.8L408.4,162.8z"/>
				</g>
				<g>
					<g>
						<path fill="#FFFFFF" d="M359.4,135.8c0,0,13.4,5.7,14.9,15.2c1.8,11.4-7.4,19.6-7.4,19.6s4.8-11.2,0-19.3
							C359.6,138.9,359.4,135.8,359.4,135.8z"/>
						<path fill="#999999" d="M359.2,135.5c0.1-0.1,0.3-0.1,0.5,0l0.2,0l0.4,0c0.2,0,0.5,0.1,0.7,0.1c0.5,0.1,1,0.2,1.4,0.3
							c0.9,0.3,1.8,0.6,2.7,0.9c1.8,0.8,3.5,1.7,5.1,2.9c1.6,1.2,3,2.6,4.2,4.4c1.2,1.8,2,3.9,2.1,6.1c0,2.1-0.3,4.1-0.8,6
							c-0.5,1.9-1.1,3.7-1.8,5.5c-0.7,1.8-1.5,3.5-2.3,5.2c-0.4,0.9-0.9,1.7-1.4,2.6c-0.5,0.9-1,1.6-1.8,2.5l-5.4,6.4l2-8.9
							c0.3-1.3,0.5-2.8,0.8-4.2c0.2-1.4,0.3-2.8,0.3-4.2c0-1.4-0.1-2.7-0.3-4c-0.2-1.3-0.5-2.5-1-3.6l-0.3-0.8
							c-0.1-0.3-0.3-0.7-0.5-1c-0.3-0.7-0.7-1.4-1-2.1c-0.7-1.4-1.3-2.9-1.8-4.4c-0.5-1.5-1-3-1.4-4.6c-0.2-0.8-0.3-1.6-0.5-2.4
							c0-0.4-0.1-0.8-0.1-1.2c0-0.2,0-0.4,0-0.6l0-0.3l0-0.2l0-0.1c0,0,0,0,0-0.1C359,135.7,359.1,135.6,359.2,135.5z M359.5,136
							c0.1,0,0.2-0.1,0.1-0.2c0,0,0,0,0,0l0,0.1l0.1,0.1l0.1,0.2l0.3,0.5c0.2,0.3,0.4,0.6,0.7,1c0.4,0.6,0.9,1.3,1.3,1.9l2.7,3.7
							l2.7,3.7l1.3,1.9c0.2,0.3,0.4,0.6,0.7,1l0.7,1.2c0.2,0.4,0.4,0.9,0.6,1.3c0.2,0.4,0.4,0.9,0.5,1.3c0.2,0.9,0.5,1.8,0.6,2.7
							c0.3,1.8,0.2,3.6,0,5.3c-0.2,1.7-0.6,3.4-1.1,5c-0.5,1.6-1.1,3.1-2,4.7l-3.4-2.5c0.6-0.4,1.3-0.9,2-1.5
							c0.7-0.6,1.3-1.2,1.9-1.8c1.2-1.3,2.1-2.8,2.8-4.4c0.4-0.8,0.6-1.7,0.8-2.5c0.1-0.4,0.1-0.9,0.1-1.3c0-0.2,0-0.4,0-0.6l0-0.7
							c0-1.7-0.6-3.4-1.1-4.9c-0.6-1.4-1.3-2.6-2.1-3.9c-0.8-1.3-1.9-2.5-3-3.8c-1.1-1.2-2.4-2.4-3.7-3.7c-0.3-0.3-0.6-0.6-1-0.9
							c-0.3-0.3-0.7-0.6-1-0.9l-1-0.9c-0.2-0.2-0.3-0.3-0.5-0.5l-0.3-0.2l-0.1-0.1C359.4,136.2,359.5,136.1,359.5,136z"/>
					</g>
					<path fill="#999999" d="M367,170.4c0,0-0.1,0-0.1,0c-0.1,0-0.1,0-0.1,0l0,0l0-0.1l0.1-0.1l0.2-0.3l0.3-0.6l0.6-1.1
						c0.4-0.8,0.7-1.5,1-2.3c0.6-1.5,1.1-3.1,1.5-4.7c0.8-3.1,0.8-6.4,0.3-9.4c-0.6-3-2.3-6.1-4.4-8.6c-2.2-2.6-4.8-4.8-7.6-6.6
						l1.3-1.2c2,2.5,3.9,5.1,5.7,7.8c0.9,1.3,1.8,2.7,2.7,4l1.3,2.1c0.4,0.7,0.8,1.4,1.2,2.3c0.7,1.7,0.9,3.5,0.8,5.3
						c0,1.7-0.3,3.4-0.8,5c-0.4,1.6-1,3.2-1.7,4.6c-0.3,0.7-0.7,1.5-1.1,2.2l-0.6,1.1l-0.3,0.5l-0.2,0.3l-0.1,0.1l0,0.1l0,0
						C367.1,170.5,367,170.4,367,170.4z M366.8,170.6c-0.1,0-0.1-0.2,0-0.2l0,0l0-0.1l0-0.1l0.1-0.3l0.2-0.6l0.3-1.2
						c0.2-0.8,0.4-1.5,0.6-2.3c0.3-1.5,0.7-3.1,0.8-4.6c0.4-3,0.3-6.1-0.7-8.6c-0.3-0.5-0.7-1.2-1-1.9l-1.2-2l-2.4-4.1
						c-1.6-2.7-3.3-5.5-4.8-8.3l-0.1-0.2c-0.2-0.4-0.1-1,0.4-1.2c0.4-0.2,0.8-0.1,1.1,0.1c1.3,1.2,2.4,2.5,3.6,3.7
						c1.2,1.2,2.3,2.5,3.5,3.8c1.1,1.3,2.3,2.6,3.4,4c1.1,1.4,2.1,2.9,2.7,4.7c1.1,3.5,0.8,7.3-0.4,10.7c-0.6,1.7-1.4,3.3-2.3,4.8
						c-0.5,0.7-1,1.4-1.6,2.1c-0.3,0.3-0.6,0.7-0.9,1c-0.1,0.2-0.3,0.3-0.5,0.5l-0.2,0.2l-0.1,0.1l-0.1,0.1l0,0c0,0,0,0-0.1,0.1
						C366.9,170.6,366.8,170.6,366.8,170.6z"/>
					<path fill="#999999" d="M359.4,135.7c2.6,2.1,4.9,4.5,7.1,7.1c1,1.3,2,2.7,2.9,4.1c0.4,0.7,0.9,1.4,1.2,2.2
						c0.3,0.8,0.6,1.6,0.8,2.4c0.4,1.6,0.6,3.3,0.6,5c0,1.7-0.2,3.4-0.6,5c-0.4,1.6-1,3.2-1.7,4.8c-0.7,1.5-1.7,2.9-2.7,4.2l-0.1,0
						c0.9-1.4,1.6-2.9,2.3-4.4c0.6-1.5,1.1-3.1,1.4-4.7c0.7-3.2,0.9-6.5,0.4-9.8c-0.1-0.8-0.3-1.6-0.6-2.4c-0.3-0.8-0.7-1.5-1.2-2.2
						c-0.9-1.4-2-2.6-3.1-3.8L359.4,135.7L359.4,135.7z"/>
					<path fill="#999999" d="M359.4,135.7c2.9,1.8,5.7,3.9,8.2,6.3c1.3,1.2,2.4,2.5,3.5,3.9c1.1,1.4,2,3,2.5,4.7
						c1.2,3.4,0.8,7.3-0.4,10.6c-0.6,1.7-1.4,3.2-2.4,4.7c-1,1.5-2,2.9-3.3,4.1l-0.1-0.1c1.8-2.9,3.4-6,4.4-9.2
						c0.1-0.4,0.3-0.8,0.4-1.2c0.1-0.4,0.2-0.8,0.3-1.2l0.3-1.2c0.1-0.4,0.1-0.8,0.2-1.2c0.2-1.6,0.1-3.3-0.4-4.9
						c-0.9-3.2-3.1-5.9-5.4-8.4c-2.4-2.5-5-4.7-7.8-6.7L359.4,135.7z"/>
				</g>
				<g>
					<g>
						<path fill="#999999" d="M383.4,120.3c0.4-0.2,0.9-0.4,1.3-0.5c0.4-0.1,0.9-0.2,1.4-0.3c1-0.2,2-0.2,2.9,0l1,0.2l-0.3,1.2
							c-0.2,0.9-0.5,1.7-0.8,2.6c-0.2,0.4-0.4,0.9-0.7,1.3c-0.3,0.4-0.6,0.9-1.3,1.4c-0.8,0.5-1.3,0.6-1.9,0.7
							c-0.5,0.1-1,0.2-1.5,0.3c-1,0.1-1.9,0.1-2.8-0.2l-2.5-0.7l0.6-1.9c0.2-0.5,0.4-0.9,0.7-1.4c0.3-0.4,0.7-0.9,1.2-1.2
							c0.4-0.4,0.9-0.7,1.4-1C382.5,120.7,382.9,120.5,383.4,120.3z M383.6,120.7c-0.3,0.3-0.6,0.6-0.7,1c-0.1,0.4-0.1,0.8,0,1.3
							c0.2,0.9,0.4,1.6,0.3,2.4l-1.8-2.6c0.7,0,1.5,0.1,2.2,0.3c0.3,0.1,0.7,0.1,1,0.2c0.3,0.1,0.6,0,0.5,0.1c0,0.1,0.3-0.1,0.5-0.3
							c0.2-0.2,0.5-0.5,0.7-0.8c0.5-0.6,0.9-1.3,1.3-1.9l0.7,1.5c-0.7-0.4-1.4-0.9-2.2-1.2c-0.4-0.2-0.8-0.3-1.2-0.2
							C384.3,120.3,383.9,120.5,383.6,120.7z"/>
						<path fill="#999999" d="M383.8,121.1c0.7-0.4,1.5-0.7,2.3-0.8c0.8-0.2,1.7-0.1,2.5-0.1l0.5,0.1l-0.3,0.5
							c-0.4,0.7-0.8,1.4-1.2,2.1c-0.5,0.7-0.9,1.3-1.7,1.9c-0.8,0.5-1.7,0.6-2.5,0.8c-0.8,0.1-1.6,0.2-2.4,0.2l-1.1-0.1l0.4-0.9
							c0.3-0.8,0.8-1.5,1.5-2.1C382.4,121.9,383.1,121.4,383.8,121.1z M383.9,121.2c-0.3,0.2-0.6,0.5-0.9,0.8
							c-0.2,0.3-0.4,0.7-0.6,1c-0.3,0.7-0.5,1.5-0.7,2.2l-0.7-1c0.7-0.1,1.5-0.1,2.2-0.1c0.7,0,1.5-0.1,2.1-0.4
							c0.5-0.3,1.1-0.9,1.6-1.4c0.5-0.6,0.9-1.2,1.4-1.8l0.3,0.6c-0.8-0.2-1.5-0.3-2.3-0.4C385.4,120.6,384.5,120.8,383.9,121.2z"/>
						<path fill="#999999" d="M384,121.4c0.7-0.4,1.4-0.7,2.2-0.8c0.8-0.2,1.6-0.2,2.3-0.2l0.3,0l-0.2,0.3c-0.4,0.6-0.9,1.2-1.4,1.8
							c-0.5,0.6-1,1.2-1.7,1.6c-0.7,0.4-1.5,0.6-2.2,0.8c-0.8,0.2-1.5,0.3-2.3,0.4l-0.7,0.1l0.3-0.6c0.4-0.7,0.9-1.3,1.4-1.9
							C382.7,122.3,383.3,121.8,384,121.4z M384,121.5c-0.7,0.4-1.2,0.9-1.7,1.6c-0.4,0.6-0.8,1.3-1.1,2l-0.4-0.5
							c0.7-0.1,1.5-0.2,2.2-0.3c0.7-0.1,1.5-0.3,2.1-0.6c0.6-0.3,1.2-0.9,1.7-1.4c0.5-0.5,1-1.1,1.5-1.7l0.1,0.3
							c-0.8-0.1-1.5-0.1-2.3,0C385.5,120.8,384.7,121.1,384,121.5z"/>
						<path fill="#999999" d="M388.8,120.6c0.7,1.3,1.1,2.6,1.5,4c0.1,0.7,0.2,1.5,0.2,2.4l-0.1,0.7c-0.1,0.2-0.2,0.5-0.2,0.7
							c-0.1,0.3-0.3,0.5-0.5,0.8c-0.2,0.3-0.5,0.5-0.8,0.7c-0.3,0.2-0.6,0.3-1,0.5c-0.3,0.1-0.7,0.2-1,0.2c-0.3,0-0.6,0-0.9,0
							l-0.8-0.1c-0.9-0.2-1.7-0.6-2.3-1.1c-1.2-1.1-2-2.4-2.2-4.2l0.3-0.3c1.8,0,3.1,0.4,4.2,0.8c0.5,0.2,1,0.4,1.3,0.7
							c0.3,0.3,0.5,0.4,0.4,0.5c-0.1,0.2,0.3,0,0.5-0.5c0.2-0.5,0.4-1.1,0.5-1.7c0.2-1.3,0.3-2.6,0.3-4L388.8,120.6z"/>
						<path fill="#999999" d="M388.3,121.1c0.4,1,0.6,2.1,0.5,3.2c-0.1,0.6-0.3,1.1-0.5,1.6c-0.2,0.5-0.4,1.1-0.9,1.4
							c-0.5,0.4-1.2,0.4-1.7,0.3c-0.6-0.1-1.1-0.3-1.6-0.6c-1-0.5-1.8-1.3-2.5-2.2l0-0.1c1,0.5,1.9,1.1,2.8,1.5
							c0.9,0.4,1.9,0.9,2.8,0.6c0.4-0.2,0.8-0.6,0.9-1.1c0.1-0.5,0.1-1,0.1-1.6C388.2,123.3,388.2,122.2,388.3,121.1L388.3,121.1z"
							/>
						<path fill="#999999" d="M388.6,120.6c0.4,1.2,0.6,2.5,0.6,3.7c0,0.6,0,1.3-0.2,2c-0.2,0.6-0.5,1.4-1.2,1.9
							c-0.7,0.5-1.6,0.5-2.3,0.3c-0.7-0.1-1.3-0.4-1.9-0.8c-1.1-0.7-2.1-1.6-2.7-2.8l0.1-0.1c1.2,0.5,2.3,1.1,3.3,1.6
							c0.5,0.2,1,0.5,1.5,0.6c0.5,0.2,1,0.2,1.4,0.1c0.4-0.2,0.7-0.6,0.9-1.1c0.2-0.5,0.3-1.1,0.4-1.7c0.1-1.2,0.1-2.4,0-3.7
							L388.6,120.6z"/>
					</g>
					<g>
						<g>

							<ellipse fill="#2F3E52" stroke="#999999" stroke-width="1.4805" stroke-miterlimit="10" cx="372.1" cy="126.3" rx="2.6" ry="2.6"/>
							<circle fill="#FFFFFF" stroke="#999999" stroke-width="1.4805" stroke-miterlimit="10" cx="371.7" cy="125.6" r="1.2"/>
						</g>
						<g>

							<ellipse fill="#2F3E52" stroke="#999999" stroke-width="1.4805" stroke-miterlimit="10" cx="395.6" cy="115" rx="2.6" ry="2.6"/>
							<circle fill="#FFFFFF" stroke="#999999" stroke-width="1.4805" stroke-miterlimit="10" cx="395.2" cy="114.3" r="1.2"/>
						</g>
					</g>
				</g>
				<path fill="#999999" d="M412.3,118.1c-0.8-2.3-2-4.5-3.4-6.4c-0.7-1-1.5-1.9-2.4-2.8c-0.8-0.9-1.8-1.6-2.7-2.5
					c-3.8-3-8.2-5.1-12.8-6.5c-2.3-0.9-4.7-1.2-7.1-1.7c-1.2-0.3-2.4-0.3-3.6-0.5c-1.2-0.1-2.4-0.3-3.6-0.4l-3.7-0.2
					c-1.2,0-2.4-0.2-3.7-0.2c-2.5,0-4.9,0.1-7.4,0c2.4-0.3,4.9-0.5,7.4-0.8c2.5-0.1,4.9-0.1,7.4-0.1c1.2,0,2.5,0.2,3.7,0.3
					c1.2,0.1,2.5,0.2,3.7,0.4c2.4,0.5,4.9,0.9,7.3,1.7c2.4,0.7,4.7,1.7,6.9,2.8l3.2,1.9c1,0.8,2,1.5,3,2.3l1.3,1.3
					c0.4,0.4,0.9,0.8,1.3,1.4c0.8,1,1.6,1.9,2.2,3C410.8,113.4,411.9,115.7,412.3,118.1z"/>
				<path fill="#999999" d="M357.1,125.2c-0.7-2.3-0.7-4.7-0.5-7.1c0.3-2.4,0.9-4.8,1.9-7.1c1.9-4.5,5.2-8.5,9.1-11.5
					c3.9-3,8.4-5.1,12.9-6.5c4.6-1.3,9.3-2,14-1.8c-4.4,1.7-8.7,3.2-12.8,5.1c-4.1,1.9-8,4-11.4,6.7c-3.5,2.6-6.4,5.8-8.7,9.6
					c-1.1,1.9-2.1,3.8-2.8,6C358,120.7,357.4,122.9,357.1,125.2z"/>
			</g>
			<g>
				<path fill="#2F3E52" stroke="#999999" stroke-width="1.4805" stroke-miterlimit="10" d="M395.9,169.4v2.8c0,0.5-0.4,0.9-0.9,0.9
					l0,0c-0.5,0-0.9-0.4-0.9-0.9v-2.8c0-0.5,0.4-0.9,0.9-0.9l0,0C395.5,168.5,395.9,168.9,395.9,169.4z"/>
				<path fill="#2F3E52" stroke="#999999" stroke-width="1.4805" stroke-miterlimit="10" d="M392.2,169.4v2.8c0,0.5-0.4,0.9-0.9,0.9
					l0,0c-0.5,0-0.9-0.4-0.9-0.9v-2.8c0-0.5,0.4-0.9,0.9-0.9l0,0C391.9,168.5,392.2,168.9,392.2,169.4z"/>
				<path fill="#2F3E52" stroke="#999999" stroke-width="1.4805" stroke-miterlimit="10" d="M377.8,169.4v2.8c0,0.5-0.4,0.9-0.9,0.9
					l0,0c-0.5,0-0.9-0.4-0.9-0.9v-2.8c0-0.5,0.4-0.9,0.9-0.9l0,0C377.4,168.5,377.8,168.9,377.8,169.4z"/>
				<path fill="#2F3E52" stroke="#999999" stroke-width="1.4805" stroke-miterlimit="10" d="M374.4,169.4v2.8c0,0.5-0.4,0.9-0.9,0.9
					l0,0c-0.5,0-0.9-0.4-0.9-0.9v-2.8c0-0.5,0.4-0.9,0.9-0.9l0,0C374,168.5,374.4,168.9,374.4,169.4z"/>
			</g>
			<g>
				<g>
					<ellipse fill="#2F3E52" stroke="#999999" stroke-width="1.4805" stroke-miterlimit="10" cx="342.9" cy="127.4" rx="2.6" ry="2.6"/>
					<circle fill="#FFFFFF" stroke="#999999" stroke-width="1.4805" stroke-miterlimit="10" cx="342.6" cy="126.7" r="1.2"/>
				</g>
				<g>
					<path fill="#FFFFFF" d="M362.4,131c-1.2-1.7-4.2-5.9-5.8-5.5c-2,0.4-2.6,2.6-2.6,3.5c0,2.2,0.9,3.4,1.7,3.4
						c0.6,0,4.5-0.3,6.3-0.5C362.4,131.8,362.6,131.3,362.4,131"/>
					<path fill="#999999" d="M362.2,131.1c-0.6-0.8-1.5-1.4-2.4-2c-0.9-0.6-1.6-1.2-2.1-1.9c-0.3-0.3-0.6-0.6-0.8-0.8
						c0,0-0.1-0.1-0.1-0.1l0,0c0,0-0.1,0-0.1,0c-0.2,0-0.4,0-0.6,0.1c-0.4,0-0.6,0.5-0.7,0.9c-0.1,0.4-0.1,0.8,0,1.2
						c0,0.2,0.1,0.3,0.2,0.5l0.2,0.6c0.2,0.3,0.3,0.6,0.5,0.8c0.1,0.1,0.2,0.1,0.2,0c0,0-0.1-0.2-0.4-0.3c-0.1,0-0.2-0.1-0.3-0.1
						c-0.1,0,0,0,0,0l0.1,0l0.4,0c0.2,0,0.5,0,0.7,0c1,0,2,0.1,3,0.4c0.5,0.1,1,0.3,1.5,0.5c0.1,0.1,0.3,0.1,0.4,0.2
						c0,0.1-0.1,0.2-0.1,0.3C361.8,131.4,362.1,131.4,362.2,131.1l0.4-0.3c0.4,0.2,0.6,0.8,0.2,1.4c-0.2,0.3-0.5,0.5-0.8,0.6
						c-0.1,0.1-0.2,0.1-0.4,0.2c-0.5,0.3-1,0.5-1.5,0.7c-1,0.4-2.1,0.7-3.1,0.9c-0.3,0-0.5,0.1-0.8,0.1l-0.4,0l-0.1,0l-0.2,0
						c-0.2,0-0.5-0.1-0.7-0.1c-0.9-0.3-1.4-0.8-1.7-1.2c-0.3-0.4-0.5-0.8-0.7-1.2c-0.3-0.8-0.3-1.5-0.3-2.1c0-0.3,0.1-0.7,0.1-1
						c0.1-0.4,0.2-0.8,0.3-1.1c0.3-0.6,0.7-1.2,1.2-1.6c0.5-0.5,1-0.7,1.5-1.2c0.3-0.2,0.6-0.4,0.9-0.5c0.1,0,0.1-0.1,0.3-0.1
						c0.1,0,0.2,0,0.4-0.1c0.3,0,0.4,0,0.7,0c0.8,0.1,1.3,0.5,1.8,0.8c1,0.7,1.6,1.5,2,2.6c0.4,1,0.7,2.1,1.2,2.9L362.2,131.1z"/>
				</g>
				<path fill="#999999" d="M362,131.4c-1.3,0-2.7-0.2-4-0.3c-1.3-0.1-2.7-0.3-4-0.5l0.4-0.5l0.2,0.6l-0.3-0.3
					c1.2,0.2,2.5,0.3,3.7,0.5c1.2,0.2,2.5,0.4,3.7,0.7c-1.3,0-2.5-0.1-3.8-0.2c-1.3-0.1-2.5-0.2-3.7-0.3l-0.2,0l-0.1-0.2l-0.2-0.6
					l-0.2-0.5l0.6,0.1c1.3,0.2,2.6,0.4,3.9,0.6C359.4,130.8,360.7,131.1,362,131.4z"/>
				<path fill="#999999" d="M361.8,131.7c0.2,0,0.4-0.2,0.4-0.4c0-0.2-0.2-0.4-0.3-0.6c-0.3-0.4-0.6-0.7-0.9-1.1
					c-0.7-0.7-1.3-1.4-2-2c-0.3-0.3-0.7-0.6-1.1-0.9c-0.4-0.2-0.8-0.4-1-0.4c-0.3,0-0.7,0.2-1,0.5c-0.3,0.2-0.5,0.6-0.7,0.9
					c-0.2,0.4-0.3,0.8-0.3,1.2c0,0.4,0.1,0.8,0.2,1.2c0.1,0.4,0.3,0.8,0.4,1c0.1,0.1,0.2,0.2,0.3,0.3c0,0,0.1,0,0.1,0c0,0,0,0,0.1,0
					l0.2,0C357.9,131.4,359.8,131.8,361.8,131.7z M361.8,131.8c-1.9,0.2-3.8,0.9-5.7,1.1l-0.2,0c0,0-0.1,0-0.3,0
					c-0.2,0-0.4-0.1-0.6-0.2c-0.4-0.2-0.6-0.4-0.8-0.7c-0.4-0.5-0.5-1.1-0.6-1.6c-0.1-0.6-0.1-1,0-1.6c0.1-0.6,0.3-1.1,0.5-1.6
					c0.5-1,1.5-1.8,2.7-1.8c0.7,0,1.1,0.4,1.6,0.7c0.4,0.3,0.8,0.7,1.1,1c0.7,0.7,1.2,1.5,1.8,2.3l0.8,1.2c0.1,0.2,0.3,0.4,0.3,0.7
					C362.3,131.6,362,131.8,361.8,131.8z"/>
				<path fill="#999999" d="M354.1,129.3c0.1,0.9,0.3,1.9,0.9,2.5c0.2,0.1,0.3,0.2,0.5,0.3c0.1,0,0.4,0,0.6,0l1.4-0.2
					c0.9-0.1,1.8-0.2,2.8-0.3l0.7-0.1l0.3,0l0.2,0c0,0,0,0,0.1,0c0.1,0,0.1-0.1,0.1-0.1c0,0,0,0,0,0l-0.1-0.1l-0.2-0.3
					c-1.1-1.4-2.3-2.9-3.7-4c-0.4-0.2-0.8-0.5-1.1-0.4c-0.4,0.1-0.8,0.2-1.2,0.5C354.7,127.5,354.3,128.3,354.1,129.3
					c0-0.9,0.3-1.9,1-2.6c0.4-0.3,0.8-0.6,1.3-0.7c0.6-0.1,1.1,0.1,1.5,0.4c1.6,1.1,2.8,2.6,4,4l0.2,0.3l0.1,0.1
					c0,0,0.1,0.2,0.1,0.3c0.1,0.4-0.1,0.9-0.5,1c-0.1,0-0.2,0.1-0.3,0.1l-0.2,0l-0.3,0l-0.7,0c-0.9,0-1.9,0.1-2.8,0.1l-1.4,0
					c-0.2,0-0.4,0.1-0.7,0c-0.3-0.1-0.5-0.2-0.7-0.4C354.2,131.2,354.1,130.2,354.1,129.3z"/>
			</g>
		</g>
	</g>
</g>
</svg>
