<?xml version="1.0" encoding="utf-8"?>
<!-- Generator: Adobe Illustrator 22.0.1, SVG Export Plug-In . SVG Version: 6.00 Build 0)  -->
<svg version="1.1" id="Calque_1" xmlns="http://www.w3.org/2000/svg" xmlns:xlink="http://www.w3.org/1999/xlink" x="0px" y="0px"
	 viewBox="0 0 447.9 447.9" style="enable-background:new 0 0 447.9 447.9;" xml:space="preserve">
<style type="text/css">
	.st0{fill:#00CCCC;}
	.st1{fill:#989898;}
	.st2{fill:#FFFFFF;}
	.st3{display:none;fill:#FFFFFF;}
	.st4{display:none;fill:#FFFFFF;enable-background:new    ;}
	.st5{font-family:'ArialMT';}
	.st6{font-size:391.3174px;}
	.st7{display:none;enable-background:new    ;}
	.st8{font-size:207.807px;}
	.st9{fill:#999999;}
	.st10{fill:none;stroke:#999999;stroke-width:1.4805;stroke-miterlimit:10;}
	.st11{fill:#2F3E52;stroke:#999999;stroke-width:1.4805;stroke-miterlimit:10;}
	.st12{fill:#FFFFFF;stroke:#999999;stroke-width:1.4805;stroke-miterlimit:10;}
</style>
<g id="Calque_1_1_">
	<g>
		<g>
			<g>
				<g>
					<path class="st0" d="M232,43.3c-0.5-2.4-1.8-3.9-3.2-3.9s-2.8,1.7-3.3,4.1l-77.6,356.3c-0.7,3.3,0.2,7,2,8.3s3.9-0.4,4.6-3.6
						l26.8-123.2h94.9L303,404.5c0.6,2.5,1.9,4.1,3.3,4.1c0.4,0,0.8-0.1,1.3-0.4c1.8-1.3,2.7-5,2-8.3L232,43.3z M184,268.4L228.7,63
						l44.8,205.4H184z"/>
					<path class="st1" d="M227.1,109.4L197,247.6c-0.4,1.7,0.1,3.4,1,4.1c0.2,0.1,0.4,0.3,0.6,0.3c0.7,0,1.3-0.8,1.6-2l30.1-138.2
						c0.4-1.7-0.1-3.4-1-4.1C228.5,106.8,227.5,107.7,227.1,109.4z"/>
					<path class="st1" d="M188,297.7c-0.9-0.6-1.9,0.1-2.3,1.8l-22.1,101.3c-0.4,1.7,0.1,3.4,1,4.1c0.2,0.1,0.4,0.3,0.6,0.3
						c0.7,0,1.3-0.8,1.6-2L189,301.8C189.3,300.3,188.8,298.3,188,297.7z"/>
				</g>
			</g>
		</g>
		<g id="N">
			<g>
				<path class="st2" d="M139,399.9L72.4,43.3c-0.4-2.4-1.5-3.9-2.7-3.9c-1.2,0-2.4,1.7-2.8,4.1L0.2,399.8c-0.6,3.3,0.2,7,1.7,8.3
					c1.6,1.3,3.3-0.4,3.9-3.6l22.4-119.7c0-0.3,0-0.7,0.1-1.1c1-5.1,1.6-11,3.1-15.7L69.7,63.1l38,203.2c0.2,0.4,0.5,0.9,0.6,1.7
					c0.6,5,1.8,9.6,2.6,14.5c0.1,0.6,0.1,1.1,0.1,1.6l22.5,120.4c0.5,2.5,1.6,4.1,2.8,4.1c0.4,0,0.7-0.1,1.1-0.4
					C138.9,406.9,139.6,403.2,139,399.9z"/>
			</g>
			<g>
				<path class="st2" d="M205.4,43.3c-0.4-2.4-1.6-3.9-2.8-3.9s-2.4,1.7-2.8,4.1l-66.6,356.3c-0.6,3.3,0.2,7,1.7,8.3
					c1.6,1.3,3.3-0.4,3.9-3.6l23-123.2h0.2c0.1-1.1,0.3-2.1,0.5-3.1c0.2-1.4,0.5-2.7,0.8-3.9c0.3-1.3,0.5-2.7,0.5-4.2
					c0-0.7,0.2-1.3,0.4-1.8l38.1-203.6c0.6-6.1,1.9-11.9,3.1-17.6v-1.9c0-0.4,0-0.8,0.1-1.1L205.4,43.3z"/>
				<path class="st3" d="M201.2,109.4l-25.9,138.2c-0.3,1.7,0.1,3.4,0.8,4.1c0.2,0.1,0.4,0.3,0.5,0.3c0.6,0,1.2-0.8,1.4-2l26-138.3
					c0.3-1.7-0.1-3.4-0.8-4.1C202.4,106.8,201.5,107.7,201.2,109.4z"/>
				<path class="st3" d="M167.6,297.7c-0.8-0.6-1.6,0.1-1.9,1.8l-19,101.3c-0.3,1.7,0.1,3.4,0.8,4.1c0.2,0.1,0.4,0.3,0.5,0.3
					c0.6,0,1.2-0.8,1.4-2l19-101.3C168.8,300.3,168.3,298.3,167.6,297.7z"/>
			</g>
		</g>
		<text transform="matrix(1.0334 0 0 1 379.3145 250.3253)" class="st4 st5 st6">O</text>
		<path class="st2" d="M439.5,268.8H305.1c-4.7,0-8.4,2.4-8.4,5.6s3.7,5.6,8.4,5.6h134.5c4.7,0,8.4-2.4,8.4-5.6
			S444.1,268.8,439.5,268.8z"/>
	</g>
</g>
<g id="Calque_4">
	<g>
		<path class="st2" d="M365,252.1c-45.4,0-79.8-46.6-79.8-96.7h1.3c0,50.7,34.9,93.1,78,93.1c8.7,0,17.2-2.4,25.3-6.7
			c6.3-3.3,16.6-9.8,22.1-15c4.2-4,7.4-9,11-13.9c4.2-5.6,6.5-9.6,9.7-15.9c6.7-13.6,8.6-28,8.6-42.1c0-20-6.9-43-19.5-60.1
			c-3.1-4.2-7.4-9.8-11-13.4c-12.9-13.1-29-18.4-45.2-19.1c-44.2-1.9-69.4,48.4-65.2,91.6c0.6,6.1,1.5,12.7,2.9,19.3
			c1.9,8.6,4.9,17.1,9.7,24c12.4,18.1,33.5,28.8,51.6,28.8c6.4,0,12.5-1.9,18.3-5.1c4.5-2.5,15.5-10.6,19.4-14.5
			c4.6-4.7,13.4-25.2,15-30.9c1.8-6.5,2.1-14.3,2.1-20.5c0-8.4-0.6-17.7-4.2-26.6c-2-4.8-4.1-10.8-6.8-15.3c-1.9-3.1-4.8-7.7-7-10.4
			c-9.7-12-23-17.4-35.8-17.4c-12.1,0-23.6,6.8-31.2,17.6c-3.2,4.6-5.3,8.5-7.6,14c-5,11.8-7.1,27-7.1,38.6h-1.3
			c0-33.8,11.2-73.7,46.7-73.7c33.9,0,57.6,37,57.6,73.7c0,37.9-22.4,73.1-57.6,73.1c-37,0-68.6-30-68.6-73.7
			c0-47.5,21.9-97,68.6-97c45.4,0,78.8,47.8,78.8,97.6C443.7,205.2,410.3,252.1,365,252.1z"/>
	</g>
	<g>
		<path class="st2" d="M321.5,167.9c1.9,0,1.9-3,0-3S319.6,167.9,321.5,167.9L321.5,167.9z"/>
	</g>
	<text transform="matrix(1.1073 0 0 1 290.0073 222.3736)" class="st7 st5 st8">O</text>
</g>
<g id="Calque_3">
	<g>
		<g>
			<g>
				<g>
					<g>
						<g>
							<path class="st0" d="M365.7,212.5c0,0-2.2,4.2-8,10.7c-6.4,7.2-9,12.9-10.8,13.5s1.3-6.5,0.6-6.2c-0.8,0.3-7.2,7.5-9.2,6
								s12.8-11.1,11.3-14.1c-1.1-2.1-18.7-9.6-29.9-26.1L365.7,212.5z"/>
							<path class="st9" d="M366,212.4c0,0.1,0,0.2,0,0.3v0.1v0.1l-0.1,0.2l-0.2,0.4l-0.3,0.8c-0.2,0.5-0.5,1-0.7,1.6
								c-0.5,1-1.1,2-1.7,3c-1.2,2-2.5,3.9-3.9,5.7c-1.3,1.7-2.6,3.5-3.8,5.4l-3.7,5.6c-0.3,0.5-0.7,1-1.1,1.5
								c-0.2,0.3-0.4,0.5-0.7,0.8l-0.4,0.4c-0.2,0.2-0.4,0.3-0.6,0.5s-0.6,0.4-1,0.5c-0.1,0-0.3,0.1-0.4,0.1c-0.2,0-0.3,0.1-0.6,0.1
								c-0.3,0-0.6,0-0.8-0.1c-0.3-0.1-0.7-0.2-1-0.4s-0.5-0.4-0.7-0.7c-0.1-0.1-0.2-0.2-0.2-0.3c-0.1-0.1-0.1-0.2-0.1-0.3
								s-0.1-0.2-0.1-0.3l-0.1-0.2c0-0.1-0.1-0.3-0.1-0.4c-0.1-0.4,0-0.7,0-1c0.1-1,0.2-1.5,0.4-2.2c0.2-0.6,0.3-1.2,0.5-1.7
								s0.4-1.1,0.4-1.4c0,0,0-0.1,0,0c0,0,0,0,0,0.1s0,0.2,0,0.3c0,0.2,0.1,0.4,0.1,0.6c0.1,0.1,0.1,0.1,0.2,0.3
								c0.2,0.3,0.4,0.6,0.7,0.8c0.3,0.2,0.7,0.4,0.9,0.4c0.2,0.1,0.5,0.1,0.7,0.1s0.5-0.1,0.7-0.2l0.1-0.1c0.4-0.2,0.3-0.2,0.3-0.2
								c-0.1,0-0.3,0.2-0.5,0.4l-1.3,1.1c-0.9,0.7-1.8,1.4-2.8,2.1c-1,0.7-2,1.3-3.4,1.9c-0.4,0.1-0.7,0.2-1.2,0.3s-1.1,0.1-1.8-0.2
								c-0.2-0.1-0.3-0.2-0.5-0.3s-0.4-0.4-0.6-0.7s-0.2-0.6-0.3-0.9c0-0.2,0-0.3,0-0.4c0-0.1,0-0.2,0-0.3c0-0.2,0.1-0.3,0.2-0.5
								c0.1-0.1,0.1-0.3,0.2-0.3c0.1-0.2,0.2-0.4,0.3-0.5c0.9-1.1,1.8-1.8,2.7-2.5c1.8-1.5,3.5-2.8,5.2-4.3c0.8-0.8,1.6-1.5,2.3-2.4
								c0.3-0.4,0.7-0.8,0.9-1.2c0.3-0.4,0.5-0.9,0.4-1c0-0.1,0,0-0.1-0.1s-0.3-0.3-0.5-0.4c-0.4-0.3-0.9-0.6-1.4-0.9
								c-1-0.6-1.9-1.1-2.9-1.6c-2-1.1-4-2.2-6-3.3c-8-4.5-15.2-10.8-20.7-18.5l-5.5-7.6l9.1,2.9c4.1,1.3,8.1,2.7,12.1,4.3
								c4,1.5,7.9,3.2,11.7,4.8l5.7,2.5l5.5,2.5C359.2,209.1,362.7,210.8,366,212.4z M365.4,212.6l-12.7-3.2l-6-1.5l-5.9-1.6
								c-3.8-1.1-7.6-2.1-11.3-3.3c-3.7-1.1-7.3-2.4-10.9-3.8l3.6-4.7c4.6,7.2,10.9,13.3,17.7,19c1.7,1.4,3.5,2.8,5.3,4.1l2.7,2
								c0.5,0.3,0.9,0.7,1.4,1.1c0.2,0.2,0.5,0.4,0.7,0.7c0.3,0.3,0.6,1,0.5,1.4c-0.1,1-0.4,1.5-0.8,2.1c-0.3,0.5-0.7,1-1.1,1.4
								c-0.8,0.9-1.6,1.7-2.4,2.5c-1.6,1.6-3.3,3.2-4.8,4.8c-0.7,0.8-1.5,1.7-1.9,2.4c0,0.1-0.1,0.2-0.1,0.2l0,0c0,0,0,0,0-0.1
								s0-0.1,0-0.2c0-0.2-0.1-0.3-0.1-0.5c0-0.1-0.3-0.3-0.3-0.4l-0.1-0.1c-0.2-0.1-0.2-0.1-0.1-0.1s0.2-0.1,0.4-0.2
								c0.7-0.4,1.5-1.1,2.2-1.9c0.7-0.7,1.5-1.5,2.2-2.3c0.4-0.4,0.8-0.8,1.2-1.2c0.2-0.2,0.4-0.4,0.8-0.7c0.1-0.1,0.2-0.2,0.7-0.4
								c0.1,0,0,0,0.2-0.1s0.5-0.1,0.8-0.2c0.3,0,0.5,0,0.8,0.1c0.2,0,0.6,0.2,0.9,0.4s0.6,0.5,0.7,0.8c0.1,0.2,0.1,0.3,0.2,0.4
								c0.1,0.2,0.1,0.5,0.2,0.7c0,0.2,0,0.4,0,0.5v0.3c0,0.2,0,0.3-0.1,0.4c-0.2,0.8-0.3,1.3-0.4,1.9c-0.1,0.5-0.3,1.1-0.4,1.5
								c-0.1,0.5-0.2,1-0.2,1.2c0,0,0,0,0-0.1c0,0,0-0.1,0-0.2v-0.1c0-0.1,0-0.1-0.1-0.2c0-0.1-0.1-0.1-0.1-0.2l-0.2-0.2
								c-0.2-0.2-0.3-0.4-0.6-0.5c-0.2-0.2-0.5-0.3-0.8-0.3c-0.2-0.1-0.4-0.1-0.6-0.1s-0.2,0-0.4,0c-0.1,0-0.2,0.1-0.2,0.1
								c-0.1,0-0.2,0.1-0.2,0.1l0,0l0.2-0.2c0.1-0.1,0.3-0.3,0.4-0.5c0.3-0.4,0.6-0.8,0.9-1.2c2.6-3.5,5.5-7.3,8.9-10.5
								c1.6-1.5,3.2-3.1,4.7-4.7c0.8-0.8,1.5-1.6,2.3-2.4l1.1-1.3l0.6-0.6l0.3-0.3l0.1-0.2l0.1-0.1l0,0
								C365.4,212.4,365.4,212.5,365.4,212.6z"/>
						</g>
					</g>
					<g>
						<line class="st10" x1="335.8" y1="212.8" x2="364.6" y2="212.8"/>
						<line class="st10" x1="336.5" y1="213.4" x2="364.6" y2="213.4"/>
						<line class="st10" x1="364.6" y1="214" x2="337.3" y2="214"/>
						<line class="st10" x1="364.4" y1="214.5" x2="338.1" y2="214.5"/>
						<line class="st10" x1="338.9" y1="215.1" x2="364" y2="215.1"/>
						<line class="st10" x1="363.7" y1="215.7" x2="339.7" y2="215.7"/>
						<line class="st10" x1="363.3" y1="216.2" x2="340.6" y2="216.2"/>
						<line class="st10" x1="362.8" y1="216.8" x2="341.4" y2="216.8"/>
						<line class="st10" x1="362.4" y1="217.4" x2="342.3" y2="217.4"/>
						<line class="st10" x1="362" y1="218" x2="343.2" y2="218"/>
						<line class="st10" x1="361.6" y1="218.5" x2="344.1" y2="218.5"/>
						<line class="st10" x1="361.1" y1="219.1" x2="345" y2="219.1"/>
						<line class="st10" x1="360.7" y1="219.7" x2="345.9" y2="219.7"/>
						<line class="st10" x1="360.2" y1="220.2" x2="346.8" y2="220.2"/>
						<line class="st10" x1="359.7" y1="220.8" x2="347.6" y2="220.8"/>
						<line class="st10" x1="359.2" y1="221.4" x2="348.4" y2="221.4"/>
						<line class="st10" x1="358.8" y1="221.9" x2="349.1" y2="221.9"/>
						<line class="st10" x1="358.3" y1="222.5" x2="349.5" y2="222.5"/>
						<line class="st10" x1="357.8" y1="223.1" x2="349.6" y2="223.1"/>
						<line class="st10" x1="357.3" y1="223.6" x2="349.4" y2="223.6"/>
						<line class="st10" x1="356.8" y1="224.2" x2="349.1" y2="224.2"/>
						<line class="st10" x1="356.3" y1="224.8" x2="348.8" y2="224.8"/>
						<line class="st10" x1="355.8" y1="225.3" x2="348.3" y2="225.3"/>
						<line class="st10" x1="355.3" y1="225.9" x2="347.8" y2="225.9"/>
						<line class="st10" x1="354.9" y1="226.5" x2="347.3" y2="226.5"/>
						<line class="st10" x1="354.4" y1="227.1" x2="346.8" y2="227.1"/>
						<line class="st10" x1="354" y1="227.6" x2="346.2" y2="227.6"/>
						<line class="st10" x1="353.6" y1="228.2" x2="345.6" y2="228.2"/>
						<line class="st10" x1="353.1" y1="228.8" x2="345" y2="228.8"/>
						<line class="st10" x1="352.7" y1="229.3" x2="344.4" y2="229.3"/>
						<line class="st10" x1="352.3" y1="229.9" x2="343.8" y2="229.9"/>
						<line class="st10" x1="351.9" y1="230.5" x2="343.1" y2="230.5"/>
						<line class="st10" x1="351.5" y1="231" x2="347.5" y2="231"/>
						<line class="st10" x1="342.5" y1="231" x2="346.7" y2="231"/>
						<line class="st10" x1="351.1" y1="231.6" x2="347.3" y2="231.6"/>
						<line class="st10" x1="341.9" y1="231.6" x2="346.1" y2="231.6"/>
						<line class="st10" x1="341.3" y1="232.2" x2="345.5" y2="232.2"/>
						<line class="st10" x1="350.7" y1="232.2" x2="347.2" y2="232.2"/>
						<line class="st10" x1="340.7" y1="232.7" x2="344.9" y2="232.7"/>
						<line class="st10" x1="350.3" y1="232.7" x2="347" y2="232.7"/>
						<line class="st10" x1="340.1" y1="233.3" x2="344.3" y2="233.3"/>
						<line class="st10" x1="349.9" y1="233.3" x2="346.8" y2="233.3"/>
						<line class="st10" x1="339.5" y1="233.9" x2="343.6" y2="233.9"/>
						<line class="st10" x1="349.5" y1="233.9" x2="346.7" y2="233.9"/>
						<line class="st10" x1="349.1" y1="234.5" x2="346.5" y2="234.5"/>
						<line class="st10" x1="339" y1="234.5" x2="343" y2="234.5"/>
						<line class="st10" x1="338.5" y1="235" x2="342.2" y2="235"/>
						<line class="st10" x1="348.6" y1="235" x2="346.4" y2="235"/>
						<line class="st10" x1="338.2" y1="235.6" x2="341.5" y2="235.6"/>
						<line class="st10" x1="348.2" y1="235.6" x2="346.3" y2="235.6"/>
						<line class="st10" x1="338" y1="236.2" x2="340.5" y2="236.2"/>
						<line class="st10" x1="347.7" y1="236.2" x2="346.3" y2="236.2"/>
					</g>
				</g>
				<g>
					<g>
						<path class="st0" d="M312.8,153.9L312.8,153.9c4.1-10.2,14-17.4,25.4-17.4c15.2,0,27.5,12.7,27.5,28.3c0,0.9,0,1.7-0.1,2.5
							l0,0l0,0c-0.1,0.9-0.2,1.8-0.4,2.7c-1.9,16.5,5,21,3.6,31.8c-1.9,14-10,20.4-16.4,19.2c-4.3-0.8-26.4-15.4-37.4-31.1
							C304,174.2,312.8,153.9,312.8,153.9z"/>
						<path class="st9" d="M312.6,153.7c-0.3,0.3-0.1,0.1-0.1,0.1l0,0l0,0L312.6,153.7L312.6,153.7l0.1-0.4l0.3-0.6
							c0.2-0.4,0.3-0.8,0.5-1.1c0.4-0.7,0.7-1.5,1.2-2.2l0.6-1.1l0.7-1c0.4-0.7,1-1.3,1.5-2c2.1-2.6,4.7-4.9,7.6-6.7
							c5.8-3.7,13.3-5.2,20.3-3.6c7.1,1.6,13.4,6.1,17.1,12.3c3.8,6.1,5,13.4,4.1,20.2l-0.9-1.3l0,0l1.1,0.3l-0.2,1
							c-0.6,3.1-0.9,6-0.9,9.1s0.6,6.1,1.3,9c0.8,2.9,2,5.9,2.7,9c0.3,1.6,0.6,3.2,0.6,4.9c0,0.8,0,1.7-0.1,2.5l-0.3,2.4
							c-0.5,3.2-1.3,6.5-2.8,9.5c-1.6,3-3.7,6-7,7.9c-1.6,1-3.5,1.7-5.5,1.9c-1,0.1-2,0.1-3.1-0.1l-0.8-0.2l-0.4-0.1l-0.3-0.1
							l-1.3-0.5c-3.1-1.5-5.8-3.1-8.5-4.9c-5.4-3.5-10.4-7.4-15.1-11.8c-2.3-2.2-4.6-4.5-6.7-6.9s-4.1-5-5.8-7.8
							c-1.7-2.9-3.1-6.1-3.7-9.3s-0.9-6.5-0.7-9.7c0.2-3.2,0.7-6.3,1.4-9.4c0.3-1.5,0.7-3.1,1.2-4.6c0.2-0.8,0.5-1.5,0.7-2.2
							c0.1-0.4,0.3-0.7,0.4-1.1l0.2-0.6l0.1-0.3C312.4,154,312.5,153.8,312.6,153.7z M312.9,154.2c0,0.1,0.1,0,0,0.1l-0.1,0.3
							l-0.2,0.5c-0.1,0.4-0.3,0.7-0.4,1.1c-0.2,0.7-0.4,1.5-0.6,2.2c-0.4,1.5-0.7,3-0.9,4.5c-0.4,3.1-0.4,6.2-0.1,9.2
							s1.1,5.9,2.2,8.7l0.9,2c0.3,0.7,0.7,1.3,1.1,1.9l0.5,0.9c0.2,0.3,0.4,0.6,0.6,0.9l1.2,1.7c7.5,9.3,16.9,17.3,26.7,24.4
							c2.5,1.7,5,3.4,7.5,4.8l0.9,0.4l0.2,0.1h0.1c0.1,0,0.2,0.1,0.3,0.1c0.4,0.1,1,0.2,1.5,0.1c1.1,0,2.2-0.4,3.3-0.9
							c2.2-1.1,4.1-3.2,5.6-5.6c1.5-2.4,2.6-5.1,3.4-8l0.5-2.2c0.1-0.7,0.2-1.4,0.3-2.2c0.1-1.4,0.1-2.9-0.1-4.4
							c-0.4-3-1.4-5.9-2.1-9c-1.6-6.2-1.6-12.7-0.9-18.9l0.9,1.3l0,0l-0.9-0.2v-1.1c0.2-6.4-2-12.5-5.7-17.3
							c-3.6-4.8-8.7-8.3-14.5-10c-5.7-1.7-12.2-1.7-18,0.8c-0.7,0.3-1.5,0.6-2.1,1c-0.7,0.4-1.4,0.8-2,1.2c-0.7,0.4-1.3,1-1.9,1.4
							c-0.6,0.5-1.2,1.1-1.8,1.6c-0.5,0.6-1.1,1.2-1.6,1.8l-0.8,1l-0.7,1c-0.5,0.7-0.8,1.4-1.2,2.1c-0.2,0.4-0.4,0.7-0.5,1.1
							l-0.3,0.6l-0.1,0.3l-0.1,0.1v0.1l0,0l0,0C313,154.1,313.2,153.9,312.9,154.2z"/>
					</g>
					<g>
						<path class="st0" d="M352,220.6c-5.9-2.3-25.2-15.4-35.1-29.4c-10.6-15-2.2-34.4-2.2-34.4l0,0c4-9.8,13.5-16.7,24.6-16.7
							c14.7,0,26.6,12.1,26.6,27c0,0.8,0,1.6-0.1,2.4l0,0l0,0c-0.1,0.9-0.2,1.7-0.3,2.6c-1.8,15.8,4.9,20.1,3.5,30.4
							c-1.8,13.4-9.6,19.5-15.8,18.4C352.7,220.9,352.4,220.8,352,220.6"/>
						<path class="st9" d="M351.9,220.8c-3.3-1.1-6.2-2.9-9.2-4.7c-2.9-1.8-5.8-3.8-8.5-5.9c-2.8-2.1-5.4-4.3-8-6.6s-5-4.8-7.2-7.5
							c-1.2-1.3-2.2-2.7-3.2-4.1c-0.9-1.5-2-3-2.6-4.7c-1.5-3.3-2.3-6.8-2.5-10.3s0-7,0.7-10.4c0.7-3.4,1.6-6.7,2.9-10l0.2-0.4
							l0.4,0.1l0,0l-0.6,0.3c1.3-3,3-5.7,5.2-8.1c2.2-2.4,4.7-4.4,7.6-6c5.7-3.1,12.6-4.1,19-2.6c3.2,0.7,6.3,2.1,9.1,3.9
							c2.8,1.8,5.2,4.2,7.1,7c3.8,5.4,5.8,12.3,5.2,18.9l-1.2-1.7l0,0l1.4,0.3l-0.2,1.4c-0.2,1.2-0.4,2.6-0.4,3.8
							c-0.1,1.2-0.2,2.4-0.2,3.7c0,2.5,0.2,4.9,0.6,7.3c0.5,2.4,1.2,4.8,1.9,7.3c0.7,2.5,1.2,5.2,1.1,7.9c0,0.3,0,0.7,0,1l-0.1,1
							c-0.1,0.7-0.2,1.3-0.3,2c-0.2,1.3-0.6,2.6-0.9,3.8c-0.8,2.5-1.9,5-3.4,7.2s-3.5,4.1-5.9,5.3
							C357.2,221.4,354.4,221.8,351.9,220.8l0.1-0.3c2.4,0.7,5,0.1,7.1-1.2s3.8-3.2,5-5.3c1.3-2.1,2.2-4.4,2.7-6.8
							c0.5-2.4,1-4.9,0.9-7.3c0-4.8-2.4-9.4-3.4-14.7c-0.6-2.6-0.8-5.3-0.8-7.9v-2c0-0.7,0.1-1.3,0.2-2c0.1-1.4,0.3-2.5,0.5-3.9
							l1.2,1.8l0,0l-1.3-0.3l0.1-1.3c0.5-6-1-12.1-4.4-17.1c-3.3-5-8.5-8.8-14.4-10.3c-2.9-0.8-6-1.2-9.1-0.9
							c-3.1,0.3-6.1,1.1-8.9,2.4c-2.8,1.4-5.3,3.2-7.4,5.5s-3.8,5-4.9,7.9l-0.2,0.4l-0.4-0.1l0,0l0.5-0.3c-1.2,3.1-2,6.5-2.4,9.8
							s-0.4,6.7,0,10l0.4,2.5l0.6,2.4c0.2,0.8,0.5,1.5,0.8,2.3c0.1,0.4,0.3,0.8,0.4,1.1l0.5,1.1c0.6,1.5,1.6,2.8,2.4,4.2
							c1,1.3,2,2.7,3.1,4c2.1,2.6,4.5,5,6.9,7.4s4.9,4.6,7.5,6.8s5.3,4.3,8,6.3s5.5,4,8.6,5.5L351.9,220.8z"/>
					</g>
					<g>
						<path class="st0" d="M351.4,220.6c-6.1-2.3-26.1-15.7-36.3-29.9c-11-15.2-2.3-35-2.3-35l0,0c4.1-10,14-17,25.4-17
							c15.2,0,27.5,12.3,27.5,27.5c0,0.8,0,1.7-0.1,2.5l0,0l0,0c-0.1,0.9-0.2,1.7-0.4,2.6c-1.9,16.1,5,20.5,3.6,31
							c-1.9,13.7-10,19.8-16.4,18.7C352.2,220.9,351.8,220.8,351.4,220.6"/>
						<path class="st9" d="M351.4,220.6c-3.3-1.3-6.3-3-9.3-4.9s-5.9-3.9-8.7-6c-2.8-2.1-5.6-4.3-8.2-6.7c-2.6-2.3-5.1-4.8-7.5-7.5
							c-0.6-0.7-1.2-1.3-1.7-2l-1.7-2.1c-0.5-0.7-1-1.5-1.5-2.3c-0.5-0.7-0.9-1.6-1.3-2.4c-1.6-3.3-2.7-6.8-3-10.4
							c-0.4-3.6-0.3-7.2,0.3-10.8c0.5-3.6,1.4-7,2.8-10.5l0.4-1l1.2,0.2l0,0l-1.6,0.8c1.3-3.2,3.2-6.1,5.5-8.6s5.1-4.6,8.1-6.2
							c3-1.6,6.4-2.6,9.8-2.9c3.4-0.4,6.9-0.1,10.2,0.7c3.3,0.8,6.5,2.2,9.3,4.2c2.8,1.9,5.3,4.4,7.2,7.2c3.9,5.6,5.8,12.6,5.1,19.4
							l-0.9-1.3l0,0l1.1,0.3l-0.2,1.1c-0.2,1.2-0.4,2.6-0.5,3.8c-0.2,1.2-0.2,2.5-0.2,3.8c0,2.5,0.2,5.1,0.7,7.6s1.2,5,1.9,7.5
							c0.7,2.5,1.2,5.3,1.2,8c0,0.7-0.1,1.4-0.1,2c-0.1,0.7-0.2,1.3-0.3,2c-0.2,1.3-0.6,2.6-1,3.9c-0.8,2.5-1.9,5-3.4,7.2
							s-3.5,4.1-5.9,5.3C356.7,221.1,353.8,221.6,351.4,220.6c2.5,0.8,5.2,0.2,7.4-1.1c2.2-1.3,4-3.2,5.4-5.4
							c2.7-4.3,3.9-9.6,4-14.6c0-5.1-2.5-9.8-3.6-15.1c-0.6-2.6-0.9-5.3-0.9-8c0-1.3,0-2.7,0.2-4c0.1-1.4,0.3-2.6,0.4-3.9l0.9,1.4
							l0,0l-1-0.2l0.1-1.1c0.5-6.2-1.3-12.5-4.9-17.5c-1.8-2.5-4-4.7-6.6-6.4s-5.4-3-8.4-3.7c-6-1.4-12.5-0.8-18,2
							c-2.7,1.4-5.3,3.3-7.4,5.5c-2.1,2.3-3.8,4.9-5,7.7l-0.5,1.1l-1.1-0.3l0,0l1.6-0.8c-1.3,3-2.2,6.4-2.7,9.8s-0.7,6.8-0.4,10.1
							c0.3,3.4,1.2,6.7,2.6,9.7c0.3,0.8,0.7,1.5,1.2,2.2c0.4,0.7,0.9,1.4,1.3,2.1c1,1.4,2,2.8,3.2,4.1c2.2,2.7,4.6,5.2,7.1,7.6
							c2.5,2.4,5.1,4.8,7.8,7c2.7,2.2,5.5,4.3,8.3,6.3C345.3,217.2,348.2,219.2,351.4,220.6z"/>
					</g>
					<g>
						<line class="st10" x1="365.4" y1="212.8" x2="338.7" y2="212.8"/>
						<line class="st10" x1="339.5" y1="213.4" x2="365.1" y2="213.4"/>
						<line class="st10" x1="340.3" y1="214" x2="364.7" y2="214"/>
						<line class="st10" x1="341.1" y1="214.5" x2="364.3" y2="214.5"/>
						<line class="st10" x1="341.9" y1="215.1" x2="363.9" y2="215.1"/>
						<line class="st10" x1="342.8" y1="215.7" x2="363.5" y2="215.7"/>
						<line class="st10" x1="343.6" y1="216.2" x2="363" y2="216.2"/>
						<line class="st10" x1="344.5" y1="216.8" x2="362.5" y2="216.8"/>
						<line class="st10" x1="345.4" y1="217.4" x2="362" y2="217.4"/>
						<line class="st10" x1="346.3" y1="218" x2="361.4" y2="218"/>
						<line class="st10" x1="347.3" y1="218.5" x2="360.7" y2="218.5"/>
						<line class="st10" x1="348.3" y1="219.1" x2="359.9" y2="219.1"/>
						<line class="st10" x1="349.3" y1="219.7" x2="359" y2="219.7"/>
						<line class="st10" x1="350.5" y1="220.2" x2="357.9" y2="220.2"/>
					</g>
				</g>
				<g>
					<path class="st0" d="M349.9,173.1c0,0-11.3,1.2-12.3,8.5c-1.3,9,14.5,7.9,16.2,23.8c1.6,14.6-4.1,27.2-24.6,44.8"/>
					<path class="st9" d="M349.9,173.1c-2,0.5-4,1.2-5.8,2.1c-1.8,0.9-3.4,2.2-4.4,3.7c-0.5,0.8-0.8,1.6-0.9,2.5s0.1,1.7,0.4,2.4
						c0.6,1.3,2.1,2.2,3.8,3.2c1.7,1,3.6,2.1,5.4,3.4c1.8,1.3,3.6,3,5,5.1c1.4,2,2.3,4.3,2.8,6.7c0.3,1.2,0.4,2.4,0.5,3.5
						s0.2,2.2,0.2,3.3c0.1,4.4-0.7,9-2.3,13.1c-1.6,4.2-3.9,7.9-6.6,11.3c-2.7,3.4-5.7,6.4-8.8,9.2c-1.6,1.4-3.2,2.7-4.9,4
						c-1.6,1.3-3.4,2.5-5.1,3.7c5.7-6.1,11.3-12.3,15.6-19.1c2.1-3.4,3.9-7,5-10.7s1.6-7.5,1.4-11.4c-0.1-4-0.9-7.4-2.7-10.4
						c-0.9-1.5-2.1-2.8-3.5-4c-1.4-1.3-3-2.5-4.7-3.9c-0.8-0.7-1.7-1.5-2.5-2.5s-1.5-2.2-1.7-3.6c-0.1-0.3-0.1-0.7-0.1-1s0-0.7,0-1
						c0.1-0.6,0.2-1.2,0.4-1.8c0.3-1.2,0.9-2.3,1.7-3.2c0.7-0.9,1.7-1.6,2.6-2.2c1-0.6,2-1,3-1.3
						C345.8,173.5,347.9,173.2,349.9,173.1z"/>
				</g>
				<g>
					<path class="st0" d="M332.8,248.4c6.8-5.3,22.8-21.7,22.5-39.2c-0.2-13-5.6-16.8-11.6-20.4c-2.4-1.5-8.4-3.7-5.1-10.1"/>
					<path class="st9" d="M332.7,248.4c5.2-4.8,9.7-10.1,13.8-15.8c2.1-2.8,4-5.8,5.4-9s2.4-6.6,2.7-10.1c0.2-1.7,0.2-3.5,0-5.2
						l-0.1-1.3l-0.2-1.3c-0.1-0.9-0.3-1.7-0.4-2.6c-0.4-1.7-0.9-3.3-1.6-4.8s-1.7-2.9-2.8-4.1c-2.3-2.4-5.3-4.3-8.3-6.1
						c-1.5-1-3-2.3-3.6-4.1c-0.6-1.9,0-3.7,0.9-5.2l0.1,0.1c-0.7,1.6-1,3.4-0.4,5c0.6,1.5,2,2.6,3.5,3.4l2.3,1.2
						c0.8,0.4,1.5,0.9,2.3,1.4c1.5,0.9,3,2,4.3,3.4c1.3,1.3,2.3,2.9,3.1,4.5c0.8,1.7,1.2,3.4,1.6,5.2c0.3,1.8,0.5,3.6,0.5,5.4
						c0.1,1.8-0.1,3.6-0.4,5.3c-0.6,3.5-1.7,6.9-3.1,10.2s-2.9,6.5-4.9,9.5c-1.9,3-4.2,5.7-6.7,8.3c-2.5,2.5-5.1,4.9-8.1,6.9
						L332.7,248.4z"/>
				</g>
				<g>
					<path class="st0" d="M314.8,151.8c0,0,5.5-13.4,37.8-20.2"/>
					<path class="st9" d="M314.8,151.8c0.5-1.8,1.6-3.4,2.7-4.9c1.2-1.5,2.5-2.8,4-4c2.9-2.4,6.1-4.4,9.5-5.9
						c1.7-0.8,3.5-1.4,5.2-2.1c1.8-0.6,3.6-1.1,5.4-1.6c1.8-0.4,3.6-0.8,5.5-1.1c1.8-0.2,3.7-0.4,5.5-0.5c-1.7,0.7-3.4,1.3-5.2,1.9
						c-1.7,0.6-3.4,1.3-5.1,1.9l-5,2l-2.5,1.1c-0.8,0.3-1.7,0.7-2.5,1.1c-3.3,1.5-6.4,3.2-9.4,5.1c-1.5,1-2.9,2-4.3,3.2
						C317.2,149,315.9,150.3,314.8,151.8z"/>
				</g>
				<g>
					<path class="st0" d="M314.8,149.9c0,0,8.4-19.4,42.8-12.7"/>
					<path class="st9" d="M314.8,149.9c1.6-3.7,4.5-6.8,7.8-9.1c3.3-2.3,7.2-3.8,11.1-4.7c4-1,8-1,12-0.9c2,0.2,4,0.4,6,0.7
						c2,0.4,3.9,0.8,5.9,1.3c-2-0.1-4-0.4-5.9-0.6l-5.9-0.2c-3.9,0.1-7.9,0.3-11.7,1.2c-3.8,0.8-7.5,2.2-10.8,4.2
						c-0.8,0.6-1.7,1-2.4,1.7l-1.2,0.9c-0.4,0.3-0.7,0.7-1.1,1C317.1,146.7,315.8,148.2,314.8,149.9z"/>
				</g>
			</g>
			<g>
				<g>
					<g>
						<path class="st2" d="M368.8,202.2L368.8,202.2c-2.7,13.4-9,14.6-4.4,17s33.7-3.4,44-24.7c7-14.4,6.6-26.4,6.3-31.7
							c0-0.7-0.1-1.4-0.1-2.1c-0.1-0.7-0.1-1.1-0.1-1.1l0,0c-2.1-13.9-14.1-24.6-28.6-24.6c-15.9,0-28.9,12.9-28.9,28.9
							c0,4,0.8,7.8,2.3,11.3l0,0c0,0,0.2,3.1,7.5,15.4C369.1,194.3,369.3,198.6,368.8,202.2z"/>
						<g>
							<path class="st9" d="M369.1,202.4C369.1,202.4,369,202.4,369.1,202.4L369.1,202.4c-0.4,2.2-1,4.4-1.8,6.5
								c-0.7,2.2-1.7,4.2-2.8,6.3c-0.2,0.5-0.5,1-0.7,1.5s-0.2,0.9-0.1,1s0.4,0.4,0.9,0.6c0.1,0,0.2,0.1,0.3,0.1l0.3,0.1
								c0.2,0,0.4,0.1,0.7,0.1c2,0.1,4.2-0.3,6.3-0.9c4.2-1.1,8.3-2.7,12.2-4.6c3.9-1.9,7.6-4,11-6.6c3.4-2.5,6.5-5.5,9.1-8.9
								c1.3-1.7,2.4-3.5,3.4-5.5c1-1.9,1.9-4,2.8-6c1.6-4.1,2.6-8.5,3.1-12.9c0.2-2.2,0.3-4.4,0.2-6.7c-0.1-2.2-0.2-4.5-0.6-6.6
								l1.9,0.7l0,0l-1.5,1.4l-0.4-2.1c-0.7-3.9-2.4-7.5-4.6-10.6c-2.2-3.1-5.2-5.6-8.4-7.6c-6.4-3.9-14.4-4.8-21.4-2.7
								c-7,2.1-12.9,7.2-16.2,13.7c-1.7,3.2-2.6,6.9-2.9,10.5c-0.3,3.7,0.1,7.5,1.3,11.1l1.4,4.4l-3.9-1.8l0,0l2.6-2
								c0-0.1,0-0.1,0-0.1l0,0v0.1c0,0.1,0,0.2,0.1,0.4c0,0.2,0.1,0.5,0.2,0.8c0.1,0.5,0.3,1.1,0.5,1.7c0.4,1.1,0.8,2.2,1.2,3.4
								c0.9,2.2,1.9,4.4,3,6.6c0.5,1.1,1.1,2.1,1.6,3.3s0.9,2.4,1.1,3.6c0.2,1.2,0.3,2.5,0.3,3.7c0,0.6,0,1.2,0,1.9
								C369.3,201.1,369.2,201.6,369.1,202.4z M368.6,202.1c0-0.5,0.1-1.1,0.1-1.7c0-0.6,0-1.2,0-1.8c-0.1-1.2-0.2-2.4-0.5-3.5
								s-0.7-2.3-1.3-3.3c-0.6-1-1.3-2-2-3c-1.3-2-2.7-4.1-4-6.2c-0.6-1.1-1.3-2.1-1.9-3.3c-0.3-0.6-0.6-1.1-0.9-1.7
								c-0.1-0.3-0.3-0.6-0.4-0.9c-0.1-0.2-0.1-0.3-0.2-0.5c0-0.1-0.1-0.2-0.1-0.3v-0.2c0-0.1,0-0.1,0-0.3l-0.3-2.8l2.9,0.8l0,0
								l-2.5,2.6c-2-3.9-3.2-8.3-3.2-12.8c-0.1-4.5,0.9-9,2.8-13.1c1.9-4.1,4.7-7.8,8.2-10.7c3.5-2.9,7.6-5,12-6.1
								c4.4-1.2,9-1.3,13.4-0.6c4.4,0.7,8.7,2.5,12.3,5c3.6,2.6,6.6,5.9,8.8,9.7c2.2,3.8,3.5,7.9,4,12.2l-1.9-0.7l0,0l1.7-1.4
								l0.2,2.1c0.2,2.4,0.2,4.6,0.2,6.9s-0.1,4.6-0.4,6.8c-0.5,4.6-1.3,9.1-2.6,13.5c-0.3,1.1-0.6,2.2-1,3.3s-0.7,2.2-1.2,3.3
								c-0.8,2.2-1.8,4.3-3,6.4c-2.4,4.1-5.6,7.8-9.3,10.8c-3.7,3-7.8,5.4-12.2,7.1c-4.4,1.8-9,2.9-13.6,3.3
								c-1.2,0.1-2.4,0.2-3.5,0.2c-1.2,0-2.4-0.1-3.7-0.4c-0.3-0.1-0.6-0.2-1-0.3l-0.5-0.2c-0.2-0.1-0.3-0.2-0.4-0.3
								c-0.5-0.4-1.2-0.8-1.5-1.7c-0.2-0.5-0.1-1-0.1-1.3c0.1-0.4,0.2-0.7,0.4-1c0.3-0.6,0.6-1,0.9-1.5c1.3-1.9,2.4-3.8,3.3-5.8
								c0.4-1,0.8-2.1,1.1-3.2C368,204.4,368.3,203.3,368.6,202.1L368.6,202.1L368.6,202.1z"/>
						</g>
					</g>
					<g>
						<path class="st2" d="M368.8,202.7L368.8,202.7c-2.7,13-9,14.2-4.4,16.5s33.7-3.3,44-24.1c7-14,6.6-25.7,6.3-30.9
							c0-0.7-0.1-1.4-0.1-2c-0.1-0.7-0.1-1-0.1-1l0,0c-2.1-13.6-14.1-24-28.6-24c-15.9,0-28.9,12.6-28.9,28.1c0,3.9,0.8,7.6,2.3,11
							l0,0c0,0,0.2,3,7.5,15C369.1,194.9,369.3,199.2,368.8,202.7z"/>
						<g>
							<path class="st9" d="M369,202.8C368.9,202.8,368.9,202.8,369,202.8L369,202.8c-0.9,4.3-2.6,8.5-5,12.3
								c-0.3,0.5-0.6,1-0.8,1.4c-0.2,0.5-0.4,1-0.1,1.5c0.2,0.4,0.7,0.7,1.2,1c0.2,0.1,0.5,0.2,0.7,0.3c0.3,0,0.5,0.1,0.8,0.1
								c2.2,0.2,4.4,0,6.6-0.4c4.3-0.8,8.6-2.2,12.6-3.9c4-1.8,7.9-4,11.3-6.7c1.7-1.3,3.4-2.8,4.9-4.4c1.5-1.6,2.9-3.2,4.1-5
								s2.3-3.7,3.1-5.7c0.9-2,1.7-4,2.4-6.1c1.4-4.2,2.3-8.4,2.7-12.8c0.2-2.2,0.3-4.4,0.3-6.5c0-2.2-0.1-4.4-0.4-6.5l1.8,0.7l0,0
								l-1.5,1.3l-0.3-2c-0.6-3.8-2.1-7.5-4.3-10.7c-2.1-3.2-5.1-5.9-8.3-7.9c-6.5-4.1-14.8-5.1-22.1-3.1c-3.7,1-7.2,2.7-10.2,5.1
								c-3,2.4-5.4,5.4-7.2,8.8c-1.8,3.4-2.8,7.1-3.1,11c-0.3,3.9,0.4,7.8,1.8,11.4l0.7,1.7L359,177l0,0l1-0.8
								c0,0.1,0.1,0.5,0.2,0.7c0.1,0.3,0.2,0.5,0.2,0.8c0.2,0.5,0.4,1.1,0.6,1.6c0.4,1.1,0.9,2.2,1.4,3.2c1,2.1,2.1,4.2,3.3,6.3
								c0.6,1,1.2,2,1.8,3.1c0.5,1.1,0.9,2.3,1.2,3.4C369.3,197.9,369.3,200.3,369,202.8z M368.7,202.6c0.2-2.3,0.2-4.7-0.3-7
								c-0.3-1.1-0.7-2.2-1.2-3.3c-0.6-1-1.2-2-1.9-3c-1.3-2-2.5-4.1-3.7-6.2c-0.6-1.1-1.1-2.1-1.7-3.2c-0.3-0.5-0.5-1.1-0.7-1.7
								c-0.1-0.3-0.2-0.6-0.3-0.9c-0.1-0.3-0.2-0.6-0.3-1l-0.2-1.2l1.2,0.4l0,0l-1,1c-3.6-7.5-3.6-16.7,0.2-24.3
								c1.8-3.8,4.6-7.2,7.9-9.9c3.3-2.6,7.2-4.6,11.3-5.7c8.2-2.1,17.3-0.8,24.3,3.8c3.5,2.3,6.6,5.3,8.9,8.8s3.8,7.5,4.4,11.7
								l-1.8-0.7l0,0l1.6-1.3l0.2,2c0.3,2.4,0.3,4.6,0.4,6.8c0,2.3-0.1,4.5-0.4,6.8c-0.5,4.5-1.5,8.9-3,13.2
								c-0.8,2.1-1.6,4.2-2.6,6.2c-0.9,2-2.1,4-3.4,5.9c-2.6,3.7-5.9,6.9-9.5,9.6c-3.6,2.7-7.6,4.8-11.8,6.5
								c-4.2,1.7-8.5,2.9-12.9,3.6c-2.2,0.3-4.5,0.6-6.7,0.2c-0.3,0-0.6-0.1-0.8-0.2c-0.3-0.1-0.6-0.2-0.8-0.3
								c-0.5-0.3-1-0.6-1.3-1.1c-0.3-0.6-0.1-1.2,0.1-1.7s0.5-1,0.8-1.5c1.2-1.9,2.2-3.8,3-5.9C367.6,207,368.2,204.8,368.7,202.6
								L368.7,202.6L368.7,202.6z"/>
						</g>
					</g>
					<g>
						<path class="st0" d="M369.6,203L369.6,203c-2.6,12.8-8.6,14-4.2,16.2c4.4,2.3,32.3-3.2,42.3-23.6c6.7-13.7,6.3-25.3,6.1-30.4
							c0-0.7-0.1-1.3-0.1-2c-0.1-0.7-0.1-1-0.1-1l0,0c-2-13.3-13.5-23.6-27.4-23.6c-15.3,0-27.7,12.4-27.7,27.6
							c0,3.8,0.8,7.5,2.2,10.8l0,0c0,0,0.2,3,7.2,14.7C369.8,195.4,370,199.5,369.6,203z"/>
						<g>
							<path class="st9" d="M369.6,203L369.6,203L369.6,203c-0.4,2.1-1,4.2-1.8,6.2s-1.8,3.9-2.9,5.8c-0.3,0.5-0.5,0.9-0.8,1.4
								c-0.2,0.5-0.4,1-0.2,1.5c0.2,0.4,0.7,0.8,1.1,1c0.5,0.3,1,0.4,1.5,0.5c2.1,0.3,4.3,0,6.4-0.4c8.4-1.6,16.5-5.2,23.3-10.4
								c3.4-2.6,6.4-5.7,8.8-9.3c1.2-1.8,2.2-3.7,3.1-5.6c0.9-2,1.7-4,2.4-6c1.4-4.1,2.3-8.3,2.8-12.6c0.4-4.3,0.4-8.6-0.1-12.9
								l0.3,0.1l0,0l-0.2,0.2v-0.3c-0.6-3.8-2-7.5-4.2-10.8c-2.1-3.3-5-6-8.2-8.1c-6.5-4.3-14.8-5.4-22.3-3.3
								c-3.7,1-7.2,2.9-10.2,5.3c-3,2.5-5.4,5.6-7.1,9.1c-3.4,6.9-3.7,15.3-0.7,22.5l0.2,0.5l-0.5-0.2l0,0l0.3-0.2
								c0.2,1.1,0.6,2.2,1.1,3.2c0.4,1.1,0.9,2.1,1.5,3.2c1,2.1,2.1,4.1,3.3,6.2c0.6,1,1.2,2,1.7,3.1s0.9,2.2,1.1,3.3
								C369.9,198.3,369.9,200.7,369.6,203z M369.5,203c0.3-2.3,0.2-4.7-0.3-6.9c-0.3-1.1-0.6-2.2-1.2-3.3c-0.5-1-1.2-2-1.8-3
								c-1.2-2-2.3-4-3.4-6.1c-0.5-1-1.1-2.1-1.5-3.2c-0.5-1.1-0.9-2.1-1.2-3.4l-0.1-0.4l0.4,0.1l0,0l-0.3,0.3
								c-3.2-7.2-3-15.9,0.5-23c1.7-3.6,4.2-6.8,7.2-9.3c3-2.6,6.6-4.4,10.5-5.5c7.6-2.1,16.2-0.9,22.8,3.5c3.3,2.2,6.2,5,8.3,8.3
								c2.1,3.3,3.5,7.1,4.1,11l-0.3-0.1l0,0l0.2-0.2v0.3c0.5,4.3,0.5,8.7,0,13c-0.4,4.3-1.3,8.6-2.7,12.7c-0.7,2.1-1.4,4.1-2.3,6.1
								s-1.9,3.9-3.1,5.7c-2.4,3.6-5.4,6.9-8.9,9.5c-1.7,1.3-3.5,2.6-5.4,3.7c-1.9,1.1-3.8,2.1-5.8,2.9c-4,1.7-8.2,3-12.5,3.7
								c-2.1,0.3-4.3,0.6-6.5,0.3c-0.5-0.1-1.1-0.2-1.6-0.5s-1-0.6-1.2-1.1c-0.2-0.6,0-1.2,0.2-1.6c0.2-0.5,0.5-1,0.8-1.4
								c1.1-1.8,2.1-3.7,2.9-5.8C368.5,207.2,369.1,205.1,369.5,203L369.5,203L369.5,203L369.5,203z"/>
						</g>
					</g>
					<g>
						<line class="st10" x1="365.1" y1="212.8" x2="391.3" y2="212.8"/>
						<line class="st10" x1="364.8" y1="213.4" x2="390.3" y2="213.4"/>
						<line class="st10" x1="389.1" y1="214" x2="364.5" y2="214"/>
						<line class="st10" x1="387.9" y1="214.5" x2="364.1" y2="214.5"/>
						<line class="st10" x1="386.6" y1="215.1" x2="363.8" y2="215.1"/>
						<line class="st10" x1="385.3" y1="215.7" x2="363.4" y2="215.7"/>
						<line class="st10" x1="383.8" y1="216.2" x2="363.1" y2="216.2"/>
						<line class="st10" x1="382.3" y1="216.8" x2="362.9" y2="216.8"/>
						<line class="st10" x1="380.9" y1="217.4" x2="362.8" y2="217.4"/>
						<line class="st10" x1="379" y1="218" x2="362.9" y2="218"/>
						<line class="st10" x1="376.8" y1="218.5" x2="363.4" y2="218.5"/>
						<line class="st10" x1="374.4" y1="219.1" x2="364.3" y2="219.1"/>
					</g>
				</g>
				<g>
					<path class="st9" d="M409.3,148.8c4.6,5.1,7,12.1,7,19.2s-2.4,14.1-5.9,20.2c-3.5,6.2-8.2,11.4-13.2,16.2
						c-5.1,4.8-10.8,8.9-16.8,12.4c-6.1,3.5-12.5,6.2-19.1,8.4c-3.3,1-6.7,1.9-10,2.7c-3.4,0.8-6.8,1.3-10.2,1.7
						c-3.4,0.4-6.9,0.7-10.3,0.8s-6.9,0.1-10.3,0c-6.8-0.4-13.7-1.1-20.3-2.9c6.8,0.4,13.5,0.4,20.2,0s13.3-1.2,19.9-2.5
						c6.5-1.3,13-2.9,19.2-5.2c6.2-2.2,12.3-4.9,17.9-8.2c5.7-3.2,11.1-7.1,16-11.4c4.9-4.3,9.4-9.2,13.1-14.5
						c1.8-2.7,3.3-5.6,4.6-8.5c1.2-3,2.1-6.1,2.4-9.4c0.4-3.2,0.2-6.5-0.5-9.8c-0.3-1.6-0.8-3.2-1.4-4.8
						C411,151.8,410.2,150.2,409.3,148.8z"/>
					<path class="st9" d="M409.3,148.8c3.3,4.7,5.1,10.3,5.6,16s-0.4,11.5-2.4,16.9c-2,5.4-5.1,10.3-8.7,14.8
						c-3.6,4.4-7.8,8.4-12.2,12c-9,7.1-19.3,12.5-30.2,15.9c-5.4,1.7-11,3-16.6,3.9s-11.3,1.4-17,1.5c5.7-0.4,11.3-1.1,16.9-2.2
						c5.6-1,11.1-2.5,16.4-4.3c10.7-3.6,20.8-8.9,29.6-16c4.4-3.5,8.5-7.4,12.1-11.7c1.8-2.2,3.4-4.4,4.9-6.8
						c1.4-2.4,2.8-4.9,3.8-7.5c2.1-5.2,3.1-10.8,2.7-16.5C413.9,159.2,412.3,153.6,409.3,148.8z"/>
				</g>
				<path class="st9" d="M389.1,171.6c1.9-1.2,3.9-2.1,6-2.9c2.1-0.7,4.4-1.2,6.8-1.3c2.3-0.1,4.8,0.3,7.2,1.4
					c0.6,0.3,1.2,0.6,1.7,1s1,0.8,1.5,1.2c1.1,1,1.8,2.5,2.1,4c0.5,2.9-0.3,5.4-1.3,7.6c-1,2.2-2.2,4.1-3.6,5.9
					c-2.8,3.5-6,6.7-9.7,9.2c2.3-3.8,4.7-7.4,6.7-11.1c1-1.8,2-3.7,2.6-5.6c0.7-1.8,1.1-3.7,0.8-5.1c-0.1-0.7-0.4-1.2-0.9-1.7
					l-1-0.8c-0.3-0.3-0.7-0.5-1.1-0.7c-1.5-0.9-3.4-1.4-5.4-1.6C397.8,170.5,393.5,171,389.1,171.6z"/>
				<g>
					<g>
						<path class="st2" d="M414.6,157.5c0,0-18.6,12.4-6.1,44.7C408.5,202.2,425.3,183.2,414.6,157.5z"/>
						<path class="st9" d="M414.5,157.8c0,0.2,0.2,0.1,0,0.3l-0.2,0.3c-0.2,0.2-0.3,0.4-0.4,0.6c-0.3,0.4-0.5,0.8-0.8,1.2
							c-0.3,0.4-0.5,0.8-0.8,1.3c-0.2,0.4-0.5,0.8-0.7,1.3l-0.7,1.3c-0.2,0.4-0.4,0.9-0.6,1.3c-0.4,0.8-0.7,1.7-1,2.6
							c-0.6,1.7-1.1,3.5-1.5,5.3c-0.1,0.5-0.2,0.9-0.3,1.4c-0.1,0.5-0.1,0.9-0.2,1.4c-0.2,0.9-0.4,1.8-0.5,2.8
							c-0.2,0.9-0.3,1.9-0.5,2.8l-0.3,2.9c-0.1,0.5-0.1,1-0.1,1.5v1.5c0,1,0.1,2,0.2,3c0.3,2,0.9,3.9,1.5,5.8
							c0.8,1.8,1.7,3.6,2.6,5.4l-2.8-0.5c0.9-1.5,1.8-3.3,2.5-5l1.1-2.6c0.3-0.9,0.7-1.7,1-2.6c1.3-3.5,2-7.1,2.6-10.7l0.3-1.4
							c0-0.5,0.1-0.9,0.1-1.4l0.2-1.4c0.1-0.5,0.1-0.9,0.1-1.4c0.1-1.8,0.2-3.7,0.1-5.6c-0.1-0.9,0.1-1.9-0.1-2.8
							c-0.1-0.9-0.2-1.9-0.2-2.9c0-0.5-0.1-1-0.1-1.3l-0.1-1.3C414.8,160,414.7,159,414.5,157.8z M414.6,157.3
							c0.5,0.7,1,1.5,1.7,2.5c0.6,0.9,1.3,2.1,1.6,3c0.8,1.9,1.6,3.8,2,5.9c1.1,4,1.3,8.3,0.8,12.6c-0.5,4.2-1.8,8.3-3.7,12
							c-0.5,0.9-1,1.9-1.5,2.8c-0.5,0.9-1.1,1.8-1.7,2.6c-1.2,1.7-2.6,3.2-4.2,4.7l-2.3,2.2l-0.5-2.7c-0.4-2-0.8-4.1-1.4-6
							c-0.4-2-0.9-4-1.4-6c-0.2-1-0.4-2-0.7-3l-0.4-1.5l-0.3-1.5l-0.6-3.1c-0.1-1.1-0.2-2.1-0.2-3.2c-0.1-1.1,0-2.2,0.2-3.2
							c0.1-1.1,0.3-2.1,0.6-3.2c0.5-2.1,1.4-4.1,2.5-6c0.6-0.9,1.1-1.9,1.8-2.7c0.3-0.4,0.7-0.9,1-1.3l1.1-1.2
							c0.4-0.4,0.8-0.7,1.2-1.1c0.4-0.3,0.8-0.7,1.3-1c0.4-0.3,0.9-0.6,1.4-0.8c0.2-0.1,0.5-0.3,0.7-0.4l0.4-0.2
							C414.1,157.4,414.4,157.2,414.6,157.3z"/>
					</g>
					<path class="st9" d="M414.5,157.7C414.5,157.7,414.6,157.7,414.5,157.7C414.6,157.7,414.6,157.7,414.5,157.7v0.1l-0.1,0.1
						l-0.2,0.3l-0.4,0.6c-0.3,0.4-0.5,0.8-0.8,1.2c-0.5,0.8-1,1.7-1.4,2.5c-0.9,1.7-1.6,3.5-2.2,5.3c-1.2,3.6-1.9,7.4-2.3,11.2
						c-0.5,3.8-0.8,7.7-0.4,11.6c0.4,3.9,1.3,7.7,2.6,11.4l-1.5-0.3c0.9-1.6,1.7-3.4,2.5-5.1c0.7-1.7,1.4-3.5,2-5.3
						c1.2-3.6,2-7.3,2.5-11c0.6-3.7,0.8-7.5,0.8-11.3c-0.1-1.9-0.1-3.8-0.4-5.7c-0.1-1-0.2-1.9-0.3-2.9c-0.1-0.5-0.1-0.9-0.2-1.3
						C414.6,158.7,414.6,158.2,414.5,157.7z M414.6,157.4c0.2,0.4,0.4,0.8,0.6,1.3s0.4,1.1,0.6,1.5c0.3,0.9,0.7,1.9,0.9,2.8l0.4,1.4
						l0.3,1.4c0.2,1,0.3,1.9,0.5,2.9c0.5,3.9,0.5,7.9,0.1,11.9c-0.5,4-1.6,7.8-3,11.5s-3.3,7.2-5.8,10.4l-1.1,1.4l-0.3-1.7
						c-0.8-3.9-1.4-7.8-2-11.7c-0.5-3.9-1.2-7.9-1.1-11.9c0.1-2,0.3-4,0.8-6c0.4-2,1.1-3.9,1.9-5.8c0.8-1.9,1.8-3.7,3-5.3
						c0.6-0.8,1.2-1.6,1.9-2.3c0.3-0.4,0.7-0.7,1.1-1c0.2-0.2,0.4-0.3,0.6-0.5l0.3-0.2l0.2-0.1l0.1-0.1h0.1
						C414.5,157.4,414.6,157.4,414.6,157.4z"/>
					<path class="st9" d="M408.4,202.2c1-3.6,1.8-7.3,2.4-11c0.7-3.7,1.2-7.4,1.6-11.2c0.4-3.7,0.6-7.5,1-11.2
						c0.2-1.9,0.3-3.7,0.5-5.6c0.1-0.9,0.2-1.9,0.2-2.8c0.1-0.9,0.2-1.9,0.3-2.8h0.1c0.4,3.8,0.4,7.6,0.3,11.4s-0.7,7.5-1.3,11.3
						c-1.2,7.5-2.7,14.9-5.1,22.1V202.2z"/>
					<path class="st9" d="M408.4,202.2c0-3.8,0.2-7.5,0.5-11.3s0.7-7.5,1.2-11.2s0.9-7.5,1.6-11.2s1.6-7.4,2.7-11h0.1
						c-0.1,1.9-0.4,3.8-0.6,5.6c-0.2,1.9-0.5,3.7-0.8,5.6c-0.5,3.7-1.3,7.4-1.9,11.1c-0.6,3.7-1.2,7.4-1.7,11.1
						C409,194.6,408.6,198.4,408.4,202.2L408.4,202.2L408.4,202.2z"/>
					<path class="st9" d="M414.6,157.6c-1.1,1.5-2,3.3-2.8,5s-1.4,3.6-1.9,5.4c-1.1,3.7-1.7,7.5-2,11.3l-0.2,2.9v2.9
						c0,1,0,1.9,0,2.9l0.1,2.9c0,1.9,0.2,3.8,0.3,5.7c0.2,1.9,0.3,3.8,0.4,5.8h-0.1c-0.5-1.9-0.9-3.8-1.3-5.7
						c-0.3-1.9-0.6-3.8-0.7-5.8c-0.1-1.9-0.2-3.9-0.1-5.8l0.2-2.9l0.3-2.9c0.5-3.9,1.2-7.7,2.5-11.4c0.6-1.8,1.4-3.6,2.2-5.4
						C412.4,160.8,413.3,159.1,414.6,157.6L414.6,157.6z"/>
					<path class="st9" d="M408.4,202.2c-0.4-1.9-0.7-3.8-0.9-5.7c-0.1-1.9-0.4-3.8-0.3-5.7l0.1-2.9c0-1,0.1-1.9,0.2-2.9
						c0.1-1.9,0.2-3.8,0.4-5.7c0.3-3.8,1-7.6,2.1-11.3s2.6-7.3,4.7-10.5h0.1c-1.7,3.4-3,7-4,10.7s-1.8,7.4-2.4,11.2
						s-0.7,7.6-0.4,11.4c0,0.5,0,1,0,1.4c0,0.5,0.1,0.9,0.1,1.4l0.2,2.9C408.2,198.4,408.4,200.3,408.4,202.2L408.4,202.2z"/>
					<path class="st9" d="M408.4,202.2c1.5-3.5,2.5-7.1,3.4-10.8s1.5-7.4,2-11.2c0.1-0.9,0.2-1.9,0.3-2.8c0.1-0.9,0.2-1.9,0.2-2.8
						l0.2-2.8l0.1-2.8c0.1-1.9,0-3.8,0.1-5.7c0-0.9,0-1.9-0.1-2.8v-2.8h0.1c0.2,1.9,0.4,3.8,0.5,5.7c0.1,1.9,0.2,3.8,0.1,5.7
						l-0.1,2.9l-0.2,2.8c-0.1,0.9-0.2,1.9-0.3,2.8c-0.1,0.9-0.2,1.9-0.3,2.8c-0.5,3.8-1.3,7.5-2.2,11.2
						C411.2,195.2,410.1,198.8,408.4,202.2L408.4,202.2z"/>
				</g>
				<g>
					<g>
						<path class="st2" d="M359.4,175.2c0,0,13.4,5.7,14.9,15.2c1.8,11.4-7.4,19.6-7.4,19.6s4.8-11.2,0-19.3
							C359.6,178.3,359.4,175.2,359.4,175.2z"/>
						<path class="st9" d="M359.2,174.9c0.1-0.1,0.3-0.1,0.5,0h0.2h0.4c0.2,0,0.5,0.1,0.7,0.1c0.5,0.1,1,0.2,1.4,0.3
							c0.9,0.3,1.8,0.6,2.7,0.9c1.8,0.8,3.5,1.7,5.1,2.9s3,2.6,4.2,4.4c1.2,1.8,2,3.9,2.1,6.1c0,2.1-0.3,4.1-0.8,6s-1.1,3.7-1.8,5.5
							c-0.7,1.8-1.5,3.5-2.3,5.2c-0.4,0.9-0.9,1.7-1.4,2.6c-0.5,0.9-1,1.6-1.8,2.5l-5.4,6.4l2-8.9c0.3-1.3,0.5-2.8,0.8-4.2
							c0.2-1.4,0.3-2.8,0.3-4.2s-0.1-2.7-0.3-4c-0.2-1.3-0.5-2.5-1-3.6l-0.3-0.8c-0.1-0.3-0.3-0.7-0.5-1c-0.3-0.7-0.7-1.4-1-2.1
							c-0.7-1.4-1.3-2.9-1.8-4.4s-1-3-1.4-4.6c-0.2-0.8-0.3-1.6-0.5-2.4c0-0.4-0.1-0.8-0.1-1.2c0-0.2,0-0.4,0-0.6v-0.3v-0.2v-0.1
							c0,0,0,0,0-0.1C359,175.1,359.1,175,359.2,174.9z M359.5,175.4c0.1,0,0.2-0.1,0.1-0.2l0,0v0.1l0.1,0.1l0.1,0.2l0.3,0.5
							c0.2,0.3,0.4,0.6,0.7,1c0.4,0.6,0.9,1.3,1.3,1.9l2.7,3.7l2.7,3.7l1.3,1.9c0.2,0.3,0.4,0.6,0.7,1l0.7,1.2
							c0.2,0.4,0.4,0.9,0.6,1.3c0.2,0.4,0.4,0.9,0.5,1.3c0.2,0.9,0.5,1.8,0.6,2.7c0.3,1.8,0.2,3.6,0,5.3s-0.6,3.4-1.1,5
							s-1.1,3.1-2,4.7l-3.4-2.5c0.6-0.4,1.3-0.9,2-1.5s1.3-1.2,1.9-1.8c1.2-1.3,2.1-2.8,2.8-4.4c0.4-0.8,0.6-1.7,0.8-2.5
							c0.1-0.4,0.1-0.9,0.1-1.3c0-0.2,0-0.4,0-0.6v-0.7c0-1.7-0.6-3.4-1.1-4.9c-0.6-1.4-1.3-2.6-2.1-3.9c-0.8-1.3-1.9-2.5-3-3.8
							c-1.1-1.2-2.4-2.4-3.7-3.7c-0.3-0.3-0.6-0.6-1-0.9c-0.3-0.3-0.7-0.6-1-0.9l-1-0.9c-0.2-0.2-0.3-0.3-0.5-0.5l-0.3-0.2l-0.1-0.1
							C359.4,175.6,359.5,175.5,359.5,175.4z"/>
					</g>
					<path class="st9" d="M367,209.8h-0.1c-0.1,0-0.1,0-0.1,0l0,0v-0.1l0.1-0.1l0.2-0.3l0.3-0.6l0.6-1.1c0.4-0.8,0.7-1.5,1-2.3
						c0.6-1.5,1.1-3.1,1.5-4.7c0.8-3.1,0.8-6.4,0.3-9.4c-0.6-3-2.3-6.1-4.4-8.6c-2.2-2.6-4.8-4.8-7.6-6.6l1.3-1.2
						c2,2.5,3.9,5.1,5.7,7.8c0.9,1.3,1.8,2.7,2.7,4l1.3,2.1c0.4,0.7,0.8,1.4,1.2,2.3c0.7,1.7,0.9,3.5,0.8,5.3c0,1.7-0.3,3.4-0.8,5
						c-0.4,1.6-1,3.2-1.7,4.6c-0.3,0.7-0.7,1.5-1.1,2.2l-0.6,1.1l-0.3,0.5l-0.2,0.3l-0.1,0.1v0.1l0,0
						C367.1,209.9,367,209.8,367,209.8z M366.8,210c-0.1,0-0.1-0.2,0-0.2l0,0v-0.1v-0.1l0.1-0.3l0.2-0.6l0.3-1.2
						c0.2-0.8,0.4-1.5,0.6-2.3c0.3-1.5,0.7-3.1,0.8-4.6c0.4-3,0.3-6.1-0.7-8.6c-0.3-0.5-0.7-1.2-1-1.9l-1.2-2l-2.4-4.1
						c-1.6-2.7-3.3-5.5-4.8-8.3l-0.1-0.2c-0.2-0.4-0.1-1,0.4-1.2c0.4-0.2,0.8-0.1,1.1,0.1c1.3,1.2,2.4,2.5,3.6,3.7s2.3,2.5,3.5,3.8
						c1.1,1.3,2.3,2.6,3.4,4s2.1,2.9,2.7,4.7c1.1,3.5,0.8,7.3-0.4,10.7c-0.6,1.7-1.4,3.3-2.3,4.8c-0.5,0.7-1,1.4-1.6,2.1
						c-0.3,0.3-0.6,0.7-0.9,1c-0.1,0.2-0.3,0.3-0.5,0.5l-0.2,0.2l-0.1,0.1l-0.1,0.1l0,0c0,0,0,0-0.1,0.1
						C366.9,210,366.8,210,366.8,210z"/>
					<path class="st9" d="M359.4,175.1c2.6,2.1,4.9,4.5,7.1,7.1c1,1.3,2,2.7,2.9,4.1c0.4,0.7,0.9,1.4,1.2,2.2
						c0.3,0.8,0.6,1.6,0.8,2.4c0.4,1.6,0.6,3.3,0.6,5s-0.2,3.4-0.6,5s-1,3.2-1.7,4.8c-0.7,1.5-1.7,2.9-2.7,4.2h-0.1
						c0.9-1.4,1.6-2.9,2.3-4.4c0.6-1.5,1.1-3.1,1.4-4.7c0.7-3.2,0.9-6.5,0.4-9.8c-0.1-0.8-0.3-1.6-0.6-2.4c-0.3-0.8-0.7-1.5-1.2-2.2
						c-0.9-1.4-2-2.6-3.1-3.8L359.4,175.1L359.4,175.1z"/>
					<path class="st9" d="M359.4,175.1c2.9,1.8,5.7,3.9,8.2,6.3c1.3,1.2,2.4,2.5,3.5,3.9s2,3,2.5,4.7c1.2,3.4,0.8,7.3-0.4,10.6
						c-0.6,1.7-1.4,3.2-2.4,4.7s-2,2.9-3.3,4.1l-0.1-0.1c1.8-2.9,3.4-6,4.4-9.2c0.1-0.4,0.3-0.8,0.4-1.2s0.2-0.8,0.3-1.2l0.3-1.2
						c0.1-0.4,0.1-0.8,0.2-1.2c0.2-1.6,0.1-3.3-0.4-4.9c-0.9-3.2-3.1-5.9-5.4-8.4c-2.4-2.5-5-4.7-7.8-6.7L359.4,175.1z"/>
				</g>
				<g>
					<g>
						<path class="st9" d="M383.4,159.7c0.4-0.2,0.9-0.4,1.3-0.5c0.4-0.1,0.9-0.2,1.4-0.3c1-0.2,2-0.2,2.9,0l1,0.2l-0.3,1.2
							c-0.2,0.9-0.5,1.7-0.8,2.6c-0.2,0.4-0.4,0.9-0.7,1.3c-0.3,0.4-0.6,0.9-1.3,1.4c-0.8,0.5-1.3,0.6-1.9,0.7
							c-0.5,0.1-1,0.2-1.5,0.3c-1,0.1-1.9,0.1-2.8-0.2l-2.5-0.7l0.6-1.9c0.2-0.5,0.4-0.9,0.7-1.4c0.3-0.4,0.7-0.9,1.2-1.2
							c0.4-0.4,0.9-0.7,1.4-1C382.5,160.1,382.9,159.9,383.4,159.7z M383.6,160.1c-0.3,0.3-0.6,0.6-0.7,1c-0.1,0.4-0.1,0.8,0,1.3
							c0.2,0.9,0.4,1.6,0.3,2.4l-1.8-2.6c0.7,0,1.5,0.1,2.2,0.3c0.3,0.1,0.7,0.1,1,0.2c0.3,0.1,0.6,0,0.5,0.1c0,0.1,0.3-0.1,0.5-0.3
							s0.5-0.5,0.7-0.8c0.5-0.6,0.9-1.3,1.3-1.9l0.7,1.5c-0.7-0.4-1.4-0.9-2.2-1.2c-0.4-0.2-0.8-0.3-1.2-0.2
							C384.3,159.7,383.9,159.9,383.6,160.1z"/>
						<path class="st9" d="M383.8,160.5c0.7-0.4,1.5-0.7,2.3-0.8c0.8-0.2,1.7-0.1,2.5-0.1l0.5,0.1l-0.3,0.5
							c-0.4,0.7-0.8,1.4-1.2,2.1c-0.5,0.7-0.9,1.3-1.7,1.9c-0.8,0.5-1.7,0.6-2.5,0.8c-0.8,0.1-1.6,0.2-2.4,0.2l-1.1-0.1l0.4-0.9
							c0.3-0.8,0.8-1.5,1.5-2.1C382.4,161.3,383.1,160.8,383.8,160.5z M383.9,160.6c-0.3,0.2-0.6,0.5-0.9,0.8
							c-0.2,0.3-0.4,0.7-0.6,1c-0.3,0.7-0.5,1.5-0.7,2.2l-0.7-1c0.7-0.1,1.5-0.1,2.2-0.1s1.5-0.1,2.1-0.4c0.5-0.3,1.1-0.9,1.6-1.4
							c0.5-0.6,0.9-1.2,1.4-1.8l0.3,0.6c-0.8-0.2-1.5-0.3-2.3-0.4C385.4,160,384.5,160.2,383.9,160.6z"/>
						<path class="st9" d="M384,160.8c0.7-0.4,1.4-0.7,2.2-0.8c0.8-0.2,1.6-0.2,2.3-0.2h0.3l-0.2,0.3c-0.4,0.6-0.9,1.2-1.4,1.8
							c-0.5,0.6-1,1.2-1.7,1.6c-0.7,0.4-1.5,0.6-2.2,0.8c-0.8,0.2-1.5,0.3-2.3,0.4l-0.7,0.1l0.3-0.6c0.4-0.7,0.9-1.3,1.4-1.9
							C382.7,161.7,383.3,161.2,384,160.8z M384,160.9c-0.7,0.4-1.2,0.9-1.7,1.6c-0.4,0.6-0.8,1.3-1.1,2l-0.4-0.5
							c0.7-0.1,1.5-0.2,2.2-0.3s1.5-0.3,2.1-0.6s1.2-0.9,1.7-1.4s1-1.1,1.5-1.7l0.1,0.3c-0.8-0.1-1.5-0.1-2.3,0
							C385.5,160.2,384.7,160.5,384,160.9z"/>
						<path class="st9" d="M388.8,160c0.7,1.3,1.1,2.6,1.5,4c0.1,0.7,0.2,1.5,0.2,2.4l-0.1,0.7c-0.1,0.2-0.2,0.5-0.2,0.7
							c-0.1,0.3-0.3,0.5-0.5,0.8s-0.5,0.5-0.8,0.7s-0.6,0.3-1,0.5c-0.3,0.1-0.7,0.2-1,0.2s-0.6,0-0.9,0l-0.8-0.1
							c-0.9-0.2-1.7-0.6-2.3-1.1c-1.2-1.1-2-2.4-2.2-4.2l0.3-0.3c1.8,0,3.1,0.4,4.2,0.8c0.5,0.2,1,0.4,1.3,0.7
							c0.3,0.3,0.5,0.4,0.4,0.5c-0.1,0.2,0.3,0,0.5-0.5s0.4-1.1,0.5-1.7c0.2-1.3,0.3-2.6,0.3-4L388.8,160z"/>
						<path class="st9" d="M388.3,160.5c0.4,1,0.6,2.1,0.5,3.2c-0.1,0.6-0.3,1.1-0.5,1.6s-0.4,1.1-0.9,1.4c-0.5,0.4-1.2,0.4-1.7,0.3
							c-0.6-0.1-1.1-0.3-1.6-0.6c-1-0.5-1.8-1.3-2.5-2.2v-0.1c1,0.5,1.9,1.1,2.8,1.5c0.9,0.4,1.9,0.9,2.8,0.6
							c0.4-0.2,0.8-0.6,0.9-1.1s0.1-1,0.1-1.6C388.2,162.7,388.2,161.6,388.3,160.5L388.3,160.5z"/>
						<path class="st9" d="M388.6,160c0.4,1.2,0.6,2.5,0.6,3.7c0,0.6,0,1.3-0.2,2c-0.2,0.6-0.5,1.4-1.2,1.9s-1.6,0.5-2.3,0.3
							c-0.7-0.1-1.3-0.4-1.9-0.8c-1.1-0.7-2.1-1.6-2.7-2.8l0.1-0.1c1.2,0.5,2.3,1.1,3.3,1.6c0.5,0.2,1,0.5,1.5,0.6
							c0.5,0.2,1,0.2,1.4,0.1c0.4-0.2,0.7-0.6,0.9-1.1c0.2-0.5,0.3-1.1,0.4-1.7c0.1-1.2,0.1-2.4,0-3.7H388.6z"/>
					</g>
					<g>
						<g>
							<ellipse class="st11" cx="372.1" cy="165.7" rx="2.6" ry="2.6"/>
							<circle class="st12" cx="371.7" cy="165" r="1.2"/>
						</g>
						<g>
							<ellipse class="st11" cx="395.6" cy="154.4" rx="2.6" ry="2.6"/>
							<circle class="st12" cx="395.2" cy="153.7" r="1.2"/>
						</g>
					</g>
				</g>
				<path class="st9" d="M412.3,157.5c-0.8-2.3-2-4.5-3.4-6.4c-0.7-1-1.5-1.9-2.4-2.8c-0.8-0.9-1.8-1.6-2.7-2.5
					c-3.8-3-8.2-5.1-12.8-6.5c-2.3-0.9-4.7-1.2-7.1-1.7c-1.2-0.3-2.4-0.3-3.6-0.5c-1.2-0.1-2.4-0.3-3.6-0.4l-3.7-0.2
					c-1.2,0-2.4-0.2-3.7-0.2c-2.5,0-4.9,0.1-7.4,0c2.4-0.3,4.9-0.5,7.4-0.8c2.5-0.1,4.9-0.1,7.4-0.1c1.2,0,2.5,0.2,3.7,0.3
					s2.5,0.2,3.7,0.4c2.4,0.5,4.9,0.9,7.3,1.7c2.4,0.7,4.7,1.7,6.9,2.8l3.2,1.9c1,0.8,2,1.5,3,2.3l1.3,1.3c0.4,0.4,0.9,0.8,1.3,1.4
					c0.8,1,1.6,1.9,2.2,3C410.8,152.8,411.9,155.1,412.3,157.5z"/>
				<path class="st9" d="M357.1,164.6c-0.7-2.3-0.7-4.7-0.5-7.1c0.3-2.4,0.9-4.8,1.9-7.1c1.9-4.5,5.2-8.5,9.1-11.5s8.4-5.1,12.9-6.5
					c4.6-1.3,9.3-2,14-1.8c-4.4,1.7-8.7,3.2-12.8,5.1c-4.1,1.9-8,4-11.4,6.7c-3.5,2.6-6.4,5.8-8.7,9.6c-1.1,1.9-2.1,3.8-2.8,6
					C358,160.1,357.4,162.3,357.1,164.6z"/>
			</g>
			<g>
				<path class="st11" d="M395.9,208.8v2.8c0,0.5-0.4,0.9-0.9,0.9l0,0c-0.5,0-0.9-0.4-0.9-0.9v-2.8c0-0.5,0.4-0.9,0.9-0.9l0,0
					C395.5,207.9,395.9,208.3,395.9,208.8z"/>
				<path class="st11" d="M392.2,208.8v2.8c0,0.5-0.4,0.9-0.9,0.9l0,0c-0.5,0-0.9-0.4-0.9-0.9v-2.8c0-0.5,0.4-0.9,0.9-0.9l0,0
					C391.9,207.9,392.2,208.3,392.2,208.8z"/>
				<path class="st11" d="M377.8,208.8v2.8c0,0.5-0.4,0.9-0.9,0.9l0,0c-0.5,0-0.9-0.4-0.9-0.9v-2.8c0-0.5,0.4-0.9,0.9-0.9l0,0
					C377.4,207.9,377.8,208.3,377.8,208.8z"/>
				<path class="st11" d="M374.4,208.8v2.8c0,0.5-0.4,0.9-0.9,0.9l0,0c-0.5,0-0.9-0.4-0.9-0.9v-2.8c0-0.5,0.4-0.9,0.9-0.9l0,0
					C374,207.9,374.4,208.3,374.4,208.8z"/>
			</g>
			<g>
				<g>
					<ellipse class="st11" cx="342.9" cy="166.8" rx="2.6" ry="2.6"/>
					<circle class="st12" cx="342.6" cy="166.1" r="1.2"/>
				</g>
				<g>
					<path class="st2" d="M362.4,170.4c-1.2-1.7-4.2-5.9-5.8-5.5c-2,0.4-2.6,2.6-2.6,3.5c0,2.2,0.9,3.4,1.7,3.4
						c0.6,0,4.5-0.3,6.3-0.5C362.4,171.2,362.6,170.7,362.4,170.4"/>
					<path class="st9" d="M362.2,170.5c-0.6-0.8-1.5-1.4-2.4-2s-1.6-1.2-2.1-1.9c-0.3-0.3-0.6-0.6-0.8-0.8l-0.1-0.1l0,0h-0.1
						c-0.2,0-0.4,0-0.6,0.1c-0.4,0-0.6,0.5-0.7,0.9c-0.1,0.4-0.1,0.8,0,1.2c0,0.2,0.1,0.3,0.2,0.5l0.2,0.6c0.2,0.3,0.3,0.6,0.5,0.8
						c0.1,0.1,0.2,0.1,0.2,0c0,0-0.1-0.2-0.4-0.3c-0.1,0-0.2-0.1-0.3-0.1c-0.1,0,0,0,0,0h0.1h0.4c0.2,0,0.5,0,0.7,0c1,0,2,0.1,3,0.4
						c0.5,0.1,1,0.3,1.5,0.5c0.1,0.1,0.3,0.1,0.4,0.2c0,0.1-0.1,0.2-0.1,0.3C361.8,170.8,362.1,170.8,362.2,170.5l0.4-0.3
						c0.4,0.2,0.6,0.8,0.2,1.4c-0.2,0.3-0.5,0.5-0.8,0.6c-0.1,0.1-0.2,0.1-0.4,0.2c-0.5,0.3-1,0.5-1.5,0.7c-1,0.4-2.1,0.7-3.1,0.9
						c-0.3,0-0.5,0.1-0.8,0.1h-0.4h-0.1h-0.2c-0.2,0-0.5-0.1-0.7-0.1c-0.9-0.3-1.4-0.8-1.7-1.2c-0.3-0.4-0.5-0.8-0.7-1.2
						c-0.3-0.8-0.3-1.5-0.3-2.1c0-0.3,0.1-0.7,0.1-1c0.1-0.4,0.2-0.8,0.3-1.1c0.3-0.6,0.7-1.2,1.2-1.6c0.5-0.5,1-0.7,1.5-1.2
						c0.3-0.2,0.6-0.4,0.9-0.5c0.1,0,0.1-0.1,0.3-0.1c0.1,0,0.2,0,0.4-0.1c0.3,0,0.4,0,0.7,0c0.8,0.1,1.3,0.5,1.8,0.8
						c1,0.7,1.6,1.5,2,2.6c0.4,1,0.7,2.1,1.2,2.9L362.2,170.5z"/>
				</g>
				<path class="st9" d="M362,170.8c-1.3,0-2.7-0.2-4-0.3s-2.7-0.3-4-0.5l0.4-0.5l0.2,0.6l-0.3-0.3c1.2,0.2,2.5,0.3,3.7,0.5
					s2.5,0.4,3.7,0.7c-1.3,0-2.5-0.1-3.8-0.2c-1.3-0.1-2.5-0.2-3.7-0.3H354l-0.1-0.2l-0.2-0.6l-0.2-0.5l0.6,0.1
					c1.3,0.2,2.6,0.4,3.9,0.6C359.4,170.2,360.7,170.5,362,170.8z"/>
				<path class="st9" d="M361.8,171.1c0.2,0,0.4-0.2,0.4-0.4s-0.2-0.4-0.3-0.6c-0.3-0.4-0.6-0.7-0.9-1.1c-0.7-0.7-1.3-1.4-2-2
					c-0.3-0.3-0.7-0.6-1.1-0.9c-0.4-0.2-0.8-0.4-1-0.4c-0.3,0-0.7,0.2-1,0.5c-0.3,0.2-0.5,0.6-0.7,0.9c-0.2,0.4-0.3,0.8-0.3,1.2
					c0,0.4,0.1,0.8,0.2,1.2s0.3,0.8,0.4,1c0.1,0.1,0.2,0.2,0.3,0.3h0.1c0,0,0,0,0.1,0h0.2C357.9,170.8,359.8,171.2,361.8,171.1z
					 M361.8,171.2c-1.9,0.2-3.8,0.9-5.7,1.1h-0.2c0,0-0.1,0-0.3,0c-0.2,0-0.4-0.1-0.6-0.2c-0.4-0.2-0.6-0.4-0.8-0.7
					c-0.4-0.5-0.5-1.1-0.6-1.6c-0.1-0.6-0.1-1,0-1.6s0.3-1.1,0.5-1.6c0.5-1,1.5-1.8,2.7-1.8c0.7,0,1.1,0.4,1.6,0.7
					c0.4,0.3,0.8,0.7,1.1,1c0.7,0.7,1.2,1.5,1.8,2.3l0.8,1.2c0.1,0.2,0.3,0.4,0.3,0.7C362.3,171,362,171.2,361.8,171.2z"/>
				<path class="st9" d="M354.1,168.7c0.1,0.9,0.3,1.9,0.9,2.5c0.2,0.1,0.3,0.2,0.5,0.3c0.1,0,0.4,0,0.6,0l1.4-0.2
					c0.9-0.1,1.8-0.2,2.8-0.3l0.7-0.1h0.3h0.2c0,0,0,0,0.1,0s0.1-0.1,0.1-0.1l0,0l-0.1-0.1l-0.2-0.3c-1.1-1.4-2.3-2.9-3.7-4
					c-0.4-0.2-0.8-0.5-1.1-0.4c-0.4,0.1-0.8,0.2-1.2,0.5C354.7,166.9,354.3,167.7,354.1,168.7c0-0.9,0.3-1.9,1-2.6
					c0.4-0.3,0.8-0.6,1.3-0.7c0.6-0.1,1.1,0.1,1.5,0.4c1.6,1.1,2.8,2.6,4,4l0.2,0.3l0.1,0.1c0,0,0.1,0.2,0.1,0.3
					c0.1,0.4-0.1,0.9-0.5,1c-0.1,0-0.2,0.1-0.3,0.1h-0.2H361h-0.7c-0.9,0-1.9,0.1-2.8,0.1h-1.4c-0.2,0-0.4,0.1-0.7,0
					c-0.3-0.1-0.5-0.2-0.7-0.4C354.2,170.6,354.1,169.6,354.1,168.7z"/>
			</g>
		</g>
	</g>
</g>
</svg>
