<?xml version="1.0" encoding="utf-8"?>
<!-- Generator: Adobe Illustrator 22.0.1, SVG Export Plug-In . SVG Version: 6.00 Build 0)  -->
<svg version="1.2" baseProfile="tiny" id="logoTxt" xmlns="http://www.w3.org/2000/svg" xmlns:xlink="http://www.w3.org/1999/xlink"
	 x="0px" y="0px" viewBox="0 0 566.9 56.7" xml:space="preserve">
	<g id="nao">
		<text transform="matrix(1 0 0 1 26.4304 39.2348)" fill="#FFFFFF" font-family="'Recorda-Regular'" font-size="30px">N</text>

			<text transform="matrix(0.7193 -0.6947 0.6947 0.7193 66.0987 41.8356)" fill="#00BCD0" font-family="'Recorda-Regular'" font-size="30.4019px">O</text>

			<text transform="matrix(0.7193 -0.6947 0.6947 0.7193 96.8367 41.8359)" fill="#00BCD0" font-family="'Recorda-Regular'" font-size="30.4019px">S</text>
		<text transform="matrix(1 0 0 1 118.0265 39.2346)" fill="#FFFFFF" font-family="'Recorda-Regular'" font-size="30px">A</text>

			<text transform="matrix(0.7193 0.6947 -0.6947 0.7193 146.2334 29.1648)" fill="#00BCD0" font-family="'Recorda-Regular'" font-size="30.4019px">M</text>
		<text transform="matrix(0.8361 0 0 1 181.9372 39.3679)" fill="#00BCD0" font-family="'Recorda-Regular'" font-size="30.4019px">I</text>

			<text transform="matrix(0.7193 0.6947 -0.6947 0.7193 207.7104 29.1647)" fill="#00BCD0" font-family="'Recorda-Regular'" font-size="30.4019px">S</text>
		<text transform="matrix(1 0 0 1 241.9187 39.3684)" fill="#00BCD0" font-family="'Recorda-Regular'" font-size="30.4019px">L</text>

			<text transform="matrix(0.7193 -0.6947 0.6947 0.7193 281.2673 41.8358)" fill="#00BCD0" font-family="'Recorda-Regular'" font-size="30.4019px">E</text>

			<text transform="matrix(0.7193 -0.6947 0.6947 0.7193 312.0056 41.8357)" fill="#00BCD0" font-family="'Recorda-Regular'" font-size="30.4019px">S</text>

			<text transform="matrix(0.7193 -0.6947 0.6947 0.7193 373.4829 41.8362)" fill="#00BCD0" font-family="'Recorda-Regular'" font-size="30.4019px">I</text>
		<text transform="matrix(1 0 0 1 330.3508 39.2345)" fill="#FFFFFF" font-family="'Recorda-Regular'" font-size="30px">O</text>
		<text transform="matrix(1 0 0 1 395.6101 39.3689)" fill="#00BCD0" font-family="'Recorda-Regular'" font-size="30.4019px">S</text>

			<text transform="matrix(0.7193 0.6947 -0.6947 0.7193 422.879 29.1652)" fill="#00BCD0" font-family="'Recorda-Regular'" font-size="30.4019px">E</text>

			<text transform="matrix(0.7193 0.6947 -0.6947 0.7193 453.6187 29.1653)" fill="#00BCD0" font-family="'Recorda-Regular'" font-size="30.4019px">A</text>

			<text transform="matrix(0.6293 0.7772 -0.7772 0.6293 484.4735 28.4608)" fill="#00BCD0" font-family="'Recorda-Regular'" font-size="30.402px">U</text>

			<text transform="matrix(0.7193 0.6947 -0.6947 0.7193 508.9087 29.1555)" fill="#00BCD0" font-family="'Recorda-Regular'" font-size="30px">X</text>
	</g>
</svg>
