<?xml version="1.0" encoding="utf-8"?>
<!-- Generator: Adobe Illustrator 22.0.1, SVG Export Plug-In . SVG Version: 6.00 Build 0)  -->
<svg version="1.2" baseProfile="tiny" id="Capa_1" xmlns="http://www.w3.org/2000/svg" xmlns:xlink="http://www.w3.org/1999/xlink"
	 x="0px" y="0px" viewBox="0 0 512 512" xml:space="preserve">
<g>
	<g>
		<path fill="none" d="M287.9,113.1c16.4,0,29.7-13.3,29.7-29.8c0-16.4-13.3-29.7-29.7-29.7c-1.8,0-3.5,0.2-5.2,0.5l-1.3,0.2
			c-13.3,3-23.3,14.8-23.2,29C258.1,99.8,271.5,113.1,287.9,113.1z"/>
		<path fill="none" d="M230.2,77.8h17.5c1.3-9.5,5.8-18,12.5-24.2h-42.4C224.4,59.9,228.9,68.3,230.2,77.8z"/>
		<path fill="none" d="M160.1,83.4c0,16.4,13.4,29.8,29.8,29.8c16.4,0,29.8-13.3,29.8-29.8c0-16.4-13.3-29.7-29.8-29.7
			C173.5,53.6,160.1,67,160.1,83.4z"/>
		<path fill="#FFFFFF" d="M192,42.7c-0.7-0.1-1.3-0.1-2-0.1c-22.5,0-40.8,18.3-40.8,40.8c-0.1,22.5,18.2,40.8,40.7,40.8
			c2.7,0,5.3-0.3,7.9-0.8c0.9-0.2,1.7-0.5,2.5-0.7c1.7-0.5,3.3-0.9,4.9-1.5c0.9-0.4,1.8-0.9,2.7-1.3c1.4-0.7,2.7-1.4,4-2.2
			c0.9-0.6,1.7-1.2,2.5-1.9c1.2-0.9,2.3-1.8,3.4-2.8c0.8-0.7,1.5-1.5,2.2-2.4c1-1,1.9-2.1,2.7-3.3c0.6-0.9,1.2-1.8,1.8-2.7
			c0.7-1.2,1.4-2.5,2-3.8c0.5-1,0.9-2,1.3-3.1c0.5-1.3,0.9-2.7,1.3-4.1c0.3-1.1,0.6-2.2,0.8-3.3c0.1-0.5,0.3-0.9,0.3-1.4h17.1
			c0.1,0.5,0.2,0.9,0.3,1.4c0.2,1.1,0.5,2.2,0.8,3.3c0.4,1.4,0.8,2.8,1.3,4.1c0.4,1.1,0.8,2.1,1.3,3.1c0.6,1.3,1.3,2.5,2,3.8
			c0.6,0.9,1.2,1.9,1.9,2.7c0.8,1.2,1.8,2.3,2.7,3.3c0.7,0.8,1.4,1.6,2.3,2.4c1.1,1,2.2,1.9,3.4,2.8c0.8,0.6,1.7,1.3,2.5,1.9
			c1.3,0.8,2.6,1.5,4.1,2.2c0.9,0.4,1.7,0.9,2.7,1.3c1.6,0.6,3.2,1.1,4.9,1.5c0.8,0.2,1.6,0.5,2.5,0.7c2.5,0.5,5.2,0.8,7.9,0.8
			c22.5,0,40.8-18.3,40.8-40.8c0-21.6-16.7-39.4-38.3-40.5c-0.9-0.1-1.7-0.3-2.6-0.3c-0.1,0-0.3,0-0.4,0c-0.1,0-0.2,0-0.3,0l-93.6,0
			L192,42.7z M281.4,54.4l1.3-0.2c1.7-0.3,3.4-0.5,5.2-0.5c16.4,0,29.7,13.4,29.7,29.7c0,16.4-13.3,29.8-29.7,29.8
			c-16.4,0-29.8-13.3-29.8-29.8C258.1,69.2,268.1,57.4,281.4,54.4z M260.1,53.6c-6.7,6.2-11.2,14.7-12.5,24.2h-17.5
			c-1.3-9.5-5.8-18-12.5-24.2H260.1z M219.6,83.4c0,16.4-13.3,29.8-29.8,29.8c-16.4,0-29.8-13.3-29.8-29.8
			c0-16.4,13.4-29.7,29.8-29.7C206.3,53.6,219.6,67,219.6,83.4z"/>
		<path fill="#FFFFFF" d="M277.7,132.6c-2.6-0.7-4.4-1.2-6.3-1.9c-0.8-0.3-1.5-0.7-2.3-1.1c-2.3-1.2-3.9-1.9-5.3-2.9
			c-0.8-0.6-1.6-1.1-2.3-1.7c-1.9-1.4-3.2-2.4-4.4-3.6c-0.9-0.9-1.7-1.8-2.6-2.7c-1.1-1.2-2.1-2.4-3.1-3.8c-0.8-1-1.4-2-2.1-3.1
			c-0.8-1.4-1.6-2.8-2.3-4.3c-0.5-1.1-1.1-2.3-1.5-3.5c-0.6-1.6-1-3.1-1.5-4.7c0-0.2-0.1-0.4-0.2-0.6h-8.3c-0.1,0.2-0.1,0.4-0.2,0.6
			c-0.4,1.6-0.9,3.1-1.5,4.7c-0.5,1.2-1,2.4-1.5,3.5c-0.7,1.5-1.5,2.9-2.3,4.3c-0.7,1.1-1.3,2.1-2.1,3.1c-1,1.3-2,2.6-3.1,3.8
			c-0.8,0.9-1.6,1.8-2.5,2.6c-1.3,1.2-2.5,2.2-3.8,3.2c-1.4,1-2.1,1.6-2.9,2.1c-1.5,0.9-3,1.7-4.6,2.5c-1.6,0.8-2.3,1.2-3.1,1.5
			c-1.8,0.7-3.6,1.2-5.5,1.7c-1.4,0.4-2.1,0.6-2.8,0.8c-8.6,1.7-17,0.9-24.5-1.7c10.8,25,35.6,42.5,64.5,42.5
			c29,0,53.9-17.6,64.6-42.7c-4.9,1.8-10.1,2.9-15.6,2.9c-2.9,0-5.9-0.3-9-0.9C279.1,133,278.4,132.8,277.7,132.6z"/>
		<path fill="#FFFFFF" d="M207.5,30.3h64.7c-9.7-5-20.7-7.9-32.3-7.9C228.1,22.4,217.2,25.3,207.5,30.3z"/>
		<path fill="#FFFFFF" d="M352.1,52.6c0,0-21.1-7.8-34.2-3.9c9.1,8.4,14.8,20.4,14.8,33.6c0,10.1-3.3,19.3-8.8,26.9l36.7,21.3
			c-32.2,22.7-58.6,36-81.7,57.8l2.2,0c-1.4,0.6-2.8,1.2-4.2,1.7c-28.1,24.5-38.3,88.6-38.3,88.6c-7.8-47-39.4-89.6-39.4-89.6
			c-22.8-21.9-55.5-41.2-88-64.1l38.6-17.1c-4.9-7.4-7.8-16.2-7.8-25.6c0-13.6,6-25.7,15.4-34.2c-6.7-3.6-32.2,4.4-32.2,4.4
			L20.1,92.1c-6.4,7.1-9.4,16.7-8.3,26.2c1.2,9.5,6.3,18.1,14.3,23.4c21.8,14.9,75.7,52.6,108.7,79.4c0.6,3,11.6,57.1,23.3,114.2
			c1.1,5.3,14.6,71.5,15.7,76.9c21.9,0.5,44.5,0.6,67.9,0.1c21.5-0.4,42.3-1.2,62.4-2.3c8.6-58.8,17.3-117.5,25.9-176.3
			c0,0-0.2-0.4-0.4-1.6c59.6-41.1,103.7-74.3,121.7-90.4c4.7-4.2,12.9-12,14.3-23.4c1.4-11.9-5.2-21.7-8.3-26.2
			C435.4,60,358.3,53.1,352.1,52.6z"/>
		<path fill="#FFFFFF" d="M278.9,188.5l-77.3,0.5c22.8,8.2,49,11.3,75.3,1.2c1.4-0.5,2.8-1.1,4.2-1.7L278.9,188.5z"/>
	</g>
</g>
</svg>
