<?xml version="1.0" encoding="utf-8"?>
<!-- Generator: Adobe Illustrator 22.0.1, SVG Export Plug-In . SVG Version: 6.00 Build 0)  -->
<svg version="1.2" baseProfile="tiny" id="Capa_1" xmlns="http://www.w3.org/2000/svg" xmlns:xlink="http://www.w3.org/1999/xlink"
	 x="0px" y="0px" viewBox="0 0 512 512" xml:space="preserve">
<g>
	<path fill="#FFFFFF" d="M327.1,299.7h-17.3l-6.1-5.9c21.5-25,34.4-57.4,34.4-92.7c0-78.7-63.8-142.5-142.5-142.5
		S53.1,122.4,53.1,201.1s63.8,142.5,142.5,142.5c35.3,0,67.7-12.9,92.7-34.4l5.9,6.1v17.3L403.8,442l32.7-32.7L327.1,299.7z
		 M195.6,299.7c-54.6,0-98.6-44.1-98.6-98.6s44.1-98.6,98.6-98.6s98.6,44.1,98.6,98.6S250.2,299.7,195.6,299.7z"/>
</g>
</svg>
